<svg width="124" height="109" fill="none" xmlns="http://www.w3.org/2000/svg"><g clip-path="url(#clip0)"><path d="M80.416 19.86v42.338h42.203L80.416 19.86z" fill="#F9B231"/><path d="M122.619 19.86v42.338H80.416l42.203-42.338z" fill="#F39100"/><path d="M122.619 41.106v42.337H80.416l42.203-42.337z" fill="#F9B231"/><path d="M34.837 0H0v83.444h34.837V0zM62 27.558L89.01 0H124L62 61.89V27.558z" fill="#34A9E1"/><path d="M62 27.558L34.837 0H0l62 61.89V27.558z" fill="#0190C9"/><path d="M1.381 93.296v-2h5.372l.306 2.616a4.674 4.674 0 0 1 1.842-2.001c.767-.462 1.535-.77 2.456-.77h.767c.307 0 .46 0 .614.154l-.46 2.771-1.842-.154c-.768 0-1.535.154-2.149.616-.614.462-1.074.924-1.381 1.694v10.007l2.609.462v2.001H1.38v-2.001l2.61-.462V93.912l-2.61-.616zm25.782 12.779c-.614.924-1.227 1.694-2.148 2.155-.92.462-1.842.77-2.916.77-1.842 0-3.376-.616-4.45-1.847-1.075-1.232-1.535-3.079-1.535-5.697v-7.697l-1.995-.462v-2.002h5.065v10.315c0 1.848.306 3.079.767 3.849.613.77 1.38 1.078 2.608 1.078 1.075 0 1.995-.154 2.763-.616.767-.462 1.227-1.078 1.688-2.001V93.913l-2.302-.462v-2.002h5.372v14.78l1.994.462v2.001h-4.757l-.154-2.617zm20.718-9.237H45.58l-.46-2.002c-.307-.308-.92-.615-1.381-.923-.614-.154-1.228-.308-1.995-.308-1.075 0-1.995.308-2.456.77-.614.461-.767 1.077-.767 1.847 0 .616.307 1.232.767 1.54.46.307 1.381.77 2.916 1.077 2.148.462 3.837 1.078 4.91 1.848 1.075.769 1.536 1.847 1.536 3.233 0 1.539-.614 2.771-1.842 3.695-1.228.923-2.916 1.385-4.91 1.385-1.382 0-2.456-.154-3.53-.462-1.075-.308-1.996-.769-2.763-1.385v-4.003h2.302l.614 2.309c.307.308.92.616 1.534.77.614.154 1.228.154 1.842.154 1.074 0 1.995-.154 2.609-.616.614-.462.92-1.078.92-1.847 0-.616-.306-1.232-.767-1.694-.46-.462-1.534-.77-2.915-1.231-2.149-.462-3.684-1.078-4.758-1.848-1.074-.77-1.534-1.847-1.534-3.233 0-1.386.613-2.617 1.841-3.541a7.524 7.524 0 0 1 4.604-1.54c1.381 0 2.456.154 3.53.462 1.074.308 1.841.77 2.609 1.386l-.154 4.157zm14.733 11.854c-.154-.462-.154-.923-.154-1.231 0-.308-.153-.77-.153-1.078-.614.77-1.381 1.386-2.302 2.001-.92.616-1.842.77-2.916.77-1.841 0-3.223-.462-4.143-1.385-.921-.924-1.382-2.156-1.382-3.695 0-1.694.614-2.926 1.995-3.849 1.382-.924 3.07-1.386 5.372-1.386h3.223v-2.001c0-1.078-.307-1.848-.921-2.463-.614-.616-1.535-.924-2.61-.924-.767 0-1.534.154-2.148.308a2.965 2.965 0 0 0-1.38.77l-.308 1.847h-2.455v-3.387c.767-.616 1.688-1.078 2.916-1.54 1.227-.462 2.302-.615 3.683-.615 1.995 0 3.53.461 4.757 1.539 1.228 1.078 1.842 2.463 1.842 4.31v9.546l1.227.154v2.001h-4.143v.308zm-5.064-2.309c1.074 0 1.995-.308 2.915-.77.921-.462 1.535-1.078 1.842-1.847v-2.771h-3.376c-1.228 0-2.302.307-3.07.923-.767.616-1.074 1.386-1.074 2.156 0 .769.307 1.385.767 1.693.307.308 1.075.616 1.995.616zm11.356-20.63V83.75h5.678v14.472h1.995l3.683-4.618-1.534-.154v-2.002h7.213v2.002l-2.149.462-4.604 5.388 5.525 7.082 1.995.462v2.001h-7.213v-2.001l1.535-.154-4.604-5.697H74.43v5.235l2.609.462v2.001h-8.288v-2.001l2.61-.462V86.215l-2.456-.462zm20.257 14.01c0-2.618.614-4.619 1.995-6.312 1.382-1.694 3.223-2.464 5.679-2.464 2.302 0 4.297.77 5.678 2.464 1.381 1.693 2.148 3.695 2.148 6.312v.308c0 2.617-.767 4.618-1.995 6.312-1.381 1.693-3.222 2.463-5.678 2.463-2.455 0-4.297-.77-5.678-2.463-1.381-1.694-1.995-3.695-1.995-6.312v-.308h-.154zm3.07.462c0 1.847.46 3.387 1.227 4.464.768 1.232 1.842 1.848 3.377 1.848 1.534 0 2.609-.616 3.376-1.848.767-1.231 1.228-2.771 1.228-4.464v-.308c0-1.848-.461-3.387-1.228-4.465-.767-1.232-1.842-1.847-3.376-1.847-1.535 0-2.61.615-3.377 1.847-.767 1.232-1.074 2.771-1.074 4.465v.308h-.153zm20.871-6.928l-1.995.308 3.53 9.853.307 1.231h.153l.307-1.231 3.376-9.853-2.148-.308v-2.002h6.599v2.002l-1.381.308-5.832 15.087h-2.302l-5.832-15.087-1.381-.308v-2.002h6.599v2.002z" fill="#000"/></g><defs><clipPath id="clip0"><path fill="#fff" d="M0 0h124v109H0z"/></clipPath></defs></svg>