<svg width="423" height="148" fill="none" xmlns="http://www.w3.org/2000/svg"><path d="M27.645 132.318H31.1c.712 0 1.22-.609 1.22-1.218v-4.363c0-.71-.61-1.217-1.22-1.217h-2.744c-.407 0-.813-.304-1.016-.71-.102-.203-.204-.508-.305-.711a1.077 1.077 0 0 1 .203-1.217l1.931-1.928a1.284 1.284 0 0 0 0-1.826l-3.15-3.145a1.289 1.289 0 0 0-1.83 0l-1.931 1.927c-.305.305-.711.406-1.118.203-.305-.101-.61-.203-.813-.304-.407-.203-.712-.507-.712-1.015v-2.739c0-.71-.61-1.218-1.22-1.218h-4.37c-.71 0-1.219.609-1.219 1.218v2.739c0 .406-.305.812-.711 1.015-.305.101-.509.203-.814.304a1.081 1.081 0 0 1-1.22-.203l-1.93-1.927a1.289 1.289 0 0 0-1.83 0l-3.15 3.145a1.284 1.284 0 0 0 0 1.826l1.93 1.928c.306.304.407.71.204 1.116-.102.304-.203.609-.305.812-.203.406-.508.71-1.016.71H1.22c-.712 0-1.22.609-1.22 1.217v4.363c0 .71.61 1.218 1.22 1.218h2.744c.406 0 .813.304 1.016.71.102.203.203.507.305.71.203.406.102.913-.203 1.218l-1.931 1.927a1.285 1.285 0 0 0 0 1.827l3.15 3.145a1.29 1.29 0 0 0 1.83 0l1.93-1.928c.306-.304.712-.406 1.119-.203.305.102.61.203.813.305.406.203.711.507.711 1.014v2.74c0 .71.61 1.217 1.22 1.217h4.37c.712 0 1.22-.609 1.22-1.217v-2.74c0-.406.305-.811.711-1.014.203-.102.508-.203.712-.305a1.083 1.083 0 0 1 1.22.203l1.93 1.928a1.29 1.29 0 0 0 1.83 0l3.15-3.145a1.285 1.285 0 0 0 0-1.827l-1.93-1.927c-.306-.305-.407-.711-.204-1.116.407-.711.712-1.421.712-1.522zm-17.583-4.566c.711-3.855 4.777-6.088 8.435-4.667 2.745 1.014 4.472 4.058 3.863 6.899-.712 3.856-4.777 6.088-8.436 4.667-2.744-1.014-4.37-3.957-3.862-6.899z" fill="#FFC107"/><path d="M419.751 145h-50.716c-1.423 0-2.642-1.116-2.642-2.638v-33.887a2.621 2.621 0 0 1 2.642-2.638h50.716c1.423 0 2.642 1.116 2.642 2.638v33.887c0 1.42-1.219 2.638-2.642 2.638z" fill="#ECECEC"/><path d="M419.141 105.837H416.6c1.83 0 3.252 1.42 3.252 3.246v32.67c0 1.827-1.422 3.247-3.252 3.247h2.541c1.829 0 3.252-1.42 3.252-3.247v-32.67c0-1.724-1.524-3.246-3.252-3.246z" fill="#D8D8D8"/><path d="M406.335 131.607h-29.779c0-8.218 6.708-14.813 14.839-14.813 8.13 0 14.94 6.595 14.94 14.813z" fill="#FFC107"/><path d="M381.638 139.42l16.363-16.234 15.55 16.234h-31.913z" fill="#0F9C88"/><path d="M368.425 139.42l16.363-16.234 15.449 16.234h-31.812zm35.776-23.539h5.894c.61 0 1.118.507 1.118 1.116 0 .609-.508 1.116-1.118 1.116h-.304a.91.91 0 0 0-.915.913.91.91 0 0 0 .915.914h6.301a.91.91 0 0 1 .915.913.91.91 0 0 1-.915.913h-19.311a.91.91 0 0 1-.914-.913.91.91 0 0 1 .914-.913h1.322a.91.91 0 0 0 .914-.914.91.91 0 0 0-.914-.913h-5.489a1.127 1.127 0 0 1-1.118-1.116c0-.609.509-1.116 1.118-1.116h11.587z" fill="#14D1BA"/><path d="M65.046 50.136v15.32a3.424 3.424 0 0 1-3.456 3.45h-1.626v8.32c0 .405-.508.506-.711.202l-8.842-8.522H32.117a3.424 3.424 0 0 1-3.456-3.45v-15.32a3.424 3.424 0 0 1 3.456-3.45H61.59c1.829-.102 3.455 1.522 3.455 3.45z" fill="#FFC107"/><path d="M61.184 54.194H44.211a.91.91 0 0 1-.915-.913.91.91 0 0 1 .915-.913h16.973a.91.91 0 0 1 .915.913c.101.507-.407.913-.915.913zm0 4.566H44.211a.91.91 0 0 1-.915-.914.91.91 0 0 1 .915-.913h16.973a.91.91 0 0 1 .915.913c.101.508-.407.914-.915.914zm0 4.667H50.207a.91.91 0 0 1-.914-.913.91.91 0 0 1 .914-.914h10.977a.91.91 0 0 1 .915.914c.101.507-.407.913-.915.913z" fill="#fff"/><path opacity=".3" d="M46.752 51.049H28.458v14.407a3.424 3.424 0 0 0 3.455 3.45h18.295V54.498c.101-1.927-1.525-3.45-3.456-3.45z" fill="#231F20"/><path d="M20.632 54.498v15.32a3.424 3.424 0 0 0 3.455 3.45h1.627v8.32c0 .406.508.507.711.203l8.842-8.523h10.469a3.424 3.424 0 0 0 3.455-3.45v-15.32a3.424 3.424 0 0 0-3.455-3.45H24.087a3.424 3.424 0 0 0-3.455 3.45z" fill="#14D1BA"/><path d="M43.398 57.745H26.425a.91.91 0 0 1-.915-.913.91.91 0 0 1 .915-.913h16.973a.91.91 0 0 1 .915.913c.101.507-.407.913-.915.913zm0 4.565H26.425a.91.91 0 0 1-.915-.913.91.91 0 0 1 .915-.913h16.973a.91.91 0 0 1 .915.913c.101.508-.407.914-.915.914zm0 4.668H32.421a.91.91 0 0 1-.914-.913.91.91 0 0 1 .915-.913h10.976a.91.91 0 0 1 .915.913c.101.507-.407.913-.915.913z" fill="#fff"/><path d="M159.058 139.826h-53.663l3.76-23.133h46.447l3.456 23.133z" fill="#FAFAFA"/><path d="M109.156 116.693l-2.846 17.349 51.325-3.754-2.032-13.595h-46.447z" fill="#C5C5C5"/><path d="M194.529 43.744a2.255 2.255 0 0 0-2.236-2.233H72.16a2.254 2.254 0 0 0-2.235 2.233v69.804a2.254 2.254 0 0 0 2.236 2.232h120.132c1.219 0 2.236-1.015 2.236-2.232V43.744z" fill="#373737"/><path d="M194.529 111.721v9.436c0 3.348-2.745 6.088-6.099 6.088H76.023c-3.354 0-6.098-2.74-6.098-6.088v-9.436h124.604z" fill="#fff"/><path d="M189.244 46.686H75.311v59.861h113.933V46.686z" fill="#14D1BA"/><path d="M182.536 53.89H80.8v17.45h101.736V53.89zm-72.567 24.553h-29.17v17.45h29.17v-17.45zm36.283 0h-29.169v17.45h29.169v-17.45zm36.284 0h-29.17v17.45h29.17v-17.45z" fill="#43DAC7"/><path d="M163.124 145h-62.099c-1.423 0-2.643-1.116-2.643-2.638a2.622 2.622 0 0 1 2.643-2.638h62.099c1.422 0 2.642 1.116 2.642 2.638-.102 1.42-1.22 2.638-2.642 2.638z" fill="#ECECEC"/><path opacity=".3" d="M123.181 142.565v-12.48c0-.202-.203-.405-.407-.405h-15.55l-.711 4.362-.915 5.784h-4.37c-1.423 0-2.643 1.116-2.643 2.637 0 .203 0 .406.102.609h24.291c0-.101.203-.304.203-.507z" fill="#231F20"/><path d="M123.181 132.013v12.48a.437.437 0 0 1-.407.406H45.227a.437.437 0 0 1-.406-.406v-12.48c0-.203.203-.406.406-.406h77.446c.305 0 .508.203.508.406z" fill="#FFC107"/><path d="M123.181 133.434v5.377H44.922v-5.377c0-1.015.813-1.725 1.728-1.725h74.702c1.016-.102 1.829.71 1.829 1.725z" fill="#FFDA6A"/><path d="M50.106 131.607h-.813v1.624h.813v-1.624zm3.455 0h-.813v1.624h.813v-1.624zm3.456 0h-.813v1.624h.813v-1.624zm3.455 0h-.813v1.624h.813v-1.624zm3.558 0h-.813v3.349h.813v-3.349zm3.455 0h-.813v1.624h.813v-1.624zm3.455 0h-.812v1.624h.813v-1.624zm3.456 0h-.813v1.624h.813v-1.624zm3.558 0h-.813v1.624h.813v-1.624zm3.456 0h-.814v3.349h.813v-3.349zm3.455 0h-.813v1.624h.813v-1.624zm3.455 0h-.813v1.624h.813v-1.624zm3.456 0h-.813v1.624h.813v-1.624zm3.557 0h-.813v1.624h.813v-1.624zm3.456 0h-.813v3.349h.813v-3.349zm3.455 0h-.813v1.624h.813v-1.624zm3.456 0h-.813v1.624h.813v-1.624zm3.455 0h-.813v1.624h.813v-1.624zm3.558 0h-.813v1.624h.813v-1.624zm3.455 0h-.813v3.349h.813v-3.349zm3.456 0h-.813v1.624h.813v-1.624z" fill="#404142"/><path d="M337.935 145h-91.979V35.627c0-.609.508-1.218 1.219-1.218h89.54c.61 0 1.22.508 1.22 1.218V145z" fill="#fff"/><path d="M337.935 48.208V37.555a3.164 3.164 0 0 0-3.151-3.146h-85.576a3.164 3.164 0 0 0-3.151 3.146v10.653h91.878z" fill="#14D1BA"/><path d="M325.129 58.962h-68.4V83.11h68.4V58.962z" fill="#FFC107"/><path d="M278.174 85.95h-21.343v55.296h21.343V85.951zm23.884 0h-21.343v17.452h21.343V85.951z" fill="#14D1BA"/><path d="M302.058 104.822h-21.343v17.451h21.343v-17.451z" fill="#FFC107"/><path d="M302.058 123.694h-21.343v17.451h21.343v-17.451z" fill="#14D1BA"/><path d="M325.129 85.95h-21.343v17.452h21.343V85.951z" fill="#FFC107"/><path d="M325.129 104.822h-21.343v17.451h21.343v-17.451z" fill="#14D1BA"/><path d="M325.129 123.694h-21.343v17.451h21.343v-17.451z" fill="#FFC107"/><path d="M256.729 41.309a1.82 1.82 0 0 1-1.829 1.826 1.82 1.82 0 0 1-1.83-1.826 1.82 1.82 0 0 1 1.83-1.827 1.82 1.82 0 0 1 1.829 1.827zm6.2 0a1.82 1.82 0 0 1-1.83 1.826 1.82 1.82 0 0 1-1.829-1.826 1.82 1.82 0 0 1 1.829-1.827 1.82 1.82 0 0 1 1.83 1.827zm6.098 0a1.821 1.821 0 0 1-1.83 1.826 1.82 1.82 0 0 1-1.829-1.826 1.82 1.82 0 0 1 1.829-1.827c1.016 0 1.83.812 1.83 1.827z" fill="#fff"/><path opacity=".2" d="M334.784 34.41h-4.065c1.728 0 3.15 1.42 3.15 3.145v107.344h4.066V37.555a3.164 3.164 0 0 0-3.151-3.146z" fill="#404142"/><path opacity=".3" d="M165.664 142.362a2.622 2.622 0 0 0-2.642-2.638h-4.066l-1.422-9.537-.407-2.942h31.202c3.354 0 6.098-2.74 6.098-6.088V53.078h-63.318c-.712 0-1.322.608-1.322 1.319v80.153h-7.622v4.058c4.167 4.16 9.757 6.392 15.652 6.392h25.205a2.622 2.622 0 0 0 2.642-2.638zm107.835-7.914h-7.623V54.295c0-.71-.61-1.319-1.321-1.319h-18.701V144.9h11.891c5.895 0 11.485-2.334 15.652-6.392v-4.059h.102z" fill="#231F20"/><path d="M263.335 134.854H132.938V54.295c0-.71.61-1.319 1.321-1.319h127.856c.712 0 1.322.61 1.322 1.32v80.558h-.102z" fill="#404142"/><path d="M256.627 60.383H139.646v67.876h116.981V60.383z" fill="#fff"/><path d="M158.245 68.195h-11.383v52.556h11.383V68.195zm90.76 0H226.34v16.538h22.665V68.195z" fill="#12D5A9"/><path d="M249.513 103.199h-2.541v-1.015h1.525v-.71h1.016v1.725zm-4.574 0h-2.032v-1.015h2.032v1.015zm-4.065 0h-2.033v-1.015h2.033v1.015zm-4.065 0h-2.033v-1.015h2.033v1.015zm-4.066 0h-2.033v-1.015h2.033v1.015zm-4.065 0h-2.033v-1.015h2.033v1.015zm-1.83-2.131h-1.016v-2.029h1.016v2.029zm22.665-1.623h-1.016v-2.03h1.016v2.03zm-22.665-2.435h-1.016v-2.03h1.016v2.03zm22.665-1.624h-1.016v-2.029h1.016v2.03zm-22.665-2.434h-1.016v-2.03h1.016v2.03zm22.665-1.624h-1.016v-2.03h1.016v2.03zm-22.665-2.435h-1.016v-2.03h1.016v2.03zm22.665-1.623h-1.016v-.609h-.407v-1.015h1.423v1.624zm-3.456-.508h-2.032v-1.014h2.032v1.014zm-4.065 0h-2.033v-1.014h2.033v1.014zm-4.065 0h-2.033v-1.014h2.033v1.014zm-4.066 0h-2.033v-1.014h2.033v1.014zm-4.065 0h-2.033v-1.014h2.033v1.014z" fill="#14D1BA"/><path d="M249.005 104.213H226.34v16.538h22.665v-16.538zm-78.767-36.018h-10.164v31.453h10.164V68.195z" fill="#12D5A9"/><path d="M270.958 138.507H125.315c4.167 4.159 9.757 6.392 15.652 6.392h114.339c5.895.101 11.485-2.233 15.652-6.392z" fill="#D8D8D8"/><path d="M270.958 134.448H125.315v4.059h145.643v-4.059z" fill="#ECECEC"/><path d="M207.131 137.594h-17.989c-.61 0-1.118-.508-1.118-1.116 0-.609.508-1.117 1.118-1.117h17.989c.61 0 1.118.508 1.118 1.117 0 .608-.508 1.116-1.118 1.116z" fill="#D8D8D8"/><path d="M185.686 89.197h-.813l.102-1.014h.711c.407 0 .813 0 1.22-.102l.102 1.015c-.407 0-.915.101-1.322.101zm-2.846-.405a16.135 16.135 0 0 1-2.032-.71l.406-.914a6.47 6.47 0 0 0 1.83.609l-.204 1.015zm6.302-.102l-.305-1.014c.61-.203 1.22-.406 1.829-.71l.509.913c-.712.304-1.423.507-2.033.811zm-10.164-1.623c-.609-.406-1.118-.913-1.626-1.32l.712-.71a4.49 4.49 0 0 0 1.524 1.218l-.61.812zm13.823-.406l-.61-.812c.508-.406 1.016-.811 1.423-1.319l.711.71a6.837 6.837 0 0 1-1.524 1.42zm-16.77-2.638c-.407-.609-.711-1.218-1.016-1.826l.914-.406c.305.609.61 1.116.915 1.725l-.813.507zm19.615-.507l-.914-.508a8.97 8.97 0 0 0 .813-1.724l.915.405c-.102.61-.407 1.218-.814 1.827zm-21.343-3.348a7.722 7.722 0 0 1-.305-2.131l1.017-.102c0 .61.101 1.32.305 1.928l-1.017.305zm22.868-.61l-1.016-.202c.101-.609.203-1.32.203-1.928 0-.406 0-.71-.102-1.116l1.017-.101c0 .406.101.811.101 1.217 0 .812-.101 1.522-.203 2.13zm-22.055-3.449l-1.016-.101c.102-.71.203-1.42.508-2.03l1.016.305a3.802 3.802 0 0 0-.508 1.826zm20.734-1.623c-.204-.609-.407-1.218-.712-1.826l.915-.508c.305.609.61 1.32.813 1.928l-1.016.406zm-19.616-2.03l-.914-.507a6.647 6.647 0 0 1 1.219-1.724l.813.608c-.406.508-.813 1.015-1.118 1.624zm17.888-1.42c-.407-.507-.813-1.014-1.321-1.42l.711-.71c.508.507 1.016 1.014 1.423 1.521l-.813.61zm-15.449-1.623l-.711-.812a6.672 6.672 0 0 1 1.728-1.217l.508.913c-.508.304-1.016.71-1.525 1.116zm12.603-.913c-.508-.305-1.118-.609-1.728-.913l.407-.913c.61.304 1.321.608 1.931.913l-.61.913zm-9.249-1.015l-.304-.913c.711-.203 1.321-.406 2.032-.507l.203 1.014c-.711 0-1.321.203-1.931.406zm5.692-.406c-.61-.101-1.321-.203-1.931-.203v-1.014c.711 0 1.423.101 2.134.203l-.203 1.014z" fill="#14D1BA"/><path d="M216.583 105.025h-55.289c-.61 0-1.118-.507-1.118-1.116 0-.609.508-1.116 1.118-1.116h55.289c.61 0 1.118.507 1.118 1.116 0 .609-.508 1.116-1.118 1.116zm0 5.986h-55.289c-.61 0-1.118-.507-1.118-1.116 0-.609.508-1.116 1.118-1.116h55.289c.61 0 1.118.507 1.118 1.116 0 .507-.508 1.116-1.118 1.116zm-18.497 5.885h-36.792c-.61 0-1.118-.508-1.118-1.116 0-.609.508-1.116 1.118-1.116h36.792c.61 0 1.118.507 1.118 1.116 0 .608-.508 1.116-1.118 1.116zm25.917-44.136h-23.58a1.127 1.127 0 0 1-1.118-1.115c0-.609.509-1.116 1.118-1.116h23.58c.609 0 1.118.507 1.118 1.116 0 .609-.509 1.116-1.118 1.116zm0 5.886h-23.58a1.127 1.127 0 0 1-1.118-1.116c0-.61.509-1.117 1.118-1.117h23.58c.609 0 1.118.508 1.118 1.117 0 .608-.509 1.116-1.118 1.116zm-6.302 5.884h-17.278a1.127 1.127 0 0 1-1.118-1.116c0-.609.509-1.116 1.118-1.116h17.278c.61 0 1.118.507 1.118 1.116 0 .609-.508 1.116-1.118 1.116z" fill="#12D5A9"/><path opacity=".3" d="M313.542 77.327h-.711c-.61 0-1.22.507-1.22 1.217V144.9h26.425V77.327h-24.494zm55.493 28.51c-1.423 0-2.642 1.116-2.642 2.638v33.887a2.622 2.622 0 0 0 2.642 2.638h2.744v-39.062h-2.744v-.101z" fill="#231F20"/><path d="M369.848 145h-56.204V78.544c0-.608.508-1.217 1.22-1.217h53.866c.61 0 1.22.507 1.22 1.217V145h-.102z" fill="#fff"/><path d="M369.848 85.849v-6.493a1.928 1.928 0 0 0-1.931-1.928h-52.342a1.928 1.928 0 0 0-1.931 1.928v6.493h56.204z" fill="#14D1BA"/><path d="M362.022 90.11h-42.991V145h42.991V90.11z" fill="#404142"/><path d="M320.149 81.588c0 .609-.509 1.116-1.118 1.116-.61 0-1.118-.507-1.118-1.116 0-.609.508-1.116 1.118-1.116.711 0 1.118.507 1.118 1.116zm3.76 0c0 .609-.508 1.116-1.118 1.116-.61 0-1.118-.507-1.118-1.116 0-.609.508-1.116 1.118-1.116.61 0 1.118.507 1.118 1.116zm3.761 0c0 .609-.509 1.116-1.118 1.116-.61 0-1.118-.507-1.118-1.116 0-.609.508-1.116 1.118-1.116.609 0 1.118.507 1.118 1.116z" fill="#fff"/><path opacity=".2" d="M367.917 77.327h-2.439c1.118 0 1.931.913 1.931 1.927V144.9h2.439V79.254c0-1.014-.915-1.927-1.931-1.927z" fill="#404142"/><path d="M323.198 93.662h-1.322v1.319h1.322v-1.32zm0 3.145h-1.322v1.319h1.322v-1.319zm0 3.145h-1.322v1.319h1.322v-1.319zm0 3.247h-1.322v1.319h1.322v-1.319zm0 3.145h-1.322v1.319h1.322v-1.319zm0 3.145h-1.322v1.319h1.322v-1.319zm0 3.146h-1.322v1.319h1.322v-1.319zm0 3.145h-1.322v1.319h1.322v-1.319zm0 3.247h-1.322v1.319h1.322v-1.319zm0 3.145h-1.322v1.319h1.322v-1.319zm0 3.145h-1.322v1.319h1.322v-1.319zm0 3.145h-1.322v1.319h1.322v-1.319zm0 3.145h-1.322v1.319h1.322v-1.319zm0 3.146h-1.322v1.319h1.322v-1.319zm0 3.247h-1.322v1.318h1.322V138zm0 3.145h-1.322v1.319h1.322v-1.319z" fill="#14D1BA"/><path d="M336.918 94.676h-10.57a.218.218 0 0 1-.203-.203v-.304c0-.102.102-.203.203-.203h10.57c.102 0 .203.102.203.203v.304a.218.218 0 0 1-.203.203zm0 13.291h-10.57c-.101 0-.203-.101-.203-.202v-.203c0-.102.102-.203.203-.203h10.57c.102 0 .203.101.203.203v.304s-.101.101-.203.101z" fill="#fff"/><path d="M338.341 107.967h1.931c.102 0 .204-.101.204-.202v-.203c0-.102-.102-.203-.204-.203h-1.931a.218.218 0 0 0-.203.203v.304s.102.101.203.101zm-4.167-11.464h-5.691c-.102 0-.204-.102-.204-.203v-.305c0-.101.102-.203.204-.203h5.691c.102 0 .203.102.203.203v.305c.102.101 0 .203-.203.203z" fill="#14D1BA"/><path d="M335.902 96.503h7.013c.101 0 .203-.102.203-.203v-.305c0-.101-.102-.203-.203-.203h-7.013a.218.218 0 0 0-.203.203v.305c0 .101.101.203.203.203z" fill="#fff"/><path d="M328.584 109.794h7.013a.218.218 0 0 0 .203-.203v-.304a.217.217 0 0 0-.203-.203h-7.013a.218.218 0 0 0-.203.203v.304c0 .101 0 .203.203.203z" fill="#FFC107"/><path d="M336.918 122.273h-10.57a.218.218 0 0 1-.203-.203v-.304c0-.102.102-.203.203-.203h10.57c.102 0 .203.101.203.203v.304a.217.217 0 0 1-.203.203z" fill="#fff"/><path d="M339.561 122.273h4.777a.218.218 0 0 0 .203-.203v-.304a.218.218 0 0 0-.203-.203h-4.777c-.102 0-.204.101-.204.203v.304c0 .102.102.203.204.203z" fill="#FFC107"/><path d="M328.584 124.099h3.761c.101 0 .203-.101.203-.202v-.305c0-.101-.102-.203-.203-.203h-3.761c-.101 0-.203.102-.203.203v.305c0 .101 0 .202.203.202z" fill="#14D1BA"/><path d="M326.755 130.492h5.996c.102 0 .204-.102.204-.203v-.305c0-.101-.102-.203-.204-.203h-5.996a.218.218 0 0 0-.203.203v.305c0 .101.101.203.203.203zm1.829 11.667h5.997a.218.218 0 0 0 .203-.203v-.304c0-.101-.102-.203-.203-.203h-5.997c-.101 0-.203.102-.203.203v.304c0 .102 0 .203.203.203z" fill="#FFC107"/><path d="M336.004 142.159h13.212a.217.217 0 0 0 .203-.203v-.304a.218.218 0 0 0-.203-.203h-13.212c-.102 0-.204.102-.204.203v.304c0 .102.102.203.204.203z" fill="#12D5A9"/><path d="M338.138 130.492h-3.252c-.102 0-.204-.102-.204-.203v-.305c0-.101.102-.203.204-.203h3.252c.102 0 .203.102.203.203v.305a.218.218 0 0 1-.203.203zm16.465 2.84h-25.002c-.102 0-.204-.101-.204-.203v-.304c0-.101.102-.203.204-.203h25.002c.101 0 .203.102.203.203v.304a.218.218 0 0 1-.203.203zm-18.701 2.131h-6.301c-.102 0-.204-.102-.204-.203v-.304c0-.102.102-.203.204-.203h6.301c.102 0 .203.101.203.203v.304a.218.218 0 0 1-.203.203z" fill="#fff"/><path d="M343.931 135.463h-6.403a.218.218 0 0 1-.203-.203v-.304c0-.102.101-.203.203-.203h6.403c.102 0 .203.101.203.203v.304a.218.218 0 0 1-.203.203z" fill="#12D5A9"/><path d="M359.38 135.463h-14.128c-.101 0-.203-.102-.203-.203v-.304c0-.102.102-.203.203-.203h14.128c.101 0 .203.101.203.203v.304c0 .101-.102.203-.203.203zm-11.18 2.131h-18.701a.218.218 0 0 1-.203-.203v-.305c0-.101.101-.203.203-.203H348.2c.101 0 .203.102.203.203v.305c0 .101-.102.203-.203.203zm-.509-13.495h-13.009c-.101 0-.203-.101-.203-.202v-.305c0-.101.102-.203.203-.203h13.009c.102 0 .204.102.204.203v.305c0 .101-.102.202-.204.202zm11.993 3.247h-29.169a.218.218 0 0 1-.203-.203v-.304c0-.101.102-.203.203-.203h29.169c.102 0 .204.102.204.203v.304c0 .102-.102.203-.204.203zm-29.27-27.8h10.57a.218.218 0 0 0 .203-.203v-.304c0-.101-.102-.203-.203-.203h-10.57c-.102 0-.204.102-.204.203v.304c0 .102.102.203.204.203zm0 14.103h10.57a.218.218 0 0 0 .203-.203v-.304a.218.218 0 0 0-.203-.203h-10.57c-.102 0-.204.101-.204.203v.304c0 .102.102.203.204.203zm.101 2.131h20.429c.101 0 .203-.102.203-.203v-.304a.218.218 0 0 0-.203-.203h-20.429a.218.218 0 0 0-.203.203v.304c0 .101.102.203.203.203zm26.527 0h-4.98a.218.218 0 0 1-.203-.203v-.304c0-.102.101-.203.203-.203h4.98c.102 0 .203.101.203.203v.304a.218.218 0 0 1-.203.203z" fill="#fff"/><path d="M330.515 117.911h5.082a.218.218 0 0 0 .203-.203v-.305a.218.218 0 0 0-.203-.203h-5.082c-.101 0-.203.102-.203.203v.305c0 .101.102.203.203.203z" fill="#14D1BA"/><path d="M337.325 117.911h6.606a.218.218 0 0 0 .203-.203v-.305a.218.218 0 0 0-.203-.203h-6.606a.218.218 0 0 0-.203.203v.305c0 .101.101.203.203.203zm11.18-4.262h-6.098c-.102 0-.204-.101-.204-.203v-.304c0-.102.102-.203.204-.203h6.098c.101 0 .203.101.203.203v.304a.218.218 0 0 1-.203.203zm1.422 0h2.643a.217.217 0 0 0 .203-.203v-.304a.217.217 0 0 0-.203-.203h-2.643a.218.218 0 0 0-.203.203v.304c0 .102.102.203.203.203z" fill="#fff"/><path d="M359.989 113.649h-5.488a.217.217 0 0 1-.203-.203v-.304c0-.102.101-.203.203-.203h5.488c.102 0 .204.101.204.203v.304c0 .102-.102.203-.204.203z" fill="#FFC107"/><path d="M330.414 101.677h19.005c.102 0 .204-.101.204-.203v-.304c0-.102-.102-.203-.204-.203h-19.005c-.102 0-.204.101-.204.203v.304c0 .102.102.203.204.203zm31.201 0h-10.366c-.102 0-.204-.101-.204-.203v-.304c0-.102.102-.203.204-.203h10.366c.102 0 .204.101.204.203v.304c.101.102 0 .203-.204.203z" fill="#fff"/><path d="M344.338 99.546h-1.626c-.102 0-.204-.101-.204-.203v-.304c0-.101.102-.203.204-.203h1.524c.102 0 .203.102.203.203v.304c.102.102 0 .203-.101.203z" fill="#FFC107"/><path d="M346.167 99.546h12.095a.218.218 0 0 0 .203-.203v-.304c0-.101-.102-.203-.203-.203h-12.095a.218.218 0 0 0-.203.203v.304c0 .102.101.203.203.203zm-15.753 3.957h6.504c.102 0 .204-.101.204-.203v-.304c0-.102-.102-.203-.204-.203h-6.504c-.102 0-.204.101-.204.203v.304c0 .102.102.203.204.203z" fill="#fff"/><path d="M346.777 103.503h-7.928a.218.218 0 0 1-.203-.203v-.304c0-.102.102-.203.203-.203h7.928c.101 0 .203.101.203.203v.304c0 .102 0 .203-.203.203z" fill="#FFC107"/><path d="M348.403 103.503h11.281c.102 0 .204-.101.204-.203v-.304c0-.102-.102-.203-.204-.203h-11.281a.217.217 0 0 0-.203.203v.304c0 .102.101.203.203.203z" fill="#fff"/><path opacity=".3" d="M149.098 144.188V99.14a.801.801 0 0 0-.813-.811H133.04v36.119h-7.623v4.059c4.167 4.159 9.757 6.391 15.652 6.391h7.216c.406.102.813-.304.813-.71z" fill="#231F20"/><path opacity=".3" d="M144.219 98.329h-25.713a.801.801 0 0 0-.813.811v45.048a.8.8 0 0 0 .813.812h25.713a.801.801 0 0 0 .814-.812V99.14c0-.507-.407-.811-.814-.811z" fill="#231F20"/><path d="M146.252 145h-25.713a.8.8 0 0 1-.813-.812V99.14a.8.8 0 0 1 .813-.811h25.713a.8.8 0 0 1 .813.811v45.048c0 .406-.406.812-.813.812z" fill="#404142"/><path d="M144.524 105.532h-22.258v32.163h22.258v-32.163z" fill="#14D1BA"/><path d="M141.475 107.156h-16.261v8.725h16.261v-8.725zm-9.147 11.566h-7.114v16.639h7.114v-16.639zm9.147 0h-7.114v16.639h7.114v-16.639z" fill="#43DAC7"/><path d="M135.377 140.739a2.036 2.036 0 0 1-2.032 2.029 2.037 2.037 0 0 1-2.033-2.029c0-1.116.915-2.03 2.033-2.03 1.118 0 2.032.914 2.032 2.03zm1.931-38.555h-8.13c-.305 0-.61-.304-.61-.609 0-.304.305-.608.61-.608h8.13c.305 0 .61.304.61.608 0 .406-.305.609-.61.609z" fill="#231F20"/><path d="M232.403 23.63c1.616-6.874-2.656-13.753-9.541-15.367-6.885-1.613-13.777 2.651-15.393 9.524-1.616 6.873 2.656 13.753 9.541 15.366 6.885 1.614 13.776-2.65 15.393-9.523z" fill="#FFC107"/><path d="M226.95 29.844h-14.026v9.74h14.026v-9.74z" fill="#FFC107"/><path d="M227.865 40.192l-4.675 3.856h-6.912l-4.268-3.856v-6.189h15.855v6.19z" fill="#9E9E9E"/><path d="M227.966 35.83h-16.058c-.305 0-.508-.203-.508-.508v-.101c0-.304.203-.507.508-.507h16.058c.305 0 .508.203.508.507v.102c0 .202-.203.507-.508.507zm0 1.928h-16.058c-.305 0-.508-.204-.508-.508v-.101c0-.305.203-.508.508-.508h16.058c.305 0 .508.203.508.508v.101c0 .203-.203.508-.508.508zm0 1.927h-16.058c-.305 0-.508-.203-.508-.507v-.102c0-.304.203-.507.508-.507h16.058c.305 0 .508.203.508.507v.102c0 .304-.203.507-.508.507z" fill="#C5C5C5"/><path d="M221.055 46.179h-2.846c-1.219 0-2.134-1.015-2.134-2.131v-.101h7.216v.101c0 1.218-1.016 2.13-2.236 2.13z" fill="#212121"/><path d="M229.133 22.847c1.194-5.073-1.957-10.152-7.039-11.345-5.082-1.192-10.17 1.954-11.364 7.027-1.195 5.073 1.957 10.152 7.038 11.345 5.082 1.192 10.17-1.954 11.365-7.027z" fill="#FFE836"/><path d="M225.629 20.712a5.677 5.677 0 0 1-5.692 5.682 5.677 5.677 0 0 1-5.691-5.682 5.677 5.677 0 0 1 5.691-5.681 5.677 5.677 0 0 1 5.692 5.681z" fill="#FFF186"/><path d="M233.353 17.567c-.203 0-.407-.101-.407-.304-.101-.203.102-.508.305-.508l2.135-.608c.203-.102.508.101.508.304.101.203-.102.507-.305.507l-2.134.61h-.102zm-3.557-6.189c-.102 0-.204 0-.305-.101-.203-.203-.203-.508 0-.61l1.626-1.623c.203-.202.508-.202.61 0 .203.203.203.508 0 .61l-1.626 1.623c-.102 0-.204.101-.305.101zm-6.302-3.653h-.101c-.204-.101-.407-.304-.305-.507l.61-2.13c.101-.203.305-.406.508-.305.203.102.406.305.305.507l-.61 2.131c0 .203-.203.304-.407.304zm-7.114 0c-.203 0-.406-.101-.406-.304l-.61-2.13c-.102-.203.101-.508.305-.508.203-.101.508.102.508.305l.61 2.13c.101.203-.102.507-.305.507h-.102zm-6.301 3.653c-.102 0-.204 0-.305-.101l-1.626-1.624c-.204-.203-.204-.507 0-.609.203-.202.508-.202.609 0l1.627 1.624c.203.203.203.507 0 .609 0 0-.204.101-.305.101zm-3.558 6.189h-.101l-2.134-.609c-.204-.101-.407-.304-.305-.507.101-.203.305-.406.508-.304l2.134.608c.203.102.407.305.305.508 0 .203-.203.304-.407.304zm-2.134 7.711c-.203 0-.406-.101-.406-.304-.102-.203.101-.508.305-.508l2.134-.608c.203-.102.508.101.508.304.102.203-.102.507-.305.507l-2.134.609h-.102zm4.167 7.305c-.102 0-.203 0-.305-.102-.203-.202-.203-.507 0-.608l1.626-1.624c.204-.202.508-.202.61 0 .203.203.203.508 0 .61l-1.626 1.622c-.102 0-.203.102-.305.102zm22.766 0c-.101 0-.203 0-.305-.102l-1.626-1.623c-.203-.203-.203-.507 0-.609.204-.202.508-.202.61 0l1.626 1.624c.204.203.204.507 0 .608-.101 0-.203.102-.305.102zm4.167-7.203h-.101l-2.135-.61c-.203-.1-.406-.304-.305-.506.102-.203.305-.406.509-.305l2.134.609c.203.101.406.304.305.507 0 .102-.203.305-.407.305zm3.354-5.885c-.203-.203-.508-.203-.61 0-.203.203-.203.507 0 .609l.102.101h-4.472a.437.437 0 0 0-.406.406c0 .203.203.406.406.406h4.472l-.102.101c-.203.203-.203.508 0 .609.102.101.204.101.305.101.102 0 .204 0 .305-.101l1.22-1.218-1.22-1.014zm-3.252-9.335c-.203-.1-.508.102-.508.305-.102.203.101.507.305.507h.203l-3.862 2.232a.486.486 0 0 0-.203.61c.101.202.406.303.609.202l3.862-2.232v.203c-.101.203.102.507.305.507h.305c.102-.101.204-.203.204-.304l.406-1.725-1.626-.304zm-7.318-6.391c-.305 0-.406.304-.406.507.101.203.305.406.508.304h.203l-2.236 3.856a.489.489 0 0 0 .203.609c.204.101.509 0 .61-.203l2.236-3.856v.203c.102.203.305.406.508.304.102 0 .204-.101.305-.202.102-.102.102-.203 0-.305l-.305-1.725-1.626.508zm-9.655-1.929c-.203.204-.203.508 0 .61.203.203.508.203.61 0l.102-.102v4.464c0 .203.203.406.406.406s.407-.203.407-.406V2.348l.101.102c.204.203.508.203.61 0 .102-.102.102-.203.102-.305 0-.101 0-.203-.102-.304l-1.22-1.218-1.016 1.218zm-9.35 3.248c-.102.202.101.507.304.507.204.101.509-.102.509-.305v-.202l2.236 3.855c.101.203.406.304.609.203a.488.488 0 0 0 .204-.609l-2.236-3.855h.203c.203.101.508-.102.508-.305v-.304c-.101-.102-.203-.203-.305-.203l-1.728-.406-.304 1.624zm-6.403 7.406c.101.203.304.406.609.304.204-.101.407-.304.305-.608v-.203l3.862 2.232c.204.101.509 0 .61-.203.102-.203 0-.507-.203-.609l-3.862-2.13h.203c.203-.102.407-.305.305-.61 0-.1-.102-.202-.203-.304-.102-.101-.204-.101-.305 0l-1.626.508.305 1.623zm-1.83 9.639c.203.203.508.203.61 0 .203-.203.203-.508 0-.609l-.102-.102 4.472-.101c.204 0 .407-.203.407-.507 0-.203-.203-.406-.508-.406l-4.472.101.101-.101c.204-.203.204-.507 0-.609-.101-.101-.203-.101-.305-.101-.101 0-.203 0-.304.101l-1.22 1.218 1.321 1.116zm3.354 9.233c.203.101.508-.102.508-.305.102-.203-.101-.507-.305-.507h-.203l3.862-2.334a.486.486 0 0 0 .203-.608.487.487 0 0 0-.609-.203l-3.862 2.232v-.203c.101-.203-.102-.507-.305-.507h-.305c-.102.101-.203.203-.203.304l-.407 1.725 1.626.406zm32.726-2.639c-.101-.202-.305-.405-.609-.304-.204.102-.407.305-.305.609v.203l-3.964-2.13a.49.49 0 0 0-.61.202c-.102.203 0 .507.203.609l3.862 2.13h-.203c-.203.102-.406.305-.305.61 0 .1.102.202.204.304.101.101.203.101.304 0l1.627-.508-.204-1.725z" fill="#14D1BA"/><path d="M359.583 39.787v4.16m5.285-1.218l-.813 1.928m6.606-.913l-2.642 3.246m4.471 2.537l-1.524.913m5.691 3.551l-4.167.71m2.033 4.972l-2.033-.406m2.033 6.29l-3.557-2.029m-1.626 5.073l-1.321-1.623m-2.44 6.189l-1.524-3.856m-4.472 2.841v-2.029m-5.895 3.044l1.423-3.856m-5.285-.71l1.423-1.522m-6.606-1.42l3.658-2.13m-3.658-3.856l2.032-.406m-4.065-5.174l4.065.71m-.203-5.276l1.728 1.014m.203-6.696l2.744 3.145m3.151-4.261l.813 2.03" stroke="#414042" stroke-miterlimit="10" stroke-linecap="round"/><path d="M359.583 66.674c5.613 0 10.163-4.543 10.163-10.146 0-5.604-4.55-10.146-10.163-10.146s-10.164 4.542-10.164 10.146c0 5.603 4.551 10.146 10.164 10.146z" fill="#14D1BA"/><path d="M357.957 61.5l-4.371-4.262 2.541-2.537 1.83 1.928 5.081-5.174 2.541 2.435-7.622 7.61z" fill="#fff"/><path d="M378.385 128.259l-4.167-2.131h-.305l-4.065 2.233c-.203.101-.407-.102-.407-.305l.712-4.565c0-.102 0-.203-.102-.203l-3.354-3.247c-.203-.203-.101-.406.102-.507l4.573-.711c.102 0 .204-.101.204-.202l2.032-4.16c.102-.203.407-.203.509 0l2.134 4.16c0 .101.102.101.203.101l4.675.609c.204 0 .305.304.204.507l-3.253 3.348c-.101.102-.101.203-.101.203l.813 4.566c0 .203-.204.406-.407.304z" fill="#14D1BA"/><path d="M387.736 122.172c0-7.61-6.2-13.799-13.823-13.799-7.622 0-13.822 6.189-13.822 13.799 0 2.536.711 4.87 1.829 6.797L374.117 145l11.789-16.031c1.22-2.029 1.83-4.362 1.83-6.797zm-13.721 9.334c-5.183 0-9.452-4.261-9.452-9.436 0-5.174 4.269-9.436 9.452-9.436s9.452 4.262 9.452 9.436c-.102 5.175-4.269 9.436-9.452 9.436z" fill="#FFC107"/><path d="M384.89 122.07c0-5.986-4.879-10.957-10.977-10.957-5.996 0-10.976 4.87-10.976 10.957 0 5.986 4.878 10.958 10.976 10.958 6.098 0 10.977-4.87 10.977-10.958zm-10.875 9.436c-5.183 0-9.452-4.261-9.452-9.436 0-5.174 4.269-9.436 9.452-9.436s9.452 4.262 9.452 9.436c-.102 5.175-4.269 9.436-9.452 9.436z" fill="#FFA000"/><path opacity=".3" d="M58.542 131.607H45.43a.437.437 0 0 0-.407.406v12.683c6.708-1.015 12.196-6.291 13.518-13.089z" fill="#231F20"/><path opacity=".3" d="M29.17 136.883l-1.932-1.927c-.305-.305-.406-.711-.203-1.116.305-.609.61-1.421.61-1.522H31.1c.712 0 1.22-.609 1.22-1.218v-4.363c0-.71-.61-1.217-1.22-1.217h-2.744c-.406 0-.813-.305-1.016-.71-.102-.203-.203-.508-.305-.711a1.077 1.077 0 0 1 .203-1.217l1.931-1.928a1.284 1.284 0 0 0 0-1.826l-2.337-2.334c-2.643 2.537-4.37 5.885-4.879 9.74.508 1.117.712 2.334.407 3.552l-.305 1.217c.61 3.754 2.439 7.001 5.183 9.436l2.033-2.029c.406-.508.406-1.319-.102-1.827z" fill="#14D1BA"/><path d="M34.86 102.489a2.73 2.73 0 0 0-2.744-2.74H20.632c-.915 0-1.627-.71-1.627-1.623s.712-1.624 1.627-1.624h3.455c.915 0 1.626-.71 1.626-1.623s-.711-1.623-1.626-1.623H13.62c-.915 0-1.728-.71-1.728-1.725 0-.913.712-1.725 1.728-1.725h44.72c.914 0 1.727.71 1.727 1.725 0 .913-.712 1.725-1.728 1.725h-5.996c-.915 0-1.627.71-1.627 1.623s.712 1.623 1.627 1.623H64.03c.914 0 1.626.71 1.626 1.624 0 .913-.712 1.623-1.626 1.623H46.65a2.73 2.73 0 0 0-2.744 2.74h-9.045z" fill="#14D1BA"/><path d="M44.617 112.736v-5.986h1.728c.712 0 1.22-.507 1.22-1.218v-2.739c0-.71-.508-1.218-1.22-1.218H33.133c-.712 0-1.22.508-1.22 1.218v2.739c0 .711.508 1.218 1.22 1.218h1.727v5.986c-7.317 2.232-12.5 9.537-11.484 17.857.915 7.406 7.013 13.392 14.432 14.306 9.96 1.116 18.396-6.595 18.396-16.335.101-7.407-4.777-13.697-11.587-15.828z" fill="#E4E4E4"/><path d="M49.165 138.029c5.2-5.191 5.2-13.606 0-18.797-5.2-5.19-13.63-5.19-18.83 0-5.199 5.191-5.199 13.606 0 18.797 5.2 5.19 13.63 5.19 18.83 0z" fill="#14D1BA"/><path d="M39.739 117.2c-6.301 0-11.383 5.073-11.383 11.364 0 6.29 5.082 11.363 11.383 11.363 6.301 0 11.383-5.073 11.383-11.363 0-6.189-5.082-11.364-11.383-11.364zm-9.757 12.277h2.846c0 1.116.203 2.232.406 3.348h-2.337c-.508-1.015-.813-2.131-.915-3.348zm10.57-6.697v-3.855c.813.101 1.626.203 2.338.507.61 1.015 1.118 2.131 1.423 3.348h-3.76zm4.167 1.624c.203 1.116.407 2.232.407 3.348H40.45v-3.348h4.268zm-5.793-1.624h-3.557c.406-1.217.914-2.435 1.524-3.449.61-.203 1.322-.305 2.033-.406v3.855zm0 1.624v3.348h-4.37c0-1.116.203-2.334.406-3.348h3.964zm-6.098 3.449h-2.846c.102-1.217.407-2.333.915-3.348h2.337c-.203 1.015-.305 2.131-.406 3.348zm1.728 1.624h4.37v3.348h-3.964c-.305-1.116-.406-2.232-.406-3.348zm4.37 4.971v3.856c-.712-.102-1.321-.203-1.931-.406-.61-1.015-1.118-2.232-1.525-3.45h3.456zm1.626 0h3.76a16.784 16.784 0 0 1-1.524 3.348c-.711.203-1.524.406-2.337.508v-3.856h.101zm0-1.623v-3.348h4.574c0 1.116-.204 2.333-.407 3.348h-4.167zm6.301-3.348h2.643c-.102 1.217-.407 2.333-.915 3.348h-2.033l.305-3.348zm0-1.624c0-1.116-.203-2.232-.406-3.348h2.033c.508 1.015.813 2.131.914 3.348h-2.54zm.61-5.073H46.04c-.203-.71-.406-1.42-.711-2.13a10.632 10.632 0 0 1 2.134 2.13zm-13.009-2.333c-.305.71-.61 1.522-.813 2.333h-1.728c.712-.913 1.525-1.724 2.541-2.333zm-2.54 14.001h1.727c.203.812.508 1.624.813 2.334-1.016-.507-1.83-1.319-2.54-2.334zm13.415 2.131c.305-.71.508-1.421.711-2.131h1.423c-.61.812-1.321 1.624-2.134 2.131z" fill="#72E3D5"/><path d="M44.922 105.228v-2.334c0-.304-.101-.507-.203-.71H32.218c-.102.203-.305.406-.305.71v2.74c0 .609.407 1.014 1.016 1.116H43.5c.813 0 1.423-.71 1.423-1.522z" fill="#F5F5F5"/><path d="M65.35 93.053h-2.337c-.914 0-1.524-.71-1.524-1.522 0-.913.711-1.522 1.524-1.522h2.338c.915 0 1.524.71 1.524 1.522s-.711 1.522-1.524 1.522zM15.652 99.85h-2.338c-.915 0-1.524-.71-1.524-1.521 0-.913.711-1.522 1.524-1.522h2.338c.914 0 1.524.71 1.524 1.522.102.811-.61 1.522-1.524 1.522z" fill="#14D1BA"/><path d="M233.861 140.333c-4.878 4.16-12.196 3.45-16.363-1.421-4.167-4.87-3.456-12.175 1.423-16.334 4.878-4.16 12.196-3.45 16.363 1.42 4.065 4.971 3.455 12.277-1.423 16.335z" fill="#FFC107"/><path d="M224.104 124.099l.508.609-3.049 2.537c-1.219 1.014-2.134.71-2.744-.102-.203-.203-.406-.507-.406-.71l.609-.305.305.609c.407.508.915.609 1.83-.101l2.947-2.537zm-1.22 4.972l-1.829.71-.508-.609 5.895-2.333.609.71-3.252 5.479-.508-.609 1.016-1.725-1.423-1.623zm1.728 1.116l.915-1.522.61-.913c-.305.203-.712.304-1.017.507l-1.727.71 1.219 1.218zm.305 4.16l3.354-5.378.508.609-1.626 2.638c-.406.71-.915 1.319-1.321 1.928.61-.305 1.423-.609 2.134-.913l2.948-1.117.508.609-5.997 2.232-.508-.608zm4.066 1.927l-1.83.711-.508-.609 5.895-2.334.61.71-3.253 5.479-.508-.609 1.016-1.724-1.422-1.624zm1.727 1.116l.915-1.522.61-.913c-.305.203-.712.305-1.016.508l-1.728.71 1.219 1.217z" fill="#fff"/></svg>