<svg width="380" height="141" fill="none" xmlns="http://www.w3.org/2000/svg"><path d="M346.25 141h-25.002c-2.338 0-4.269-1.928-4.269-4.261v-25.061c0-2.333 1.931-4.261 4.269-4.261h25.002c2.337 0 4.268 1.928 4.268 4.261v24.959c0 2.435-1.931 4.363-4.268 4.363z" fill="#ECECEC"/><path d="M345.538 107.519h-23.681a4.875 4.875 0 0 0-4.878 4.87v5.174h33.539v-5.174c0-2.74-2.236-4.87-4.98-4.87z" fill="#14D1BA"/><path d="M324.601 112.186a2.514 2.514 0 0 1-2.54 2.536 2.514 2.514 0 0 1-2.541-2.536 2.514 2.514 0 0 1 2.541-2.537 2.514 2.514 0 0 1 2.54 2.537z" fill="#14D1BA"/><path d="M322.061 113.91c.954 0 1.728-.772 1.728-1.725 0-.952-.774-1.724-1.728-1.724s-1.728.772-1.728 1.724c0 .953.774 1.725 1.728 1.725zm17.989-1.724a2.514 2.514 0 0 1-2.541 2.536 2.514 2.514 0 0 1-2.541-2.536 2.514 2.514 0 0 1 2.541-2.537 2.514 2.514 0 0 1 2.541 2.537z" fill="#0F9C88"/><path d="M337.509 113.91c.954 0 1.728-.772 1.728-1.725 0-.952-.774-1.724-1.728-1.724s-1.728.772-1.728 1.724c0 .953.774 1.725 1.728 1.725z" fill="#0A6960"/><path d="M337.408 112.795a1.345 1.345 0 0 1-1.322-1.319v-4.668c0-2.435 1.728-4.565 4.167-4.768 2.745-.305 5.082 1.928 5.082 4.566v.811h-2.744v-.71c0-1.015-.711-1.928-1.728-2.029-1.118-.102-2.134.811-2.134 1.928v4.87c.102.71-.508 1.319-1.321 1.319zm-15.449 0a1.344 1.344 0 0 1-1.321-1.319v-4.668c0-2.435 1.728-4.565 4.167-4.768 2.744-.305 5.082 1.928 5.082 4.566v.811h-2.744v-.71c0-1.015-.712-1.928-1.728-2.029-1.118-.102-2.135.811-2.135 1.928v4.87c.102.71-.508 1.319-1.321 1.319z" fill="#212121"/><path opacity=".3" d="M345.538 107.519h-2.439a4.876 4.876 0 0 1 4.879 4.87v23.64c0 2.739-2.236 4.87-4.879 4.87h2.439a4.876 4.876 0 0 0 4.879-4.87v-23.64c.101-2.74-2.135-4.87-4.879-4.87z" fill="#212121"/><path d="M333.952 123.347h-2.439c-.305 0-.508-.203-.508-.508v-2.435c0-.304.203-.507.508-.507h2.439c.305 0 .508.203.508.507v2.435c0 .305-.203.508-.508.508zm5.488 0h-2.439c-.305 0-.508-.203-.508-.508v-2.435c0-.304.203-.507.508-.507h2.439c.305 0 .508.203.508.507v2.435c0 .305-.203.508-.508.508zm5.489 0h-2.44c-.305 0-.508-.203-.508-.508v-2.435c0-.304.203-.507.508-.507h2.44c.304 0 .508.203.508.507v2.435c0 .305-.204.508-.508.508zm-21.954 4.971h-2.439c-.305 0-.508-.203-.508-.508v-2.435c0-.304.203-.507.508-.507h2.439c.305 0 .509.203.509.507v2.435c0 .305-.305.508-.509.508zm5.489 0h-2.439c-.305 0-.509-.203-.509-.508v-2.435c0-.304.204-.507.509-.507h2.439c.305 0 .508.203.508.507v2.435c0 .305-.203.508-.508.508zm5.488 0h-2.439c-.305 0-.508-.203-.508-.508v-2.435c0-.304.203-.507.508-.507h2.439c.305 0 .508.203.508.507v2.435c0 .305-.203.508-.508.508zm5.488 0h-2.439c-.305 0-.508-.203-.508-.508v-2.435c0-.304.203-.507.508-.507h2.439c.305 0 .508.203.508.507v2.435c0 .305-.203.508-.508.508zm5.489 0h-2.44c-.305 0-.508-.203-.508-.508v-2.435c0-.304.203-.507.508-.507h2.44c.304 0 .508.203.508.507v2.435c0 .305-.204.508-.508.508zm-21.954 4.87h-2.439c-.305 0-.508-.203-.508-.508v-2.435c0-.304.203-.507.508-.507h2.439c.305 0 .509.203.509.507v2.435c0 .305-.305.508-.509.508zm5.489 0h-2.439c-.305 0-.509-.203-.509-.508v-2.435c0-.304.204-.507.509-.507h2.439c.305 0 .508.203.508.507v2.435c0 .305-.203.508-.508.508zm5.488 0h-2.439c-.305 0-.508-.203-.508-.508v-2.435c0-.304.203-.507.508-.507h2.439c.305 0 .508.203.508.507v2.435c0 .305-.203.508-.508.508zm5.488 0h-2.439c-.305 0-.508-.203-.508-.508v-2.435c0-.304.203-.507.508-.507h2.439c.305 0 .508.203.508.507v2.435c0 .305-.203.508-.508.508zm5.489 0h-2.44c-.305 0-.508-.203-.508-.508v-2.435c0-.304.203-.507.508-.507h2.44c.304 0 .508.203.508.507v2.435c0 .305-.204.508-.508.508zm-21.954 4.971h-2.439c-.305 0-.508-.203-.508-.507v-2.435c0-.304.203-.507.508-.507h2.439c.305 0 .509.203.509.507v2.435c0 .304-.305.507-.509.507zm5.489 0h-2.439c-.305 0-.509-.203-.509-.507v-2.435c0-.304.204-.507.509-.507h2.439c.305 0 .508.203.508.507v2.435c0 .304-.203.507-.508.507zm5.488 0h-2.439c-.305 0-.508-.203-.508-.507v-2.435c0-.304.203-.507.508-.507h2.439c.305 0 .508.203.508.507v2.435c0 .304-.203.507-.508.507z" fill="#D8D8D8"/><path d="M282.626 48.469h-2.744v5.276h2.744v-5.276z" fill="#0F9C88"/><path d="M283.948 52.73h-5.285v19.176h5.285V52.73z" fill="#FFC107"/><path d="M281.305 19.452c-8.944 0-16.261 7.305-16.261 16.233 0 8.929 7.317 16.234 16.261 16.234 8.944 0 16.262-7.305 16.262-16.234 0-8.928-7.318-16.233-16.262-16.233zm0 29.119c-7.114 0-12.907-5.784-12.907-12.886 0-7.102 5.793-12.885 12.907-12.885 7.115 0 12.908 5.783 12.908 12.885-.102 7.204-5.793 12.886-12.908 12.886z" fill="#14D1BA"/><path d="M294.213 35.787c0-7.103-5.793-12.987-13.009-12.987-7.115 0-13.01 5.783-13.01 12.987 0 7.102 5.794 12.986 13.01 12.986 7.216-.101 13.009-5.884 13.009-12.986zm-12.908 11.667c-6.504 0-11.688-5.276-11.688-11.667 0-6.494 5.285-11.668 11.688-11.668 6.505 0 11.688 5.276 11.688 11.668 0 6.392-5.285 11.667-11.688 11.667z" fill="#43DAC7"/><path d="M281.305 52.73h-2.744v19.176h2.744V52.73z" fill="#FFED5E"/><path d="M288.318 29.7l-6.505 6.493v9.131c2.338 0 4.676-.913 6.505-2.638 3.659-3.653 3.659-9.436 0-12.987z" fill="#FFC107"/><path d="M281.204 25.742c-2.338 0-4.676.913-6.505 2.638l6.505 6.494 6.504-6.494c-1.728-1.826-4.167-2.638-6.504-2.638z" fill="#212121"/><path d="M280.594 36.193l-6.505-6.494c-3.557 3.551-3.557 9.436 0 12.987 1.83 1.826 4.167 2.638 6.505 2.74v-9.233z" fill="#FFA000"/><path d="M338.119 77.08l-.915-7.71-2.439 1.319s-.406 3.55.203 4.362c.509.61 3.151 2.03 3.151 2.03zm-15.245-12.378c-.102 1.015.61 1.928 1.728 2.03l7.521.71c1.016.101 1.931-.609 2.032-1.725.102-1.015-.61-1.928-1.727-2.03l-7.521-.71c-1.017-.1-1.931.71-2.033 1.725z" fill="#FFCEBD"/><path d="M331.411 64.094c-.711.507-.813 1.522-.305 2.232l3.253 4.261c.508.71 1.524.812 2.236.304.711-.507.813-1.521.304-2.232l-3.252-4.26c-.508-.711-1.524-.813-2.236-.305zm0 17.349l3.557-6.9-2.845-.303s-2.236 2.739-2.236 3.754c.101.811 1.524 3.45 1.524 3.45z" fill="#FFCEBD"/><path d="M323.382 64.398c-.508.913-.102 2.03.813 2.537l6.708 3.55c.915.508 2.033.102 2.541-.811s.101-2.03-.813-2.537l-6.708-3.55c-.915-.508-2.033-.204-2.541.811z" fill="#FFCEBD"/><path d="M331.716 67.442c-.813.203-1.321 1.116-1.118 1.927l1.321 5.175c.204.812 1.118 1.319 1.931 1.116.813-.203 1.322-1.116 1.118-1.928l-1.321-5.174c-.203-.812-1.118-1.32-1.931-1.116z" fill="#FFCEBD"/><path d="M306.511 67.138l3.76 6.29 3.253 5.479s1.524-1.32 1.321-2.638L313.32 71.5s1.83-3.55 1.931-3.754c.407-.71 6.708-.507 7.42-.101.406.304 5.386 3.855 5.386 3.855l-.508 5.175s-1.524 3.246-2.134 4.26c-1.118 1.726 1.016 2.132 1.016 2.132l3.354-5.58 2.338-6.798-6.302-7.508-13.517-4.668-.102-3.855h-8.13l2.439 12.48z" fill="#FFCEBD"/><path d="M261.995 111.577h-14.229V34.062c0-18.364 14.94-33.38 33.438-33.38 18.497 0 33.437 14.914 33.437 33.38V56.89h-14.228V34.062c0-10.552-8.639-19.176-19.209-19.176s-19.209 8.624-19.209 19.176v77.515z" fill="#FFC107"/><path d="M304.072 56.89V33.757c0-12.58-10.266-22.828-22.868-22.828-12.603 0-22.868 10.247-22.868 22.828v77.82h3.659V34.062c0-10.552 8.639-19.176 19.209-19.176s19.209 8.624 19.209 19.176V56.89h3.659z" fill="#BF9105"/><path opacity=".4" d="M278.561 65.616v6.29h5.488v-6.29h-5.488zm-16.566 45.961V60.644c-.509-.101-1.118-.203-1.626-.203-3.354 0-6.099 2.232-7.013 5.175h-5.489v45.859h14.128v.102zm-1.626-49.817c.609 0 1.016.508 1.016 1.015 0 .609-.508 1.015-1.016 1.015-.61 0-1.017-.508-1.017-1.015 0-.507.508-1.015 1.017-1.015z" fill="#231F20"/><path d="M288.318 141h-55.899c-.915 0-1.626-.71-1.626-1.623V69.268c0-.913.711-1.623 1.626-1.623h55.899c.915 0 1.626.71 1.626 1.623v70.109c0 .913-.711 1.623-1.626 1.623z" fill="#212121"/><path d="M283.948 74.037h-47.057v60.47h47.057v-60.47z" fill="#fff"/><path d="M260.368 62.47c-4.065 0-7.419 3.349-7.419 7.407s14.737 4.058 14.737 0-3.252-7.406-7.318-7.406zm0 3.349a1.018 1.018 0 0 1-1.016-1.015c0-.609.508-1.015 1.016-1.015.61 0 1.017.508 1.017 1.015 0 .609-.407 1.015-1.017 1.015z" fill="#FFC107"/><path opacity=".3" d="M267.788 69.776c0-.305-.102-.71-.102-1.015h-14.534c0 .304-.101.609-.101 1.015 0 4.16 14.737 4.16 14.737 0z" fill="#231F20"/><path d="M275.105 80.124h-29.372v-6.696a3.857 3.857 0 0 1 3.862-3.855h21.547a3.857 3.857 0 0 1 3.862 3.855v6.696h.101z" fill="#FFC107"/><path opacity=".3" d="M275.105 76.878h-29.372v3.145h29.372v-3.145z" fill="#231F20"/><path d="M273.784 72.92c-.406-.608-.915-1.115-1.524-1.623h-23.783c-.61.508-1.118 1.015-1.524 1.624h26.831z" fill="#FFE69C"/><path d="M261.385 85.198h-19.921v12.986h19.921V85.198z" fill="#14D1BA"/><path d="M278.561 87.632h-14.127c-.508 0-.813-.507-.813-1.217 0-.71.406-1.218.813-1.218h14.127c.508 0 .813.508.813 1.218s-.407 1.217-.813 1.217zm0 5.276h-14.127c-.508 0-.813-.507-.813-1.217 0-.71.406-1.218.813-1.218h14.127c.508 0 .813.507.813 1.218 0 .71-.407 1.217-.813 1.217zm0 5.378h-14.127c-.508 0-.813-.507-.813-1.218 0-.71.406-1.217.813-1.217h14.127c.508 0 .813.507.813 1.217 0 .61-.407 1.218-.813 1.218zm-.407 5.275h-35.47c-.711 0-1.22-.507-1.22-1.217 0-.71.509-1.218 1.22-1.218h35.47c.712 0 1.22.508 1.22 1.218 0 .608-.508 1.217-1.22 1.217zm0 5.276h-35.47c-.711 0-1.22-.507-1.22-1.217 0-.71.509-1.218 1.22-1.218h35.47c.712 0 1.22.508 1.22 1.218s-.508 1.217-1.22 1.217zm0 5.276h-35.47c-.711 0-1.22-.507-1.22-1.217 0-.71.509-1.218 1.22-1.218h35.47c.712 0 1.22.508 1.22 1.218s-.508 1.217-1.22 1.217zm0 5.276h-35.47c-.711 0-1.22-.507-1.22-1.217 0-.711.509-1.218 1.22-1.218h35.47c.712 0 1.22.507 1.22 1.218 0 .71-.508 1.217-1.22 1.217zm0 5.378h-35.47c-.711 0-1.22-.508-1.22-1.218s.509-1.217 1.22-1.217h35.47c.712 0 1.22.507 1.22 1.217 0 .609-.508 1.218-1.22 1.218zm0 5.275h-35.47c-.711 0-1.22-.507-1.22-1.217 0-.71.509-1.218 1.22-1.218h35.47c.712 0 1.22.508 1.22 1.218 0 .609-.508 1.217-1.22 1.217z" fill="#F1F2F2"/><path d="M254.169 91.082c.305.203.305.71 0 .812l-4.879 2.84c-.305.204-.711 0-.711-.405v-5.58c0-.406.406-.61.711-.406" fill="#fff"/><path d="M120.113 28.786V44.41c0 1.927-1.627 3.55-3.558 3.55h-1.727v8.523c0 .406-.509.508-.712.305l-9.045-8.726H86.37c-1.931 0-3.557-1.623-3.557-3.55V28.785c0-1.928 1.626-3.551 3.557-3.551h30.084c2.032 0 3.659 1.522 3.659 3.55z" fill="#FFC107"/><path d="M116.25 32.946H98.973a.91.91 0 0 1-.915-.913.91.91 0 0 1 .915-.914h17.277a.91.91 0 0 1 .915.913c0 .406-.406.914-.915.914zm0 4.667H98.973a.91.91 0 0 1-.915-.913.91.91 0 0 1 .915-.913h17.277a.91.91 0 0 1 .915.913.91.91 0 0 1-.915.913zm.001 4.768h-11.282a.91.91 0 0 1-.915-.913.91.91 0 0 1 .915-.913h11.282a.91.91 0 0 1 .914.913.91.91 0 0 1-.914.913z" fill="#fff"/><path opacity=".3" d="M101.513 29.7h-18.7v14.71c0 1.929 1.626 3.552 3.557 3.552h18.701V33.25c0-1.927-1.626-3.55-3.558-3.55z" fill="#231F20"/><path d="M74.784 33.25v15.625c0 1.928 1.626 3.551 3.557 3.551h1.626v8.523c0 .406.508.507.712.304l9.045-8.725h10.672c1.931 0 3.557-1.624 3.557-3.551V33.25c0-1.927-1.626-3.55-3.557-3.55H78.239c-1.83 0-3.455 1.623-3.455 3.55z" fill="#14D1BA"/><path d="M99.989 40.048h-.407c.813 0 1.423-.71 1.322-1.522-.102-.609-.712-1.116-1.423-1.116h-5.997s.712-2.435.712-3.652c0-.305-.102-1.218-.102-1.725-.102-.609-.508-1.015-1.118-1.015-.61 0-1.016.406-1.118 1.015-.102 1.014-.406 2.435-.813 3.044-.407.507-1.83 2.435-1.83 2.435H86.98l-1.22 8.522h2.846c.305 0 .61.102.711.305l1.322 1.319c.203.203.61.405.914.405h5.692c.61 0 1.321-.405 1.423-1.116a1.336 1.336 0 0 0-1.322-1.522h1.322c.61 0 1.32-.405 1.422-1.115a1.336 1.336 0 0 0-1.32-1.522h1.422c.813 0 1.423-.71 1.321-1.522-.305-.812-.914-1.218-1.524-1.218z" fill="#fff"/><path d="M93.383 32.033c.102.507.102 1.42.102 1.725 0 1.319-.712 3.652-.712 3.652h.712s.71-2.435.71-3.652c0-.305-.1-1.218-.1-1.725-.102-.609-.509-1.015-1.119-1.015-.101 0-.203 0-.305.102.305.101.61.507.712.913z" fill="#D8D8D8"/><path opacity=".1" d="M86.776 38.12v7.711h1.83c.101 0 .305 0 .406.102v-8.624h-2.134l-.102.812z" fill="#404142"/><path d="M87.793 35.99h-8.74v11.16h8.74V35.99z" fill="#FFC107"/><path d="M87.793 43.498h-8.74v3.652h8.74v-3.652z" fill="#FFA000"/><path opacity=".4" d="M249.392 131.361h-6.911V67.645h-9.961c-.914 0-1.626.71-1.626 1.623v70.109c0 .913.712 1.623 1.626 1.623h2.643c5.387 0 10.468-2.131 14.33-5.885v-3.754h-.101z" fill="#231F20"/><path d="M240.346 131.768H121.027v-73.66c0-.71.61-1.319 1.322-1.319h116.778c.711 0 1.321.609 1.321 1.319v73.66h-.102z" fill="#373737"/><path d="M234.248 63.587H127.125v62.093h107.123V63.587z" fill="#FFC107"/><path d="M247.359 135.116H114.116c3.761 3.754 8.944 5.884 14.331 5.884H233.13c5.285 0 10.367-2.13 14.229-5.884z" fill="#D8D8D8"/><path d="M247.359 131.362H114.116v3.754h133.243v-3.754z" fill="#ECECEC"/><path d="M188.919 134.203h-16.465a1.018 1.018 0 0 1-1.016-1.015c0-.609.508-1.015 1.016-1.015h16.465c.61 0 1.016.508 1.016 1.015 0 .609-.406 1.015-1.016 1.015z" fill="#D8D8D8"/><path opacity=".3" d="M225.508 125.68h-89.54l-4.066-68.79h97.061l-3.455 68.79z" fill="#231F20"/><path d="M225.508 125.68h-89.54V19.249c0-.609.508-1.217 1.219-1.217h87.101c.61 0 1.22.507 1.22 1.217V125.68z" fill="#fff"/><path d="M225.508 31.526v-10.35c0-1.724-1.423-3.144-3.151-3.144h-83.34c-1.728 0-3.151 1.42-3.151 3.145v10.349h89.642z" fill="#14D1BA"/><path d="M213.108 37.106h-64.233v34.699h64.233v-34.7z" fill="#FFC107"/><path d="M208.433 64.906h-56.001v2.13h56.001v-2.13z" fill="#BF9105"/><path d="M183.939 64.906h-31.507v2.13h31.507v-2.13z" fill="#14D1BA"/><path d="M210.364 79.008h-58.846a2.622 2.622 0 0 0-2.643 2.639c0 1.521 1.22 2.637 2.643 2.637h58.846a2.622 2.622 0 0 0 2.643-2.638c.101-1.42-1.118-2.638-2.643-2.638zm.203 11.466h-58.846a2.622 2.622 0 0 0-2.643 2.638c0 1.522 1.22 2.638 2.643 2.638h58.846a2.622 2.622 0 0 0 2.643-2.638c.101-1.42-1.118-2.638-2.643-2.638zm.204 11.464h-58.847a2.622 2.622 0 0 0-2.642 2.638c0 1.522 1.219 2.638 2.642 2.638h58.847a2.621 2.621 0 0 0 2.642-2.638c.102-1.42-1.118-2.638-2.642-2.638zm.304 11.465h-58.846a2.622 2.622 0 0 0-2.643 2.638c0 1.522 1.22 2.638 2.643 2.638h58.846a2.622 2.622 0 0 0 2.643-2.638c0-1.42-1.22-2.638-2.643-2.638z" fill="#D8D8D8"/><path d="M146.436 24.728a1.82 1.82 0 0 1-1.829 1.826 1.82 1.82 0 0 1-1.83-1.826 1.82 1.82 0 0 1 1.83-1.827c1.016.102 1.829.913 1.829 1.827zm5.996 0a1.82 1.82 0 0 1-1.829 1.826 1.821 1.821 0 0 1-1.83-1.826 1.82 1.82 0 0 1 1.83-1.827c1.016.102 1.829.913 1.829 1.827zm5.997 0a1.82 1.82 0 0 1-1.83 1.826 1.82 1.82 0 0 1-1.829-1.826 1.82 1.82 0 0 1 1.829-1.827c1.017.102 1.83.913 1.83 1.827z" fill="#fff"/><path opacity=".2" d="M222.357 18.032h-3.964c1.728 0 3.151 1.42 3.151 3.145V125.68h3.964V21.177c0-1.725-1.423-3.145-3.151-3.145z" fill="#404142"/><path d="M186.277 65.92c0 1.32-1.017 2.334-2.338 2.334-1.321 0-2.338-1.014-2.338-2.334 0-1.319 1.017-2.333 2.338-2.333 1.22 0 2.338 1.014 2.338 2.334z" fill="#14D1BA"/><path d="M185.26 65.92c0 .71-.609 1.32-1.321 1.32a1.344 1.344 0 0 1-1.321-1.32c0-.71.61-1.318 1.321-1.318.712 0 1.321.608 1.321 1.319z" fill="#212121"/><path d="M188.106 51.107l-13.212 7.61c-.915.507-2.033-.102-2.033-1.116V42.38c0-1.014 1.118-1.623 2.033-1.115l13.212 7.61c.915.405.915 1.724 0 2.231z" fill="#14D1BA"/><path d="M69.194 140.797h53.765c1.727 0 3.049-1.319 3.049-3.044v-31.858a1.928 1.928 0 0 0-1.931-1.928H68.279a1.928 1.928 0 0 0-1.93 1.928v32.061c0 1.522 1.32 2.841 2.845 2.841z" fill="#FFA000"/><path d="M67.06 105.286l25.002-20.292a7.176 7.176 0 0 1 8.639 0l23.579 19.48-57.22.812z" fill="#FFA000"/><path opacity=".2" d="M109.949 130.752H74.784l-4.879-27.8 5.285-4.26 34.759 4.362v27.698z" fill="#231F20"/><path opacity=".2" d="M81.187 129.738h35.165l4.879-27.8-5.285-4.261-34.76 4.362v27.699z" fill="#231F20"/><path d="M83.728 75.761l-8.74 8.422v46.468h41.364v-51.44a3.424 3.424 0 0 0-3.455-3.45h-29.17z" fill="#F1F2F2"/><path opacity=".35" d="M83.22 83.37l-8.233 9.335v-8.522l8.233-.812z" fill="#231F20"/><path d="M83.728 75.761l-8.74 8.422h6.402c1.321 0 2.338-1.015 2.338-2.334v-6.088z" fill="#14D1BA"/><path d="M68.076 140.898s23.071-16.03 23.071-17.451L67.06 105.286s-.712 1.623-.712 4.769v29.321c0 1.319 1.017 1.319 1.728 1.522zm56.61.001s-22.562-16.335-22.562-17.857l23.375-17.147s.915 1.015.915 4.058v29.322c0 1.421-1.016 1.421-1.728 1.624z" fill="#FFC107"/><path d="M67.873 141l24.189-19.886a7.337 7.337 0 0 1 8.537 0L124.788 141H67.873z" fill="#FFA000"/><path d="M328.463 84.994l-12.094 6.9c-.813.507-1.829-.102-1.829-1.015V77.081c0-.914 1.016-1.522 1.829-1.015l12.094 6.9c.814.405.814 1.623 0 2.028z" fill="#14D1BA"/><path opacity=".4" d="M79.662 140.391v-1.725c0-.304-.305-.608-.813-.608h-2.44l-2.642-6.494h2.236c.102 0 .305-.101.407-.101h.102v-.102c.101-.101.101-.203.101-.406v-1.724c0-.305-.305-.609-.61-.609h-1.93l.61-.71 1.93-2.232v-11.06c0-.71 0-1.319-.102-2.029 0-.507-.101-1.014-.101-1.522 0-.405-.102-.913-.203-1.319-.102-.71-.204-1.319-.305-2.029-.102-.71-.305-1.42-.407-2.029-.305-1.116-.61-2.232-1.016-3.247l-.305-.913c-.203-.609-.508-1.116-.712-1.725l-4.675 3.856h-.406a1.928 1.928 0 0 0-1.931 1.928v33.38c0 1.217.813 1.42 1.626 1.623l-.102.102h10.977c.305.304.711-.001.711-.305z" fill="#212121"/><path d="M50.9 128.926l-2.643-2.942 10.367-18.77c-6.403-1.217-8.74 2.435-8.944 2.841l-3.354-2.942v-2.74l9.554-11.769h3.76l-1.118-4.566h.102l8.334 5.378a36.526 36.526 0 0 1 7.013 21.509v10.856l-3.354 4.059H51.61l-.711-.914zm-3.252 10.958h27.034l-4.065-9.74H51.713l-4.066 9.74z" fill="#404142"/><path d="M66.45 97.779l2.642-1.218c.305.609.712 1.218 1.017 1.826l-2.745 1.32-.914-1.928zm2.744 7.609l-.407-2.029 3.05-.71c.203.608.406 1.319.61 2.029l-3.253.71zm.305 2.942l-.204-2.029 3.558-.304c.203.71.305 1.319.406 2.029l-3.76.304zm-1.017-5.58l-.61-2.029 2.948-.913c.305.609.508 1.319.813 1.928l-3.15 1.014zm5.488 17.248h-4.166v2.131h4.167v-2.131zm0-3.551h-4.166v2.13h4.167v-2.13zm-4.166-5.073v-2.131h3.76c.102.711.204 1.421.204 2.131h-3.964zm0 1.421h4.167c0 .71.101 1.319.101 2.029v.101h-4.167v-2.13h-.101z" fill="#212121"/><path opacity=".3" d="M72.04 128.013l-1.423 1.725H51.61l-.711-.811-.813-.914H72.04z" fill="#231F20"/><path d="M48.664 131.564h24.799c.305 0 .61-.304.61-.609v-1.623c0-.304-.305-.609-.61-.609h-24.8c-.304 0-.609.305-.609.609v1.623c0 .406.203.609.61.609z" fill="#575C57"/><path d="M74.072 130.144v.913c0 .305-.305.609-.61.609H48.665c-.305 0-.61-.304-.61-.609v-.913h26.018z" fill="#212121"/><path opacity=".3" d="M74.682 139.884H47.647l1.118-2.537h24.8l1.117 2.537z" fill="#231F20"/><path d="M45.818 141h30.49c.407 0 .813-.304.813-.608v-1.624c0-.304-.304-.609-.813-.609h-30.49c-.407 0-.813.305-.813.609v1.624c0 .304.305.608.813.608z" fill="#575C57"/><path d="M77.121 139.478v.913c0 .305-.304.609-.813.609h-30.49c-.407 0-.813-.304-.813-.609v-.913H77.12z" fill="#212121"/><path d="M24.678 97.575c0-1.522-1.22-2.84-2.846-2.84H10.144c-.914 0-1.728-.812-1.728-1.725s.814-1.725 1.728-1.725h3.557c.915 0 1.627-.71 1.627-1.623s-.712-1.624-1.627-1.624H2.928c-.914 0-1.728-.811-1.728-1.725 0-.913.814-1.724 1.728-1.724h45.634c.915 0 1.728.811 1.728 1.724 0 .914-.813 1.725-1.728 1.725h-6.098c-.915 0-1.626.71-1.626 1.624 0 .913.711 1.623 1.626 1.623h11.891c.915 0 1.728.812 1.728 1.725s-.813 1.725-1.728 1.725H36.671c-1.525 0-2.846 1.217-2.846 2.84h-9.147z" fill="#FFC107"/><path d="M34.74 108.026v-6.088h1.83c.71 0 1.219-.507 1.219-1.217v-2.74c0-.71-.508-1.217-1.22-1.217H22.95c-.711 0-1.22.507-1.22 1.217v2.74c0 .71.509 1.217 1.22 1.217h1.83v6.088c-7.521 2.333-12.806 9.74-11.79 18.161.915 7.61 7.115 13.697 14.737 14.61C37.891 141.913 46.53 134 46.53 124.056c0-7.508-4.98-13.899-11.79-16.03z" fill="#14D1BA"/><path d="M39.4 133.718c5.242-5.385 5.12-13.992-.275-19.224-5.393-5.233-14.015-5.11-19.257.274-5.242 5.385-5.119 13.992.275 19.224 5.394 5.233 14.016 5.11 19.258-.274z" fill="#FFC107"/><path d="M29.658 112.591c-6.403 0-11.688 5.276-11.688 11.668 0 6.392 5.285 11.668 11.688 11.668 6.403 0 11.688-5.276 11.688-11.668 0-6.392-5.285-11.668-11.688-11.668zm-9.96 12.48h2.947c0 1.217.204 2.333.407 3.449h-2.44c-.507-1.014-.812-2.13-.914-3.449zm10.773-6.798v-3.957c.813.102 1.626.203 2.338.507.61 1.015 1.118 2.233 1.524 3.45h-3.862zm4.37 1.725c.204 1.116.407 2.232.407 3.449h-4.777v-3.449h4.37zm-6.098-1.725h-3.557c.407-1.319.915-2.536 1.525-3.551.61-.203 1.321-.304 2.033-.406v3.957zm0 1.725v3.449h-4.37c0-1.217.203-2.333.407-3.449h3.963zm-6.098 3.449h-2.947c.102-1.217.407-2.435.915-3.449h2.337c-.101 1.116-.305 2.232-.305 3.449zm1.728 1.624h4.472v3.449H24.78c-.204-1.116-.407-2.232-.407-3.449zm4.37 5.174v3.957c-.711-.101-1.32-.203-2.032-.406-.61-1.116-1.22-2.232-1.626-3.551h3.659zm1.728 0h3.862c-.406 1.218-.914 2.435-1.524 3.45-.712.203-1.525.406-2.338.507v-3.957zm0-1.725v-3.449h4.676c0 1.217-.204 2.333-.407 3.449h-4.27zm6.403-3.449h2.744c-.101 1.217-.406 2.435-.914 3.449h-2.135c.204-1.116.305-2.232.305-3.449zm0-1.624c0-1.217-.203-2.333-.406-3.449h2.134c.508 1.014.813 2.232.915 3.449h-2.643zm.712-5.174H36.06c-.203-.71-.406-1.42-.711-2.131a8.964 8.964 0 0 1 2.236 2.131zm-13.314-2.435c-.305.812-.61 1.522-.813 2.435H21.73c.61-.913 1.524-1.725 2.54-2.435zm-2.643 14.407h1.728c.203.812.508 1.624.813 2.435-.915-.608-1.728-1.42-2.54-2.435zm13.72 2.232c.306-.71.509-1.42.712-2.13h1.525c-.61.71-1.322 1.522-2.236 2.13z" fill="#FFDA6A"/><path d="M34.943 100.416v-2.434c0-.305-.102-.508-.203-.71H21.934c-.204.202-.305.405-.305.71v2.739c0 .609.406 1.014 1.016 1.217H33.52c.813-.101 1.423-.71 1.423-1.522z" fill="#72E3D5"/><path d="M55.88 87.835h-2.44c-.914 0-1.625-.71-1.625-1.623s.71-1.623 1.626-1.623h2.439c.914 0 1.626.71 1.626 1.623-.102.913-.813 1.623-1.626 1.623zM5.062 94.836H2.623c-.914 0-1.626-.71-1.626-1.623s.712-1.624 1.626-1.624h2.44c.914 0 1.626.71 1.626 1.624 0 .913-.712 1.623-1.627 1.623z" fill="#FFC107"/><path opacity=".4" d="M73.463 131.463c0-4.464-3.05-8.117-7.115-9.233l-2.134 3.754 2.337 2.74H64.52c-.305 0-.61.304-.61.608v1.725c0 .305.203.507.406.609h2.642l-2.643 6.493h-2.642c-.407 0-.813.305-.813.609v1.928c.915.304 1.83.406 2.846.406 5.488-.102 9.757-4.363 9.757-9.639z" fill="#212121"/><path opacity=".4" d="M289.944 139.377V86.821H275.41c-.609 0-1.016.507-1.016 1.014v52.049c0 .609.508 1.015 1.016 1.015h12.908c.915.101 1.626-.609 1.626-1.522z" fill="#231F20"/><path d="M307.019 141h-29.576c-.61 0-1.016-.507-1.016-1.015v-52.15c0-.608.508-1.014 1.016-1.014h29.677c.61 0 1.017.507 1.017 1.014v52.049c0 .609-.508 1.116-1.118 1.116z" fill="#fff"/><path d="M305.189 95.242h-25.815v37.236h25.815V95.242z" fill="#14D1BA"/><path d="M297.364 91.386H287.2a.218.218 0 0 1-.203-.203v-1.116c0-.101.101-.202.203-.202h10.164c.101 0 .203.101.203.202v1.117c0 .1-.102.202-.203.202z" fill="#9E9E9E"/><path d="M294.518 136.029c0 1.319-1.017 2.333-2.338 2.333-1.321 0-2.337-1.014-2.337-2.333 0-1.319 1.016-2.334 2.337-2.334 1.321.102 2.338 1.116 2.338 2.334z" fill="#D8D8D8"/><path opacity=".4" d="M297.973 114.824c0 4.565 2.338 8.624 5.997 10.957v2.74h-.915v.608h-.102c-.305 0-.61.305-.61.609s.305.609.61.609h.102v.811h-.102c-.305 0-.61.305-.61.609 0 .305.305.609.61.609h.102v.812h-.102c-.305 0-.61.304-.61.608 0 .305.305.609.61.609h.102v.507l4.167 3.856c0 .71.305 1.319.813 1.725.102-.102.102-.305.102-.406v-37.946c-5.794 1.218-10.164 6.494-10.164 12.683z" fill="#212121"/><path d="M326.329 114.823c0 7.305-5.894 13.19-13.212 13.19s-13.213-5.885-13.213-13.19 5.895-13.189 13.213-13.189 13.212 5.884 13.212 13.189z" fill="#FFC107"/><path d="M321.553 114.823c0 4.566-3.761 8.32-8.334 8.32-4.574 0-8.334-3.754-8.334-8.32 0-4.566 3.76-8.32 8.334-8.32 4.573-.101 8.334 3.653 8.334 8.32z" fill="#FFA000"/><path d="M320.435 124.158h-14.433v10.044h14.433v-10.044z" fill="#FFC107"/><path d="M321.349 134.81l-4.777 3.957h-7.114l-4.37-3.957v-6.29h16.261v6.29z" fill="#9E9E9E"/><path d="M321.451 130.245h-16.465c-.305 0-.61-.304-.61-.609 0-.304.305-.608.61-.608h16.465c.305 0 .61.304.61.608 0 .406-.305.609-.61.609zm0 2.029h-16.465c-.305 0-.61-.304-.61-.609 0-.304.305-.608.61-.608h16.465c.305 0 .61.304.61.608 0 .406-.305.609-.61.609zm0 2.029h-16.465c-.305 0-.61-.304-.61-.608 0-.305.305-.609.61-.609h16.465c.305 0 .61.304.61.609 0 .304-.305.608-.61.608z" fill="#C5C5C5"/><path d="M314.235 141h-2.643c-1.321 0-2.337-1.015-2.337-2.334h7.419c-.102 1.218-1.118 2.334-2.439 2.334zm1.931-28.003a2.947 2.947 0 0 0-2.948-2.942 2.947 2.947 0 0 0-2.947 2.942c0 .812.407 1.623.915 2.131l-.508 4.464h4.98l-.508-4.464c.711-.609 1.016-1.319 1.016-2.131z" fill="#212121"/><path opacity=".4" d="M144.607 117.055c-6.2 0-11.18 4.972-11.18 11.161 0 6.189 4.98 11.16 11.18 11.16 1.524 0 3.049-.304 4.37-.913.711-.304 1.321-.608 1.931-1.014.915-.609 1.728-1.319 2.337-2.131 1.423-1.623 2.236-3.754 2.541-5.986 0-.406.102-.71.102-1.116 0-6.189-5.082-11.161-11.281-11.161z" fill="#231F20"/><path d="M153.447 132.363c1.425-5.997-2.29-12.012-8.297-13.435-6.008-1.423-12.034 2.286-13.459 8.283-1.425 5.998 2.29 12.013 8.298 13.435 6.008 1.423 12.033-2.286 13.458-8.283z" fill="#14D1BA"/><path d="M142.574 118.577c-6.2 0-11.18 4.972-11.18 11.161v.609c.305-5.175 4.675-9.233 9.859-9.233 5.488 0 9.96 4.464 9.96 9.943a9.812 9.812 0 0 1-9.249 9.841h.61c6.2 0 11.18-4.971 11.18-11.16.101-6.189-4.98-11.161-11.18-11.161z" fill="#72E3D5"/><path d="M146.843 130.448l-7.623 4.363c-.508.304-1.118-.101-1.118-.71v-8.827c0-.609.61-1.015 1.118-.71l7.623 4.362c.508.508.508 1.218 0 1.522z" fill="#fff"/><path opacity=".4" d="M350.417 110.867c-.204-.914-.61-1.725-1.322-2.232l-.508.507 1.22 1.217.61.508zm-8.741 13.595v3.653h8.842v-7.102H338.83c0 1.319 1.118 2.435 2.44 2.435h1.829v1.014h-1.423zM346.25 141c2.032 0 3.76-1.42 4.167-3.449H339.44c-.305 0-.61.304-.61.608v2.131c0 .304.305.609.61.609h6.81V141z" fill="#231F20"/><path d="M353.161 139.275h12.907l-2.54-9.943h-8.538l-1.829 9.943z" fill="#404142"/><path d="M358.344 123.244h-12.603v2.03h12.603v-2.03z" fill="#231F20"/><path d="M344.217 128.114h14.94c9.249 0 16.871-7.508 16.871-16.842 0-3.652-1.219-7.203-3.455-10.146l-2.846 2.232c1.728 2.334 2.643 5.073 2.643 7.914 0 7.305-5.895 13.19-13.213 13.19h-14.94v3.652z" fill="#404142"/><path d="M358.053 102.498l-8.246 2.206.868 3.234 8.246-2.206-.868-3.234z" fill="#D1D4D4"/><path d="M358.46 104.098l-8.246 2.205.21.784 8.246-2.205-.21-.784z" fill="#F1F2F2"/><path d="M357.07 103.905l-2.21 8.232 3.24.866 2.209-8.232-3.239-.866z" fill="#D1D4D4"/><path d="M357.845 104.1l-2.21 8.232.785.21 2.21-8.232-.785-.21z" fill="#F1F2F2"/><path opacity=".3" d="M358.446 104.17l.203.812.203.507-.406.406-6.403 1.725 4.675-4.769 1.016-.203.407.406.305 1.116z" fill="#231F20"/><path d="M357.196 103.054l-6.037 6.027 2.372 2.367 6.036-6.026-2.371-2.368z" fill="#D1D4D4"/><path d="M358.437 104.279l-6.037 6.026.575.574 6.037-6.026-.575-.574z" fill="#F1F2F2"/><path d="M374.453 85.172l-4.672 4.664 3.091 3.085 4.671-4.664-3.09-3.085z" fill="#231F20"/><path d="M352.144 104.069l6.607 6.595c.305.304.711.304.914 0l17.278-17.249c.305-.304.305-.71 0-.913l-6.606-6.594c-.305-.305-.712-.305-.915 0l-17.278 17.248c-.203.304-.203.71 0 .913z" fill="#404142"/><path d="M371.286 86.958l-18.182 18.151 2.587 2.582 18.182-18.15-2.587-2.583z" fill="#6C726B"/><path d="M373.792 85.096l3.862 3.855a.984.984 0 0 0 1.423 0 .979.979 0 0 0 0-1.42l-3.862-3.856a.984.984 0 0 0-1.423 0c-.406.305-.406 1.015 0 1.42z" fill="#404142"/><path opacity=".3" d="M374.402 104.271c-.711 1.015-1.727 1.827-2.947 2.232-.407-1.116-1.016-2.13-1.728-3.043l2.846-2.232a15.132 15.132 0 0 1 1.829 3.043z" fill="#231F20"/><path d="M365.154 101.228a4.55 4.55 0 0 0 4.573 4.565 4.55 4.55 0 0 0 4.574-4.565 4.551 4.551 0 0 0-4.574-4.566c-2.439 0-4.573 2.03-4.573 4.566z" fill="#FFC107"/><path d="M367.593 101.227a2.254 2.254 0 0 0 2.236 2.233 2.255 2.255 0 0 0 2.236-2.233c0-1.217-1.017-2.232-2.236-2.232a2.254 2.254 0 0 0-2.236 2.232z" fill="#F1F2F2"/><path opacity=".3" d="M354.38 132.477l.61-3.247h8.538l.813 3.044c-.915 1.827-2.745 3.145-4.981 3.145-2.235.102-4.065-1.116-4.98-2.942z" fill="#231F20"/><path d="M354.685 129.941a4.551 4.551 0 0 0 4.574 4.566c2.54 0 4.573-2.03 4.573-4.566a4.55 4.55 0 0 0-4.573-4.566 4.55 4.55 0 0 0-4.574 4.566z" fill="#FFC107"/><path d="M357.124 129.941c0 1.217 1.017 2.232 2.236 2.232a2.254 2.254 0 0 0 2.236-2.232 2.253 2.253 0 0 0-2.236-2.232c-1.219.101-2.236 1.014-2.236 2.232z" fill="#F1F2F2"/><path d="M362.714 121.012s-1.118 2.435-2.439 2.435h-16.363c-1.321 0-2.439-1.116-2.439-2.435h21.241zM341.981 141h36.792c.305 0 .609-.304.609-.609v-2.232c0-.304-.304-.609-.609-.609h-36.792c-.305 0-.61.305-.61.609v2.232c0 .305.305.609.61.609z" fill="#404142"/><path d="M342.184 137.55h36.385a.8.8 0 0 1 .813.812v.406h-38.011v-.406c0-.406.407-.812.813-.812z" fill="#575C57"/><path opacity=".4" d="M247.359 131.361h-6.911V120.81h-.203c-1.118 0-2.033.71-2.44 1.623-.101.101-.101.304-.101.507h-.61c-.305 0-.711 0-1.016.102-4.574.507-8.029 4.362-8.029 9.03 0 4.464 3.252 8.116 7.419 8.928 3.049-.406 5.895-1.42 8.436-3.044a8.818 8.818 0 0 0 1.626-2.638c.61-.507 1.219-1.014 1.829-1.623v-2.334z" fill="#212121"/><path d="M245.327 123.346a2.622 2.622 0 0 1-2.643 2.638c-1.524 0-2.642-1.116-2.642-2.638a2.622 2.622 0 0 1 2.642-2.638 2.622 2.622 0 0 1 2.643 2.638zm20.022 0a2.622 2.622 0 0 1-2.643 2.638c-1.423 0-2.642-1.116-2.642-2.638a2.622 2.622 0 0 1 2.642-2.638c1.423.102 2.643 1.218 2.643 2.638z" fill="#231F20"/><path opacity=".3" d="M240.143 123.346a2.622 2.622 0 0 0 2.643 2.638c1.524 0 2.642-1.116 2.642-2.638 0-.304-.101-.609-.203-.913h-4.777c-.203.304-.305.609-.305.913zm20.022 0a2.622 2.622 0 0 0 2.643 2.638c1.423 0 2.642-1.116 2.642-2.638 0-.304-.101-.609-.203-.913h-4.777c-.305.304-.305.609-.305.913z" fill="#231F20"/><path d="M252.847 128.013c-2.642 10.045-14.533 10.857-14.533 10.857l.203-15.93h14.33s.407 3.856 0 5.073z" fill="#231F20"/><path d="M252.847 128.013c2.643 10.045 14.331 11.059 14.331 11.059V122.94h-14.331s-.304 3.856 0 5.073z" fill="#231F20"/><path d="M248.681 131.869c0 4.971-4.066 9.03-9.046 9.03-4.98 0-9.045-4.059-9.045-9.03 0-4.972 4.065-9.03 9.045-9.03 4.98 0 9.046 4.058 9.046 9.03z" fill="#404142"/><path d="M246.648 131.869c0 3.855-3.151 7-7.013 7s-7.013-3.145-7.013-7c0-3.856 3.151-7.001 7.013-7.001s7.013 3.145 7.013 7.001z" fill="#14D1BA"/><path d="M239.635 124.868c-1.829 0-3.455.71-4.675 1.826l9.859 9.842a6.87 6.87 0 0 0 1.829-4.667v-.203l-6.81-6.798c-.101.101-.203 0-.203 0zm-6.505 4.464l9.148 9.132c.711-.305 1.321-.609 1.829-1.116l-9.859-9.842c-.508.507-.914 1.116-1.118 1.826z" fill="#43DAC7"/><path d="M275.512 131.869c0 4.971-4.065 9.03-9.045 9.03-4.98 0-9.046-4.059-9.046-9.03 0-4.972 4.066-9.03 9.046-9.03 4.98 0 9.045 4.058 9.045 9.03z" fill="#404142"/><path d="M273.479 131.869c0 3.855-3.15 7-7.012 7-3.862 0-7.013-3.145-7.013-7 0-3.856 3.151-7.001 7.013-7.001s7.012 3.145 7.012 7.001z" fill="#14D1BA"/><path d="M266.467 124.868c-1.83 0-3.456.71-4.675 1.826l9.858 9.842a6.866 6.866 0 0 0 1.829-4.667v-.203l-6.809-6.798c-.102.101-.203 0-.203 0zm-6.505 4.464l9.147 9.132c.712-.305 1.321-.609 1.83-1.116l-9.859-9.842c-.508.507-.915 1.116-1.118 1.826z" fill="#43DAC7"/><path d="M256.608 125.984c0 2.029-1.626 3.551-3.557 3.551a3.531 3.531 0 0 1-3.557-3.551c0-2.029 1.626-3.551 3.557-3.551 1.931-.101 3.557 1.522 3.557 3.551z" fill="#FFC107"/><path d="M254.982 125.984a1.928 1.928 0 0 1-1.931 1.928c-1.118 0-1.931-.812-1.931-1.928 0-1.014.813-1.928 1.931-1.928s1.931.812 1.931 1.928z" fill="#212121"/></svg>