<svg width="366" height="119" fill="none" xmlns="http://www.w3.org/2000/svg"><path d="M75.096 43.333L86.98 54.944v57.75a5.686 5.686 0 0 1-5.688 5.704H36.5a5.686 5.686 0 0 1-5.688-5.704V49.037a5.687 5.687 0 0 1 5.688-5.704h38.597z" fill="#ECECEC"/><path opacity=".35" d="M75.807 53.62L86.98 66.454V54.843L75.807 53.62z" fill="#231F20"/><path d="M75.096 43.333L86.98 54.944h-8.735c-1.727 0-3.149-1.425-3.149-3.157v-8.454z" fill="#14D1BA"/><path d="M40.766 66.25h34.838c1.22 0 2.133-.917 2.133-2.139 0-1.222-.914-2.139-2.133-2.139H40.766c-1.22 0-2.133.917-2.133 2.14 0 1.12.914 2.138 2.133 2.138zm0 9.778h34.838c1.22 0 2.133-.917 2.133-2.139 0-1.222-.914-2.139-2.133-2.139H40.766c-1.22 0-2.133.917-2.133 2.14 0 1.221.914 2.138 2.133 2.138zm0 9.778h34.838c1.22 0 2.133-.917 2.133-2.14 0-1.221-.914-2.138-2.133-2.138H40.766c-1.22 0-2.133.916-2.133 2.139 0 1.222.914 2.139 2.133 2.139zm0 9.777h34.838c1.22 0 2.133-.916 2.133-2.139 0-1.222-.914-2.139-2.133-2.139H40.766c-1.22 0-2.133.917-2.133 2.14 0 1.222.914 2.138 2.133 2.138zm0 9.88h34.838c1.22 0 2.133-.917 2.133-2.139 0-1.222-.914-2.139-2.133-2.139H40.766c-1.22 0-2.133.917-2.133 2.139 0 1.12.914 2.139 2.133 2.139z" fill="#212121"/><path d="M338.672 118.296H275.8V43.537c0-.611.508-1.222 1.219-1.222h60.536c.609 0 1.219.51 1.219 1.222v74.759h-.102z" fill="#F1F2F2"/><path d="M338.672 51.787v-7.333c0-1.223-1.016-2.14-2.133-2.14h-58.505c-1.219 0-2.133 1.02-2.133 2.14v7.333h62.771z" fill="#14D1BA"/><path d="M330.039 53.519h-45.098v19.148h45.098V53.519zm-1.93 23.018h-41.34a1.93 1.93 0 0 0-1.929 1.935c0 1.019.812 1.935 1.929 1.935h41.34c1.015 0 1.93-.814 1.93-1.935 0-1.12-.813-1.935-1.93-1.935zm.203 8.046h-41.339c-1.016 0-1.93.815-1.93 1.936 0 1.018.812 1.935 1.93 1.935h41.339c1.016 0 1.93-.815 1.93-1.935-.102-1.12-.914-1.936-1.93-1.936zm.101 8.047h-41.339c-1.016 0-1.93.815-1.93 1.935 0 1.019.813 1.935 1.93 1.935h41.339c1.016 0 1.93-.815 1.93-1.935 0-1.019-.914-1.935-1.93-1.935zm.204 8.148h-41.34c-1.015 0-1.93.815-1.93 1.935 0 1.019.813 1.935 1.93 1.935h41.34a1.93 1.93 0 0 0 1.929-1.935c-.101-1.12-.914-1.935-1.929-1.935z" fill="#D8D8D8"/><path d="M283.215 47.102c0 .713-.61 1.222-1.219 1.222-.711 0-1.219-.611-1.219-1.222 0-.713.609-1.222 1.219-1.222.609-.102 1.219.509 1.219 1.222zm4.164 0c0 .713-.61 1.222-1.219 1.222-.711 0-1.219-.611-1.219-1.222 0-.713.61-1.222 1.219-1.222.711-.102 1.219.509 1.219 1.222zm4.266 0c0 .713-.61 1.222-1.219 1.222-.711 0-1.219-.611-1.219-1.222 0-.713.609-1.222 1.219-1.222.609-.102 1.219.509 1.219 1.222z" fill="#fff"/><path opacity=".2" d="M336.539 42.315h-2.742c1.218 0 2.133 1.018 2.133 2.139v73.74h2.742v-73.74c0-1.12-.914-2.14-2.133-2.14z" fill="#404142"/><path opacity=".3" d="M84.034 58.204c-.71 0-1.32.61-1.32 1.324v51.944h-4.977v2.648c1.727 1.732 3.86 2.954 6.196 3.667 1.828-.917 3.047-2.852 3.047-4.991V58.204h-2.946z" fill="#231F20"/><path d="M170.167 111.676H85.355v-52.25c0-.713.61-1.324 1.32-1.324h82.273c.711 0 1.32.611 1.32 1.324v52.25h-.101z" fill="#373737"/><path d="M165.799 62.99H89.621v44.306h76.178V62.991z" fill="#ECECEC"/><path d="M129.03 89.472H94.902a1.02 1.02 0 0 1-1.015-1.018V69.407c0-.509.406-1.018 1.015-1.018h34.128a1.02 1.02 0 0 1 1.016 1.018v19.047c-.102.61-.508 1.018-1.016 1.018z" fill="#FFC107"/><path d="M175.143 114.019H80.378c2.742 2.648 6.399 4.176 10.157 4.176h74.451c3.758.102 7.415-1.426 10.157-4.176z" fill="#D8D8D8"/><path d="M175.143 111.37H80.378v2.649h94.765v-2.649z" fill="#ECECEC"/><path d="M133.601 113.408H121.92a.696.696 0 0 1-.711-.713c0-.408.305-.713.711-.713h11.681c.406 0 .711.305.711.713a.696.696 0 0 1-.711.713zm26.815-18.436H95.614a.912.912 0 0 1-.915-.916c0-.51.407-.917.915-.917h64.802c.508 0 .914.408.914.917a.91.91 0 0 1-.914.916zm0-21.287h-27.018a.911.911 0 0 1-.914-.916c0-.51.406-.917.914-.917h27.018c.507 0 .914.407.914.917a.912.912 0 0 1-.914.916zm0 4.482h-27.018a.911.911 0 0 1-.914-.917.91.91 0 0 1 .914-.916h27.018c.507 0 .914.407.914.916 0 .51-.407.917-.914.917zm-10.462 4.481h-16.455a.911.911 0 0 1-.914-.916c0-.51.406-.917.914-.917h16.455c.508 0 .914.407.914.917a.911.911 0 0 1-.914.916zm10.462 16.399H95.614a.912.912 0 0 1-.915-.917c0-.51.407-.917.915-.917h64.802c.508 0 .914.408.914.917 0 .51-.406.917-.914.917zm-23.565 4.074H95.715a.912.912 0 0 1-.914-.917c0-.509.406-.917.914-.917h41.136c.508 0 .914.408.914.917a.912.912 0 0 1-.914.917z" fill="#D8D8D8"/><path d="M96.02 89.472h31.792c1.117 0 2.031-.814 2.133-1.935l-8.736-8.555-8.531 7.842-7.923-7.842-10.462 9.574c.406.509 1.016.916 1.727.916z" fill="#FFA000"/><path opacity=".3" d="M175.143 111.37h-4.977V59.426c0-.713-.609-1.324-1.32-1.324h-28.034v41.963c0 2.546 2.032 4.685 4.673 4.685h23.97l-.812 5.093-.711 4.379h-3.352c-1.117 0-1.93.917-1.93 1.936 0 1.12.914 1.935 1.93 1.935h.406c3.758 0 7.415-1.528 10.157-4.176v-2.547z" fill="#231F20"/><path d="M211.303 114.324H170.37l2.945-17.722h35.347l2.641 17.722z" fill="#FAFAFA"/><path d="M173.315 96.602l-2.234 13.241 39.104-2.852-1.523-10.39h-35.347z" fill="#C5C5C5"/><path d="M238.32 40.787c0-.917-.812-1.731-1.727-1.731H145.18c-.914 0-1.727.814-1.727 1.731v53.37c0 .917.813 1.732 1.727 1.732h91.413c.915 0 1.727-.815 1.727-1.732v-53.37z" fill="#373737"/><path d="M238.32 92.833v7.232c0 2.546-2.031 4.685-4.672 4.685h-85.624a4.666 4.666 0 0 1-4.672-4.685v-7.232h94.968z" fill="#ECECEC"/><path d="M234.257 43.13h-86.741v45.833h86.741V43.13z" fill="#FFC107"/><path d="M214.35 118.296h-47.332c-1.118 0-1.93-.916-1.93-1.935 0-1.12.914-1.935 1.93-1.935h47.332c1.117 0 1.93.917 1.93 1.935.101 1.019-.813 1.935-1.93 1.935z" fill="#ECECEC"/><path opacity=".2" d="M225.624 89.167h-69.576l-2.133-50.111h73.842l-2.133 50.11z" fill="#231F20"/><path d="M226.132 89.167h-70.287V9.722c0-.61.508-1.222 1.219-1.222h67.849c.609 0 1.219.51 1.219 1.222v79.445z" fill="#ECECEC"/><path d="M226.132 18.176v-7.232c0-1.324-1.117-2.444-2.438-2.444h-65.411c-1.321 0-2.438 1.12-2.438 2.444v7.232h70.287z" fill="#14D1BA"/><path d="M163.564 12.676a1.02 1.02 0 0 1-1.015 1.018 1.02 1.02 0 0 1 0-2.037 1.02 1.02 0 0 1 1.015 1.019zm3.962 0a1.02 1.02 0 0 1-1.016 1.018 1.02 1.02 0 0 1 0-2.037c.609 0 1.016.408 1.016 1.019zm3.961 0a1.02 1.02 0 0 1-1.016 1.018 1.018 1.018 0 0 1 0-2.037c.61 0 1.016.408 1.016 1.019z" fill="#fff"/><path d="M166.51 47.204l-4.774 4.99v36.973h4.774V47.204zm7.719-7.843l-4.774 4.583v45.222h4.774V39.361zm7.72-.001l-4.774-4.073v53.88h4.774V39.36zm7.82 1.325l-2.437 2.444-2.336-1.63v47.667h4.773v-48.48zm7.72-7.537l-4.774 4.99v51.029h4.774V33.148zm7.719.408l-4.774-3.667v59.278h4.774V33.556zm7.72 2.139l-4.774 1.63v51.842h4.774V35.695zm7.719-8.352l-4.672 4.583v57.24h4.672V27.344z" fill="#14D1BA"/><path opacity=".1" d="M211.201 36.306l1.727-.612v1.834l-.813.815c.102.305.203.61.203.916a2.735 2.735 0 0 1-2.742 2.75c-.508 0-.914-.203-1.321-.407v-4.176l2.235-.815c.102 0 .305.102.406.102l.305-.407zm-10.766-2.445h.304c.508 0 1.016-.204 1.422-.51l3.047 3.056v-2.851l-4.773-3.769v4.074zm-13.916 8.76c-.101 0-.304.101-.406.101l-1.117-1.12V47c.508.611 1.219 1.12 2.133 1.12 1.32 0 2.336-.916 2.641-2.139v-1.324a173.78 173.78 0 0 1-.305-.61l.305-.306v-2.852l-2.337 2.444-.914-.713zm29.456-10.695v2.546l4.774-4.787v-2.342l-4.774 4.583zm-46.52 15.278l4.774-4.787v-2.954l-4.774 4.787v2.954zm23.26-6.62l4.774-4.788v-2.648l-4.774 4.99v2.445zm-30.979 11.61v2.852l4.774-4.787v-2.953l-2.031 2.037-2.743 2.851zm15.439-12.731c.508.102.914.204 1.32.204.508 0 .914-.102 1.321-.306l2.234 2.24v-2.138l-4.774-4.176v4.176h-.101z" fill="#231F20"/><path d="M226.132 20.01l-15.439 15.48a2.696 2.696 0 0 0-1.219-.305c-.406 0-.812.102-1.117.306L203.38 30.5c0-.204.102-.407.102-.51a2.735 2.735 0 0 0-2.743-2.75 2.735 2.735 0 0 0-2.742 2.75c0 .408.101.714.203 1.02l-10.462 10.388c-.203 0-.406-.102-.609-.102-.305 0-.711.102-1.016.204l-4.977-4.99c.102-.306.203-.51.203-.816a2.735 2.735 0 0 0-2.742-2.75 2.735 2.735 0 0 0-2.743 2.75c0 .306.102.611.204.917l-20.01 20.065v3.055l21.431-21.49a2.71 2.71 0 0 0 1.219.305 2.81 2.81 0 0 0 1.321-.305l4.774 4.787c-.204.305-.305.713-.305 1.12a2.735 2.735 0 0 0 2.742 2.75 2.735 2.735 0 0 0 2.743-2.75c0-.51-.203-1.019-.407-1.426l10.259-10.287a3.64 3.64 0 0 0 1.117.204c.508 0 1.016-.204 1.422-.51l4.774 4.788c-.101.305-.203.61-.203.916a2.735 2.735 0 0 0 2.742 2.75 2.735 2.735 0 0 0 2.743-2.75c0-.305-.102-.61-.203-.916l14.016-14.056v-2.852h-.101zM137.766 4.222v15.38a3.43 3.43 0 0 1-3.454 3.463h-1.625v8.352c0 .407-.508.509-.711.203l-8.837-8.555h-18.282a3.43 3.43 0 0 1-3.454-3.463V4.222A3.43 3.43 0 0 1 104.857.76h29.455c1.829 0 3.454 1.528 3.454 3.463z" fill="#FFC107"/><path d="M133.906 8.296h-16.963a.912.912 0 0 1-.914-.916c0-.51.407-.917.914-.917h16.963c.508 0 .914.407.914.917a.911.911 0 0 1-.914.916zm0 4.686h-16.963a.912.912 0 0 1-.914-.917c0-.51.407-.917.914-.917h16.963c.508 0 .914.408.914.917 0 .51-.406.917-.914.917zm0 4.685h-10.97a.911.911 0 0 1-.914-.917c0-.51.406-.917.914-.917h10.97c.508 0 .914.408.914.917 0 .51-.406.917-.914.917z" fill="#fff"/><path d="M103.435 43.944l-2.336-1.222h-.102l-2.336 1.324c-.102.102-.203 0-.203-.203l.406-2.649v-.101l-1.93-1.834c-.101-.102 0-.203.102-.305l2.64-.408c.102 0 .102 0 .102-.102L100.895 36c.102-.102.204-.102.305 0l1.219 2.343.102.101 2.64.306c.102 0 .204.204.102.306l-1.93 1.935s-.101.102 0 .102l.508 2.648c-.102.102-.203.203-.406.203zm9.649 0l-2.336-1.222h-.102l-2.336 1.324c-.102.102-.203 0-.203-.203l.406-2.649v-.101l-1.93-1.834c-.101-.102 0-.203.102-.305l2.641-.408c.101 0 .101 0 .101-.102L110.545 36c.101-.102.203-.102.304 0l1.219 2.343.102.101 2.641.306c.101 0 .203.204.101.306l-1.93 1.935s-.101.102 0 .102l.508 2.648c-.101.102-.305.203-.406.203zm9.649 0l-2.336-1.222h-.102l-2.336 1.324c-.101.102-.203 0-.203-.203l.406-2.649v-.101l-1.929-1.834c-.102-.102-.001-.203.101-.305l2.641-.408c.101 0 .101 0 .101-.102L120.194 36c.101-.102.203-.102.304 0l1.219 2.343.102.101 2.641.306c.101 0 .203.204.101.306l-1.93 1.935s-.101.102 0 .102l.508 2.648c-.101.102-.304.203-.406.203zm9.649 0l-2.336-1.222h-.101l-2.336 1.324c-.102.102-.204 0-.204-.203l.407-2.649v-.101l-1.93-1.834c-.102-.102 0-.203.101-.305l2.641-.408c.102 0 .102 0 .102-.102L129.843 36c.102-.102.203-.102.305 0l1.219 2.343.101.101 2.641.306c.102 0 .203.204.102.306l-1.93 1.935s-.102.102 0 .102l.508 2.648c-.102.102-.305.203-.407.203z" fill="#FFC107"/><path opacity=".3" d="M119.483 5.139H101.2v14.463a3.43 3.43 0 0 0 3.454 3.463h18.282V8.704c.102-1.936-1.523-3.565-3.453-3.565z" fill="#231F20"/><path d="M93.38 8.704v15.38a3.43 3.43 0 0 0 3.453 3.462h1.625v8.352c0 .408.508.51.71.204l8.837-8.556h10.462a3.43 3.43 0 0 0 3.454-3.463V8.703a3.43 3.43 0 0 0-3.454-3.462H96.833c-1.93-.102-3.454 1.528-3.454 3.463z" fill="#14D1BA"/><path d="M116.131 11.861H99.169a.912.912 0 0 1-.914-.917c0-.509.406-.916.914-.916h16.962c.508 0 .914.407.914.916 0 .51-.406.917-.914.917zm0 4.685H99.169a.912.912 0 0 1-.914-.916c0-.51.406-.917.914-.917h16.962c.508 0 .914.407.914.917a.911.911 0 0 1-.914.916zm0 4.686h-10.97a.912.912 0 0 1-.914-.917c0-.51.407-.917.914-.917h10.97c.508 0 .914.408.914.917a.91.91 0 0 1-.914.916z" fill="#fff"/><g opacity=".3" fill="#231F20"><path opacity=".3" d="M35.484 78.88c.508-1.63.914-2.038 2.438-2.445-1.626-.51-2.032-.917-2.438-2.444-.508 1.63-.914 2.037-2.438 2.444 1.625.407 2.032.815 2.438 2.444zm-2.844 6.11a1.22 1.22 0 0 0 1.219-1.221 1.22 1.22 0 0 0-1.22-1.223 1.22 1.22 0 0 0-1.218 1.222 1.22 1.22 0 0 0 1.219 1.223zm7.414 31.167v-9.37c0-1.223-.914-2.139-2.133-2.139H30.71v8.148c0 2.75 2.031 5.093 4.672 5.602h2.54c1.218-.102 2.133-1.121 2.133-2.241z"/><path opacity=".3" d="M30.811 77.657c1.22.917 2.337 2.037 3.15 3.361h-3.15v15.686h.813c0 .814.203 1.527.61 2.139-.407.407-.915.916-1.423 1.222v1.833c.813-.611 1.626-1.222 2.337-1.935a4.417 4.417 0 0 0 2.945 1.12c2.438 0 4.47-2.037 4.47-4.481 0-2.037-1.321-3.769-3.25-4.278.202-1.12.405-2.24.405-3.463 0-2.648-.71-5.093-1.828-7.333 0-.102-.102-.102-.102-.204-1.218-2.24-2.945-4.074-5.078-5.5v1.833h.101zm5.08 14.463c-1.93.102-3.454 1.324-4.064 3.158h-.812c.304-1.223.406-2.547.508-3.769a5.78 5.78 0 0 0 .304-1.833h4.368c0 .815-.203 1.63-.305 2.444zm.304-3.972h-4.368a5.78 5.78 0 0 0-.305-1.833c-.101-1.324-.304-2.547-.507-3.87h3.758c.812 1.833 1.32 3.666 1.422 5.703z"/></g><path d="M35.687 88.861c0-2.648-.711-5.092-1.828-7.333 0-.102-.102-.102-.102-.204-1.727-3.259-4.672-5.805-8.126-7.13-.101 0-.101-.101-.203-.101-1.625-.611-3.453-1.019-5.383-1.019-8.634 0-15.642 7.028-15.642 15.685 0 2.649.711 5.195 1.828 7.334 2.641 4.889 7.821 8.25 13.814 8.25 1.93 0 3.758-.408 5.383-1.019h.102c5.992-2.037 10.157-7.74 10.157-14.463zM20.756 103.02v-6.315h6.297c-.61 2.037-1.422 3.87-2.336 5.602-1.219.407-2.54.713-3.961.713zm-4.875-.51c-1.016-1.731-1.93-3.666-2.438-5.703h5.993v6.315a18.438 18.438 0 0 1-3.555-.612zM5.927 89.676h4.977c0 1.935.304 3.87.609 5.602H7.45a13.57 13.57 0 0 1-1.523-5.602zm1.523-7.13h4.063a25.585 25.585 0 0 0-.61 5.602H5.928a13.17 13.17 0 0 1 1.523-5.602zm11.884-7.842v6.315h-5.993c.61-2.037 1.422-3.973 2.438-5.704a19.935 19.935 0 0 1 3.555-.611zm5.485.815c1.015 1.63 1.727 3.564 2.336 5.5h-6.297v-6.315c1.32.102 2.64.407 3.96.815zm9.344 12.63h-4.57c0-1.936-.305-3.871-.61-5.603h3.758c.813 1.732 1.32 3.565 1.422 5.602zm-1.422 7.129h-3.758c.407-1.833.61-3.667.61-5.602h4.57a15.2 15.2 0 0 1-1.422 5.602zm-5.281 0h-6.704v-5.602h7.415c0 1.935-.305 3.769-.711 5.602zm.71-7.13h-7.414v-5.602h6.704c.406 1.834.71 3.667.71 5.602zm-8.836-5.602v5.602h-7.008c0-1.935.304-3.87.71-5.602h6.298zm-7.008 7.13h7.008v5.602h-6.297c-.407-1.833-.61-3.667-.711-5.602zm14.626 11.611c.71-1.426 1.32-2.954 1.726-4.583h3.25c-1.32 1.935-3.046 3.463-4.976 4.583zm4.875-20.268h-3.25c-.406-1.63-1.016-3.158-1.727-4.584 2.133 1.222 3.758 2.75 4.977 4.584zm-18.181-4.787a38.757 38.757 0 0 0-1.828 4.787H8.263c1.32-2.037 3.149-3.667 5.383-4.787zM8.263 96.704h3.656a34.769 34.769 0 0 0 1.829 4.889c-2.235-1.121-4.165-2.852-5.485-4.89z" fill="#D1D4D4"/><path d="M20.553 105.056h-1.016a2.04 2.04 0 0 0-2.031-2.037H7.349c-1.727 0-3.047-1.324-3.047-3.056v-8.759c0-1.731 1.32-3.056 3.047-3.056h.101v1.019h-.1a2.04 2.04 0 0 0-2.032 2.037v8.76A2.04 2.04 0 0 0 7.35 102h10.157c1.726 0 3.047 1.426 3.047 3.056z" fill="#0F9C88"/><path d="M35.89 118.296H4.606c-1.218 0-2.133-.916-2.133-2.138v-9.371c0-1.222.915-2.139 2.133-2.139H35.89c1.219 0 2.133.917 2.133 2.139v9.371c0 1.12-.914 2.138-2.133 2.138z" fill="#14D1BA"/><path d="M5.52 106.991H4.098c-.203 0-.304-.102-.304-.306v-.509c0-.204.101-.306.304-.306H5.52c.204 0 .305.102.305.306v.509c0 .204-.101.306-.305.306zm0 3.259H4.098c-.203 0-.304-.102-.304-.305v-.612c0-.203.101-.305.304-.305H5.52c.204 0 .305.102.305.305v.51c0 .203-.101.407-.305.407zm3.048 0H7.146c-.204 0-.305-.102-.305-.305v-.612c0-.203.101-.305.305-.305h1.422c.203 0 .304.102.304.305v.51c0 .203-.101.407-.304.407zm3.148 0h-1.422c-.203 0-.305-.102-.305-.305v-.612c0-.203.102-.305.305-.305h1.422c.203 0 .305.102.305.305v.51c0 .203-.203.407-.305.407zm3.047 0h-1.422c-.203 0-.304-.102-.304-.305v-.612c0-.203.101-.305.304-.305h1.422c.204 0 .305.102.305.305v.51c0 .203-.101.407-.305.407zm3.047 0h-1.42c-.204 0-.305-.102-.305-.305v-.612c0-.203.101-.305.305-.305h1.421c.204 0 .305.102.305.305v.51c0 .203-.101.407-.305.407zm3.048 0h-1.422c-.204 0-.305-.102-.305-.305v-.612c0-.203.101-.305.305-.305h1.422c.203 0 .304.102.304.305v.51c0 .203-.101.407-.304.407zm3.148 0h-1.422c-.203 0-.305-.102-.305-.305v-.612c0-.203.102-.305.305-.305h1.422c.203 0 .305.102.305.305v.51c0 .203-.203.407-.305.407zm3.047 0h-1.422c-.203 0-.304-.102-.304-.305v-.612c0-.203.101-.305.304-.305h1.422c.203 0 .305.102.305.305v.51c0 .203-.102.407-.305.407zm3.047 0h-1.422c-.203 0-.304-.102-.304-.305v-.612c0-.203.101-.305.305-.305H30.1c.203 0 .304.102.304.305v.51c0 .203-.101.407-.305.407zm3.048 0h-1.422c-.203 0-.305-.102-.305-.305v-.612c0-.203.102-.305.305-.305h1.422c.203 0 .304.102.304.305v.51c0 .203-.101.407-.304.407zm3.148 0h-1.422c-.203 0-.304-.102-.304-.305v-.612c0-.203.101-.305.304-.305h1.422c.203 0 .305.102.305.305v.51c0 .203-.203.407-.305.407zM5.52 112.185H4.098c-.203 0-.304-.102-.304-.305v-.509c0-.204.101-.306.304-.306H5.52c.204 0 .305.102.305.306v.509c0 .203-.101.305-.305.305zm3.048 0H7.146c-.204 0-.305-.102-.305-.305v-.509c0-.204.101-.306.305-.306h1.422c.203 0 .304.102.304.306v.509c0 .203-.101.305-.304.305zm3.148 0h-1.422c-.203 0-.305-.102-.305-.305v-.509c0-.204.102-.306.305-.306h1.422c.203 0 .305.102.305.306v.509c0 .203-.203.305-.305.305zm3.047 0h-1.422c-.203 0-.304-.102-.304-.305v-.509c0-.204.101-.306.304-.306h1.422c.204 0 .305.102.305.306v.509c0 .203-.101.305-.305.305zm3.047 0h-1.42c-.204 0-.305-.102-.305-.305v-.509c0-.204.101-.306.305-.306h1.421c.204 0 .305.102.305.306v.509c0 .203-.101.305-.305.305zm3.048 0h-1.422c-.204 0-.305-.102-.305-.305v-.509c0-.204.101-.306.305-.306h1.422c.203 0 .304.102.304.306v.509c0 .203-.101.305-.304.305zm3.148 0h-1.422c-.203 0-.305-.102-.305-.305v-.509c0-.204.102-.306.305-.306h1.422c.203 0 .305.102.305.306v.509c0 .203-.203.305-.305.305zm3.047 0h-1.422c-.203 0-.304-.102-.304-.305v-.509c0-.204.101-.306.304-.306h1.422c.203 0 .305.102.305.306v.509c0 .203-.102.305-.305.305zm3.047 0h-1.422c-.203 0-.304-.102-.304-.305v-.509c0-.204.101-.306.305-.306H30.1c.203 0 .304.102.304.306v.509c0 .203-.101.305-.305.305zm3.048 0h-1.422c-.203 0-.305-.102-.305-.305v-.509c0-.204.102-.306.305-.306h1.422c.203 0 .304.102.304.306v.509c0 .203-.101.305-.304.305zm3.148 0h-1.422c-.203 0-.304-.102-.304-.305v-.509c0-.204.101-.306.304-.306h1.422c.203 0 .305.102.305.306v.509c0 .203-.203.305-.305.305zM5.52 114.222H4.098c-.203 0-.304-.102-.304-.305v-.51c0-.203.101-.305.304-.305H5.52c.204 0 .305.102.305.305v.51c0 .102-.101.305-.305.305zm3.048 0H7.146c-.204 0-.305-.102-.305-.305v-.51c0-.203.101-.305.305-.305h1.422c.203 0 .304.102.304.305v.51c0 .102-.101.305-.304.305zm3.148 0h-1.422c-.203 0-.305-.102-.305-.305v-.51c0-.203.102-.305.305-.305h1.422c.203 0 .305.102.305.305v.51c0 .102-.203.305-.305.305zm3.047 0h-1.422c-.203 0-.304-.102-.304-.305v-.51c0-.203.101-.305.304-.305h1.422c.204 0 .305.102.305.305v.51c0 .102-.101.305-.305.305zm3.047 0h-1.42c-.204 0-.305-.102-.305-.305v-.51c0-.203.101-.305.305-.305h1.421c.204 0 .305.102.305.305v.51c0 .102-.101.305-.305.305zm3.048 0h-1.422c-.204 0-.305-.102-.305-.305v-.51c0-.203.101-.305.305-.305h1.422c.203 0 .304.102.304.305v.51c0 .102-.101.305-.304.305zm3.148 0h-1.422c-.203 0-.305-.102-.305-.305v-.51c0-.203.102-.305.305-.305h1.422c.203 0 .305.102.305.305v.51c0 .102-.203.305-.305.305zm3.047 0h-1.422c-.203 0-.304-.102-.304-.305v-.51c0-.203.101-.305.304-.305h1.422c.203 0 .305.102.305.305v.51c0 .102-.102.305-.305.305zm3.047 0h-1.422c-.203 0-.304-.102-.304-.305v-.51c0-.203.101-.305.305-.305H30.1c.203 0 .304.102.304.305v.51c0 .102-.101.305-.305.305zm3.048 0h-1.422c-.203 0-.305-.102-.305-.305v-.51c0-.203.102-.305.305-.305h1.422c.203 0 .304.102.304.305v.51c0 .102-.101.305-.304.305zm3.148 0h-1.422c-.203 0-.304-.102-.304-.305v-.51c0-.203.101-.305.304-.305h1.422c.203 0 .305.102.305.305v.51c0 .102-.203.305-.305.305zM5.52 116.157H4.098c-.203 0-.304-.102-.304-.305v-.51c0-.203.101-.305.304-.305H5.52c.204 0 .305.102.305.305v.51c0 .203-.101.305-.305.305zm3.048 0H7.146c-.204 0-.305-.102-.305-.305v-.51c0-.203.101-.305.305-.305h1.422c.203 0 .304.102.304.305v.51c0 .203-.101.305-.304.305zm3.148 0h-1.422c-.203 0-.305-.102-.305-.305v-.51c0-.203.102-.305.305-.305h1.422c.203 0 .305.102.305.305v.51c0 .203-.203.305-.305.305zm15.337 0H13.341c-.203 0-.304-.102-.304-.305v-.51c0-.203.101-.305.304-.305h13.712c.203 0 .305.102.305.305v.51c0 .203-.102.305-.305.305zm3.047 0h-1.422c-.203 0-.304-.102-.304-.305v-.51c0-.203.101-.305.305-.305H30.1c.203 0 .304.102.304.305v.51c0 .203-.101.305-.305.305zm3.048 0h-1.422c-.203 0-.305-.102-.305-.305v-.51c0-.203.102-.305.305-.305h1.422c.203 0 .304.102.304.305v.51c0 .203-.101.305-.304.305zm3.148 0h-1.422c-.203 0-.304-.102-.304-.305v-.51c0-.203.101-.305.304-.305h1.422c.203 0 .305.102.305.305v.51c0 .203-.203.305-.305.305zm-27.728-9.166H7.146c-.204 0-.305-.102-.305-.306v-.509c0-.204.101-.306.305-.306h1.422c.203 0 .304.102.304.306v.509c0 .204-.101.306-.304.306zm3.148 0h-1.422c-.203 0-.305-.102-.305-.306v-.509c0-.204.102-.306.305-.306h1.422c.203 0 .305.102.305.306v.509c0 .204-.203.306-.305.306zm3.047 0h-1.422c-.203 0-.304-.102-.304-.306v-.509c0-.204.101-.306.304-.306h1.422c.204 0 .305.102.305.306v.509c0 .204-.101.306-.305.306zm3.047 0h-1.42c-.204 0-.305-.102-.305-.306v-.509c0-.204.101-.306.305-.306h1.421c.204 0 .305.102.305.306v.509c0 .204-.101.306-.305.306zm3.048 0h-1.422c-.204 0-.305-.102-.305-.306v-.509c0-.204.101-.306.305-.306h1.422c.203 0 .304.102.304.306v.509c0 .204-.101.306-.304.306zm3.148 0h-1.422c-.203 0-.305-.102-.305-.306v-.509c0-.204.102-.306.305-.306h1.422c.203 0 .305.102.305.306v.509c0 .204-.203.306-.305.306zm3.047 0h-1.422c-.203 0-.304-.102-.304-.306v-.509c0-.204.101-.306.304-.306h1.422c.203 0 .305.102.305.306v.509c0 .204-.102.306-.305.306zm3.047 0h-1.422c-.203 0-.304-.102-.304-.306v-.509c0-.204.101-.306.305-.306H30.1c.203 0 .304.102.304.306v.509c0 .204-.101.306-.305.306zm3.048 0h-1.422c-.203 0-.305-.102-.305-.306v-.509c0-.204.102-.306.305-.306h1.422c.203 0 .304.102.304.306v.509c0 .204-.101.306-.304.306zm3.148 0h-1.422c-.203 0-.304-.102-.304-.306v-.509c0-.204.101-.306.304-.306h1.422c.203 0 .305.102.305.306v.509c0 .204-.203.306-.305.306z" fill="#fff"/><path d="M31.827 83.769c-.813.203-1.016.407-1.219 1.222-.203-.815-.406-1.019-1.219-1.222.813-.204 1.016-.408 1.22-1.223.304.815.507 1.019 1.218 1.223zm-4.977-6.621c-1.016.306-1.32.611-1.625 1.63-.305-1.12-.61-1.324-1.727-1.732 1.118-.305 1.32-.61 1.727-1.731.305 1.222.61 1.528 1.625 1.833zm9.142-.713c-1.625.51-2.032.917-2.438 2.445-.508-1.63-.914-2.037-2.438-2.445 1.625-.51 2.032-.916 2.438-2.444.406 1.528.813 1.935 2.438 2.444zM20.045 98.741c5.441 0 9.853-4.423 9.853-9.88 0-5.456-4.412-9.88-9.853-9.88s-9.852 4.424-9.852 9.88c0 5.457 4.41 9.88 9.852 9.88z" fill="#FFC107"/><path d="M28.525 90.927c1.108-4.708-1.799-9.425-6.494-10.537s-9.4 1.804-10.508 6.511c-1.109 4.709 1.798 9.426 6.493 10.538s9.4-1.804 10.509-6.512z" fill="#FFA000"/><path d="M20.045 96.602c4.263 0 7.72-3.465 7.72-7.74s-3.457-7.741-7.72-7.741-7.72 3.466-7.72 7.74c0 4.276 3.457 7.741 7.72 7.741z" fill="#FFC107"/><path d="M21.06 92.834h-2.843c-.61 0-1.219-.51-1.219-1.223v-.61h1.727v.101h2.336c.406 0 .812-.407.812-.815 0-.305-.203-.509-.507-.509h-2.133c-1.22 0-2.235-1.019-2.235-2.24v-.306a2.518 2.518 0 0 1 2.54-2.547h2.843c.61 0 1.22.51 1.22 1.223v.713h-1.728v-.204h-2.336c-.406 0-.812.407-.812.815v.305c0 .306.203.51.508.51h2.133c1.218 0 2.234 1.018 2.234 2.24a2.518 2.518 0 0 1-2.54 2.547z" fill="#212121"/><path d="M21.163 83.87h-1.727v9.982h1.727v-9.981z" fill="#212121"/><path d="M38.531 96.602c0 2.444-2.031 4.481-4.47 4.481-2.437 0-4.468-2.037-4.468-4.481 0-2.445 2.031-4.482 4.469-4.482s4.469 2.037 4.469 4.482z" fill="#FFC107"/><path d="M38.023 96.602a3.972 3.972 0 0 1-3.961 3.972c-2.133 0-3.961-1.833-3.961-3.972a3.972 3.972 0 0 1 3.96-3.973c2.134 0 3.962 1.834 3.962 3.973z" fill="#FFA000"/><path d="M37.617 96.602c0 1.935-1.625 3.565-3.555 3.565-1.93 0-3.555-1.63-3.555-3.565s1.625-3.565 3.555-3.565c1.93.102 3.555 1.63 3.555 3.565z" fill="#FFC107"/><path d="M34.468 98.435h-1.32c-.305 0-.508-.204-.508-.509v-.306h1.93a.437.437 0 0 0 .406-.407c0-.102-.102-.204-.203-.204h-1.016a1.02 1.02 0 0 1-1.015-1.018v-.102c0-.611.507-1.12 1.117-1.12h1.32c.305 0 .508.203.508.509v.305h-.813v-.102h-1.117c-.203 0-.406.204-.406.408v.102c0 .102.102.204.203.204h1.016c.61 0 1.015.509 1.015 1.018.102.713-.406 1.222-1.117 1.222z" fill="#212121"/><path d="M34.57 94.361h-.813v4.583h.813v-4.583z" fill="#212121"/><path d="M7.653 87.843a2.746 2.746 0 0 0 2.743-2.75 2.746 2.746 0 0 0-2.743-2.75 2.746 2.746 0 0 0-2.742 2.75 2.746 2.746 0 0 0 2.742 2.75z" fill="#FFC107"/><path d="M10.091 85.093c0 1.324-1.117 2.444-2.438 2.444-1.32 0-2.437-1.12-2.437-2.445 0-1.324 1.117-2.444 2.437-2.444 1.32 0 2.438 1.12 2.438 2.445z" fill="#FFA000"/><path d="M7.653 87.231a2.136 2.136 0 0 0 2.133-2.138 2.136 2.136 0 0 0-2.133-2.14 2.136 2.136 0 0 0-2.133 2.14c0 1.18.955 2.138 2.133 2.138z" fill="#FFC107"/><path d="M7.857 86.213h-.813c-.203 0-.305-.102-.305-.305v-.204h1.118c.101 0 .203-.102.203-.204s-.102-.102-.102-.102h-.61c-.304 0-.609-.305-.609-.61v-.103c0-.407.305-.713.711-.713h.813c.203 0 .305.102.305.306v.204H8.06v-.102h-.61c-.101 0-.203.102-.203.204v.101c0 .102.102.102.102.102h.61c.304 0 .609.306.609.611 0 .51-.305.815-.711.815z" fill="#212121"/><path d="M7.958 83.769H7.45v2.75h.508v-2.75z" fill="#212121"/><path d="M9.075 76.843c0 2.342-1.828 4.176-4.164 4.176-2.336 0-4.063-1.936-4.063-4.176 0-2.343 1.828-4.176 4.165-4.176 2.336 0 4.062 1.833 4.062 4.176z" fill="#FFC107"/><path d="M5.013 80.51a3.662 3.662 0 0 0 3.656-3.667 3.662 3.662 0 0 0-3.657-3.667 3.662 3.662 0 0 0-3.656 3.667 3.662 3.662 0 0 0 3.657 3.666z" fill="#FFA000"/><path d="M8.263 76.843c0 1.833-1.422 3.26-3.25 3.26-1.829 0-3.25-1.427-3.25-3.26 0-1.834 1.421-3.26 3.25-3.26 1.726 0 3.25 1.427 3.25 3.26z" fill="#FFC107"/><path d="M5.419 78.472H4.2c-.305 0-.508-.203-.508-.509v-.204H5.42c.203 0 .305-.203.305-.305a.22.22 0 0 0-.204-.204h-.914a.912.912 0 0 1-.914-.917v-.102a1.02 1.02 0 0 1 1.016-1.018h1.219c.304 0 .508.204.508.51v.305h-.711v-.102H4.708c-.203 0-.305.204-.305.305v.102c0 .102.102.204.203.204h.914c.508 0 .915.407.915.917a1.02 1.02 0 0 1-1.016 1.018z" fill="#212121"/><path d="M5.419 74.704h-.711v4.278h.71v-4.278z" fill="#212121"/><path opacity=".3" d="M223.999 62.38h-.203c-2.438 0-4.368 1.935-4.368 4.38v37.786h14.322a4.666 4.666 0 0 0 4.672-4.685V62.38h-14.423z" fill="#231F20"/><path d="M273.261 118.296h-46.418c-2.438 0-4.368-1.936-4.368-4.38V67.064c0-2.444 1.93-4.38 4.368-4.38h46.418c2.437 0 4.367 1.936 4.367 4.38v46.852c.102 2.343-1.93 4.38-4.367 4.38z" fill="#404142"/><path d="M222.475 71.648h55.255v-4.481a4.558 4.558 0 0 0-4.571-4.584h-46.113a4.558 4.558 0 0 0-4.571 4.584v4.48z" fill="#14D1BA"/><path opacity=".5" d="M273.159 62.583h-2.539a4.558 4.558 0 0 1 4.57 4.584v46.444a4.557 4.557 0 0 1-4.57 4.583h2.539a4.558 4.558 0 0 0 4.571-4.583V67.166c0-2.444-2.133-4.583-4.571-4.583z" fill="#404142"/><path d="M230.804 67.472a1.02 1.02 0 0 1-1.016 1.019 1.02 1.02 0 0 1 0-2.037c.61 0 1.016.407 1.016 1.018zm4.063 0a1.02 1.02 0 0 1-1.016 1.019 1.02 1.02 0 0 1 0-2.037 1.02 1.02 0 0 1 1.016 1.018zm3.961 0c0 .51-.406 1.019-1.015 1.019a1.02 1.02 0 0 1 0-2.037c.609 0 1.015.407 1.015 1.018zm-9.751 8.556h-2.336v2.342h2.336v-2.342zm0 4.583h-2.336v2.343h2.336V80.61zm0 4.583h-2.336v2.343h2.336v-2.343zm0 4.584h-2.336v2.342h2.336v-2.342zm0 4.583h-2.336v2.343h2.336V94.36zm0 4.583h-2.336v2.343h2.336v-2.343zm0 4.584h-2.336v2.342h2.336v-2.342zm0 4.583h-2.336v2.343h2.336v-2.343zm0 4.583h-2.336v2.343h2.336v-2.343zm17.369-34.324h-8.329c-.711 0-1.32-.61-1.32-1.324 0-.713.609-1.324 1.32-1.324h8.329c.711 0 1.321.611 1.321 1.324-.102.815-.61 1.324-1.321 1.324z" fill="#fff"/><path d="M254.064 78.37h-3.047a1.347 1.347 0 0 1-1.321-1.324c0-.713.61-1.324 1.321-1.324h3.047c.711 0 1.32.611 1.32 1.324 0 .815-.609 1.324-1.32 1.324z" fill="#FFC107"/><path d="M246.446 83.87h-13.204a1.347 1.347 0 0 1-1.321-1.324c0-.713.61-1.324 1.321-1.324h13.204c.711 0 1.32.611 1.32 1.324-.101.815-.609 1.324-1.32 1.324zm4.875 0h21.533c.711 0 1.321-.61 1.321-1.324 0-.713-.61-1.324-1.321-1.324h-21.533c-.711 0-1.32.611-1.32 1.324.102.815.609 1.324 1.32 1.324zm.711 5.5h-13.204c-.711 0-1.32-.61-1.32-1.324 0-.713.609-1.324 1.32-1.324h13.204c.711 0 1.321.611 1.321 1.324-.102.815-.61 1.324-1.321 1.324zm-4.063 5.5h-13.204c-.711 0-1.32-.611-1.32-1.324 0-.713.609-1.324 1.32-1.324h13.204c.711 0 1.321.61 1.321 1.324-.102.815-.61 1.324-1.321 1.324z" fill="#fff"/><path d="M252.032 94.87h2.641c.711 0 1.321-.611 1.321-1.324 0-.713-.61-1.324-1.321-1.324h-2.641c-.711 0-1.32.61-1.32 1.324 0 .815.609 1.324 1.32 1.324z" fill="#FFC107"/><path d="M271.737 94.87h-13.001c-.711 0-1.32-.611-1.32-1.324 0-.713.609-1.324 1.32-1.324h13.001c.711 0 1.32.61 1.32 1.324-.101.815-.609 1.324-1.32 1.324zm-25.291 5.5h-13.204a1.347 1.347 0 0 1-1.321-1.324c0-.713.61-1.324 1.321-1.324h13.204c.711 0 1.32.611 1.32 1.324-.101.815-.609 1.324-1.32 1.324zm4.774 0h9.446c.711 0 1.32-.611 1.32-1.324 0-.713-.609-1.324-1.32-1.324h-9.446c-.711 0-1.321.611-1.321 1.324.102.815.61 1.324 1.321 1.324z" fill="#fff"/><path d="M246.446 105.87h-6.297a1.347 1.347 0 0 1-1.321-1.324c0-.713.61-1.324 1.321-1.324h6.297c.711 0 1.32.611 1.32 1.324-.101.815-.609 1.324-1.32 1.324zm6.196 0h15.642c.711 0 1.32-.611 1.32-1.324 0-.713-.609-1.324-1.32-1.324h-15.642c-.711 0-1.321.611-1.321 1.324.102.815.61 1.324 1.321 1.324z" fill="#FFC107"/><path d="M246.446 111.37h-13.204c-.711 0-1.321-.611-1.321-1.222 0-.713.61-1.324 1.321-1.324h13.204c.711 0 1.32.611 1.32 1.324-.101.713-.609 1.222-1.32 1.222zm3.555 0h3.047c.711 0 1.32-.611 1.32-1.222 0-.713-.609-1.324-1.32-1.324h-3.047c-.711 0-1.321.611-1.321 1.324 0 .713.61 1.222 1.321 1.222zm22.853 0h-15.032c-.711 0-1.321-.611-1.321-1.222 0-.713.61-1.324 1.321-1.324h15.032c.711 0 1.321.611 1.321 1.324 0 .713-.61 1.222-1.321 1.222z" fill="#fff"/><path opacity=".3" d="M277.73 113.815V76.028h-3.352c-1.219 0-2.235 1.018-2.235 2.24v25.565l-1.015 1.019a1.6 1.6 0 0 0 0 2.241l.914.916v4.685h-3.25c-.813 0-1.524.713-1.524 1.528v3.972h6.094c2.336.102 4.368-1.935 4.368-4.379z" fill="#231F20"/><path opacity=".3" d="M310.74 112.593h-3.25v-4.685l.914-.917a1.603 1.603 0 0 0 0-2.241l-.914-.917V78.371c0-1.223-1.016-2.241-2.235-2.241h-25.291c-1.219 0-2.234 1.018-2.234 2.24v25.565l-1.016 1.019a1.603 1.603 0 0 0 0 2.241l.914.916v4.685H275.8v5.602h36.362v-4.074c.102-1.018-.609-1.731-1.422-1.731z" fill="#231F20"/><path d="M274.581 118.296h29.862V78.371c0-1.223-1.016-2.241-2.235-2.241h-25.291c-1.219 0-2.235 1.018-2.235 2.24v39.926h-.101z" fill="#fff"/><path d="M301.903 81.528h-24.884v36.667h24.884V81.528z" fill="#14D1BA"/><path d="M293.676 79.49h-8.227a.803.803 0 0 1-.813-.814v-.102c0-.51.407-.815.813-.815h8.227c.508 0 .813.408.813.815v.102c0 .407-.407.815-.813.815z" fill="#B1B1B1"/><path opacity=".3" d="M304.443 117.278v-5.602h-.102c-.508 0-1.016-.305-1.219-.916-.101-.306-.203-.612-.406-.917-.203-.509-.102-1.121.203-1.426l1.422-1.426v-4.074l-2.844-2.852a1.592 1.592 0 0 0-2.235 0l-2.336 2.343c-.406.407-.914.509-1.422.305-.304-.102-.711-.305-1.015-.407a1.324 1.324 0 0 1-.813-1.222v-3.362c0-.814-.711-1.527-1.523-1.527h-5.384c-.812 0-1.523.713-1.523 1.528v3.361c0 .509-.305 1.018-.914 1.222-.305.102-.61.305-.915.407-.507.204-1.117.102-1.422-.203l-2.336-2.343a1.59 1.59 0 0 0-2.234 0l-2.844 2.852v4.176l1.422 1.426c.406.407.508.916.305 1.426-.102.305-.305.713-.407 1.018a1.32 1.32 0 0 1-1.219.815h-.101v5.602h7.313c0-.713 0-1.528.101-2.139.915-4.787 5.79-7.435 10.259-5.806 3.149 1.223 5.18 4.482 4.774 7.843h7.415v-.102z" fill="#404142"/><path d="M309.217 114.222v4.074H297.13c.304-3.361-1.625-6.62-4.774-7.842-4.469-1.732-9.345 1.018-10.259 5.805-.101.612-.101 1.426-.101 2.139h-12.087v-3.972c0-.815.711-1.528 1.523-1.528h3.352c.508 0 1.016-.305 1.219-.815.102-.305.305-.712.406-1.018.203-.509.102-1.019-.304-1.426l-2.337-2.343a1.602 1.602 0 0 1 0-2.24l3.758-3.871a1.592 1.592 0 0 1 2.235 0l2.336 2.343c.406.407 1.016.509 1.422.204.305-.102.61-.306.914-.408.508-.203.914-.713.914-1.222v-3.361c0-.815.711-1.528 1.524-1.528h5.383c.813 0 1.524.713 1.524 1.528v3.361c0 .509.305 1.019.812 1.222.305.102.711.306 1.016.408.508.203 1.016.101 1.422-.306l2.336-2.342a1.59 1.59 0 0 1 2.235 0l3.859 3.87a1.6 1.6 0 0 1 0 2.241l-2.336 2.342c-.406.408-.508 1.019-.203 1.426.102.306.305.611.406.917.204.509.711.916 1.219.916h3.352c.61-.203 1.321.51 1.321 1.426z" fill="#FFC107"/><path opacity=".3" d="M336.235 90.898c0-.204 0-.407.101-.611 0-.102.102-.306.102-.408.406-1.425 1.219-2.648 2.336-3.36v-6.417c0 .407-.305.713-.609.814-.204.102-.508.204-.711.306-.407.204-.813.102-1.118-.204l-1.828-1.731c-.508-.51-1.219-.408-1.625 0l-2.844 2.953c-.508.51-.406 1.223 0 1.63l1.828 1.834c.305.305.406.713.203 1.12-.101.305-.203.51-.304.815-.102.407-.508.61-.915.61h-2.539c-.609 0-1.219.51-1.219 1.223V91h-4.57l-.711 1.528c-.203.509.101 1.12.711 1.12h.101v21.593c0 1.629 1.321 3.055 3.047 3.055h13.205V91h-2.641v-.102z" fill="#231F20"/><path d="M355.025 94.666h3.25c.61 0 1.219-.509 1.219-1.222V89.37c0-.61-.508-1.222-1.219-1.222h-2.539c-.406 0-.813-.306-.914-.611-.102-.204-.203-.51-.305-.713-.203-.407-.101-.815.203-1.12l1.727-1.732c.508-.51.508-1.222 0-1.63l-2.844-2.851c-.508-.51-1.219-.51-1.625 0l-1.828 1.833c-.305.305-.711.407-1.118.204-.304-.102-.508-.204-.812-.306-.406-.102-.61-.51-.61-.917V77.76c0-.611-.507-1.222-1.218-1.222h-4.063c-.61 0-1.219.51-1.219 1.222v2.546c0 .408-.305.815-.61.917-.203.102-.507.204-.711.306-.406.203-.812.101-1.117-.204l-1.828-1.732c-.508-.509-1.219-.407-1.625 0l-2.844 2.954c-.508.51-.407 1.222 0 1.63l1.828 1.833c.305.306.406.713.203 1.12-.101.306-.203.51-.305.815-.101.408-.507.611-.914.611h-2.539c-.609 0-1.219.51-1.219 1.223v4.074c0 .61.508 1.222 1.219 1.222h2.539c.407 0 .813.305.914.611.102.204.204.51.305.713.203.407.102.815-.203 1.12l-1.727 1.834c-.508.509-.406 1.222 0 1.629l2.946 2.852c.508.509 1.219.408 1.625 0l1.828-1.833c.305-.306.711-.408 1.118-.204.304.102.507.204.812.306.406.102.61.509.61.916v2.547c0 .611.507 1.222 1.218 1.222h4.063c.61 0 1.219-.509 1.219-1.222v-2.547c0-.407.305-.814.609-.916.204-.102.508-.204.711-.306.407-.204.813-.102 1.118.204l1.828 1.731c.508.51 1.219.51 1.625 0l2.844-2.953c.508-.51.508-1.223 0-1.63l-1.828-1.833c-.305-.306-.406-.713-.203-1.12.203-.816.406-1.528.406-1.528zm-16.251-4.277c.711-3.667 4.469-5.704 7.821-4.38 2.539 1.019 4.164 3.769 3.656 6.417-.711 3.666-4.469 5.703-7.821 4.38-2.539-.917-4.164-3.77-3.656-6.417z" fill="#14D1BA"/><path opacity=".3" d="M329.531 93.546c0 .611.508 1.222 1.219 1.222h2.539c.406 0 .812.306.914.612.102.203.203.509.305.713.203.407.101.814-.203 1.12l-1.727 1.833c-.508.51-.406 1.222 0 1.63l2.945 2.852c.508.509 1.219.407 1.626 0l1.828-1.834c.305-.305.711-.407 1.117-.203.305.102.508.203.813.305.406.102.609.509.609.917v2.546c0 .611.508 1.222 1.219 1.222h4.063c.609 0 1.219-.509 1.219-1.222v-2.546c0-.408.304-.815.609-.917.203-.102.508-.203.711-.305.406-.204.813-.102 1.117.203l1.829 1.732c.507.509 1.218.509 1.625 0l2.844-2.954c.508-.51.508-1.222 0-1.63l-1.829-1.833c-.304-.305-.406-.713-.203-1.12.305-.611.508-1.324.508-1.426h3.25c.61 0 1.219-.51 1.219-1.222v-3.463h-9.344c.203.814.304 1.63.101 2.546-.711 3.667-4.469 5.704-7.821 4.38-2.539-1.019-4.164-3.769-3.656-6.519 0-.102.101-.305.101-.407h-9.344l-.203 3.768z" fill="#404142"/><path d="M360.916 118.296h-32.299V90.999h35.245v24.343c0 1.528-1.321 2.954-2.946 2.954z" fill="#FFC107"/><path d="M328.007 118.296h.61V90.999h-3.657v24.343c0 1.528 1.321 2.954 3.047 2.954z" fill="#FFA000"/><path opacity=".2" d="M324.96 95.38h2.336l1.321-4.482-3.657.916v3.565z" fill="#231F20"/><path d="M324.96 93.647h1.93c.305 0 .609-.203.711-.407l1.117-2.24h-3.656l-.711 1.527c-.406.51 0 1.12.609 1.12z" fill="#FFCD39"/><path opacity=".2" d="M363.862 95.38v-3.566l-35.245-.916 1.93 4.481h33.315z" fill="#231F20"/><path d="M364.268 93.648h-33.315c-.203 0-.508-.102-.61-.306L328.617 91h35.245l1.015 1.426c.407.408 0 1.223-.609 1.223z" fill="#FFCD39"/><path opacity=".3" d="M53.766 51.685l2.844-1.731c.508-.306 1.016-.306 1.524 0l2.844 1.731c.508.306 1.117-.102 1.117-.61v-7.742H52.65v7.741c0 .51.711.917 1.117.611z" fill="#231F20"/><path d="M61.08 49.648l-2.844-1.731c-.508-.306-1.016-.306-1.524 0l-2.844 1.731c-.508.306-1.117-.102-1.117-.611V35.491h9.446v13.546c0 .51-.61.917-1.117.611z" fill="#14D1BA"/><path opacity=".3" d="M62.197 35.49h-9.548v5.093l4.47-2.444a.646.646 0 0 1 .609 0l4.367 2.24v-4.888h.102z" fill="#231F20"/><path d="M67.275 41.907l-9.547-4.889a.646.646 0 0 0-.61 0l-9.344 5.093c-.508.204-1.016-.102-.914-.611l1.625-10.593c0-.203 0-.407-.203-.509l-7.72-7.333c-.406-.408-.203-1.019.305-1.12l10.563-1.63c.203 0 .407-.204.508-.306l4.57-9.676a.6.6 0 0 1 1.118 0l4.876 9.472a.558.558 0 0 0 .507.306l10.564 1.426c.508.102.71.713.406 1.12l-7.516 7.537c-.102.102-.203.408-.203.611l1.93 10.491c.101.51-.407.917-.915.611z" fill="#FFC107"/><path d="M73.979 22.657c.406-.407.203-1.018-.406-1.12l-.813-.102c0 .204 0 .408-.203.51l-7.516 7.537c-.102.101-.203.407-.203.61l1.93 10.491c.101.51-.407.917-.915.713l1.32.713c.509.204 1.016-.203.915-.713l-1.93-10.49c0-.204 0-.408.203-.612l7.618-7.537zm-17.572 13.75a.646.646 0 0 0-.61 0l-8.836 4.787v.306c-.101.51.508.917.914.611l9.345-5.093c.203-.101.406-.101.508 0l-1.32-.61z" fill="#FFA000"/><path opacity=".3" d="M96.73 117.176V97.519c0-1.019-.1-1.732-.304-2.14 0-.916-.61-1.629-1.523-1.833l-1.626-1.528-1.625-1.324-1.523-1.324V76.843c0-1.325-1.016-2.343-2.336-2.343h-2.337v36.87H80.48v2.649c2.743 2.648 6.4 4.175 10.158 4.175h5.18-.102c.406-.101 1.016-.203 1.016-1.018z" fill="#231F20"/><path d="M56.915 118.093H90.84c1.727 0 3.047-1.324 3.047-3.056v-19.76c0-1.018-.813-1.934-1.93-1.934H55.9a1.93 1.93 0 0 0-1.93 1.935v19.963c.101 1.629 1.32 2.852 2.945 2.852z" fill="#FFA000"/><path d="M54.477 94.26l16.659-13.65a5.03 5.03 0 0 1 5.79 0l15.743 13.037-38.19.611z" fill="#FFA000"/><path opacity=".2" d="M83.222 111.37H59.658l-3.25-18.639 3.554-2.852 23.26 2.954v18.537z" fill="#231F20"/><path opacity=".2" d="M63.924 110.658h23.564l3.25-18.64-3.555-2.851-23.26 2.954v18.537z" fill="#231F20"/><path d="M65.65 74.5l-5.79 5.704v31.166h27.628V76.843c0-1.325-1.016-2.343-2.336-2.343H65.65z" fill="#F1F2F2"/><path opacity=".35" d="M65.346 79.593l-5.485 6.314v-5.703l5.485-.611z" fill="#231F20"/><path d="M65.65 74.5l-5.79 5.704h4.267c.812 0 1.523-.713 1.523-1.528V74.5z" fill="#14D1BA"/><path d="M55.189 118.194s15.337-10.796 15.337-11.712L54.478 94.259s-.407 1.12-.407 3.158v19.657c0 1.019.61 1.019 1.118 1.12zm37.784.001s-15.033-11-15.033-11.917l15.642-11.51s.61.612.61 2.75v19.658c0 .917-.711.917-1.22 1.019z" fill="#FFC107"/><path d="M55.087 118.296l16.15-13.342c1.726-1.223 4.063-1.223 5.688 0l16.15 13.342H55.086z" fill="#FFA000"/><path d="M77.432 94.666c-1.117.612-2.336.815-3.656.815-3.453 0-6.297-2.546-6.297-6.518 0-4.278 2.945-8.046 7.617-8.046 3.657 0 6.095 2.546 6.095 6.009 0 3.157-1.727 4.99-3.657 4.99-.813 0-1.625-.61-1.524-1.833h-.101c-.711 1.222-1.727 1.834-2.946 1.834-1.218 0-2.234-1.019-2.234-2.649 0-2.546 2.031-4.99 4.977-4.99.914 0 1.726.203 2.234.407l-.71 3.769c-.305 1.63-.102 2.342.609 2.342 1.015 0 2.234-1.426 2.234-3.768 0-3.056-1.828-5.195-5.078-5.195-3.352 0-6.196 2.648-6.196 6.926 0 3.463 2.234 5.602 5.383 5.602 1.219 0 2.336-.204 3.149-.713l.101 1.019zm-1.218-9.064c-.204-.102-.61-.102-1.016-.102-1.828 0-3.352 1.731-3.352 3.768 0 .917.508 1.63 1.422 1.63 1.219 0 2.336-1.528 2.54-2.852l.406-2.444z" fill="#14D1BA"/><path opacity=".3" d="M91.043 113.815v3.463H80.784c.305-2.852-1.422-5.602-4.063-6.621-3.758-1.425-7.922.815-8.633 4.889-.102.51-.102 1.223-.102 1.732H57.728v-3.361c0-.713.61-1.324 1.32-1.324h2.844c.406 0 .813-.306 1.016-.713.102-.306.203-.611.305-.815a1.085 1.085 0 0 0-.203-1.222l-2.032-2.037a1.294 1.294 0 0 1 0-1.834l3.25-3.259a1.285 1.285 0 0 1 1.829 0l1.93 1.935c.304.306.812.408 1.218.204.305-.102.508-.204.813-.306.406-.203.71-.509.71-1.018v-2.75c0-.713.61-1.324 1.321-1.324h4.57c.712 0 1.321.611 1.321 1.324v2.852c0 .407.305.814.711 1.018.305.102.61.204.813.306.406.203.914.102 1.219-.204l2.031-2.037a1.285 1.285 0 0 1 1.828 0l3.25 3.259c.509.51.509 1.324 0 1.834l-1.93 1.935a1.085 1.085 0 0 0-.202 1.222c.101.204.203.509.304.815.204.407.61.713 1.016.713h2.742c.712 0 1.321.611 1.321 1.324z" fill="#404142"/><path d="M91.043 114.833v3.463H80.784c.305-2.851-1.422-5.601-4.063-6.62-3.758-1.426-7.922.815-8.633 4.889-.102.509-.102 1.222-.102 1.731H57.728v-3.361c0-.713.61-1.324 1.32-1.324h2.844c.406 0 .813-.305 1.016-.713.102-.305.203-.611.305-.815a1.085 1.085 0 0 0-.203-1.222l-2.032-2.037a1.293 1.293 0 0 1 0-1.833l3.25-3.259c.508-.51 1.32-.51 1.829 0l1.93 1.935c.304.305.812.407 1.218.203.305-.101.508-.203.813-.305.406-.204.71-.509.71-1.019v-2.75c0-.713.61-1.324 1.321-1.324h4.57c.712 0 1.321.611 1.321 1.324v2.852c0 .408.305.815.711 1.019.305.102.61.203.813.305.406.204.914.102 1.219-.203l2.031-2.037c.508-.51 1.32-.51 1.828 0l3.25 3.259a1.293 1.293 0 0 1 0 1.833l-1.93 1.935a1.087 1.087 0 0 0-.202 1.223c.101.203.203.509.304.814.204.408.61.713 1.016.713h2.742c.712 0 1.321.611 1.321 1.324z" fill="#14D1BA"/><path d="M326.077 34.88h-37.682a3.646 3.646 0 0 1-3.657-3.668V5.852a3.646 3.646 0 0 1 3.657-3.667h37.682a3.646 3.646 0 0 1 3.657 3.666v25.361a3.646 3.646 0 0 1-3.657 3.667z" fill="#ECECEC"/><path d="M284.738 9.519h44.996V5.852c0-2.037-1.625-3.769-3.758-3.769h-37.581a3.754 3.754 0 0 0-3.758 3.769v3.667h.101z" fill="#14D1BA"/><path opacity=".2" d="M326.078 2.185h-2.032a3.754 3.754 0 0 1 3.758 3.769v25.259c0 2.037-1.625 3.768-3.758 3.768h2.032a3.755 3.755 0 0 0 3.758-3.768V5.852c-.102-2.037-1.727-3.667-3.758-3.667z" fill="#404142"/><path d="M290.833 6.87a.814.814 0 0 0 .812-.815.814.814 0 1 0-.812.815zm3.25 0a.813.813 0 0 0 .812-.815.813.813 0 1 0-1.625 0c0 .45.364.815.813.815zm3.25 0a.814.814 0 0 0 0-1.63.813.813 0 0 0-.812.815c0 .45.363.815.812.815z" fill="#fff"/><path opacity=".1" d="M288.801 21.843l-4.063 4.074v4.787c0 2.24 1.829 4.074 4.063 4.074h23.565l7.008-7.028-.711-5.907h-29.862z" fill="#404142"/><path d="M320.593 20.926h-22.447v3.26h22.447v-3.26z" fill="#FFC107"/><path d="M320.593 23.268h-22.447v.815h22.447v-.815z" fill="#FFA000"/><path d="M319.272 23.472h-3.352v4.278h3.352v-4.278zm-4.774 0h-3.352v3.26h3.352v-3.26z" fill="#FFA000"/><path d="M291.442 20.111a2.843 2.843 0 0 0-2.844 2.852c0 1.528 1.219 2.852 2.844 2.852 1.625 0 2.844-1.222 2.844-2.852-.102-1.63-1.321-2.852-2.844-2.852zm0 3.87a1.02 1.02 0 0 1 0-2.037c.508 0 1.016.51 1.016 1.02a1.02 1.02 0 0 1-1.016 1.018z" fill="#FFC107"/><path d="M296.216 21.842a3.864 3.864 0 0 0-3.86 3.87 3.864 3.864 0 0 0 3.86 3.871 3.863 3.863 0 0 0 3.859-3.87 3.863 3.863 0 0 0-3.859-3.87zm0 5.806c-1.118 0-1.93-.917-1.93-1.935 0-1.019.914-1.935 1.93-1.935 1.117 0 1.929.916 1.929 1.935 0 1.018-.812 1.935-1.929 1.935z" fill="#FFC107"/><path d="M296.216 15.63a3.864 3.864 0 0 0-3.86 3.87 3.864 3.864 0 0 0 3.86 3.87 3.863 3.863 0 0 0 3.859-3.87 3.863 3.863 0 0 0-3.859-3.87zm0 5.907c-1.118 0-1.93-.917-1.93-1.935 0-1.019.914-1.935 1.93-1.935 1.117 0 1.929.916 1.929 1.935 0 1.018-.812 1.935-1.929 1.935z" fill="#FFC107"/><path d="M252.337 16.037h-4.774c-.711 0-1.32-.611-1.32-1.324 0-.713.609-1.324 1.32-1.324h4.774c.711 0 1.321.611 1.321 1.324.101.713-.61 1.324-1.321 1.324zm-2.539 5.398h-17.572c-.711 0-1.32-.611-1.32-1.324 0-.713.609-1.324 1.32-1.324h17.572c.711 0 1.32.611 1.32 1.324.102.713-.508 1.324-1.32 1.324zm1.727 5.297h-19.197a1.347 1.347 0 0 1-1.321-1.325c0-.712.61-1.324 1.321-1.324h19.197c.711 0 1.32.612 1.32 1.324 0 .713-.609 1.325-1.32 1.325zm7.11 5.398h-26.206c-.711 0-1.32-.612-1.32-1.325s.609-1.324 1.32-1.324h26.206c.711 0 1.32.611 1.32 1.324.102.713-.508 1.325-1.32 1.325z" fill="#fff"/><path d="M264.323 31.926h-3.149v3.768h3.149v-3.768z" fill="#231F20"/><path d="M271.081 26.747c3.657-4.485 2.995-11.095-1.478-14.761-4.474-3.667-11.064-3.004-14.721 1.482-3.657 4.485-2.995 11.095 1.478 14.761 4.473 3.667 11.064 3.004 14.721-1.482z" fill="#14D1BA"/><path d="M268.284 17.973c-.914.916-2.235.916-3.149 0-.914-.917-.914-2.241 0-3.158.914-.917 2.235-.917 3.149 0 .914.917.812 2.24 0 3.158zm.609 3.055c-.305.305-.914.305-1.219 0-.304-.306-.304-.917 0-1.222.305-.306.914-.306 1.219 0 .305.305.305.814 0 1.222z" fill="#fff"/><path d="M263.002 7.787c-6.805 0-12.29 5.5-12.29 12.324s5.485 12.324 12.29 12.324c6.805 0 12.29-5.5 12.29-12.324s-5.485-12.324-12.29-12.324zm0 20.982c-4.774 0-8.634-3.87-8.634-8.658 0-4.787 3.86-8.657 8.634-8.657 4.774 0 8.633 3.87 8.633 8.657s-3.859 8.658-8.633 8.658z" fill="#212121"/><path d="M275.8 20.111c0-7.13-5.79-12.833-12.9-12.833s-12.797 5.805-12.797 12.935c0 7.13 5.789 12.833 12.899 12.833 7.11-.102 12.798-5.805 12.798-12.935zm-12.798 10.796c-5.891 0-10.766-4.787-10.766-10.694 0-5.908 4.773-10.796 10.664-10.796s10.767 4.787 10.767 10.694c0 5.907-4.774 10.796-10.665 10.796z" fill="#3C3C3C"/><path d="M262.799 51.889a2.951 2.951 0 0 1-2.945-2.954V33.76h5.789v15.176c0 1.63-1.32 2.954-2.844 2.954z" fill="#FFCD39"/><path d="M259.854 33.861v15.176c0 1.12.609 2.037 1.523 2.547.61.305 1.321-.102 1.321-.815V33.86h-2.844z" fill="#FFA000"/><path d="M237.305 15.731l-.711-1.63h-3.149l-.711 1.63h-1.727l3.251-7.435h1.625l3.25 7.435h-1.828zm-2.235-5.194l-.914 2.139h1.828l-.914-2.139zm9.548 5.195h-1.524v-.713c-.406.509-.914.814-1.524.814a2.489 2.489 0 0 1-1.523-.509c-.406-.305-.609-.815-.609-1.426 0-.61.203-1.018.609-1.324.406-.305 1.016-.407 1.727-.407h1.218c0-.611-.304-.917-1.015-.917-.305 0-.61.102-.914.204-.305.102-.61.204-.813.407l-.711-1.018a4.436 4.436 0 0 1 2.539-.815c.711 0 1.219.204 1.727.51.406.305.609.916.609 1.629v3.565h.204zm-1.626-2.14v-.305h-1.015c-.61 0-.914.204-.914.611 0 .204.101.408.203.51.101.101.406.203.609.203.305 0 .508-.102.711-.305.305-.204.406-.408.406-.713z" fill="#14D1BA"/><path d="M222.882 111.37l1.523-7.74 6.298 7.027-7.821.713zm-6.298-7.027l1.524-7.741 6.297 7.028-7.821.713z" fill="#FFC107"/><path d="M207.849 118.5l2.539-21.287 18.791 21.083-21.33.204z" fill="#FFC107"/><path d="M207.849 118.5l8.837-14.259 6.297 7.027-15.134 7.232zm10.259-21.898l-7.72.61 6.298 7.029 1.422-7.64z" fill="#FFCD39"/><path d="M224.405 103.63l-7.719.611 6.196 7.028 1.523-7.639zm6.298 7.027l-7.72.611 6.196 7.028 1.524-7.639z" fill="#FFCD39"/></svg>