<svg width="485" height="138" fill="none" xmlns="http://www.w3.org/2000/svg"><g clip-path="url(#clip0)"><path d="M368.803 57.793h-4.469v-.816s-1.524-.815-2.336-1.325c-.61-.407-1.016-.407-1.016-1.733v-3.16l7.821 1.02v6.014z" fill="#C5C5C5"/><path d="M373.038 38.701c1.142-4.877-1.871-9.76-6.731-10.907-4.861-1.147-9.727 1.877-10.87 6.754-1.143 4.878 1.871 9.761 6.731 10.908 4.86 1.147 9.727-1.878 10.87-6.755z" fill="#FFA000"/><path d="M369.209 43.115h-9.954v6.931h9.954v-6.931z" fill="#FFA000"/><path d="M369.819 50.556l-3.352 2.752h-4.875l-3.048-2.752v-4.383h11.275v4.383z" fill="#9E9E9E"/><path d="M369.819 47.396h-11.275c-.203 0-.406-.204-.406-.408s.203-.407.406-.407h11.376c.204 0 .407.203.407.407-.102.204-.203.408-.508.408zm0 1.427h-11.275c-.203 0-.406-.204-.406-.408s.203-.407.406-.407h11.376c.204 0 .407.203.407.407-.102.204-.203.408-.508.408zm0 1.325h-11.275c-.203 0-.406-.204-.406-.408s.203-.407.406-.407h11.376c.204 0 .407.203.407.407-.102.306-.203.408-.508.408z" fill="#C5C5C5"/><path d="M364.943 54.837h-1.828a1.607 1.607 0 0 1-1.625-1.631h5.079c0 .815-.711 1.63-1.626 1.63z" fill="#212121"/><path opacity=".3" d="M370.225 49.74c0-.204-.203-.408-.406-.408v-.51a.437.437 0 0 0 .406-.407c0-.204-.203-.408-.406-.408v-.51a.437.437 0 0 0 .406-.407c0-.204-.203-.408-.406-.408v-.407h-.61V44.44c2.438-1.63 4.165-4.383 4.165-7.645v-.102l-4.571-4.586-8.836 8.867 9.75 9.785.203-.203v-.306c.204-.102.305-.204.305-.51z" fill="#231F20"/><path d="M371.038 58.302c0 1.427-.508 1.02-1.625 1.02-2.235 0-2.641-2.345-2.641-3.67v-.917c0-1.937 1.93-4.281 3.047-4.281 1.219 0 1.219 1.121 1.219 2.548v5.3z" fill="#fff"/><path d="M372.257 57.793h-9.65v79.503h9.65V57.793z" fill="#43DAC7"/><path d="M365.756 57.793h-3.149v79.503h3.149V57.793z" fill="#14D1BA"/><path d="M371.038 57.69l.203-7.95-1.422-2.242h-2.539c-.61 0-1.118.51-1.118 1.121a1.13 1.13 0 0 0 1.118 1.121h1.218l.204 1.121 2.336 6.83z" fill="#fff"/><path d="M364.334 24.259V26.5m3.86-.407l-.406 1.122m4.468.101l-1.422 1.733m3.149 2.141l-.914.611m3.352 2.956l-2.235.306m1.118 3.771l-1.219-.204m.711 4.485l-1.93-1.223m-1.625 3.568l-.711-.918m-13.712.612l.711-.918m-4.164-1.63l1.929-1.122m-2.234-3.159l1.117-.102m-2.133-3.976l2.235.408m.304-3.873l1.016.611m.914-4.484l1.422 1.834m2.742-2.752l.305 1.02" stroke="#673AB7" stroke-miterlimit="10" stroke-linecap="round"/><path d="M361.795 53.308h-2.133a1.02 1.02 0 0 1 0-2.039h2.133a1.019 1.019 0 0 1 0 2.039zm1.523-2.243h-4.57a1.02 1.02 0 0 1 0-2.038h4.57a1.02 1.02 0 0 1 1.016 1.02c0 .61-.406 1.018-1.016 1.018zm.711-2.14h-5.688a1.02 1.02 0 0 1 0-2.038h5.688a1.02 1.02 0 0 1 1.016 1.019c0 .611-.406 1.019-1.016 1.019zm-.812-2.141h-4.571a1.02 1.02 0 0 1 0-2.038h4.571a1.019 1.019 0 0 1 0 2.038z" fill="#fff"/><path d="M364.334 42.911c3.478 0 6.297-2.829 6.297-6.319 0-3.49-2.819-6.32-6.297-6.32-3.478 0-6.297 2.83-6.297 6.32s2.819 6.32 6.297 6.32z" fill="#FFC107"/><path d="M369.92 36.592c0 3.058-2.539 5.606-5.586 5.606s-5.586-2.548-5.586-5.606 2.539-5.606 5.586-5.606c3.149 0 5.586 2.446 5.586 5.606z" fill="#FFA000"/><path d="M369.311 36.592c0 2.752-2.235 4.994-4.977 4.994-2.742 0-4.977-2.242-4.977-4.994s2.235-4.995 4.977-4.995c2.742 0 4.977 2.243 4.977 4.995z" fill="#FFC107"/><path d="M365.045 39.038h-1.828a.803.803 0 0 1-.813-.815v-.408h1.118v.102h1.523c.305 0 .508-.204.508-.51 0-.204-.203-.305-.305-.305h-1.32c-.813 0-1.422-.612-1.422-1.427v-.204c0-.918.711-1.631 1.625-1.631h1.828c.407 0 .813.306.813.815v.408h-1.117v-.102h-1.524c-.305 0-.508.204-.508.51v.204c0 .203.203.305.305.305h1.32c.813 0 1.422.612 1.422 1.427-.101.918-.812 1.631-1.625 1.631z" fill="#212121"/><path d="M365.045 33.33h-1.117v6.422h1.117V33.33z" fill="#212121"/><path d="M134.073 105.189h-4.469V38.936c0-1.223 1.016-2.242 2.235-2.242 1.218 0 2.234 1.02 2.234 2.242v66.253z" fill="#14D1BA"/><path d="M131.737 36.694c-1.219 0-2.235 1.02-2.235 2.242v66.253h2.337l-.102-68.495c.102 0 .102 0 0 0z" fill="#43DAC7"/><path d="M147.582 45.052h-31.588v3.465h31.588v-3.465z" fill="#14D1BA"/><path d="M136.511 46.48c0 2.65-2.133 4.79-4.774 4.79a4.777 4.777 0 0 1-4.774-4.79 4.777 4.777 0 0 1 4.774-4.791 4.777 4.777 0 0 1 4.774 4.79z" fill="#FFC107"/><path d="M134.378 46.479a2.519 2.519 0 0 1-2.539 2.548 2.52 2.52 0 0 1-2.54-2.548 2.52 2.52 0 0 1 2.54-2.549 2.519 2.519 0 0 1 2.539 2.549z" fill="#FFA000"/><path d="M129.807 47.09a2.519 2.519 0 0 1 2.539-2.548 2.73 2.73 0 0 1 1.524.51c-.508-.612-1.219-1.02-2.031-1.02a2.52 2.52 0 0 0-2.54 2.549c0 .815.407 1.63 1.016 2.038-.305-.51-.508-1.019-.508-1.529z" fill="#BF7800"/><path d="M145.516 45.038l-1.434.516 6.098 17.08 1.434-.516-6.098-17.08z" fill="#212121"/><path d="M145.764 44.925l-6.616 17.103 1.42.553 6.617-17.103-1.421-.553z" fill="#212121"/><path d="M153.067 61.666c0 4.18-3.352 7.645-7.618 7.645a7.621 7.621 0 0 1-7.618-7.645h15.236z" fill="#FFC107"/><path d="M139.355 61.666h-1.524c0 4.18 3.352 7.645 7.618 7.645h.813c-3.86-.51-6.907-3.67-6.907-7.645z" fill="#FFA000"/><path d="M118.012 45.015l-6.096 17.08 1.434.515 6.096-17.08-1.434-.515z" fill="#212121"/><path d="M117.82 44.989l-1.42.553 6.622 17.102 1.42-.554-6.622-17.101z" fill="#212121"/><path d="M110.61 61.666c0 4.18 3.352 7.645 7.618 7.645a7.62 7.62 0 0 0 7.618-7.645H110.61z" fill="#FFC107"/><path d="M124.221 61.666c0 3.975-2.946 7.135-6.805 7.543h.812a7.621 7.621 0 0 0 7.618-7.645h-1.625v.102z" fill="#FFA000"/><path d="M147.481 46.785a2.042 2.042 0 0 1-2.032 2.038 2.04 2.04 0 0 1-2.031-2.038 2.04 2.04 0 0 1 2.031-2.039c1.117 0 2.032.918 2.032 2.039z" fill="#FFC107"/><path d="M145.449 49.537a2.736 2.736 0 0 1-2.742-2.752 2.736 2.736 0 0 1 2.742-2.752 2.736 2.736 0 0 1 2.743 2.752 2.736 2.736 0 0 1-2.743 2.752zm0-3.975c-.711 0-1.219.51-1.219 1.223 0 .713.508 1.223 1.219 1.223.711 0 1.219-.51 1.219-1.223 0-.714-.508-1.223-1.219-1.223z" fill="#212121"/><path d="M120.158 46.785a2.04 2.04 0 0 1-2.031 2.038 2.041 2.041 0 0 1-2.032-2.038c0-1.121.914-2.039 2.032-2.039a2.04 2.04 0 0 1 2.031 2.039z" fill="#FFC107"/><path d="M118.127 49.537a2.736 2.736 0 0 1-2.743-2.752 2.736 2.736 0 0 1 2.743-2.752 2.736 2.736 0 0 1 2.742 2.752 2.736 2.736 0 0 1-2.742 2.752zm0-3.975c-.711 0-1.219.51-1.219 1.223 0 .713.508 1.223 1.219 1.223.711 0 1.219-.51 1.219-1.223 0-.714-.508-1.223-1.219-1.223z" fill="#212121"/><path opacity=".3" d="M129.503 105.189h4.57v-21.71l-4.57 2.853v18.857z" fill="#212121"/><path d="M177.038 93.468h-51.09v41.178h51.09V93.468z" fill="#14D1BA"/><path d="M177.038 112.834l-51.09 17.531V94.181h51.09v18.653z" fill="#0F9C88"/><path d="M154.793 99.583h-6.297v29.151h6.297V99.583z" fill="#E6E8E7"/><path d="M150.731 99.583h-2.235v29.151h2.235V99.583z" fill="#fff"/><path d="M154.794 99.583h-2.235v29.151h2.235V99.583z" fill="#BBC1BE"/><path d="M155.809 97.443h-8.227v2.446h8.227v-2.446zm0 30.578h-8.227v2.446h8.227v-2.446z" fill="#F1F2F2"/><path d="M181.202 130.263H122.9v2.039h58.302v-2.039z" fill="#F1F2F2"/><path d="M119.752 95.2v1.733c0 .306.203.51.508.51h62.872c.305 0 .508-.204.508-.51V95.2c0-.204-.102-.306-.203-.408l-30.776-19.06a1.74 1.74 0 0 0-1.727 0l-30.878 19.06c-.203 0-.304.204-.304.408z" fill="#fff"/><path d="M129.502 92.448v1.733h44.387v-1.733l-21.33-13.556a1.74 1.74 0 0 0-1.727 0l-21.33 13.556z" fill="#D1D4D4"/><path d="M151.645 91.429a4.07 4.07 0 0 0 4.063-4.077 4.07 4.07 0 0 0-4.063-4.077 4.07 4.07 0 0 0-4.063 4.077 4.07 4.07 0 0 0 4.063 4.077z" fill="#14D1BA"/><path d="M148.293 88.065c0-2.242 1.828-4.077 4.063-4.077.914 0 1.828.306 2.539.917-.711-.917-1.93-1.529-3.149-1.529-2.234 0-4.062 1.835-4.062 4.078 0 1.325.609 2.446 1.523 3.16-.609-.816-.914-1.632-.914-2.549z" fill="#0F9C88"/><path d="M182.319 131.588h-60.536v3.058h60.536v-3.058z" fill="#D1D4D4"/><path d="M182.827 133.219h-62.263v4.077h62.263v-4.077z" fill="#fff"/><path d="M131.534 99.583h-6.298v29.151h6.298V99.583z" fill="#E6E8E7"/><path d="M127.471 99.583h-2.235v29.151h2.235V99.583z" fill="#fff"/><path d="M131.534 99.583h-2.235v29.151h2.235V99.583z" fill="#BBC1BE"/><path d="M132.448 97.443h-8.227v2.446h8.227v-2.446zm0 30.578h-8.227v2.446h8.227v-2.446z" fill="#F1F2F2"/><path d="M178.155 99.583h-6.298v29.151h6.298V99.583z" fill="#E6E8E7"/><path d="M174.092 99.583h-2.235v29.151h2.235V99.583z" fill="#fff"/><path d="M178.155 99.583h-2.235v29.151h2.235V99.583z" fill="#BBC1BE"/><path d="M179.069 97.443h-8.227v2.446h8.227v-2.446zm0 30.578h-8.227v2.446h8.227v-2.446z" fill="#F1F2F2"/><path d="M341.582 45.766l14.525 14.168v77.668h-68.763V51.576c0-3.262 2.64-5.81 5.789-5.81h48.449z" fill="#fff"/><path opacity=".35" d="M342.395 58.405l13.712 15.697V59.934l-13.712-1.53z" fill="#231F20"/><path d="M341.582 45.766l14.525 14.168h-10.665a3.865 3.865 0 0 1-3.86-3.874V45.766z" fill="#14D1BA"/><path d="M347.575 68.088h-51.801v63.093h51.801V68.088z" fill="#E6E8E7"/><path d="M308.673 68.088h-12.899v63.093h12.899V68.088z" fill="#fff"/><path d="M347.575 68.088h-51.801v11.518h51.801V68.088z" fill="#BBC1BE"/><path d="M345.645 132.098h-47.941c-1.524 0-2.844-1.325-2.844-2.854v-59.22c0-1.528 1.32-2.854 2.844-2.854h47.941c1.524 0 2.844 1.326 2.844 2.854v59.22c0 1.529-1.219 2.854-2.844 2.854zm-47.941-63.093c-.61 0-1.016.51-1.016 1.02v59.219a1.02 1.02 0 0 0 1.016 1.019h47.941a1.02 1.02 0 0 0 1.016-1.019v-59.22a1.02 1.02 0 0 0-1.016-1.019h-47.941z" fill="#929994"/><path d="M347.575 78.688h-51.801v1.835h51.801v-1.835zm0 6.524h-51.801v1.834h51.801v-1.834z" fill="#929994"/><path d="M309.588 79.606h-1.829v51.473h1.829V79.605z" fill="#929994"/><path d="M347.677 91.633h-51.802v1.835h51.802v-1.835zm0 6.421h-51.802v1.835h51.802v-1.835zm0 6.422h-51.802v1.834h51.802v-1.834zm0 6.421h-51.802v1.835h51.802v-1.835zm0 6.422h-51.802v1.834h51.802v-1.834zm.101 6.523h-51.801v1.834h51.801v-1.834z" fill="#929994"/><path d="M319.44 65.03h-21.635c-1.117 0-1.93-.918-1.93-1.937 0-1.121.915-1.937 1.93-1.937h21.635c1.117 0 1.93.918 1.93 1.937 0 1.02-.813 1.937-1.93 1.937z" fill="#D8D8D8"/><path d="M214.111 41.79a5.9 5.9 0 0 0-5.891-5.504c-3.149 0-9.243 2.446-9.548 5.504v51.066h21.432c-3.555 0-5.993-2.854-5.993-6.116V41.79z" fill="#14D1BA"/><path opacity=".3" d="M308.47 131.283v-3.874h-7.11V51.983c0-.713-.609-1.325-1.32-1.325h-12.595c0 .306-.101.51-.101.815v85.721h6.5c5.485.204 10.767-2.038 14.626-5.911z" fill="#231F20"/><path opacity=".3" d="M182.421 133.219v-1.732h-1.117v-1.224h-2.032v-2.344h-1.015v-28.03h1.015v-2.446h-2.133 6.094c.305 0 .508-.204.508-.51V95.2c0-.204-.101-.305-.203-.407l-9.243-5.708v38.324h-7.11v3.874c3.86 3.873 9.142 6.013 14.626 6.013h1.219v-4.077h-.609z" fill="#212121"/><path d="M298.821 127.817h-122.19V52.085c0-.714.61-1.325 1.321-1.325h119.65c.711 0 1.32.611 1.32 1.325v75.732h-.101z" fill="#373737"/><path d="M292.625 57.69H182.929v63.91h109.696V57.691z" fill="#fff"/><path d="M305.931 131.282h-136.41c3.86 3.874 9.142 6.014 14.627 6.014h107.157c5.484.102 10.766-2.14 14.626-6.014z" fill="#D8D8D8"/><path d="M305.931 127.409h-136.41v3.873h136.41v-3.873z" fill="#fff"/><path d="M246.207 130.467h-16.86a1.02 1.02 0 0 1 0-2.039h16.86c.61 0 1.016.51 1.016 1.02 0 .509-.406 1.019-1.016 1.019z" fill="#D8D8D8"/><path d="M182.522 121.599v-18.755l10.361-3.771v22.526h-10.361z" fill="#FFC107"/><path d="M192.883 121.599V99.073l10.36-1.936v24.462h-10.36zm20.72 0V92.244l10.36-2.446v31.801h-10.36zm20.72 0V80.522l10.361 2.447v38.63h-10.361zm21.127 0V71.96l10.36 11.009v38.63h-10.36zm21.228 0V86.434l10.361-3.465v38.63h-10.361z" fill="#FFA000"/><path d="M203.243 121.599V97.137l10.36-4.893V121.6h-10.36zm20.72 0V89.798l10.361-9.174V121.6h-10.361zm20.619 0V83.07l10.868-11.008V121.6h-10.868zm21.228 0V83.071l10.868 3.465V121.6H265.81zm21.229 0V83.071l5.586 3.465V121.6h-5.586z" fill="#FFC107"/><path opacity=".3" d="M234.73 50.76c0 .102.102.204.102.204 3.351 5.3 7.922 8.765 13.102 10.702l6.704 9.887c.609.917 2.031.917 2.641 0l5.992-8.766c6.501-1.529 12.494-5.402 16.658-11.823 0-.102.101-.204.101-.204h-45.3z" fill="#231F20"/><path d="M254.739 68.393l-6.703-9.887c-5.079-1.936-9.751-5.504-13.103-10.702-5.586-8.868-5.383-20.59.609-29.253 10.767-15.595 33.417-15.493 44.082.204 5.891 8.663 6.094 20.283.508 29.049-4.063 6.421-10.157 10.396-16.658 11.823l-5.992 8.766c-.711.918-2.133.918-2.743 0z" fill="#14D1BA"/><path d="M270.889 20.182c7.516 7.542 7.516 19.672 0 27.112-7.516 7.543-19.603 7.543-27.018 0-7.516-7.542-7.516-19.672 0-27.112 7.415-7.543 19.502-7.543 27.018 0z" fill="#72E3D5"/><path d="M252.403 44.44c-.203 0-.406-.101-.609-.203-.61-.306-.813-1.122-.508-1.733l10.665-18.857c.304-.611 1.117-.815 1.726-.51.61.306.813 1.122.508 1.733L253.52 43.83c-.203.407-.711.611-1.117.611zm-2.031-8.46c-2.54 0-4.571-2.446-4.571-5.605 0-3.058 2.031-5.606 4.571-5.606 2.539 0 4.57 2.446 4.57 5.606 0 3.057-2.031 5.606-4.57 5.606zm0-8.765c-1.118 0-2.133 1.427-2.133 3.16 0 1.732 1.015 3.16 2.133 3.16 1.117 0 2.133-1.428 2.133-3.16 0-1.631-1.016-3.16-2.133-3.16zm14.017 15.9c-2.54 0-4.571-2.446-4.571-5.606 0-3.057 2.031-5.606 4.571-5.606 2.539 0 4.57 2.447 4.57 5.606 0 3.16-2.031 5.606-4.57 5.606zm0-8.663c-1.118 0-2.133 1.427-2.133 3.16 0 1.732 1.015 3.159 2.133 3.159 1.117 0 2.132-1.427 2.132-3.16 0-1.732-1.015-3.16-2.132-3.16z" fill="#fff"/><path opacity=".3" d="M154.286 76.751v41.382h23.869V99.888h1.016v-2.446h-2.133 6.094c.305 0 .508-.204.508-.51V95.2c0-.204-.102-.306-.203-.408l-29.151-18.041z" fill="#231F20"/><path opacity=".3" d="M204.36 42.3v75.528h-5.688V41.79c.204-3.058 6.399-5.504 9.548-5.504.406 0 .711 0 1.016.102-2.438.408-4.876 2.446-4.876 5.912z" fill="#404142"/><path d="M208.22 36.286h-45.402a6.015 6.015 0 0 0-5.993 6.014v75.834h45.402V42.3c0-3.975 3.251-6.014 5.993-6.014z" fill="#fff"/><path d="M202.227 42.3v.611h-45.402V42.3c0-3.262 2.641-6.014 5.993-6.014h45.402c-2.742 0-5.993 2.039-5.993 6.014zm-.101 7.848c0-.204.101-.51.101-.713v68.597h-.101V50.148z" fill="#FBFBFB"/><path d="M197.454 48.62h-16.049c-.711 0-1.32-.612-1.32-1.326 0-.713.609-1.325 1.32-1.325h16.049c.711 0 1.32.612 1.32 1.325 0 .714-.508 1.325-1.32 1.325zm0 6.93h-16.049c-.711 0-1.32-.611-1.32-1.325 0-.713.609-1.325 1.32-1.325h16.049c.711 0 1.32.612 1.32 1.325 0 .714-.508 1.325-1.32 1.325zm-.001 6.83h-16.657c-.711 0-1.321-.612-1.321-1.325 0-.714.61-1.325 1.321-1.325h16.657c.711 0 1.321.611 1.321 1.325 0 .815-.508 1.325-1.321 1.325zm0 6.93h-34.737c-.711 0-1.32-.611-1.32-1.325 0-.713.609-1.325 1.32-1.325h34.737c.711 0 1.321.612 1.321 1.326 0 .713-.508 1.325-1.321 1.325zm0 6.932h-34.737c-.711 0-1.32-.612-1.32-1.325 0-.714.609-1.325 1.32-1.325h34.737c.711 0 1.321.611 1.321 1.325 0 .713-.508 1.325-1.321 1.325zm0 6.931h-34.737c-.711 0-1.32-.612-1.32-1.325 0-.714.609-1.325 1.32-1.325h34.737c.711 0 1.321.611 1.321 1.325 0 .713-.508 1.325-1.321 1.325zm0 6.829h-34.737c-.711 0-1.32-.612-1.32-1.325 0-.714.609-1.325 1.32-1.325h34.737c.711 0 1.321.611 1.321 1.325 0 .815-.508 1.325-1.321 1.325zm0 6.931h-34.737c-.711 0-1.32-.612-1.32-1.325 0-.714.609-1.325 1.32-1.325h34.737c.711 0 1.321.611 1.321 1.325 0 .713-.508 1.325-1.321 1.325zm0 6.931h-34.737c-.711 0-1.32-.612-1.32-1.325 0-.714.609-1.325 1.32-1.325h34.737c.711 0 1.321.611 1.321 1.325 0 .713-.508 1.325-1.321 1.325zm0 6.931h-34.737c-.711 0-1.32-.611-1.32-1.325 0-.713.609-1.325 1.32-1.325h34.737c.711 0 1.321.612 1.321 1.325 0 .714-.508 1.325-1.321 1.325z" fill="#D8D8D8"/><path d="M170.639 46.479v8.256l5.789 5.912c1.524-1.529 2.438-3.568 2.438-5.81 0-4.587-3.657-8.358-8.227-8.358z" fill="#FFC107"/><path d="M163.63 48.517c-1.523 1.53-2.437 3.568-2.437 5.81h8.227v-8.256c-2.235 0-4.368 1.02-5.79 2.446z" fill="#212121"/><path d="M169.826 55.652h-8.227c0 4.587 3.656 8.256 8.227 8.256 2.235 0 4.368-.917 5.79-2.446l-5.79-5.81zm239.301 81.746h-29.964a1.13 1.13 0 0 1-1.117-1.121V94.283a1.13 1.13 0 0 1 1.117-1.121h29.964c.609 0 1.117.51 1.117 1.12v41.995a1.13 1.13 0 0 1-1.117 1.121z" fill="#14D1BA"/><path d="M407.908 97.239h-27.627v7.542h27.627v-7.543z" fill="#FFC107"/><path d="M385.156 112.834h-4.266c-.305 0-.609-.306-.609-.612v-4.281c0-.306.304-.611.609-.611h4.266c.305 0 .609.305.609.611v4.281c0 .306-.304.612-.609.612zm7.415 0h-4.266c-.305 0-.61-.306-.61-.612v-4.281c0-.306.305-.611.61-.611h4.266c.304 0 .609.305.609.611v4.281c-.101.306-.305.612-.609.612zm7.313 0h-4.266c-.305 0-.61-.306-.61-.612v-4.281c0-.306.305-.611.61-.611h4.266c.304 0 .609.305.609.611v4.281c0 .306-.305.612-.609.612zm7.313 0h-4.266c-.305 0-.61-.306-.61-.612v-4.281c0-.306.305-.611.61-.611h4.266c.304 0 .609.305.609.611v4.281c0 .306-.203.612-.609.612zm-22.041 7.236h-4.266c-.305 0-.609-.305-.609-.611v-4.281c0-.306.304-.612.609-.612h4.266c.305 0 .609.306.609.612v4.281c0 .408-.304.611-.609.611zm7.415 0h-4.266c-.305 0-.61-.305-.61-.611v-4.281c0-.306.305-.612.61-.612h4.266c.304 0 .609.306.609.612v4.281c-.101.408-.305.611-.609.611zm7.313 0h-4.266c-.305 0-.61-.305-.61-.611v-4.281c0-.306.305-.612.61-.612h4.266c.304 0 .609.306.609.612v4.281c0 .408-.305.611-.609.611zm7.313 0h-4.266c-.305 0-.61-.305-.61-.611v-4.281c0-.306.305-.612.61-.612h4.266c.304 0 .609.306.609.612v4.281c0 .408-.203.611-.609.611z" fill="#fff"/><path d="M385.46 134.544h-4.773c-.204 0-.305-.102-.305-.306v-12.027c0-.204.101-.306.305-.306h4.773c.204 0 .305.102.305.306v12.027c0 .204-.101.306-.305.306z" fill="#212121"/><path d="M392.571 127.307h-4.266c-.305 0-.61-.305-.61-.611v-4.281c0-.306.305-.612.61-.612h4.266c.304 0 .609.306.609.612v4.281c-.101.407-.305.611-.609.611zm7.313 0h-4.266c-.305 0-.61-.305-.61-.611v-4.281c0-.306.305-.612.61-.612h4.266c.304 0 .609.306.609.612v4.281c0 .407-.305.611-.609.611zm7.313 0h-4.266c-.305 0-.61-.305-.61-.611v-4.281c0-.306.305-.612.61-.612h4.266c.304 0 .609.306.609.612v4.281c0 .407-.203.611-.609.611zm-14.626 7.237h-4.266c-.305 0-.61-.306-.61-.611v-4.281c0-.306.305-.612.61-.612h4.266c.304 0 .609.306.609.612v4.281c-.101.407-.305.611-.609.611zm7.313 0h-4.266c-.305 0-.61-.306-.61-.611v-4.281c0-.306.305-.612.61-.612h4.266c.304 0 .609.306.609.612v4.281c0 .407-.305.611-.609.611zm7.313 0h-4.266c-.305 0-.61-.306-.61-.611v-4.281c0-.306.305-.612.61-.612h4.266c.304 0 .609.306.609.612v4.281c0 .407-.203.611-.609.611z" fill="#fff"/><path d="M386.374 97.239h-5.992L388 104.78h5.992l-7.618-7.543zm13.306 7.542l-7.516-7.543h-3.453l7.618 7.543h3.351z" fill="#FFE69C"/><path d="M415.831 132.302h-2.438v5.096h2.438v-5.096zm2.742-12.028h-2.133v6.931h2.133v-6.931z" fill="#FFC107"/><path d="M416.948 74.916h-4.774v58.915h4.774V74.917z" fill="#14D1BA"/><path d="M416.948 74.916h-2.032v58.915h2.032V74.917z" fill="#43DAC7"/><path d="M415.018 69.616c-.305-.713-.711-.713-.914 0l-1.93 5.3h4.774l-1.93-5.3z" fill="#14D1BA"/><path d="M417.557 116.401h-5.993v13.251h5.993v-13.251z" fill="#FFC107"/><path d="M417.456 116.401h-2.54v13.251h2.54v-13.251z" fill="#FFDA6A"/><path d="M420.096 105.698h-1.422v25.278h1.422v-25.278z" fill="#FFC107"/><g opacity=".3" fill="#231F20"><path opacity=".3" d="M332.339 137.398h15.134c.102 0 .203-.102.203-.102a.22.22 0 0 0 .204-.204l.203-.204c.203-.305.304-.611.203-1.019l-2.032-9.989c-.101-.509-.609-.917-1.117-.917h-10.97c-.101 0-.304 0-.406.102-.101 0-.203.102-.305.204l-.101.102-.203.203s0 .102-.102.102c-.101.102-.101.204-.101.306l-.914 4.689-.305 1.529-.711 3.669v.408c.101.509.609 1.121 1.32 1.121z"/><path opacity=".3" d="M340.363 123.638c0 .306.102.611.305.815l.203.204c.203.204.508.306.813.306h14.423v-10.091l-.305-1.529a1.103 1.103 0 0 0-.813-.815h1.118V99.991h-3.352c-.102 0-.305 0-.406.102-.102 0-.204.102-.305.204l-.102.101-.203.204s0 .102-.101.102c-.102.102-.102.204-.102.306l-.914 4.689-.711 3.363-.406 1.835v.612c.101.407.507.815.914.917h-7.009c-.101 0-.304 0-.406.102-.101 0-.203.102-.305.204l-.101.102-.203.203s0 .102-.102.102c-.101.102-.101.204-.101.306l-2.032 9.989c.203 0 .203.102.203.204z"/><path opacity=".3" d="M356.107 124.861h-3.149c-.102 0-.305 0-.406.102-.102 0-.203.102-.305.204l-.102.102-.203.204s0 .102-.101.102c-.102.101-.102.203-.102.305l-2.031 9.989v.408c0 .102 0 .306.101.408 0 .102.102.204.102.305 0 0 0 .102.101.102.204.306.61.51 1.016.51h4.977v-12.741h.102z"/></g><path d="M349.2 137.398h-14.829c-.813 0-1.422-.815-1.321-1.631l2.032-9.989c.101-.509.609-.917 1.117-.917h11.173c.507 0 1.015.408 1.117.917l2.031 9.989c.102.816-.508 1.631-1.32 1.631z" fill="#FFE836"/><path d="M350.216 136.787l-11.783-11.926h-2.234c-.102 0-.305 0-.406.102-.407.102-.61.408-.711.815l-.915 4.689-1.015 5.198c-.203.816.508 1.631 1.32 1.631h14.83c.304.102.71-.204.914-.509z" fill="#FFC107"/><path d="M367.889 137.398H353.06c-.813 0-1.422-.815-1.321-1.631l2.032-9.989c.101-.509.609-.917 1.117-.917h11.173c.507 0 1.015.408 1.117.917l2.031 9.989c.203.816-.406 1.631-1.32 1.631z" fill="#FFE836"/><path d="M369.006 136.787l-11.782-11.926h-2.235c-.101 0-.304 0-.406.102-.406.102-.609.408-.711.815l-.914 4.689-1.016 5.198c-.203.816.508 1.631 1.321 1.631h14.829c.305.102.609-.204.914-.509z" fill="#FFC107"/><path d="M367.686 112.426h-14.83c-.812 0-1.422-.815-1.32-1.631l2.031-9.989c.102-.509.61-.917 1.118-.917h11.172c.508 0 1.016.408 1.118.917l2.031 9.989c.203.917-.508 1.631-1.32 1.631z" fill="#FFE836"/><path d="M368.803 111.916l-11.782-11.925h-2.235c-.101 0-.304 0-.406.102-.406.102-.609.407-.711.815l-.914 4.689-1.016 5.198c-.203.815.508 1.631 1.321 1.631h14.626c.508 0 .812-.204 1.117-.51z" fill="#FFC107"/><path d="M386.679 137.398H371.85c-.812 0-1.422-.815-1.32-1.631l2.031-9.989c.102-.509.609-.917 1.117-.917h11.173c.508 0 1.016.408 1.117.917l2.032 9.989c.101.816-.508 1.631-1.321 1.631z" fill="#FFE836"/><path d="M387.797 136.787l-11.782-11.926h-2.235c-.102 0-.305 0-.406.102-.407.102-.61.408-.711.815l-.914 4.689-1.016 5.198c-.203.816.508 1.631 1.32 1.631h14.83c.203.102.609-.204.914-.509z" fill="#FFC107"/><path d="M358.544 124.861h-14.829c-.813 0-1.422-.815-1.32-1.631l2.031-9.988c.102-.51.609-.918 1.117-.918h11.173c.508 0 1.016.408 1.117.918l2.032 9.988c.101.918-.508 1.631-1.321 1.631z" fill="#FFE836"/><path d="M359.561 124.352l-11.783-11.925h-2.234c-.102 0-.305 0-.406.101-.407.102-.61.408-.711.816l-.915 4.689-1.015 5.198c-.203.815.508 1.631 1.32 1.631h14.728c.406 0 .812-.204 1.016-.51z" fill="#FFC107"/><path d="M377.335 124.861h-14.829c-.813 0-1.422-.815-1.321-1.631l2.032-9.988c.101-.51.609-.918 1.117-.918h11.173c.508 0 1.016.408 1.117.918l2.031 9.988c.102.918-.507 1.631-1.32 1.631z" fill="#FFE836"/><path d="M378.351 124.352l-11.782-11.925h-2.234c-.102 0-.305 0-.407.101-.406.102-.609.408-.711.816l-.914 4.689-1.015 5.198c-.204.815.507 1.631 1.32 1.631h14.829c.305 0 .711-.204.914-.51z" fill="#FFC107"/><path d="M360.373 94.385v2.344m4.469-3.975l-1.117 4.383m4.164-.714l-1.118 2.039m5.79-1.325l-3.25 3.261m4.063 1.529l-2.032 1.121m5.688 1.937l-4.367 1.121m2.742 3.364h-2.336m-27.627 0h2.234m-3.961-4.485l4.469 1.223m-.914-4.281l2.133 1.223m-1.219-5.911l3.25 3.261m1.422-4.077l1.118 2.039m1.93-5.708l1.117 4.383" stroke="#231F20" stroke-miterlimit="10" stroke-linecap="round"/><path d="M424.566 129.652h-1.118a2.736 2.736 0 0 0-2.742-2.752 2.736 2.736 0 0 0-2.743 2.752h-1.117a3.864 3.864 0 0 1 3.86-3.873 3.864 3.864 0 0 1 3.86 3.873zm-18.808.528l-.139 1.112 28.822 3.644.14-1.113-28.823-3.643z" fill="#212121"/><path d="M435.44 130.269l-28.819 3.647.139 1.112 28.82-3.646-.14-1.113z" fill="#212121"/><path d="M411.666 137.398c-3.657 0-6.5-2.956-6.5-6.523a6.492 6.492 0 0 1 6.5-6.524c3.657 0 6.501 2.956 6.501 6.524.101 3.567-2.844 6.523-6.501 6.523zm0-12.027c-2.946 0-5.383 2.446-5.383 5.402s2.437 5.402 5.383 5.402 5.383-2.446 5.383-5.402-2.336-5.402-5.383-5.402zm18.181 12.027c-3.656 0-6.5-2.956-6.5-6.523a6.492 6.492 0 0 1 6.5-6.524c3.657 0 6.501 2.956 6.501 6.524 0 3.567-2.946 6.523-6.501 6.523zm0-12.027c-2.945 0-5.383 2.446-5.383 5.402s2.438 5.402 5.383 5.402c2.946 0 5.383-2.446 5.383-5.402s-2.437-5.402-5.383-5.402z" fill="#212121"/><path d="M68.357 133.831v-16.309c0-.917.61-2.038 1.219-2.548l5.485-4.281c.71-.509.71-1.427 0-1.936l-5.485-4.281c-.711-.51-1.219-1.733-1.219-2.549V86.332H93.04v15.595c0 .918-.61 2.039-1.219 2.549l-5.485 4.281c-.71.509-.71 1.427 0 1.936l5.485 4.281c.711.51 1.219 1.733 1.219 2.548v16.309H68.357z" fill="#D8D8D8"/><path d="M72.42 114.974l5.485-4.281c.71-.509.71-1.427 0-1.936l-5.485-4.281c-.711-.51-1.219-1.733-1.219-2.549V86.332H68.46v15.595c0 .918.61 2.039 1.219 2.549l5.484 4.281c.711.509.711 1.427 0 1.936l-5.484 4.281c-.711.51-1.22 1.733-1.22 2.548v16.309H71.1v-16.309c0-.815.609-1.936 1.32-2.548z" fill="#C5C5C5"/><path opacity=".39" d="M91.82 104.476c.711-.51 1.219-1.733 1.219-2.549V86.332h-3.25v15.595c0 .918-.61 2.039-1.22 2.549l-5.484 4.281c-.711.509-.711 1.427 0 1.936l5.485 4.281c.71.51 1.219 1.733 1.219 2.548v16.309h3.25v-16.309c0-.917-.61-2.038-1.219-2.548l-5.485-4.281c-.71-.509-.71-1.427 0-1.936l5.485-4.281z" fill="#ECECEC"/><path d="M71.201 132.2h18.79v-7.441c0-1.529-.913-2.956-2.234-3.669l-5.383-2.752c-1.219-.612-2.742-.612-4.063 0l-4.977 2.752c-1.32.713-2.133 2.14-2.133 3.669v7.441z" fill="#FFC107"/><path opacity=".3" d="M93.039 86.332H68.357v4.078H93.04v-4.078z" fill="#231F20"/><path d="M94.055 88.473H67.24c-.305 0-.508-.204-.508-.51v-4.586c0-.306.203-.51.508-.51h26.815c.304 0 .507.204.507.51v4.586c0 .306-.203.51-.507.51z" fill="#14D1BA"/><path d="M93.851 82.867H67.443a.696.696 0 0 0-.711.713v1.224h27.83V83.58a.696.696 0 0 0-.71-.713z" fill="#43DAC7"/><path opacity=".3" d="M93.039 130.059H68.357v3.772H93.04v-3.772z" fill="#231F20"/><path d="M94.156 137.398H67.341c-.304 0-.507-.204-.507-.509v-4.587c0-.306.203-.51.507-.51h26.815c.305 0 .508.204.508.51v4.587c0 .203-.203.509-.508.509z" fill="#14D1BA"/><path d="M66.834 135.563v1.02c0 .407.304.713.71.713h26.409a.696.696 0 0 0 .71-.713v-1.02h-27.83z" fill="#0F9C88"/><path d="M80.647 114.464h-.813a.695.695 0 0 1-.71-.713v-2.039c0-.407.304-.713.71-.713h.813c.406 0 .711.306.711.713v2.039a.695.695 0 0 1-.71.713zm-.203-14.269c-3.656 0-6.907-1.53-9.243-3.976v3.67c0 1.631.914 3.159 2.235 3.873l4.672 2.65c.61.306 1.016 1.019 1.016 1.733v1.121c0 .612.508 1.121 1.117 1.121.61 0 1.117-.509 1.117-1.121v-1.121c0-.714.406-1.427 1.016-1.733l5.18-2.65c1.524-.815 2.438-2.344 2.438-3.975v-3.873c-2.336 2.65-5.688 4.281-9.548 4.281z" fill="#FFC107"/><path opacity=".3" d="M69.982 88.983c0 5.81 4.672 10.6 10.564 10.6 5.79 0 10.563-4.689 10.563-10.6 0-2.243-.711-4.383-1.93-6.116H71.912a10.664 10.664 0 0 0-1.93 6.116z" fill="#212121"/><path d="M80.444 98.767c5.834 0 10.563-4.745 10.563-10.6 0-5.854-4.73-10.6-10.563-10.6-5.834 0-10.563 4.746-10.563 10.6 0 5.855 4.729 10.6 10.563 10.6z" fill="#FFC107"/><path d="M80.444 97.544c5.16 0 9.344-4.198 9.344-9.377s-4.183-9.377-9.344-9.377-9.345 4.198-9.345 9.377c0 5.18 4.184 9.377 9.345 9.377z" fill="#FFA000"/><path d="M83.584 95.81c4.198-1.745 6.191-6.575 4.453-10.788-1.74-4.212-6.552-6.213-10.75-4.468s-6.192 6.575-4.453 10.788c1.74 4.212 6.552 6.213 10.75 4.468z" fill="#FFC107"/><path d="M81.561 92.448h-3.047c-.711 0-1.32-.611-1.32-1.325v-.611h1.828v.102h2.54a.912.912 0 0 0 .913-.918c0-.306-.304-.611-.61-.611h-2.234c-1.32 0-2.437-1.122-2.437-2.447v-.305a2.736 2.736 0 0 1 2.742-2.752h3.047c.711 0 1.32.611 1.32 1.325v.713h-1.828v-.204h-2.539a.912.912 0 0 0-.914.918v.305c0 .306.305.612.61.612h2.234c1.32 0 2.438 1.121 2.438 2.446-.102 1.53-1.22 2.752-2.743 2.752z" fill="#212121"/><path d="M81.663 82.867h-1.828v10.702h1.828V82.867z" fill="#212121"/><path d="M55.864 108.553h1.422m-2.336-5.097l2.945.714m.305-4.79l1.32.815m.508-5.606l2.133 2.14m2.743-3.975l.71 1.325m-.71 30.17l.71-1.325m-5.586-.509l2.133-2.141m-3.961-2.65l1.32-.815m-4.57-3.16l2.945-.815m47.84-4.281h-1.523m2.437 5.096l-2.945-.815m-.305 4.79l-1.32-.815m-.508 5.606l-2.133-2.141m-2.743 3.975l-.71-1.325m.71-30.17l-.71 1.325m5.586.51l-2.133 2.14m3.859 2.651l-1.218.815m4.57 3.261l-2.945.714" stroke="#673AB7" stroke-miterlimit="10" stroke-linecap="round"/><path opacity=".3" d="M137.12 113.139H95.68c-1.22 0-2.133.918-2.133 2.141v19.978c0 1.223.914 2.14 2.133 2.14h41.44c1.219 0 2.133-.917 2.133-2.14v-20.08c0-1.121-1.015-2.039-2.133-2.039z" fill="#212121"/><path d="M93.648 113.139h41.441c1.219 0 2.133.918 2.133 2.141v19.978c0 1.223-.914 2.14-2.133 2.14h-41.44c-1.22 0-2.134-.917-2.134-2.14v-20.08c0-1.121 1.016-2.039 2.133-2.039z" fill="#FFC107"/><path d="M95.883 120.07v10.601a3.43 3.43 0 0 1 3.453 3.465h29.659a3.43 3.43 0 0 1 3.453-3.465h.305v-10.703c-1.93 0-3.453-1.528-3.453-3.465H99.438c0 1.937-1.625 3.567-3.555 3.567z" fill="#FFDA6A"/><path d="M107.157 125.371c0-3.975 3.25-7.237 7.211-7.237 3.962 0 7.212 3.262 7.212 7.237s-3.25 7.237-7.212 7.237a7.187 7.187 0 0 1-7.211-7.237zm18.587 0c0-1.02.813-1.937 1.93-1.937 1.016 0 1.93.815 1.93 1.937 0 1.019-.812 1.936-1.93 1.936-1.117 0-1.93-.815-1.93-1.936zm-26.509 0c0-1.02.812-1.937 1.929-1.937 1.016 0 1.93.815 1.93 1.937 0 1.019-.812 1.936-1.93 1.936a1.932 1.932 0 0 1-1.93-1.936z" fill="#FFC107"/><path d="M113.556 120.886h3.25c.711 0 1.321.612 1.321 1.325v.714h-1.93v-.102h-2.743a.912.912 0 0 0-.914.917c0 .306.305.612.61.612h2.437a2.52 2.52 0 0 1 2.54 2.548v.305a2.844 2.844 0 0 1-2.844 2.854h-3.251c-.711 0-1.32-.611-1.32-1.325v-.815h1.93v.204h2.742a.912.912 0 0 0 .914-.918v-.305c0-.306-.304-.612-.609-.612h-2.438a2.519 2.519 0 0 1-2.539-2.548c-.102-1.529 1.219-2.854 2.844-2.854z" fill="#212121"/><path d="M115.384 119.663h-1.93v11.518h1.93v-11.518z" fill="#212121"/><path d="M310.908 123.536h-10.767c-.203 0-.406-.204-.406-.408v-.102c0-.204.203-.408.406-.408h10.767c.203 0 .406.204.406.408v.102c-.101.204-.203.408-.406.408z" fill="#FFC107"/><path d="M319.541 126.696h-10.766c-.203 0-.406-.204-.406-.408v-.102c0-.204.203-.408.406-.408h10.766c.204 0 .407.204.407.408v.102c-.102.204-.203.408-.407.408zm0 8.969h-10.766a.437.437 0 0 1-.406-.407v-.102c0-.204.203-.408.406-.408h10.766c.204 0 .407.204.407.408v.102c-.102.204-.203.407-.407.407zm1.524-5.912h-10.767c-.203 0-.406-.204-.406-.407v-.102c0-.204.203-.408.406-.408h10.767c.203 0 .406.204.406.408v.102c0 .203-.203.407-.406.407z" fill="#14D1BA"/><path d="M309.08 129.753h-10.767c-.203 0-.406-.204-.406-.407v-.102c0-.204.203-.408.406-.408h10.767c.203 0 .406.204.406.408v.102c0 .203-.102.407-.406.407zm-4.977 3.874h4.773c.204 0 .407-.204.407-.408v-.102c0-.204-.203-.408-.407-.408h-4.773c-.204 0-.407.204-.407.408v.102c0 .204.203.408.407.408zm6.297 0h1.016c.203 0 .406-.204.406-.408v-.102c0-.204-.203-.408-.406-.408H310.4c-.203 0-.406.204-.406.408v.102c0 .204.203.408.406.408z" fill="#FFC107"/><path d="M306.032 135.665h1.626a.437.437 0 0 0 .406-.407v-.102c0-.204-.203-.408-.406-.408h-1.626c-.203 0-.406.204-.406.408v.102c0 .204.203.407.406.407z" fill="#14D1BA"/><path d="M312.025 123.536h1.219c.203 0 .406-.204.406-.408v-.102c0-.204-.203-.408-.406-.408h-1.219c-.203 0-.406.204-.406.408v.102c0 .204.203.408.406.408zm-5.078 5.708c0 4.485-3.657 8.154-8.126 8.154-4.469 0-8.126-3.669-8.126-8.154 0-4.485 3.657-8.154 8.126-8.154 4.469.102 8.126 3.669 8.126 8.154z" fill="#FFC107"/><path d="M306.032 129.244c0 3.975-3.25 7.237-7.211 7.237-3.961 0-7.212-3.262-7.212-7.237s3.251-7.237 7.212-7.237c3.961.102 7.211 3.262 7.211 7.237z" fill="#FFA000"/><path d="M305.22 129.244a6.384 6.384 0 0 1-6.399 6.421 6.384 6.384 0 0 1-6.399-6.421 6.384 6.384 0 0 1 6.399-6.422c3.555.102 6.399 2.956 6.399 6.422z" fill="#FFC107"/><path d="M299.735 132.505h-2.336a1.02 1.02 0 0 1-1.016-1.019v-.51h1.422v.102h1.93a.696.696 0 0 0 .711-.713c0-.204-.203-.408-.406-.408h-1.727a1.823 1.823 0 0 1-1.828-1.835v-.204a2.04 2.04 0 0 1 2.031-2.038h2.336a1.02 1.02 0 0 1 1.016 1.019v.612h-1.422v-.204h-1.93a.696.696 0 0 0-.711.713v.204c0 .204.203.408.407.408h1.726c1.016 0 1.829.815 1.829 1.835a2.041 2.041 0 0 1-2.032 2.038z" fill="#212121"/><path d="M299.735 125.167h-1.422v8.256h1.422v-8.256z" fill="#212121"/><path d="M319.846 137.602c4.488 0 8.126-3.651 8.126-8.154 0-4.504-3.638-8.155-8.126-8.155-4.488 0-8.126 3.651-8.126 8.155 0 4.503 3.638 8.154 8.126 8.154z" fill="#14D1BA"/><path d="M327.058 129.448c0 3.975-3.25 7.236-7.212 7.236-3.961 0-7.211-3.261-7.211-7.236 0-3.976 3.25-7.237 7.211-7.237 3.962 0 7.212 3.261 7.212 7.237z" fill="#0F9C88"/><path d="M319.846 135.869c3.534 0 6.399-2.875 6.399-6.421 0-3.547-2.865-6.422-6.399-6.422s-6.399 2.875-6.399 6.422c0 3.546 2.865 6.421 6.399 6.421z" fill="#14D1BA"/><path d="M320.76 133.423c-1.016 0-2.031-.408-2.844-1.223-.711-.714-1.219-1.733-1.219-2.854 0-1.02.407-2.039 1.219-2.854.711-.714 1.727-1.223 2.844-1.223 1.016 0 2.032.407 2.844 1.223.305.305.305.713 0 1.019-.305.306-.711.306-1.016 0-.507-.51-1.117-.815-1.828-.815-.711 0-1.32.305-1.828.815s-.813 1.121-.813 1.835c0 .713.305 1.325.813 1.834.508.51 1.117.816 1.828.816.711 0 1.321-.306 1.828-.816.305-.305.711-.305 1.016 0 .305.306.305.714 0 1.02-.812.815-1.727 1.223-2.844 1.223z" fill="#fff"/><path d="M320.252 128.938h-3.656a.695.695 0 0 1-.711-.714c0-.407.304-.713.711-.713h3.656c.407 0 .711.306.711.713a.695.695 0 0 1-.711.714zm0 2.039h-3.656a.695.695 0 0 1-.711-.714c0-.408.304-.713.711-.713h3.656c.407 0 .711.305.711.713a.695.695 0 0 1-.711.714z" fill="#fff"/><path d="M400.206 77.043c.81-5.001-2.572-9.714-7.555-10.528-4.983-.814-9.68 2.58-10.491 7.58-.81 5.001 2.572 9.715 7.555 10.528 4.983.814 9.68-2.58 10.491-7.58z" fill="#FFC107"/><path d="M391.25 83.682c4.488 0 8.126-3.65 8.126-8.154 0-4.503-3.638-8.154-8.126-8.154-4.488 0-8.125 3.65-8.125 8.154s3.637 8.154 8.125 8.154z" fill="#FFA000"/><path d="M398.36 75.528c0 3.975-3.25 7.135-7.11 7.135-3.86 0-7.11-3.261-7.11-7.135 0-3.975 3.25-7.135 7.11-7.135 3.86 0 7.11 3.262 7.11 7.135z" fill="#FFC107"/><path d="M392.164 79.197h-2.641a1.13 1.13 0 0 1-1.117-1.12v-.612h1.524v.102h2.133a.696.696 0 0 0 .711-.714c0-.306-.204-.51-.508-.51h-1.93a2.042 2.042 0 0 1-2.032-2.038v-.306c0-1.325 1.016-2.344 2.337-2.344h2.64c.61 0 1.118.51 1.118 1.121v.612h-1.524v-.204h-2.133a.696.696 0 0 0-.711.713v.306c0 .306.203.51.508.51h1.93a2.04 2.04 0 0 1 2.031 2.038c0 1.427-1.015 2.446-2.336 2.446z" fill="#212121"/><path d="M392.164 70.941h-1.523v9.276h1.523V70.94zm-13.102 5.403c-.305 0-.61-.306-.61-.612v-.816c0-.407.305-.611.61-.611.406 0 .609.306.609.611v.714c0 .408-.203.714-.609.714zm.203 2.344c-.305 0-.61-.204-.61-.51 0-.204-.101-.408-.101-.611-.102-.408.203-.714.508-.714.304 0 .711.204.711.51 0 .204.101.407.101.51.102.305-.203.713-.508.815h-.101z" fill="#212121"/><path d="M391.352 88.575c-5.587 0-10.564-3.568-12.29-8.868-.102-.306.101-.713.406-.815.305-.102.711.102.812.407 1.626 4.791 5.993 8.053 11.072 8.053 6.399 0 11.68-5.199 11.68-11.722 0-6.421-5.18-11.722-11.68-11.722-.407 0-.61-.305-.61-.611 0-.408.305-.612.61-.612 7.11 0 13.001 5.81 13.001 13.047-.102 7.033-5.891 12.843-13.001 12.843z" fill="#212121"/><path d="M391.25 65.233c-.203 0-.305-.102-.508-.203l-1.625-1.631a.312.312 0 0 1 0-.408l1.625-1.63c.305-.307.711-.307.914 0 .305.305.305.713 0 .917l-.914.917.914.917c.305.306.305.714 0 .918-.101.203-.304.203-.406.203z" fill="#212121"/><path d="M191.156 131.792h-43.371v5.3h43.371v-5.3z" fill="#FFC107"/><path d="M192.477 131.792v5.3H194c.61 0 1.219-.509 1.219-1.223v-2.956c0-.611-.508-1.223-1.219-1.223h-1.523v.102z" fill="#14D1BA"/><path d="M192.375 131.792h-1.219v5.3h1.219v-5.3z" fill="#212121"/><path d="M191.156 134.442h-43.371v2.651h43.371v-2.651z" fill="#FFCD39"/><path d="M141.691 134.646l6.094 2.446v-5.3l-6.094 2.446c-.101.102-.101.408 0 .408z" fill="#F1F2F2"/><path d="M141.386 134.544l1.626.612v-1.427l-1.626.611c-.101.102-.101.204 0 .204z" fill="#212121"/></g><defs><clipPath id="clip0"><path fill="#fff" d="M0 0h485v137.5H0z"/></clipPath></defs></svg>