<svg width="356" height="147" fill="none" xmlns="http://www.w3.org/2000/svg"><path d="M101.838 62.481h-15.55v83.816h15.55V62.481z" fill="#FFC107"/><path d="M92.487 62.481h-6.2v83.816h6.2V62.481z" fill="#BF9105"/><path d="M108.546 45.515h-35.37v3.353h35.37v-3.353z" fill="#FFA000"/><path d="M108.546 45.515v3.353h3.354a.801.801 0 0 0 .813-.813v-1.727a.802.802 0 0 0-.813-.813h-3.354z" fill="#14D1BA"/><path d="M108.546 47.14h-35.37v1.727h35.37V47.14z" fill="#FFCD39"/><path d="M69.315 47.344l3.964 1.524v-3.353l-3.964 1.524c-.102 0-.102.203 0 .305z" fill="#F1F2F2"/><path d="M69.111 47.242l1.017.407v-.915l-1.017.508c-.101-.101-.101 0 0 0zm39.435-1.727h-.813v3.353h.813v-3.353z" fill="#212121"/><path opacity=".3" d="M86.288 105.456h13.619c.609 0 1.321.101 1.931.203V91.944c-.61 0-1.22-.102-1.931-.102h-13.62v13.614z" fill="#231F20"/><path d="M87.202 43.99c.915 0 1.627.712 1.627 1.626V43.89c0-.914.711-1.625 1.626-1.625.914 0 1.626.71 1.626 1.625v-1.727c0-.914.711-1.625 1.626-1.625.915 0 1.626.71 1.626 1.625v1.727c0-.914.712-1.625 1.626-1.625.915 0 1.626.71 1.626 1.625v4.877h2.338c.61 0 1.118.508 1.118 1.117v5.994c0 .61-.305 1.118-.915 1.423l-1.32.61c-.51.203-.916.812-.916 1.422v3.25H87.812v-3.657c0-.406-.102-.71-.406-.914l-1.728-1.626c-.305-.304-.508-.71-.508-1.117v-9.55c.406-.914 1.118-1.727 2.032-1.727z" fill="#FFCEBD"/><path opacity=".3" d="M87.202 43.991c.204 0 .407 0 .61.102-.61.203-1.118.812-1.118 1.524v9.448c0 .406.203.813.508 1.117l1.728 1.626c.305.203.407.61.407.914v3.658h-1.22v-3.454c0-.407-.102-.712-.406-.915l-1.728-1.625c-.305-.305-.508-.712-.508-1.118v-9.55c.101-.914.813-1.727 1.727-1.727z" fill="#231F20"/><path d="M36.283 146.297H2.236A2.255 2.255 0 0 1 0 144.062v-34.847h36.385a.8.8 0 0 1 .813.812v35.559c-.101.304-.508.711-.915.711z" fill="#fff"/><path d="M3.964 141.115c-1.321 0-3.964.204-3.964 3.048v-36.472c0-1.727 1.321-3.048 3.049-3.048h.915v36.472zm21.343-11.276h1.931a.695.695 0 0 0 .712-.712v-2.54a.695.695 0 0 0-.712-.711h-1.524c-.305 0-.509-.203-.61-.406-.102-.102-.102-.305-.204-.406-.101-.204-.101-.508.102-.712l1.118-1.117c.305-.305.305-.711 0-1.016l-1.728-1.727c-.305-.305-.711-.305-1.016 0l-1.118 1.117c-.203.203-.407.204-.61.102s-.305-.102-.508-.203c-.203-.102-.407-.305-.407-.508v-1.524a.694.694 0 0 0-.711-.711h-2.54a.694.694 0 0 0-.712.711V121c0 .305-.204.508-.407.609-.101.102-.305.102-.406.203-.204.102-.509.102-.712-.101l-1.118-1.118c-.305-.304-.711-.304-1.016 0l-1.728 1.829c-.305.305-.305.711 0 1.016l1.118 1.118c.203.203.203.406.102.609-.102.203-.102.305-.204.508-.101.203-.304.406-.508.406h-1.524a.695.695 0 0 0-.712.712v2.54c0 .406.305.711.712.711h1.524c.305 0 .508.203.61.406.102.102.102.305.203.406.102.204.102.508-.101.712l-1.118 1.117c-.305.305-.305.711 0 1.016l1.83 1.727c.304.305.71.305 1.016 0l1.117-1.117c.204-.204.407-.203.61-.102.204.102.305.102.508.203.204.102.407.305.407.508v1.524c0 .407.305.711.711.711h2.541a.694.694 0 0 0 .712-.711v-1.524c0-.305.203-.508.406-.609.102-.102.305-.102.407-.204.203-.101.508-.101.711.102l1.118 1.118c.305.304.712.304 1.017 0l1.727-1.727c.305-.305.305-.712 0-1.016l-1.118-1.118c-.203-.203-.203-.406-.101-.61.101-.609.203-1.015.203-1.015zm-9.96-2.642c.406-2.235 2.744-3.454 4.777-2.641 1.524.609 2.54 2.336 2.236 3.962-.407 2.235-2.745 3.454-4.777 2.641-1.626-.609-2.541-2.336-2.236-3.962z" fill="#14D1BA"/><path d="M75.006 126.892H73.28v3.352h1.727v-3.352z" fill="#0F9C88"/><path d="M75.92 129.534h-3.353v15.95h3.354v-15.95z" fill="#FFC107"/><path d="M74.193 108.3c-5.691 0-10.367 4.673-10.367 10.363 0 5.689 4.676 10.362 10.367 10.362 5.692 0 10.367-4.673 10.367-10.362 0-5.69-4.675-10.363-10.367-10.363zm0 18.592a8.196 8.196 0 0 1-8.232-8.229 8.196 8.196 0 0 1 8.232-8.229 8.196 8.196 0 0 1 8.233 8.229 8.196 8.196 0 0 1-8.233 8.229z" fill="#14D1BA"/><path d="M82.425 118.764a8.197 8.197 0 0 0-8.232-8.229 8.197 8.197 0 0 0-8.232 8.229 8.197 8.197 0 0 0 8.232 8.23 8.197 8.197 0 0 0 8.233-8.23zm-8.232 7.417a7.503 7.503 0 0 1-7.52-7.518 7.502 7.502 0 0 1 7.52-7.518 7.502 7.502 0 0 1 7.521 7.518 7.503 7.503 0 0 1-7.52 7.518z" fill="#43DAC7"/><path d="M74.193 129.534h-1.728v15.95h1.728v-15.95z" fill="#FFED5E"/><path d="M69.416 122.625c-.304-.305-.508-.61-.711-.914-.203-.305-.406-.61-.508-1.016-.102-.305-.305-.711-.305-1.118-.102-.406-.102-.813-.102-1.219 0-.406 0-.813.102-1.219.102-.406.203-.711.305-1.118a4.77 4.77 0 0 1 .508-1.016c.203-.304.407-.609.711-.914l.509.508c-.204.203-.407.508-.61.813-.203.305-.305.609-.508.914-.102.305-.204.61-.305 1.016-.102.305-.102.711-.102 1.016 0 .305 0 .711.102 1.016.101.305.203.711.305 1.016.101.305.305.61.508.914.203.305.406.508.61.813l-.509.508z" fill="#fff"/><path d="M82.019 118.764c0 4.369-3.557 7.823-7.826 7.823s-7.826-3.556-7.826-7.823c0-4.368 3.557-7.823 7.826-7.823s7.826 3.455 7.826 7.823z" fill="#FFC107"/><path d="M80.19 118.764c0 3.353-2.745 6.096-6.099 6.096-3.353 0-6.098-2.743-6.098-6.096 0-3.352 2.745-6.095 6.099-6.095 3.353.101 6.097 2.743 6.097 6.095z" fill="#fff"/><path d="M78.055 118.764a3.86 3.86 0 0 1-3.862 3.861 3.86 3.86 0 1 1 0-7.721 3.86 3.86 0 0 1 3.862 3.86z" fill="#FFC107"/><path d="M76.328 118.764c0 1.219-1.017 2.134-2.135 2.134-1.118 0-2.134-1.016-2.134-2.134 0-1.219 1.016-2.133 2.134-2.133 1.118 0 2.135.914 2.135 2.133z" fill="#fff"/><path d="M74.396 113.075h-.406v1.118h.406v-1.118zm1.006.106l-.289 1.08.393.104.289-1.079-.393-.105zm1.306.586l-.56.967.352.203.56-.967-.352-.203zm1.183.82l-.78.8.29.283.781-.799-.291-.284zm.885 1.086l-.968.559.203.351.968-.559-.203-.351zm.623 1.32l-1.08.291.106.392 1.08-.29-.106-.393zm.181 1.466h-1.118v.407h1.118v-.407zm-1.214 1.143l-.105.393 1.08.287.105-.392-1.08-.288zm-.39 1.083l-.203.352.97.557.202-.352-.969-.557zm-.677.934l-.288.287.793.788.287-.287-.792-.788zm-.898.673l-.352.204.562.966.352-.203-.562-.967zm-1.041.5l-.393.106.291 1.079.393-.106-.292-1.079zm-1.168.24l-.406.001.002 1.117.406-.001-.002-1.117zm-1.571-.267l-.288 1.08.392.105.29-1.08-.394-.105zm-1.041-.492l-.556.969.352.203.557-.97-.353-.202zm-.867-.784l-.788.792.288.287.789-.792-.289-.287zm-.658-.915l-.967.561.204.352.967-.561-.204-.352zm-.309-1.141l-1.079.293.106.392 1.08-.293-.107-.392zm-.126-1.076l-1.119.002.001.407 1.118-.002v-.407zm-.846-1.504l-.104.393 1.08.286.105-.393-1.08-.286zm.601-1.327l-.202.353.97.555.202-.352-.97-.556zm.958-1.118l-.287.288.794.788.287-.288-.794-.788zm1.212-.751l-.351.204.562.965.352-.203-.563-.966zm1.369-.521l-.392.106.292 1.079.393-.107-.293-1.078z" fill="#14D1BA"/><path d="M74.6 121.203h-1.728a.695.695 0 0 1-.712-.711v-.407h1.017v.102H74.6c.305 0 .508-.203.508-.508 0-.203-.102-.305-.305-.305h-1.22c-.711 0-1.321-.61-1.321-1.321v-.203c0-.813.712-1.524 1.525-1.524h1.727c.407 0 .712.305.712.711v.407h-1.017v-.102h-1.422c-.305 0-.509.203-.509.508v.203c0 .203.102.305.305.305h1.22c.711 0 1.321.61 1.321 1.321 0 .813-.711 1.524-1.524 1.524z" fill="#212121"/><path d="M74.701 115.92h-1.016v5.994H74.7v-5.994z" fill="#212121"/><path d="M314.864 95.5l8.13 7.822v39.317a3.86 3.86 0 0 1-3.862 3.861H288.54a3.86 3.86 0 0 1-3.862-3.861v-43.28a3.86 3.86 0 0 1 3.862-3.86h26.324z" fill="#fff"/><path opacity=".35" d="M315.372 102.51l7.622 8.737v-7.925l-7.622-.812z" fill="#231F20"/><path d="M314.864 95.5l8.131 7.822H317.1c-1.22 0-2.135-1.016-2.135-2.133v-5.69h-.101z" fill="#14D1BA"/><path d="M314.355 114.091h-21.648c-1.118 0-2.134-.914-2.134-2.134 0-1.117.915-2.133 2.134-2.133h21.648c1.118 0 2.135.914 2.135 2.133-.102 1.22-1.017 2.134-2.135 2.134zm0 8.229h-21.648c-1.118 0-2.134-.914-2.134-2.133 0-1.118.915-2.134 2.134-2.134h21.648c1.118 0 2.135.915 2.135 2.134-.102 1.219-1.017 2.133-2.135 2.133zm0 8.229h-21.648c-1.118 0-2.134-.914-2.134-2.133 0-1.118.915-2.134 2.134-2.134h21.648c1.118 0 2.135.915 2.135 2.134-.102 1.219-1.017 2.133-2.135 2.133zm0 8.23h-21.648c-1.118 0-2.134-.915-2.134-2.134 0-1.117.915-2.133 2.134-2.133h21.648c1.118 0 2.135.914 2.135 2.133-.102 1.219-1.017 2.134-2.135 2.134z" fill="#F1F2F2"/><path d="M250.631 64.411h6.911v-1.219s2.338-1.32 3.557-2.133c.915-.61 1.525-.61 1.525-2.642v-4.876l-12.298 1.524.305 9.346z" fill="#BF9B8E"/><path d="M243.618 31.494c0 7.823 6.403 14.224 14.229 14.224s14.229-6.4 14.229-14.224c0-7.822-6.403-14.223-14.229-14.223s-14.229 6.4-14.229 14.223z" fill="#FFC107"/><path d="M265.673 41.553h-15.55v10.87h15.55v-10.87z" fill="#FFC107"/><path d="M249.106 53.033l5.184 4.368h7.622l4.777-4.368v-6.807h-17.583v6.807z" fill="#BCC8C6"/><path d="M249.005 48.156h17.684c.407 0 .61-.305.61-.61 0-.406-.305-.61-.61-.61h-17.684c-.407 0-.61.306-.61.61 0 .305.305.61.61.61zm0 2.235h17.684c.407 0 .61-.304.61-.61 0-.406-.305-.609-.61-.609h-17.684c-.407 0-.61.305-.61.61s.305.61.61.61zm0 2.134h17.684c.407 0 .61-.305.61-.61 0-.406-.305-.61-.61-.61h-17.684c-.407 0-.61.305-.61.61s.305.61.61.61z" fill="#fff"/><path d="M256.729 59.738h2.846a2.516 2.516 0 0 0 2.541-2.54h-7.928a2.516 2.516 0 0 0 2.541 2.54z" fill="#404142"/><path d="M246.87 31.494a10.93 10.93 0 0 0 10.977 10.973 10.928 10.928 0 0 0 10.976-10.973 10.928 10.928 0 0 0-10.976-10.972c-5.997 0-10.977 4.877-10.977 10.973z" fill="#FFCD39"/><path d="M250.936 31.494c0 3.86 3.15 7.01 7.012 7.01 3.863 0 7.013-3.15 7.013-7.01s-3.15-7.01-7.013-7.01c-3.963 0-7.012 3.15-7.012 7.01z" fill="#FFDA6A"/><path d="M246.87 64.208V51.712l2.134-3.556h5.692c.711.508-.407 2.743-1.22 2.743s-2.337.102-2.337.102l-.508 2.54-3.761 10.667z" fill="#FFCEBD"/><path d="M247.175 65.122c0 2.235.711 1.626 2.643 1.626 3.455.101 4.167-3.556 4.167-5.791v-1.32c0-2.947-2.948-6.706-4.777-6.706-1.83 0-1.931 1.829-1.931 3.962l-.102 8.23z" fill="#FFCEBD"/><path d="M260.388 64.411h-15.042v81.886h15.042V64.411z" fill="#14D1BA"/><path d="M260.388 64.411h-4.98v81.886h4.98V64.411z" fill="#0F9C88"/><path d="M259.473 45.515c0 .813.406 1.422 1.016 1.422h6.505c.61 0 1.118-.61 1.118-1.422 0-.813-.407-1.423-1.016-1.423h-6.505c-.61 0-1.118.712-1.118 1.423zm-2.439 3.555c0 .813.406 1.423 1.016 1.423h9.452c.61 0 1.118-.61 1.118-1.422 0-.813-.406-1.423-1.016-1.423h-9.452c-.61 0-1.118.61-1.118 1.422zm.813 3.455c0 .812.406 1.422 1.016 1.422h7.623c.609 0 1.118-.61 1.118-1.422 0-.813-.407-1.423-1.017-1.423h-7.622c-.61 0-1.118.61-1.118 1.423zm2.236 3.352c0 .813.406 1.422 1.016 1.422l4.37.102c.61 0 1.118-.61 1.118-1.422 0-.813-.406-1.423-1.016-1.423l-4.37-.101c-.61 0-1.118.61-1.118 1.422z" fill="#FFCEBD"/><path opacity=".3" d="M245.752 105.76h14.636V91.943h-15.042v13.919c.101 0 .203-.102.406-.102z" fill="#231F20"/><path d="M179.08 53.846c-.203-.204-.407-.305-.61-.407a1.913 1.913 0 0 0-.813-.203c-.305 0-.508.102-.813.203a3.185 3.185 0 0 0-.61.407 3.97 3.97 0 0 0-.406.508v-5.791a.91.91 0 0 1 .914-.915h14.534V62.99h-14.534a.91.91 0 0 1-.914-.914v-5.791s.305.305.406.508c.203.203.407.305.61.406.203.102.508.203.813.203.305 0 .508-.101.813-.203a3.18 3.18 0 0 0 .61-.406c.203-.203.305-.407.406-.61.102-.203.204-.508.204-.813 0-.304-.102-.507-.204-.812-.101-.305-.304-.508-.406-.711zm14.127 4.876h1.118c.61 0 1.118-.508 1.118-1.117V57.3c0-.61-.508-1.117-1.118-1.117h-1.118c-.61 0-1.118.508-1.118 1.117v.305c0 .61.508 1.117 1.118 1.117z" fill="#14D1BA"/><path d="M156.517 47.648h13.314c.508 0 .915.407.915.915v5.892c.102-.203.305-.508.406-.61.204-.203.407-.304.61-.406.204-.101.508-.203.813-.203.305 0 .509.102.813.203.204.102.509.305.61.407.204.203.305.406.407.61.101.202.203.507.203.812 0 .305-.102.508-.203.813-.102.203-.305.508-.407.61-.203.203-.406.304-.61.406a1.913 1.913 0 0 1-.813.203c-.305 0-.508-.102-.813-.203a3.18 3.18 0 0 1-.61-.407c-.203-.203-.304-.406-.406-.61v5.894a.911.911 0 0 1-.915.915h-13.314v-15.24z" fill="#FFC107"/><path opacity=".4" d="M284.678 99.36v5.181a10.25 10.25 0 0 0 2.541.305c5.387 0 9.757-4.064 10.265-9.347h-8.944a3.86 3.86 0 0 0-3.862 3.86zm4.879 10.667h5.793c.813 0 1.524-.711 1.524-1.524 0-.812-.711-1.524-1.524-1.524h-.203c0-.711-.61-1.32-1.322-1.32l-5.894.406-3.253-.305v4.572c1.931-.203 4.574-.203 4.879-.305z" fill="#231F20"/><path d="M278.478 95.601a1.605 1.605 0 0 1-1.626-1.625V77.924c0-.915.712-1.626 1.626-1.626.915 0 1.627.711 1.627 1.626v16.052c0 .914-.712 1.625-1.627 1.625zm17.38-1.118a1.605 1.605 0 0 1-1.626-1.625V82.292c0-.914.711-1.626 1.626-1.626.915 0 1.626.712 1.626 1.626v10.464c0 1.016-.711 1.727-1.626 1.727zm-5.793-1.828a1.605 1.605 0 0 1-1.626-1.626V70.913c0-.914.711-1.625 1.626-1.625.915 0 1.626.711 1.626 1.625V91.03c0 .915-.711 1.626-1.626 1.626zm-5.793-2.845a1.605 1.605 0 0 1-1.626-1.626v-9.042c0-.914.711-1.625 1.626-1.625.914 0 1.626.711 1.626 1.625v9.042c0 .813-.712 1.626-1.626 1.626zm0-17.982c-.915 0-1.626.71-1.626 1.625v1.22c0 .914.711 1.625 1.626 1.625.914 0 1.626-.711 1.626-1.626v-1.219c0-.914-.712-1.625-1.626-1.625zm11.586 1.016c-.915 0-1.626.71-1.626 1.625v3.15c0 .914.711 1.625 1.626 1.625.915 0 1.626-.71 1.626-1.625v-3.15c0-.914-.711-1.625-1.626-1.625z" fill="#FFC107"/><path d="M287.117 102.814c5.726 0 10.367-4.64 10.367-10.363s-4.641-10.362-10.367-10.362c-5.725 0-10.366 4.64-10.366 10.362 0 5.724 4.641 10.363 10.366 10.363z" fill="#FFC107"/><path d="M287.117 101.696c5.108 0 9.249-4.139 9.249-9.245 0-5.106-4.141-9.245-9.249-9.245-5.108 0-9.248 4.14-9.248 9.245 0 5.106 4.14 9.245 9.248 9.245z" fill="#FFA000"/><path d="M287.118 100.579a8.129 8.129 0 1 0 0-16.255 8.129 8.129 0 0 0-8.131 8.127 8.129 8.129 0 0 0 8.131 8.128z" fill="#FFC107"/><path d="M288.235 96.617h-3.049c-.711 0-1.219-.61-1.219-1.22v-.609h1.829v.102h2.439a.91.91 0 0 0 .915-.915c0-.304-.203-.609-.61-.609h-2.236c-1.321 0-2.337-1.016-2.337-2.337v-.304c0-1.423 1.219-2.642 2.642-2.642h3.049c.712 0 1.22.61 1.22 1.22v.71h-1.829v-.203h-2.44a.91.91 0 0 0-.914.915v.304c0 .305.203.61.609.61h2.236c1.322 0 2.338 1.016 2.338 2.337 0 1.422-1.22 2.641-2.643 2.641z" fill="#212121"/><path d="M288.337 87.168h-1.829v10.566h1.829V87.168z" fill="#212121"/><path opacity=".2" d="M280.003 99.055v-1.32c0-.407.508-.712.813-.508l4.269 2.641c1.016.61 2.236.305 2.846-.711.609-.914.304-2.133-.509-2.743l-5.386-3.962c-.407-.407-1.322-.813-1.931-.915h-3.354v.813a10.24 10.24 0 0 0 6.403 9.55l-3.151-2.845z" fill="#231F20"/><path d="M279.901 105.049v-.203c0-.711.61-1.625 1.322-1.625l6.606.711 5.895-.407c.711 0 1.321.61 1.321 1.321v.203c0 .712-.61 1.321-1.321 1.321h-12.501a1.345 1.345 0 0 1-1.322-1.321z" fill="#BF9B8E"/><path d="M280.613 92.045L286 96.007c.914.61 1.118 1.829.508 2.743-.61 1.016-1.931 1.321-2.846.712l-4.269-2.642c-.406-.203-.813 0-.813.508v1.32l5.997 5.588s3.76.508 4.268.712h6.505c.813 0 1.525.711 1.525 1.524 0 .812-.712 1.524-1.525 1.524h-5.793c-.407.203-6.911.101-6.911.101l-13.924-6.705V91.131h9.96c.61.101 1.524.508 1.931.914z" fill="#FFCEBD"/><path opacity=".2" d="M270.551 91.13h-1.829v10.262l1.829.914V91.131z" fill="#231F20"/><path d="M234.064 145.688h-13.517v-31.089c0-13.613 11.078-24.586 24.595-24.586h24.698v13.614h-24.698c-6.098 0-11.078 4.978-11.078 11.074v30.987z" fill="#FFC107"/><path d="M245.142 103.627h24.698v-5.181h-21.649c-13.619 0-21.648 8.127-20.022 24.586v22.655h5.895v-31.088c0-6.095 4.98-10.972 11.078-10.972z" fill="#BF9105"/><path d="M184.568 65.834c-2.541.508-3.354-2.642-.101-3.048l3.049-.61 3.354-3.25V51.61l-2.338-3.454s-2.236-1.016-2.642-1.117l-4.777.71c-.813-.1-1.525 0-1.83-.71-.305-.712 0-1.524.712-1.83l4.777-.812c.406-.203 5.793-.102 5.793-.102l9.35 7.62v8.636l-5.082 1.117-6.504 3.962-3.761.204z" fill="#FFCEBD"/><path d="M220.242 103.83h13.314V73.352c0-13.31-10.875-24.18-24.189-24.18h-11.485v13.31h11.485c5.996 0 10.875 4.876 10.875 10.87v30.478z" fill="#FFC107"/><path d="M209.367 62.481h-11.485v-5.08h8.538c13.314 0 21.241 7.925 19.615 24.18v22.249h-5.793V73.352c0-5.994-4.879-10.871-10.875-10.871z" fill="#BF9105"/><path opacity=".3" d="M236.809 91.537c-6.403 2.337-11.688 7.315-14.331 13.614v40.536h11.586v-31.088c0-2.743 1.017-5.283 2.643-7.213V91.537h.102z" fill="#231F20"/><path opacity=".3" d="M231.727 64.208a24.577 24.577 0 0 0-14.331-13.614v15.443c1.728 1.93 2.846 4.47 2.846 7.314v30.479h11.485V64.208z" fill="#231F20"/><path d="M218.514 24.992c-.305.712-1.016 1.016-1.727.712l-4.981-2.032c-.711-.305-1.016-1.016-.711-1.727.305-.712 1.016-1.016 1.728-.712l4.98 2.032c.61.203.915 1.016.711 1.727zm-1.829 8.941c-.203.61-.915.914-1.525.61l-1.219-.509a1.085 1.085 0 0 1-.61-1.524c.203-.61.915-.914 1.525-.61l1.219.509c.61.305.915.914.61 1.524zm.915-2.743c-.305.61-1.017 1.016-1.627.711l-1.931-.813c-.609-.305-1.016-1.016-.711-1.625.305-.61 1.016-1.016 1.626-.711l1.931.812c.712.203 1.017.915.712 1.626zm1.321-2.845c-.305.711-1.017 1.016-1.728.711l-3.151-1.219c-.711-.305-1.016-1.016-.711-1.727.305-.711 1.016-1.016 1.728-.711l3.15 1.219c.61.203.915 1.016.712 1.727z" fill="#FFCEBD"/><path d="M229.186 43.28h-6.606v-1.22s-2.236-1.219-3.456-2.032c-.813-.61-1.423-.61-1.423-2.54l11.688-3.149-.203 8.94z" fill="#BF9B8E"/><path d="M230.71 38.81h-14.228a.802.802 0 0 1-.814-.813v-25.5c0-.509.407-.813.814-.813h14.228a.8.8 0 0 1 .813.812v25.5c0 .407-.406.813-.813.813z" fill="#373737"/><path d="M229.999 15.849h-12.908v18.693h12.908V15.85z" fill="#14D1BA"/><path d="M224.714 36.371c0 .61-.508 1.118-1.118 1.118-.61 0-1.118-.508-1.118-1.118 0-.61.508-1.117 1.118-1.117.61 0 1.118.508 1.118 1.117zm1.118-22.452h-4.675a.437.437 0 0 1-.407-.407c0-.203.203-.406.407-.406h4.776c.204 0 .407.203.407.406-.102.305-.305.407-.508.407z" fill="#212121"/><path d="M232.743 42.975V31.19l-2.033-3.353h-5.488c-.61.508.407 2.642 1.118 2.642.813 0 2.236.101 2.236.101l.508 2.439 3.659 9.956z" fill="#FFCEBD"/><path d="M232.54 43.89c0 2.133-.711 1.523-2.439 1.523-3.253.102-3.964-3.454-3.964-5.486v-1.32c0-2.845 2.846-6.401 4.574-6.401 1.727 0 1.829 1.727 1.829 3.759v7.924z" fill="#FFCEBD"/><path d="M234.268 43.28h-14.331v103.017h14.331V43.279z" fill="#14D1BA"/><path d="M225.629 43.28h-5.692v103.017h5.692V43.279z" fill="#0F9C88"/><path d="M223.393 138.677H125.62V78.533c0-.711.61-1.32 1.321-1.32h95.232c.711 0 1.321.609 1.321 1.32v60.144h-.101z" fill="#373737"/><path d="M218.413 82.8h-87.711v50.899h87.711v-50.9z" fill="#fff"/><path d="M172.067 87.575h-34.352v19.202h34.352V87.575z" fill="#FFC107"/><path d="M159.465 108.199h-21.75V127.4h21.75v-19.201z" fill="#ECF0F1"/><path d="M184.162 108.199h-21.75V127.4h21.75v-19.201z" fill="#FFC107"/><path d="M208.859 108.199h-21.75V127.4h21.75v-19.201z" fill="#ECF0F1"/><path d="M208.859 87.575h-34.048v19.202h34.048V87.575z" fill="#14D1BA"/><path d="M229.084 141.42H119.929c3.15 3.048 7.317 4.877 11.688 4.877h85.678c4.472 0 8.74-1.727 11.789-4.877z" fill="#D8D8D8"/><path d="M229.084 138.373H119.929v3.047h109.155v-3.047z" fill="#ECECEC"/><path d="M181.316 140.811h-13.517a.802.802 0 0 1-.813-.813c0-.508.406-.813.813-.813h13.517c.508 0 .813.407.813.813 0 .406-.406.813-.813.813z" fill="#D8D8D8"/><path d="M118.811 13.004v1.22h-3.557a2.122 2.122 0 0 0-1.423-2.236c-1.321-.508-2.744.305-2.948 1.626v.61h-3.557v-1.118c0-.204.203-.407.407-.407h1.016c.203 0 .305-.101.305-.203 0-.101.102-.203.102-.305.101-.101 0-.304-.102-.406l-.711-.711c-.204-.203-.204-.508 0-.61l1.117-1.117c.204-.203.509-.203.61 0l.712.71c.101.102.305.102.406.102.102 0 .204-.101.305-.101.102-.102.203-.203.203-.305v-1.22c0-.202.204-.405.407-.405h1.524c.204 0 .407.203.407.406V9.55c0 .203.102.305.203.305.102 0 .204.101.305.101.102.102.305 0 .407-.101l.711-.711c.203-.204.508-.204.61 0l1.118 1.117c.203.203.203.508 0 .61l-.711.71c-.102.102-.102.306-.102.407 0 .102.102.203.102.305.101.102.203.203.304.203h.915c.712.102.915.305.915.508zm-.407 3.353h-.914c-.204 0-.305.101-.305.203 0 .102-.102.203-.102.305-.102.101 0 .305.102.406l.711.711c.203.204.203.508 0 .61l-1.118 1.117c-.203.204-.508.204-.61 0l-.711-.71c-.102-.102-.305-.102-.407-.102-.101 0-.203.101-.305.101-.101.102-.203.203-.203.305v1.016a.437.437 0 0 1-.406.406h-1.525a.437.437 0 0 1-.406-.406v-.914c0-.204-.102-.305-.204-.305-.101 0-.203-.102-.305-.102-.101-.101-.305 0-.406.102l-.712.711c-.203.203-.508.203-.609 0l-1.118-1.117c-.204-.204-.204-.508 0-.61l.711-.711c.102-.102.102-.305.102-.407 0-.101-.102-.203-.102-.304-.102-.102-.203-.204-.305-.204h-1.016a.437.437 0 0 1-.407-.406v-1.118h3.557v.61c.305 1.422 1.728 2.133 2.948 1.625.915-.304 1.524-1.32 1.423-2.235h3.557v1.22c-.508 0-.712.203-.915.203z" fill="#14D1BA"/><path d="M115.965 14.528a2.84 2.84 0 0 1-2.846 2.845c-1.524 0-2.845-1.321-2.845-2.845a2.84 2.84 0 0 1 2.845-2.845 2.84 2.84 0 0 1 2.846 2.845z" fill="#FFC107"/><path d="M115.66 14.528a2.516 2.516 0 0 1-2.541 2.54 2.516 2.516 0 0 1-2.54-2.54 2.516 2.516 0 0 1 2.54-2.54 2.516 2.516 0 0 1 2.541 2.54z" fill="#FFA000"/><path d="M115.355 14.528a2.255 2.255 0 0 1-2.235 2.235 2.255 2.255 0 0 1-2.236-2.235 2.255 2.255 0 0 1 2.236-2.235 2.255 2.255 0 0 1 2.235 2.235z" fill="#FFC107"/><path d="M113.424 15.645h-.813c-.203 0-.305-.203-.305-.304v-.204h1.22a.218.218 0 0 0 .203-.203.218.218 0 0 0-.203-.203h-.61c-.406 0-.61-.305-.61-.61v-.101c0-.407.305-.711.712-.711h.813c.203 0 .305.203.305.304v.204h-.508v-.102h-.712c-.101 0-.203.102-.203.203v.102c0 .101.102.203.203.203h.61c.407 0 .61.305.61.61 0 .508-.305.812-.712.812z" fill="#212121"/><path d="M113.424 13.004h-.508v2.946h.508v-2.946z" fill="#212121"/><path d="M163.937 65.834c2.541.508 3.354-2.642.101-3.048l-3.049-.61-3.354-3.25V51.61l2.338-3.454s2.236-1.016 2.642-1.117l4.777.71c.813-.1 1.525 0 1.83-.71.305-.712 0-1.524-.712-1.83l-4.777-.812c-.406-.203-5.793-.102-5.793-.102l-9.35 7.62v8.636l5.082 1.117 6.504 3.962 3.761.204z" fill="#FFCEBD"/><path d="M128.263 103.83h-13.314V73.352c0-13.31 10.875-24.18 24.189-24.18h11.484v13.31h-11.484c-5.997 0-10.875 4.876-10.875 10.87v30.478z" fill="#14D1BA"/><path d="M139.138 62.481h11.485v-5.08h-8.538c-13.314 0-21.241 7.925-19.615 24.18v22.249h5.793V73.352c0-5.994 4.878-10.871 10.875-10.871z" fill="#0F9C88"/><path opacity=".3" d="M120.64 145.891h6.2v-39.826c-2.338-6.502-7.42-11.683-13.721-14.426v17.169c1.016 1.626 1.525 3.556 1.525 5.69v31.291h5.996v.102z" fill="#231F20"/><path opacity=".3" d="M131.007 50.594c-6.098 2.134-10.976 6.706-13.721 12.496v40.74h10.977V73.352c0-2.744 1.016-5.283 2.744-7.214V50.594z" fill="#231F20"/><path opacity=".4" d="M131.007 77.314h-4.065c-.712 0-1.322.61-1.322 1.32v59.84h-5.691v3.048c2.947 2.946 6.911 4.571 10.976 4.775V77.314h.102z" fill="#231F20"/><path d="M124.401 0l6.199 4.775-2.439 1.422s-3.252-1.524-3.659-2.438c-.305-.711-.101-3.759-.101-3.759zm2.845 19.506c-.914-.406-1.321-1.523-.914-2.54l3.252-6.806c.406-.915 1.524-1.321 2.541-.915.915.407 1.321 1.524.915 2.54l-3.253 6.807c-.508.914-1.626 1.32-2.541.914z" fill="#FFCEBD"/><path d="M132.125 12.496c-.813.305-1.728-.101-2.134-.914l-2.033-4.978c-.305-.813.102-1.727.915-2.134.813-.304 1.727.102 2.134.915l2.033 4.978c.305.813-.102 1.829-.915 2.133zm-14.94-9.042l7.825.508-1.219 2.54s-3.557.508-4.37 0c-.712-.304-2.236-3.048-2.236-3.048z" fill="#FFCEBD"/><path d="M127.755 19.201c-1.017-.101-1.83-.914-1.83-1.93l.407-7.62c0-1.015.915-1.828 1.931-1.828s1.829.914 1.829 1.93l-.406 7.62c0 1.117-.915 1.93-1.931 1.828z" fill="#FFCEBD"/><path d="M129.381 10.566c-.61.61-1.626.61-2.236 0l-3.761-3.86a1.596 1.596 0 0 1 0-2.236c.61-.61 1.627-.61 2.236 0l3.761 3.86c.61.61.61 1.626 0 2.236z" fill="#FFCEBD"/><path d="M116.88 31.8l-3.659-5.995-3.049-5.588s1.931-.61 2.947.305l3.354 3.76s3.964.304 4.269.304c.813 0 3.964-5.486 3.862-6.299 0-.508-.508-6.604-.508-6.604l-4.675-2.235s-3.558-.406-4.777-.305c-2.033 0-1.321-2.031-1.321-2.031h6.504l7.013 1.524 3.252 9.346-2.947 14.02H116.88V31.8z" fill="#FFCEBD"/><path d="M128.466 31.19h-13.721v115.107h13.721V31.19z" fill="#FFC107"/><path d="M118.912 31.19h-4.167v115.107h4.167V31.19z" fill="#BF9105"/><path d="M139.646 136.646V127.4c-5.082 0-9.249 4.166-9.249 9.246 0 5.079 4.167 9.245 9.249 9.245 5.082 0 9.249-4.166 9.249-9.245h-9.249z" fill="#FFC107"/><path d="M140.764 127.807v8.127h8.131c0-4.571-3.659-8.127-8.131-8.127z" fill="#14D1BA"/><path d="M257.847 39.52c-2.236 0-4.269-.813-5.895-2.438a8.379 8.379 0 0 1-2.439-5.893c0-2.235.813-4.267 2.439-5.892l2.236 2.235c-.915.914-1.525 2.235-1.525 3.556 0 1.32.509 2.641 1.525 3.556.915.914 2.236 1.523 3.557 1.523v3.353h.102z" fill="#212121"/><path d="M257.847 39.52v-3.15c1.321 0 2.642-.507 3.557-1.523.915-.915 1.524-2.235 1.524-3.556 0-1.32-.508-2.642-1.524-3.556-.915-.914-2.236-1.524-3.557-1.524v-3.15c2.236 0 4.268.814 5.894 2.439a8.38 8.38 0 0 1 2.44 5.893c0 2.235-.813 4.267-2.44 5.892-1.524 1.422-3.658 2.235-5.894 2.235z" fill="#fff"/><path d="M254.289 27.634l-2.236-2.235a8.39 8.39 0 0 1 5.895-2.439v3.15a5.23 5.23 0 0 0-3.659 1.524z" fill="#14D1BA"/><path opacity=".4" d="M37.096 145.484v-35.558a.802.802 0 0 0-.813-.813h-4.065v7.823h-.508c-.61 0-1.118.508-1.118 1.118v26.922c0 .61.508 1.118 1.118 1.118h5.183c.102-.203.203-.407.203-.61z" fill="#231F20"/><path d="M43.296 93.467v45.413c0 1.321 14.94 2.337 16.262 2.337 1.321 0 2.337-1.016 2.337-2.337V93.467H43.296z" fill="#fff"/><path opacity=".2" d="M59.05 141.217H43.296v-41.146h11.18c1.83 0 3.354 1.524 3.354 3.353v35.253c0 .813.305 1.524.813 2.032l.407.508z" fill="#231F20"/><path d="M57.119 103.322c-.102-1.219-1.118-2.235-2.338-2.235s-3.76 1.016-3.76 2.235v37.895h8.537c-1.423 0-2.44-1.117-2.44-2.438v-35.457z" fill="#14D1BA"/><path d="M54.781 101.087H36.588c-1.32 0-2.439 1.118-2.439 2.438v14.02h18.294v-14.02c0-1.625 1.22-2.438 2.338-2.438z" fill="#fff"/><path d="M52.85 145.992H33.743c-.61 0-1.118-.508-1.118-1.118v-26.922c0-.61.508-1.118 1.118-1.118H52.85c.61 0 1.118.508 1.118 1.118v26.922c-.102.61-.508 1.118-1.118 1.118z" fill="#404142"/><path d="M52.342 119.577H34.149v4.979h18.193v-4.979z" fill="#FFC107"/><path d="M37.198 129.838H34.76c-.305 0-.61-.304-.61-.609v-2.438c0-.305.305-.61.61-.61h2.44c.304 0 .609.305.609.61v2.438c0 .406-.305.609-.61.609zm4.777 0h-2.44c-.304 0-.609-.304-.609-.609v-2.438c0-.305.305-.61.61-.61h2.44c.304 0 .609.305.609.61v2.438c0 .406-.203.609-.61.609zm4.878 0h-2.439c-.305 0-.61-.304-.61-.609v-2.438c0-.305.305-.61.61-.61h2.44c.304 0 .61.305.61.61v2.438c0 .406-.306.609-.61.609zm4.879 0h-2.44c-.304 0-.609-.304-.609-.609v-2.438c0-.305.305-.61.61-.61h2.44c.304 0 .609.305.609.61v2.438c0 .406-.305.609-.61.609zm-14.534 4.775H34.76c-.305 0-.61-.304-.61-.609v-2.438c0-.305.305-.61.61-.61h2.44c.304 0 .609.305.609.61v2.438c0 .406-.305.609-.61.609zm4.777 0h-2.44c-.304 0-.609-.304-.609-.609v-2.438c0-.305.305-.61.61-.61h2.44c.304 0 .609.305.609.61v2.438c0 .406-.203.609-.61.609zm4.878 0h-2.439c-.305 0-.61-.304-.61-.609v-2.438c0-.305.305-.61.61-.61h2.44c.304 0 .61.305.61.61v2.438c0 .406-.306.609-.61.609zm4.879 0h-2.44c-.304 0-.609-.304-.609-.609v-2.438c0-.305.305-.61.61-.61h2.44c.304 0 .609.305.609.61v2.438c0 .406-.305.609-.61.609z" fill="#fff"/><path d="M37.401 144.163h-2.947c-.203 0-.305-.101-.305-.304v-7.722c0-.203.102-.304.305-.304h2.947c.204 0 .305.101.305.304v7.722c.102.203-.101.304-.305.304z" fill="#FFC107"/><path d="M41.975 139.388h-2.44c-.304 0-.609-.305-.609-.609v-2.439c0-.304.305-.609.61-.609h2.44c.304 0 .609.305.609.609v2.439c0 .406-.203.609-.61.609zm4.878 0h-2.439c-.305 0-.61-.305-.61-.609v-2.439c0-.304.305-.609.61-.609h2.44c.304 0 .61.305.61.609v2.439c0 .406-.306.609-.61.609zm4.879 0h-2.44c-.304 0-.609-.305-.609-.609v-2.439c0-.304.305-.609.61-.609h2.44c.304 0 .609.305.609.609v2.439c0 .406-.305.609-.61.609zm-9.757 4.775h-2.44c-.304 0-.609-.304-.609-.609v-2.337c0-.305.305-.609.61-.609h2.44c.304 0 .609.304.609.609v2.439c0 .304-.203.507-.61.507zm4.878 0h-2.439c-.305 0-.61-.304-.61-.609v-2.337c0-.305.305-.609.61-.609h2.44c.304 0 .61.304.61.609v2.439c0 .304-.306.507-.61.507zm4.879 0h-2.44c-.304 0-.609-.304-.609-.609v-2.337c0-.305.305-.609.61-.609h2.44c.304 0 .609.304.609.609v2.439c0 .304-.305.507-.61.507z" fill="#fff"/><path d="M38.215 119.577H34.25l4.98 4.979h3.964l-4.98-4.979zm8.74 4.979l-4.98-4.979H39.74l4.98 4.979h2.236z" fill="#FFE69C"/><path d="M51.02 104.948H35.98v1.015h15.04v-1.015zm9.757-7.518H44.821v1.016h15.956V97.43zm0 2.133h-1.829v1.016h1.83v-1.016zm.001 2.133h-1.525v1.016h1.525v-1.016zm0 2.032h-1.525v1.016h1.525v-1.016zm0 2.134h-1.525v1.016h1.525v-1.016zm0 2.133h-1.525v1.016h1.525v-1.016zm0 2.032h-1.525v1.016h1.525v-1.016zm0 2.134h-1.525v1.016h1.525v-1.016zm0 2.133h-1.525v1.016h1.525v-1.016zm0 2.032h-1.525v1.016h1.525v-1.016zm0 2.134h-1.525v1.016h1.525v-1.016zm0 2.133h-1.525v1.016h1.525v-1.016zm0 2.032h-1.525v1.016h1.525v-1.016zm0 2.134h-1.525v1.015h1.525v-1.015zm0 2.133h-1.525v1.016h1.525v-1.016zm0 2.032h-1.525v1.016h1.525v-1.016zm0 2.134h-1.525v1.016h1.525v-1.016zm0 2.133h-1.525v1.016h1.525v-1.016zm0 2.032h-1.525v1.016h1.525v-1.016zm0 2.134h-1.525v1.015h1.525v-1.015zm-.001-41.959H44.821v1.016h15.956v-1.016zm-9.757 12.089H35.98v1.016h15.04v-1.016zm0 2.642H35.98v1.016h15.04v-1.016zm0 2.54H35.98v1.016h15.04v-1.016zm0 2.54H35.98v1.016h15.04v-1.016z" fill="#D8D8D8"/><path opacity=".4" d="M258.863 144.265c.61 0 1.118-.203 1.525-.61v-14.629c-.407-.407-.915-.61-1.525-.61h-13.517v15.849h13.517z" fill="#212121"/><path d="M233.251 130.448h25.714c1.219 0 2.134.915 2.134 2.134v11.582c0 1.219-.915 2.133-2.134 2.133h-25.714c-1.219 0-2.134-.914-2.134-2.133v-11.582c0-1.219.915-2.134 2.134-2.134z" fill="#FFC107"/><path d="M233.963 135.02v6.909c1.219 0 2.337 1.016 2.337 2.336h19.412c0-1.219 1.017-2.336 2.338-2.336h.203v-6.909c-1.219 0-2.337-1.016-2.337-2.337H236.3c-.101 1.321-1.118 2.337-2.337 2.337z" fill="#FFDA6A"/><path d="M241.382 138.474a4.77 4.77 0 0 1 4.777-4.775 4.771 4.771 0 0 1 4.777 4.775 4.77 4.77 0 0 1-4.777 4.775c-2.744 0-4.777-2.133-4.777-4.775zm12.095 0c0-.711.609-1.219 1.219-1.219.712 0 1.22.61 1.22 1.219 0 .711-.61 1.219-1.22 1.219s-1.219-.508-1.219-1.219zm-17.38 0c0-.711.61-1.219 1.22-1.219.711 0 1.219.61 1.219 1.219 0 .711-.61 1.219-1.219 1.219-.61 0-1.22-.508-1.22-1.219z" fill="#FFC107"/><path d="M245.447 135.528h2.135a.91.91 0 0 1 .914.914v.508h-1.321v-.101h-1.728c-.304 0-.609.304-.609.609 0 .203.203.407.406.407h1.626c.915 0 1.728.711 1.728 1.727v.203c0 1.016-.813 1.93-1.931 1.93h-2.134a.91.91 0 0 1-.915-.914v-.61h1.321v.102h1.728c.305 0 .61-.305.61-.61v-.203a.437.437 0 0 0-.407-.406h-1.626c-.915 0-1.728-.711-1.728-1.727.102-1.016.915-1.829 1.931-1.829z" fill="#212121"/><path d="M246.769 134.715h-1.321v7.518h1.321v-7.518z" fill="#212121"/><path opacity=".3" d="M121.657 143.249h6.809v-38.098c-2.033-7.112-7.114-12.902-13.721-15.849v18.084c.61 1.422 1.017 2.946 1.017 4.572v31.291h5.895z" fill="#231F20"/><path opacity=".4" d="M45.329 93.467v5.69-5.69h-1.525v5.69h1.525l16.058-5.69H45.33z" fill="#231F20"/><path d="M65.554 91.74l-1.118 3.76 1.118.406 1.322-2.845-1.322-1.32z" fill="#D1D4D4"/><path d="M65.554 91.74v8.534c0 .102.102.203.203.203h3.863a.218.218 0 0 0 .203-.203V91.74h-4.269z" fill="#FFCD39"/><path d="M71.55 89.81c1.83 0 3.253-1.422 3.253-3.251s-1.524-3.251-3.252-3.251v6.502zm-24.697-.508c-1.727 0-3.049-1.32-3.049-3.048 0-1.727 1.322-3.047 3.05-3.047v6.095z" fill="#FFC107"/><path d="M72.059 82.089h-8.537v8.534h8.537v-8.534z" fill="#fff"/><path d="M72.059 86.356h-8.537v4.267h8.537v-4.267z" fill="#D1D4D4"/><path d="M46.853 75.892H45.33v20.725h1.524V75.892z" fill="#fff"/><path d="M70.84 90.623h-6.302v1.016h6.301v-1.016zm-2.745 2.032h1.728v1.422h-1.728a.695.695 0 0 1-.712-.711c0-.305.305-.711.712-.711zm0 2.54h1.728v1.422h-1.728a.695.695 0 0 1-.712-.711c0-.407.305-.711.712-.711zm0 2.438h1.728v1.422h-1.728a.695.695 0 0 1-.712-.71c0-.306.305-.712.712-.712z" fill="#FFC107"/><path d="M46.853 75.892l16.669 6.197v4.165H46.853V75.892z" fill="#FFCD39"/><path d="M63.522 86.254v4.47l-16.669 5.893V86.254h16.669z" fill="#FFC107"/><path d="M65.35 102.713c0-.712.61-1.423 1.424-1.423H65.35c-.712 0-1.423-.609-1.423-1.422 0-.711.61-1.422 1.423-1.422h-1.423c-.711 0-1.423-.61-1.423-1.423 0-.813.61-1.422 1.423-1.422h1.423c-.712 0-1.423-.61-1.423-1.422 0-.813.61-1.423 1.423-1.423h2.846v-1.93a.91.91 0 0 1 .914-.914h6.098c.509 0 .915.304 1.118.71l.509 1.118c.203.407.61.712 1.118.712h2.642v9.143H77.65c-.305 0-.61.102-.813.305l-1.322 1.422c-.203.203-.61.407-.914.407h-7.928c-.711.406-1.321-.204-1.321-1.016z" fill="#FFCEBD"/><path d="M114.644 146.297h13.619v-31.292c0-13.715-11.18-24.789-24.799-24.789h-24.9v13.614h24.9c6.2 0 11.18 4.978 11.18 11.175v31.292z" fill="#14D1BA"/><path d="M103.565 103.83h-24.9v-5.181h21.851c13.721 0 21.75 8.128 20.124 24.789v22.859h-5.895v-31.291c-.101-6.197-5.081-11.176-11.18-11.176z" fill="#0F9C88"/><path d="M193.004 7.62v12.902a2.949 2.949 0 0 1-2.947 2.947h-1.423v7.01c0 .304-.407.406-.61.203l-7.521-7.213h-15.448a2.949 2.949 0 0 1-2.948-2.947V7.62a2.949 2.949 0 0 1 2.948-2.947h24.798c1.83-.101 3.151 1.22 3.151 2.947z" fill="#FFC107"/><path d="M189.752 10.972h-14.331a.802.802 0 0 1-.813-.812c0-.407.305-.813.813-.813h14.331c.406 0 .813.305.813.813s-.305.812-.813.812zm0 3.963h-14.331a.802.802 0 0 1-.813-.813c0-.406.305-.813.813-.813h14.331c.406 0 .813.305.813.813a.802.802 0 0 1-.813.813zm0 3.86h-9.249a.801.801 0 0 1-.813-.813c0-.406.305-.812.813-.812h9.249c.406 0 .813.304.813.812s-.305.813-.813.813z" fill="#fff"/><path d="M164.14 40.842l-2.033-1.017h-.102l-2.032 1.118c-.102.102-.203 0-.203-.101l.406-2.236v-.101l-1.626-1.524c-.102-.102 0-.203.102-.203l2.235-.305s.102 0 .102-.102l1.016-2.032c0-.101.204-.101.204 0l1.016 2.032.102.102 2.236.305c.101 0 .203.101.101.203l-1.626 1.625v.102l.407 2.235c-.102-.101-.204 0-.305-.101zm8.131 0l-2.033-1.017h-.102l-2.032 1.118c-.102.102-.204 0-.204-.101l.407-2.236v-.101l-1.626-1.524c-.102-.102 0-.203.101-.203l2.236-.305s.102 0 .102-.102l1.016-2.032c0-.101.204-.101.204 0l1.016 2.032.102.102 2.236.305c.101 0 .203.101.101.203l-1.626 1.625v.102l.407 2.235c-.102-.101-.204 0-.305-.101zm8.13 0l-2.032-1.017h-.102l-2.033 1.118c-.101.102-.203 0-.203-.101l.407-2.236v-.101l-1.627-1.524c-.101-.102 0-.203.102-.203l2.236-.305s.102 0 .102-.102l1.016-2.032c0-.101.203-.101.203 0l1.017 2.032.101.102 2.236.305c.102 0 .203.101.102.203l-1.626 1.625v.102l.406 2.235c-.101-.101-.203 0-.305-.101zm8.131 0l-2.033-1.017h-.101l-2.033 1.118c-.102.102-.203 0-.203-.101l.406-2.236v-.101l-1.626-1.524c-.101-.102 0-.203.102-.203l2.236-.305s.101 0 .101-.102l1.017-2.032c0-.101.203-.101.203 0l1.016 2.032.102.102 2.236.305c.102 0 .203.101.102.203l-1.626 1.625v.102l.406 2.235c-.102-.101-.203 0-.305-.101z" fill="#FFC107"/><path opacity=".3" d="M177.657 8.33h-15.448v12.192a2.949 2.949 0 0 0 2.947 2.947h15.449V11.277a2.95 2.95 0 0 0-2.948-2.946z" fill="#231F20"/><path d="M155.603 11.277V24.18a2.949 2.949 0 0 0 2.947 2.946h1.321v7.01c0 .305.407.406.61.203l7.521-7.213h8.842a2.95 2.95 0 0 0 2.948-2.946V11.277a2.95 2.95 0 0 0-2.948-2.946H158.55a2.949 2.949 0 0 0-2.947 2.946z" fill="#14D1BA"/><path d="M174.812 14.02h-14.331a.802.802 0 0 1-.813-.813c0-.406.305-.812.813-.812h14.331c.406 0 .813.304.813.812 0 .407-.407.813-.813.813zm0 3.86h-14.331a.802.802 0 0 1-.813-.812c0-.406.305-.813.813-.813h14.331c.406 0 .813.305.813.813a.802.802 0 0 1-.813.813zm0 3.963h-9.249a.801.801 0 0 1-.813-.813c0-.406.305-.812.813-.812h9.249c.406 0 .813.304.813.812 0 .407-.407.813-.813.813z" fill="#fff"/><path opacity=".4" d="M101.838 136.341h-15.55v7.924h15.55v-7.924zm-25.918 0h-3.455v7.924h3.456v-7.924z" fill="#212121"/><path d="M123.994 138.88v6.909c0 .305-.203.508-.508.508H54.578c-.305 0-.508-.203-.508-.508v-6.909c0-.304.203-.508.508-.508h68.908c.305 0 .508.204.508.508z" fill="#FFC107"/><path d="M123.181 138.372H54.883c-.407 0-.813.407-.813.813v3.048h69.924v-3.048c0-.508-.305-.813-.813-.813z" fill="#FFDA6A"/><path d="M59.253 138.372h-1.016v1.321h1.016v-1.321zm3.964 0H62.2v1.321h1.017v-1.321zm4.065 0h-1.016v1.321h1.016v-1.321zm4.065 0h-1.016v1.321h1.016v-1.321zm4.066 0h-1.016v2.642h1.016v-2.642zm4.065 0h-1.016v1.321h1.016v-1.321zm4.066 0h-1.017v1.321h1.017v-1.321zm4.066 0h-1.017v1.321h1.016v-1.321zm4.064 0h-1.016v1.321h1.016v-1.321zm3.964 0h-1.016v2.642h1.016v-2.642zm4.065 0h-1.016v1.321h1.016v-1.321zm4.066 0h-1.017v1.321h1.017v-1.321zm4.065 0h-1.016v1.321h1.016v-1.321zm4.066 0h-1.017v1.321h1.017v-1.321zm4.065 0h-1.016v2.642h1.016v-2.642zm4.065 0h-1.016v1.321h1.016v-1.321z" fill="#212121"/><path opacity=".4" d="M284.678 129.33l.305-.508a9.698 9.698 0 0 0 4.879-3.962c2.337-3.454 2.236-8.229-.204-11.582-1.321-1.828-3.049-3.048-4.98-3.759v19.811z" fill="#231F20"/><path d="M282.036 146.297h-23.478v-27.43a2.256 2.256 0 0 1 2.236-2.236H279.8a2.255 2.255 0 0 1 2.236 2.236v27.43z" fill="#fff"/><path d="M279.8 122.93h-19.006v23.266H279.8V122.93z" fill="#404142"/><path d="M273.702 120.086h-6.81c-.304 0-.508-.203-.508-.508s.204-.508.508-.508h6.81c.305 0 .508.203.508.508.102.305-.203.508-.508.508z" fill="#9E9E9E"/><path d="M260.794 139.998v6.299h4.167v-9.753l-4.167 3.454zm7.725-1.829v8.128h4.776v-11.684l-4.776 3.556z" fill="#FFC107"/><path d="M264.961 136.544v9.753h3.557v-8.229l-3.557-1.524z" fill="#FFD999"/><path d="M279.902 133.09l-3.761 3.149v10.058h3.761V133.09z" fill="#FFC107"/><path d="M276.141 136.239l-2.846-1.626v11.684h2.846v-10.058z" fill="#FFD999"/><path opacity=".3" d="M280.206 116.733h-11.179c-.915 2.845-.407 6.096 1.321 8.635 1.524 2.337 3.76 3.658 6.2 4.267l2.642 3.861c.102.102.305.102.305 0l2.439-3.556v-11.378c.102-1.016-.711-1.829-1.728-1.829z" fill="#231F20"/><path d="M280.003 132.988l2.948-4.267a9.696 9.696 0 0 0 4.878-3.962c2.338-3.454 2.236-8.229-.203-11.582-4.167-5.689-12.603-5.689-16.668.102-2.44 3.454-2.541 8.127-.102 11.582 1.525 2.336 3.761 3.657 6.2 4.267l2.642 3.86c.102.203.204.203.305 0z" fill="#14D1BA"/><path d="M284.475 124.454a7.24 7.24 0 0 1-10.265 0 7.233 7.233 0 0 1 0-10.261 7.242 7.242 0 0 1 10.265 0c2.846 2.743 2.846 7.417 0 10.261z" fill="#43DAC7"/><path d="M277.767 122.118l-2.642-2.744 1.423-1.422 1.219 1.321 3.659-3.658 1.525 1.423-5.184 5.08z" fill="#fff"/><path opacity=".4" d="M274.21 142.03h-5.59a.801.801 0 0 0-.813.813v2.641c0 .508.406.813.813.813h13.416v-4.369h-7.826v.102z" fill="#212121"/><path d="M311.307 142.03h-36.08v4.368h36.08v-4.368z" fill="#FFA000"/><path d="M275.226 146.297v-4.369h-4.573a.802.802 0 0 0-.813.813v2.641c0 .508.406.813.813.813h4.573v.102z" fill="#14D1BA"/><path d="M311.307 142.03h-36.08v2.133h36.08v-2.133z" fill="#FFCD39"/><path d="M316.389 143.96l-4.981-2.032v4.369l4.981-2.032c.101 0 .101-.203 0-.305z" fill="#F1F2F2"/><path d="M316.693 144.163l-1.321-.508v1.118l1.321-.61zm-40.45-2.133h-1.016v4.368h1.016v-4.368z" fill="#212121"/><path opacity=".4" d="M315.474 114.599v2.032a.91.91 0 0 0 .914.914h.509v19.608c0 .508.406 1.016 1.016 1.016h5.082v-24.383h-6.607c-.508-.101-.914.305-.914.813z" fill="#231F20"/><path d="M337.224 135.934h-1.525v10.363h1.525v-10.363zm-10.876 10.363h-1.829l6.81-9.246 1.219.813-6.2 8.433zm20.124 0h1.83l-6.81-9.246-1.22.813 6.2 8.433z" fill="#212121"/><path d="M353.18 138.067h-33.133a1.018 1.018 0 0 1-1.016-1.016v-20.115c0-.508.406-1.016 1.016-1.016h33.133c.508 0 1.016.406 1.016 1.016v20.217c-.101.508-.508.914-1.016.914z" fill="#ECECEC"/><path d="M353.282 116.022h-.915a.91.91 0 0 1 .915.914v20.319a.91.91 0 0 1-.915.914h.915a.91.91 0 0 0 .914-.914v-20.319c-.101-.508-.406-.914-.914-.914z" fill="#C5C5C5"/><path d="M323.198 136.137h-2.236v-7.315l2.236-.914v8.229z" fill="#FFDA6A"/><path d="M325.434 136.137h-2.236v-7.924l2.236-1.829v9.753z" fill="#FFA000"/><path d="M327.568 136.137h-2.134v-9.753l2.134.914v8.839z" fill="#FFDA6A"/><path d="M329.804 127.298h-2.236v8.839h2.236v-8.839z" fill="#FFA000"/><path d="M332.04 127.298h-2.236v8.839h2.236v-8.839z" fill="#FFDA6A"/><path d="M334.276 136.137h-2.236v-8.838l2.236-1.829v10.667z" fill="#FFA000"/><path d="M336.512 136.137h-2.236v-9.753l2.236-1.829v11.582z" fill="#FFDA6A"/><path d="M338.748 125.47h-2.236v10.667h2.236V125.47z" fill="#FFA000"/><path d="M340.882 125.47h-2.236v10.667h2.236V125.47z" fill="#FFDA6A"/><path d="M343.118 136.137h-2.236V125.47l2.236-.915v11.582z" fill="#FFA000"/><path d="M345.354 136.137h-2.236v-11.581l2.236-.915v12.496z" fill="#FFDA6A"/><path d="M347.489 136.137h-2.135v-12.496l2.135.915v11.581z" fill="#FFA000"/><path d="M349.725 136.137h-2.236v-11.581l2.236-.915v12.496z" fill="#FFDA6A"/><path d="M351.961 136.137h-2.236v-12.496l2.236-2.641v15.137z" fill="#FFA000"/><path d="M321.368 129.533l-.711-1.32 4.574-2.642 4.573 1.321 6.606-2.743 4.066.813 4.573-2.54 3.354.914 4.066-3.861 1.016 1.016-4.675 4.471-3.557-.915-4.574 2.439-4.167-.813-6.606 2.743-4.472-1.219-4.066 2.336z" fill="#212121"/><path opacity=".3" d="M354.095 116.022h-35.166v2.438h35.166v-2.438z" fill="#231F20"/><path d="M354.603 117.444h-36.182a.912.912 0 0 1-.915-.915v-2.032c0-.507.407-.914.915-.914h36.182c.508 0 .915.407.915.914v2.032a.912.912 0 0 1-.915.915z" fill="#14D1BA"/><path d="M325.637 120.492h-2.642a.695.695 0 0 1-.712-.711c0-.407.305-.712.712-.712h2.642c.407 0 .712.305.712.712a.695.695 0 0 1-.712.711zm0 2.133h-2.642a.695.695 0 0 1-.712-.711c0-.406.305-.711.712-.711h2.642c.407 0 .712.305.712.711a.695.695 0 0 1-.712.711zm0 2.133h-2.642a.694.694 0 0 1-.712-.711c0-.406.305-.711.712-.711h2.642c.407 0 .712.305.712.711 0 .305-.305.711-.712.711z" fill="#D8D8D8"/><path opacity=".4" d="M223.698 145.078l-2.236-17.779-6.912-.508-5.589 6.4-5.59 6.299 1.422 6.807h12.908c2.033 0 4.065-.508 5.997-1.219z" fill="#231F20"/><path d="M218.412 133.598l-7.012-.508 5.59-6.401 1.422 6.909z" fill="#FFC107"/><path d="M212.823 139.998l-7.013-.61 5.59-6.299 1.423 6.909z" fill="#FFC107"/><path d="M226.34 146.297h-19.107l16.769-18.999 2.338 18.999z" fill="#FFC107"/><path d="M226.34 146.297l-13.517-6.401 5.589-6.298 7.928 12.699zm-20.53-6.908l1.423 6.908 5.488-6.299-6.911-.609zm5.59-6.3l1.423 6.807 5.488-6.299-6.911-.508zm5.59-6.4l1.422 6.909 5.59-6.299-7.012-.61z" fill="#FFCD39"/></svg>