<svg width="359" height="128" fill="none" xmlns="http://www.w3.org/2000/svg"><path d="M329.977 74.44h-2.746v5.285h2.746V74.44z" fill="#0F9C88"/><path d="M331.299 78.607h-5.288v49.088h5.288V78.607z" fill="#FFC107"/><path d="M328.655 45.678c-8.948 0-16.166 7.216-16.166 16.16 0 8.943 7.218 16.159 16.166 16.159 8.947 0 16.166-7.216 16.166-16.16-.101-8.943-7.32-16.159-16.166-16.159zm0 28.864c-7.016 0-12.71-5.692-12.71-12.705 0-7.012 5.694-12.704 12.71-12.704 7.015 0 12.709 5.692 12.709 12.704 0 7.013-5.694 12.704-12.709 12.704z" fill="#14D1BA"/><path d="M341.466 61.837c0-7.114-5.796-12.805-12.811-12.805-7.117 0-12.811 5.793-12.811 12.805 0 7.115 5.795 12.806 12.811 12.806 7.015 0 12.811-5.793 12.811-12.806zm-12.811 11.586c-6.406 0-11.591-5.183-11.591-11.586 0-6.402 5.185-11.586 11.591-11.586 6.405 0 11.591 5.184 11.591 11.586 0 6.403-5.186 11.586-11.591 11.586z" fill="#43DAC7"/><path d="M328.655 78.607h-2.745v49.088h2.745V78.607z" fill="#FFED5E"/><path d="M321.233 67.935a12.842 12.842 0 0 1-1.119-1.32c-.305-.51-.61-1.017-.813-1.525a8.562 8.562 0 0 1-.509-1.728c-.101-.61-.203-1.22-.203-1.83 0-.61.102-1.22.203-1.829.102-.61.305-1.118.509-1.728.203-.508.508-1.016.813-1.524.305-.508.712-.915 1.119-1.321l.711.711c-.406.407-.711.813-1.016 1.22-.305.406-.509.914-.712 1.422-.203.509-.407 1.017-.508 1.525-.102.508-.204 1.118-.204 1.626 0 .508.102 1.118.204 1.626.101.508.305 1.017.508 1.525s.407.914.712 1.422c.305.407.61.814 1.016 1.22l-.711.508z" fill="#fff"/><path d="M340.754 61.838c0 6.707-5.49 12.196-12.201 12.196-6.71 0-12.201-5.489-12.201-12.196 0-6.708 5.491-12.196 12.201-12.196 6.711 0 12.201 5.488 12.201 12.196z" fill="#FFC107"/><path d="M337.907 61.838a9.327 9.327 0 0 1-9.354 9.35 9.328 9.328 0 0 1-9.354-9.35 9.328 9.328 0 0 1 9.354-9.35 9.327 9.327 0 0 1 9.354 9.35z" fill="#fff"/><path d="M334.552 61.838c0 3.354-2.643 5.996-5.999 5.996-3.355 0-5.999-2.642-5.999-5.996 0-3.354 2.644-5.997 5.999-5.997 3.356 0 5.999 2.744 5.999 5.997z" fill="#FFC107"/><path d="M331.909 61.838c0 1.83-1.526 3.354-3.356 3.354-1.83 0-3.355-1.525-3.355-3.354 0-1.83 1.525-3.354 3.355-3.354s3.356 1.524 3.356 3.354z" fill="#fff"/><path opacity=".2" d="M328.96 60.415l-.915.915 10.981 10.874.813-.915-10.879-10.874z" fill="#404142"/><path d="M340.348 49.134l.101-3.354 4.982-4.98-.508 3.862-4.575 4.472z" fill="#FFC107"/><path opacity=".2" d="M340.348 48.117v1.017l4.575-4.472.203-1.22-4.778 4.675z" fill="#231F20"/><path d="M341.263 49.845h3.355l4.982-5.081-3.762.508-4.575 4.573z" fill="#FFC107"/><path opacity=".2" d="M342.279 49.845l4.678-4.675-1.119.102-4.575 4.573h1.016z" fill="#231F20"/><path d="M344.672 44.67l-16.68 16.673.863.863 16.679-16.673-.862-.862z" fill="#212121"/><path d="M328.858 52.996h-.61v1.829h.61v-1.83zm1.729 2.134l-.508-.203.406-1.728.61.203-.508 1.728zm1.982-1.15l-.915 1.585.528.305.915-1.585-.528-.305zm3.222 3.078l-1.585.915.306.528 1.584-.915-.305-.528zm.975 2.113l-1.767.476.159.588 1.767-.475-.159-.589zm.328 2.259h-1.83v.61h1.83v-.61zm-2.055 1.728l-.157.59 1.768.47.157-.589-1.768-.471zm-.59 1.708l-.304.528 1.586.913.304-.528-1.586-.913zm-1.033 1.364l-.431.432 1.296 1.292.431-.431-1.296-1.293zm-1.383 1.147l-.528.306.918 1.582.528-.305-.918-1.583zm-1.699.735l-.589.159.477 1.766.589-.159-.477-1.766zm-1.68.332l-.61.001.003 1.83.61-.002-.003-1.829zm-2.348-.378l-.472 1.767.59.158.471-1.768-.589-.157zm-1.624-.788l-.911 1.587.529.303.911-1.586-.529-.304zm-1.413-1.184l-1.291 1.297.433.43 1.291-1.297-.433-.43zm-.92-1.54l-1.583.917.306.528 1.583-.918-.306-.527zm-.608-1.63l-1.766.48.16.588 1.766-.48-.16-.588zm-.102-1.8l-1.83.004.002.61 1.83-.004-.002-.61zm-1.397-2.224l-.157.59 1.769.469.157-.59-1.769-.469zm.911-1.916l-.304.53 1.588.91.303-.53-1.587-.91zm1.467-1.826l-.431.433 1.298 1.29.43-.432-1.297-1.29zm1.859-1.276l-.527.306.919 1.582.528-.306-.92-1.582zm2.103-.746l-.589.16.48 1.765.588-.16-.479-1.766z" fill="#14D1BA"/><path d="M14.885 101.271c-3.966 0-7.524-2.236-9.05-5.59L.955 84.605c-.61-1.423-.508-3.05.407-4.37.915-1.423 2.542-2.338 4.372-2.338h8.134v1.626H5.734c-1.22 0-2.339.61-3.05 1.525-.61.914-.61 1.93-.204 2.845L7.36 94.97c1.22 2.846 4.271 4.675 7.525 4.675v1.626zm10.472 1.118h-7.32v14.838h7.32v-14.838z" fill="#FFC107"/><path opacity=".3" d="M25.357 106.658l-7.32 1.016v-5.285h7.32v4.269zM13.868 77.896H7.462l.204 1.626h6.202v-1.626zm-3.355 22.359c1.321.61 2.847 1.016 4.372 1.016v-1.626c-2.034 0-3.966-.711-5.39-1.93.204.914.61 1.727 1.018 2.54z" fill="#231F20"/><path d="M28.61 101.271c3.966 0 7.525-2.236 9.05-5.59l4.88-11.077c.61-1.423.509-3.05-.406-4.37-.915-1.423-2.542-2.338-4.372-2.338h-8.134v1.626h8.134c1.22 0 2.338.61 3.05 1.525.61.914.61 1.93.203 2.845l-4.88 11.078c-1.22 2.846-4.27 4.675-7.524 4.675v1.626z" fill="#FFC107"/><path opacity=".3" d="M29.73 77.896h6.303l-.102 1.626H29.73v-1.626zm3.354 22.359c-1.321.61-2.847 1.016-4.372 1.016v-1.626c2.034 0 3.966-.711 5.39-1.93-.306.914-.61 1.727-1.018 2.54z" fill="#231F20"/><path d="M21.798 106.454c-6.202 0-11.387-4.776-11.896-10.976L8.174 76.473l-.102-.508H35.22l-1.627 19.513c-.407 6.2-5.592 10.976-11.795 10.976z" fill="#FFC107"/><path d="M33.898 75.965l-1.627 19.513c-.407 5.997-5.287 10.672-11.184 10.977h.712c6.202 0 11.387-4.777 11.896-11.078l1.627-19.514h-1.424v.102z" fill="#FFE836"/><path d="M12.038 95.58l-1.729-19.005-.102-.61H8.072l.102.61L9.902 95.58c.509 6.199 5.694 10.976 11.896 10.976.407 0 .712 0 1.017-.102-5.694-.508-10.269-5.081-10.777-10.874z" fill="#FBBD1C"/><path d="M23.527 106.353c1.627-.203 3.152-.813 4.474-1.626.101-.508.101-.915.101-1.423l1.424-26.932h-4.779s-.813 19.513-1.22 29.981z" fill="#FFE836"/><path d="M25.459 111.333h-7.626a.91.91 0 0 1-.915-.915V109.3a.91.91 0 0 1 .915-.914h7.626a.91.91 0 0 1 .915.914v1.118c.102.509-.305.915-.915.915zm0 4.573h-7.626a.91.91 0 0 1-.915-.914v-1.118c0-.508.407-.915.915-.915h7.626c.508 0 .915.407.915.915v1.118c.102.406-.305.914-.915.914z" fill="#FFC107"/><path d="M30.034 118.345c0-1.321-1.118-2.439-2.44-2.439H15.8c-1.322 0-2.44 1.118-2.44 2.439h16.674z" fill="#FFC107"/><path d="M13.36 118.346h16.674c0-.305-.101-.61-.203-.814H13.563a1.922 1.922 0 0 0-.204.814zm3.558-8.538v.203c0 .712.61 1.22 1.22 1.22h7.016c.712 0 1.22-.61 1.22-1.22v-.203h-9.456zm0 4.574v.203c0 .711.61 1.219 1.22 1.219h7.016c.712 0 1.22-.609 1.22-1.219v-.203h-9.456z" fill="#FFA000"/><path opacity=".3" d="M8.174 76.575l.102 1.829 26.842-.915.203-1.524H8.072l.102.61z" fill="#231F20"/><path d="M36.236 75.152H7.056v1.728h29.18v-1.728z" fill="#FFC107"/><path d="M30.136 75.152H24.34v1.728h5.796v-1.728zm3.152 0H32.27v1.728h1.017v-1.728z" fill="#FFE836"/><path d="M34 128.001H9.698a.438.438 0 0 1-.407-.407v-8.842c0-.203.204-.407.407-.407h24.3c.204 0 .407.204.407.407v8.842a.438.438 0 0 1-.407.407z" fill="#14D1BA"/><path d="M19.968 128.001l12.405-9.656H9.8c-.305 0-.61.305-.61.61v8.537c0 .305.305.61.61.61h10.167v-.101z" fill="#43DAC7"/><path d="M27.797 119.667h-12.2v7.012h12.2v-7.012z" fill="#fff"/><path d="M20.68 124.342h.61v-2.744h-.61v-.712h1.424v3.456h.61v.609h-1.932v-.609h-.102z" fill="#212121"/><path d="M23.12 73.017c-1.016.305-1.22.509-1.525 1.525-.305-1.016-.508-1.22-1.525-1.525 1.017-.304 1.22-.508 1.525-1.524.305.915.61 1.22 1.525 1.524zm5.49-3.455c-1.016.305-1.321.61-1.626 1.626-.305-1.016-.61-1.321-1.627-1.626 1.017-.305 1.322-.61 1.627-1.626.305 1.118.61 1.321 1.627 1.626zm-9.964 0c-1.626.508-1.931.813-2.44 2.44-.508-1.627-.813-1.932-2.44-2.44 1.627-.508 1.932-.813 2.44-2.44.509 1.627.915 2.033 2.44 2.44z" fill="#14D1BA"/><path d="M143.402 128H85.651a3.428 3.428 0 0 1-3.457-3.456V41.206a3.428 3.428 0 0 1 3.457-3.455h57.751a3.428 3.428 0 0 1 3.457 3.455v83.338c0 1.83-1.525 3.456-3.457 3.456z" fill="#fff"/><path d="M143.301 37.65h-57.65c-1.932 0-3.559 1.626-3.559 3.556v13.01h64.767v-13.01c0-2.032-1.525-3.557-3.558-3.557z" fill="#FFC107"/><path d="M143.301 37.65h-57.65c-1.932 0-3.559 1.626-3.559 3.556v13.01h64.767v-13.01c0-2.032-1.525-3.557-3.558-3.557z" fill="#FFC107"/><path d="M129.575 62.244H94.192a.695.695 0 0 1-.712-.711v-1.728c0-.407.305-.712.712-.712h35.383c.406 0 .711.305.711.712v1.728c-.101.406-.406.711-.711.711zm6.202 6.403H93.175a.437.437 0 0 1-.407-.407v-1.117c0-.204.203-.407.407-.407h42.602c.203 0 .406.203.406.407v1.117c.102.204-.101.407-.406.407zm0 5.996H93.175a.437.437 0 0 1-.407-.406v-1.118c0-.203.203-.407.407-.407h42.602c.203 0 .406.204.406.407v1.118c.102.203-.101.406-.406.406zm0 6.098H93.175a.437.437 0 0 1-.407-.406v-1.118c0-.203.203-.407.407-.407h42.602c.203 0 .406.204.406.407v1.118c.102.203-.101.406-.406.406zm0 5.997H93.175a.437.437 0 0 1-.407-.407v-1.118c0-.203.203-.406.407-.406h42.602c.203 0 .406.203.406.406v1.118c.102.305-.101.407-.406.407zm0 6.098H93.175a.437.437 0 0 1-.407-.407v-1.118c0-.203.203-.406.407-.406h42.602c.203 0 .406.203.406.406v1.118c.102.203-.101.407-.406.407zm-.102 6.098h-42.5a.437.437 0 0 1-.407-.407V97.41c0-.203.203-.406.407-.406h42.5c.203 0 .407.203.407.406v1.118c.101.203-.102.407-.407.407zm0 5.996h-42.5a.437.437 0 0 1-.407-.407v-1.118c0-.203.203-.406.407-.406h42.5c.203 0 .407.203.407.406v1.118c.101.204-.102.407-.407.407zm0 6.098h-42.5a.438.438 0 0 1-.407-.407v-1.118c0-.203.203-.406.407-.406h42.5c.203 0 .407.203.407.406v1.118c.101.203-.102.407-.407.407zm0 6.098h-42.5a.438.438 0 0 1-.407-.407v-1.118c0-.203.203-.406.407-.406h42.5c.203 0 .407.203.407.406v1.118c.101.203-.102.407-.407.407zm0 5.996h-42.5a.437.437 0 0 1-.407-.406v-1.118c0-.204.203-.407.407-.407h42.5c.203 0 .407.203.407.407v1.118c.101.203-.102.406-.407.406z" fill="#D8D8D8"/><path d="M97.953 45.882c0 2.439-2.033 4.471-4.473 4.471s-4.474-2.032-4.474-4.471c0-2.44 2.033-4.472 4.474-4.472 2.44 0 4.473 2.033 4.473 4.472z" fill="#14D1BA"/><path opacity=".3" d="M99.174 127.797c.203-.102.305-.102.508-.204.407-.305.712-.914.712-1.422V91.108c0-.509-.814-.814-1.83-.814h-2.44v-1.32h-7.321v1.32h-4.17V86.23a.911.911 0 0 0-.914-.915h-1.627v1.728h.712v3.252h-.712v34.25A3.428 3.428 0 0 0 85.549 128h12.913c.203 0 .406-.102.712-.203-.102.101-.102.101 0 0z" fill="#212121"/><path d="M82.6 94.766V86.23a.911.911 0 0 0-.915-.915H63.08a.911.911 0 0 0-.915.915v8.537H82.6zm-1.728-.203H63.994v-7.52h16.878v7.52z" fill="#212121"/><path d="M98.36 126.069c0 1.016-.813 1.83-1.83 1.83H49.25a1.823 1.823 0 0 1-1.83-1.83V92.124c0-1.016.814-1.83 1.83-1.83h47.28c1.017 0 1.83.814 1.83 1.83v33.945z" fill="#14D1BA"/><path d="M98.36 106.962c0 .508-.813.813-1.83.813H49.25c-1.016 0-1.83-.406-1.83-.813V91.108c0-.508.814-.813 1.83-.813h47.28c1.017 0 1.83.406 1.83.813v15.854z" fill="#43DAC7"/><path d="M97.648 126.78H50.37a1.822 1.822 0 0 1-1.83-1.829V90.904c0-.203 0-.406.102-.508-.712.203-1.322.915-1.322 1.728v34.046c0 1.017.813 1.83 1.83 1.83h47.28c.813 0 1.524-.508 1.728-1.321-.102 0-.305.101-.509.101z" fill="#0F9C88"/><path d="M58.097 88.872h-7.32v1.422h7.32v-1.422zm35.993 0h-7.321v1.422h7.32v-1.422z" fill="#212121"/><path d="M59.113 105.336h-3.152v4.98h3.152v-4.98z" fill="#FFC107"/><path d="M59.113 105.336h-3.152v2.439h3.152v-2.439z" fill="#FFDA6A"/><path d="M88.904 105.336h-3.152v4.98h3.152v-4.98z" fill="#FFC107"/><path d="M88.904 105.336h-3.152v2.439h3.152v-2.439z" fill="#FFDA6A"/><path d="M279.444 47.813l12.709 12.399V128H231.86V52.894c0-2.845 2.237-5.081 5.084-5.081h42.5z" fill="#fff"/><path opacity=".35" d="M280.156 58.89l11.997 13.721V60.212l-11.997-1.321z" fill="#231F20"/><path d="M279.444 47.813l12.709 12.399h-9.354c-1.83 0-3.355-1.525-3.355-3.354v-9.045z" fill="#14D1BA"/><path d="M284.731 67.326h-45.449v55.085h45.449V67.326z" fill="#E6E8E7"/><path d="M250.568 67.326h-11.286v55.085h11.286V67.326z" fill="#fff"/><path d="M284.731 67.326h-45.449v10.062h45.449V67.326z" fill="#FFC107"/><path d="M283.918 66.818h-43.822c-.712 0-1.322.61-1.322 1.321v53.459c0 .711.61 1.321 1.322 1.321h43.822c.711 0 1.322-.61 1.322-1.321V68.139c0-.711-.611-1.32-1.322-1.32zm-43.822 1.016h43.822c.203 0 .305.102.305.305v8.74h-44.432v-8.74c0-.203.101-.305.305-.305zm9.964 54.069h-9.964c-.204 0-.305-.102-.305-.305v-4.269h10.269v4.574zm0-5.692h-10.269v-4.573h10.269v4.573zm0-5.589h-10.269v-4.574h10.269v4.574zm0-5.59h-10.269v-4.574h10.269v4.574zm0-5.692h-10.269v-4.573h10.269v4.573zm0-5.59h-10.269v-4.573h10.269v4.574zm0-5.59h-10.269v-4.674h10.269v4.675zm-10.269-5.69v-4.574h10.269v4.573h-10.269zm44.432 39.128c0 .203-.102.305-.305.305h-32.841v-4.574h33.146v4.269zm0-5.387h-33.146v-4.573h33.146v4.573zm0-5.589h-33.146v-4.574h33.146v4.574zm0-5.59h-33.146v-4.574h33.146v4.574zm0-5.692h-33.146v-4.573h33.146v4.573zm0-5.59h-33.146v-4.573h33.146v4.574zm0-5.59h-33.146v-4.674h33.146v4.675zm-33.146-5.69v-4.574h33.146v4.573h-33.146z" fill="#BBC1BE"/><path d="M260.024 64.684h-19.013c-.915 0-1.729-.813-1.729-1.728s.814-1.728 1.729-1.728h19.013c.915 0 1.728.813 1.728 1.728-.101.915-.813 1.728-1.728 1.728z" fill="#D8D8D8"/><path opacity=".4" d="M248.23 119.463h-6.202V54.622c0-.712-.611-1.322-1.322-1.322h-8.948v74.598h3.762c4.779 0 9.253-1.829 12.71-5.183v-3.252z" fill="#212121"/><path opacity=".3" d="M146.859 124.443V53.402h-14.336c-.712 0-1.322.61-1.322 1.322v64.841h-6.202v3.354c3.355 3.354 7.931 5.183 12.709 5.183h5.593c2.033-.102 3.558-1.728 3.558-3.659z" fill="#212121"/><path d="M239.587 119.768H133.845V54.622c0-.711.61-1.321 1.322-1.321h103.2c.712 0 1.322.61 1.322 1.321v65.146h-.102z" fill="#373737"/><path d="M234.097 59.297h-94.863v55.085h94.863V59.297z" fill="#fff"/><path d="M245.688 122.715H127.643c3.355 3.354 7.93 5.184 12.709 5.184h92.728c4.677.101 9.252-1.83 12.608-5.184z" fill="#D8D8D8"/><path d="M245.688 119.463H127.643v3.354h118.045v-3.354z" fill="#fff"/><path d="M194.037 122.004h-14.642a.912.912 0 0 1-.915-.915.91.91 0 0 1 .915-.914h14.642a.91.91 0 0 1 .915.914c-.102.508-.509.915-.915.915z" fill="#D8D8D8"/><path opacity=".4" d="M158.45 61.33c0 8.74-2.847 17.175-8.134 24.188v6.81h-4.27c-.305 0-.509.203-.509.508v3.049c0 .304.204.508.509.508h33.248c.101 0 .305.101.406.101h43.212c.61 0 1.119-.406 1.119-.914v-2.338c0-.508-.509-.915-1.119-.915h-3.762l-3.762-9.146h3.457a.91.91 0 0 0 .915-.915v-2.338a.91.91 0 0 0-.915-.914h-2.847l3.356-3.862L207.356 53.3h-48.804v8.029h-.102z" fill="#212121"/><path d="M194.85 85.518h-41.89v9.554h41.89v-9.554z" fill="#2BD5C1"/><path d="M194.85 85.519h-41.89c5.287-7.013 8.134-15.449 8.134-24.189V46.594h25.724V61.33c0 8.74 2.745 17.278 8.032 24.189z" fill="#14D1BA"/><path d="M162.416 85.518h-5.389v9.554h5.389v-9.554z" fill="#72E3D5"/><path d="M167.805 46.593h-2.746V61.33c0 8.74-2.847 17.176-8.134 24.189h5.389c5.287-7.013 5.389-15.449 5.389-24.189V46.594h.102z" fill="#72E3D5"/><path opacity=".3" d="M186.716 46.593h-25.724v4.066h25.724v-4.066z" fill="#231F20"/><path d="M187.021 27.893v4.98h-9.151v-4.98a.801.801 0 0 0-.813-.813h-5.49a.802.802 0 0 0-.814.813v4.98h-9.252v-4.98a.802.802 0 0 0-.814-.813h-3.66a.802.802 0 0 0-.813.813v18.7c0 1.22.915 2.134 2.135 2.134h32.129c1.22 0 2.135-.914 2.135-2.134v-18.7a.801.801 0 0 0-.813-.813h-3.66c-.712-.102-1.119.305-1.119.813z" fill="#2BD5C1"/><path d="M199.121 96.495H148.69c-.305 0-.509-.204-.509-.509v-3.049c0-.305.204-.508.509-.508h50.431c.305 0 .508.203.508.508v3.05c0 .304-.203.508-.508.508z" fill="#0F9C88"/><path d="M198.612 92.43h-49.516c-.508 0-1.016.406-1.016 1.015v1.119h51.447v-1.118c.102-.61-.305-1.017-.915-1.017z" fill="#14D1BA"/><path opacity=".4" d="M199.629 95.478v-2.134a1.02 1.02 0 0 0-1.017-1.017h-3.762v-6.809c-5.287-7.013-8.134-15.448-8.134-24.188V48.728h3.457c1.22 0 2.135-.916 2.135-2.135v-15.55c-1.118 1.728-2.135 3.456-3.05 5.285-1.017 1.931-1.83 4.065-2.542 6.098-.305.915-.61 1.83-.915 2.846-.203.61-.407 1.22-.508 1.83-.204.914-.407 1.93-.61 2.946-.102.61-.204 1.22-.305 1.728-.102 1.016-.305 1.931-.305 2.947-.102.712-.102 1.423-.204 2.135-.101.914-.101 1.93-.101 2.846V75.15l2.745 3.253.813 1.016h-2.745a.911.911 0 0 0-.915.915v2.338c0 .507.407.914.915.914h3.152l-3.762 9.147h-3.457c-.61 0-1.118.406-1.118.915v2.338c0 .407.305.712.61.813h18.606c.61-.305 1.017-.813 1.017-1.321z" fill="#231F20"/><path d="M218.337 79.522l3.661-4.269-14.642-26.526c9.049-1.727 12.303 3.456 12.608 3.964h.102l4.677-4.167v-3.862l-13.625-16.668h-5.287l1.627-6.504-.102-.102-11.896 7.623c-6.405 8.842-9.964 19.513-9.964 30.49v15.346l4.779 5.691h26.842l1.22-1.016zm4.576 15.55h-38.129l5.694-13.822h26.741l5.694 13.822z" fill="#FFC107"/><path d="M196.375 35.312l-3.66-1.728a31.759 31.759 0 0 0-1.423 2.54l3.863 1.83 1.22-2.642zm-3.965 10.874l.61-2.846-4.372-1.016c-.305.915-.61 1.83-.915 2.846l4.677 1.016zm-.407 4.167l.204-2.947-4.982-.407a139.47 139.47 0 0 0-.61 2.948l5.388.406zm1.525-7.927l.916-2.846-4.067-1.22c-.407.916-.814 1.83-1.119 2.745l4.27 1.321zm-1.83 24.392h-5.999v2.947h5.999v-2.947zm0-5.082h-5.999v2.947h5.999v-2.947zm0-7.114v-2.948h-5.287c-.101 1.017-.305 1.931-.305 2.948h5.592zm0 2.134h-5.795c-.102.915-.102 1.931-.102 2.846v.101h5.999v-2.947h-.102z" fill="#FFA000"/><path opacity=".3" d="M188.445 78.2l2.033 2.44h26.843l1.016-1.118 1.22-1.321h-31.112z" fill="#231F20"/><path d="M221.489 83.282h-35.078a.911.911 0 0 1-.915-.915V80.03c0-.508.407-.915.915-.915h35.078a.91.91 0 0 1 .915.915v2.337a.91.91 0 0 1-.915.915z" fill="#FFCD39"/><path d="M185.598 81.148v1.22a.91.91 0 0 0 .915.914h35.078a.911.911 0 0 0 .915-.915v-1.22h-36.908z" fill="#FFA000"/><path opacity=".3" d="M184.784 95.072h38.129l-1.525-3.558h-35.18l-1.424 3.558z" fill="#231F20"/><path d="M225.556 96.596h-43.212c-.61 0-1.118-.406-1.118-.915v-2.337c0-.508.508-.915 1.118-.915h43.212c.61 0 1.119.407 1.119.915v2.337c0 .509-.509.915-1.119.915z" fill="#FFCD39"/><path d="M181.327 94.462v1.22c0 .508.509.914 1.119.914h43.212c.61 0 1.118-.406 1.118-.915v-1.22h-45.449z" fill="#FFA000"/><path d="M147.774 96.697h-8.54v8.537h8.54v-8.537zm17.285 0h-8.54v8.537h8.54v-8.537zm17.183 0h-8.54v8.537h8.54v-8.537zm17.285 0h-8.541v8.537h8.541v-8.537zm17.183 0h-8.541v8.537h8.541v-8.537zm17.285 0h-8.541v8.537h8.541v-8.537zm-77.578 8.538h-8.541v8.537h8.541v-8.537zm17.285 0h-8.541v8.537h8.541v-8.537zm17.183 0h-8.541v8.537h8.541v-8.537zm17.285 0h-8.541v8.537h8.541v-8.537zm17.183 0h-8.541v8.537h8.541v-8.537z" fill="#212121"/><path opacity=".4" d="M248.026 101.372l10.574 10.875 12.202-14.025 11.082 10.163 10.269-13.11v-2.541l-10.472 13.415L270.7 95.986l-12.201 14.025-10.473-10.976-16.166 17.379h1.932l14.234-15.042z" fill="#231F20"/><path d="M297.949 88.058l-.305-2.744c0-.406-.407-.711-.814-.711l-2.846.305c-.407 0-.814.406-.712.813 0 .406.407.711.915.711l1.017-.101-13.828 18.497-11.185-9.859-11.794 14.331-10.777-10.672-15.76 17.786h1.932l13.828-15.448 10.777 10.671 11.896-14.432 11.286 9.96 14.641-19.716s0 .406.102.813c0 .406.407.813.813.711.509 0 .814-.406.814-.915z" fill="#14D1BA"/><path d="M273.648 127.999h-22.572c-.305 0-.508-.203-.508-.508v-5.082c0-.305.203-.508.508-.508h22.572c.305 0 .509.203.509.508v5.082c0 .203-.204.508-.509.508z" fill="#FFC107"/><path d="M273.343 127.085h-21.86a.912.912 0 0 1-.915-.915v.915c0 .508.407.915.915.915h21.86a.911.911 0 0 0 .915-.915v-.915c-.101.508-.508.915-.915.915z" fill="#FFA000"/><path d="M268.564 121.8h-5.592v6.098h5.592V121.8zm2.542 0h-1.525v6.098h1.525V121.8z" fill="#FFE836"/><path d="M248.941 127.999h-22.572c-.305 0-.508-.203-.508-.508v-5.081c0-.305.203-.509.508-.509h22.572c.305 0 .509.204.509.509v5.081c0 .203-.204.508-.509.508z" fill="#FFC107"/><path d="M248.535 127.085h-21.861a.912.912 0 0 1-.915-.915v.915c0 .508.407.915.915.915h21.861a.912.912 0 0 0 .915-.915v-.915a.912.912 0 0 1-.915.915z" fill="#FFA000"/><path d="M243.857 121.8h-5.592v6.098h5.592V121.8zm2.542 0h-1.525v6.098h1.525V121.8z" fill="#FFE836"/><path d="M250.263 122.511h-22.572c-.305 0-.508-.203-.508-.508v-5.081c0-.305.203-.508.508-.508h22.572c.305 0 .508.203.508.508v5.081c0 .204-.203.508-.508.508z" fill="#FFC107"/><path d="M249.856 121.597h-21.86a.911.911 0 0 1-.915-.915v.915c0 .508.407.915.915.915h21.86a.911.911 0 0 0 .915-.915v-.915a.91.91 0 0 1-.915.915z" fill="#FFA000"/><path d="M245.078 116.312h-5.592v6.098h5.592v-6.098zm2.542 0h-1.526v6.098h1.526v-6.098z" fill="#FFE836"/><path d="M274.563 122.511h-22.572c-.305 0-.508-.203-.508-.508v-5.081c0-.305.203-.508.508-.508h22.572c.305 0 .509.203.509.508v5.081c0 .204-.204.508-.509.508z" fill="#FFC107"/><path d="M274.157 121.597h-21.861a.911.911 0 0 1-.915-.915v.915c0 .508.407.915.915.915h21.861a.912.912 0 0 0 .915-.915v-.915a.911.911 0 0 1-.915.915z" fill="#FFA000"/><path d="M269.48 116.312h-5.593v6.098h5.593v-6.098zm2.541 0h-1.525v6.098h1.525v-6.098z" fill="#FFE836"/><path d="M272.326 116.312h-22.572c-.305 0-.508-.203-.508-.508v-5.081c0-.305.203-.509.508-.509h22.572c.305 0 .509.204.509.509v5.081c0 .305-.204.508-.509.508z" fill="#FFC107"/><path d="M271.92 115.398h-21.86a.911.911 0 0 1-.915-.915v.915a.91.91 0 0 0 .915.914h21.86a.91.91 0 0 0 .915-.914v-.915c0 .61-.407.915-.915.915z" fill="#FFA000"/><path d="M267.141 110.214h-5.592v6.098h5.592v-6.098zm2.542 0h-1.525v6.098h1.525v-6.098z" fill="#FFE836"/><path d="M298.254 127.999h-22.572c-.305 0-.509-.203-.509-.508v-5.081c0-.305.204-.509.509-.509h22.572c.305 0 .508.204.508.509v5.081c-.102.203-.305.508-.508.508z" fill="#FFC107"/><path d="M297.847 127.085h-21.86a.911.911 0 0 1-.915-.915v.915c0 .508.406.915.915.915h21.86a.912.912 0 0 0 .915-.915v-.915c-.102.508-.407.915-.915.915z" fill="#FFA000"/><path d="M293.068 121.8h-5.592v6.098h5.592V121.8zm2.542 0h-1.525v6.098h1.525V121.8z" fill="#FFE836"/><path d="M299.372 122.511H276.8c-.305 0-.508-.203-.508-.508v-5.081c0-.305.203-.508.508-.508h22.572c.305 0 .508.203.508.508v5.081c0 .204-.305.508-.508.508z" fill="#FFC107"/><path d="M298.965 121.597h-21.86a.911.911 0 0 1-.915-.915v.915c0 .508.407.915.915.915h21.86a.912.912 0 0 0 .916-.915v-.915a.911.911 0 0 1-.916.915z" fill="#FFA000"/><path d="M294.187 116.312h-5.593v6.098h5.593v-6.098zm2.542 0h-1.526v6.098h1.526v-6.098z" fill="#FFE836"/><path d="M300.999 116.312h-22.572c-.305 0-.509-.203-.509-.508v-5.081c0-.305.204-.509.509-.509h22.572c.305 0 .508.204.508.509v5.081c-.102.305-.305.508-.508.508z" fill="#FFC107"/><path d="M300.592 115.398h-21.86a.912.912 0 0 1-.915-.915v.915a.91.91 0 0 0 .915.914h21.86a.91.91 0 0 0 .915-.914v-.915c-.101.61-.406.915-.915.915z" fill="#FFA000"/><path d="M295.813 110.214h-5.592v6.098h5.592v-6.098zm2.542 0h-1.525v6.098h1.525v-6.098z" fill="#FFE836"/><path d="M299.27 110.926h-22.571c-.305 0-.509-.203-.509-.508v-5.082c0-.305.204-.508.509-.508h22.571c.305 0 .509.203.509.508v5.082c0 .305-.204.508-.509.508z" fill="#FFC107"/><path d="M298.864 110.011h-21.86a.91.91 0 0 1-.915-.915v.915c0 .508.406.915.915.915h21.86a.912.912 0 0 0 .915-.915v-.915c0 .61-.407.915-.915.915z" fill="#FFA000"/><path d="M294.085 104.828h-5.592v6.098h5.592v-6.098zm2.542 0h-1.525v6.098h1.525v-6.098z" fill="#FFE836"/><path d="M217.32 4.415V19.66a3.428 3.428 0 0 0 3.457 3.456h1.627v8.13c0 .407.508.508.712.204l8.846-8.538h18.098a3.428 3.428 0 0 0 3.457-3.455V4.212A3.428 3.428 0 0 0 250.06.757h-29.283c-1.932.101-3.457 1.727-3.457 3.658z" fill="#14D1BA"/><path d="M250.365 7.464h-28.978c-.61 0-1.22-.508-1.22-1.22 0-.61.509-1.219 1.22-1.219h28.978c.61 0 1.22.508 1.22 1.22 0 .711-.508 1.22-1.22 1.22zm0 5.386h-28.978c-.61 0-1.22-.507-1.22-1.219 0-.61.509-1.22 1.22-1.22h28.978c.61 0 1.22.509 1.22 1.22 0 .61-.508 1.22-1.22 1.22zm-5.796 5.286h-23.283c-.611 0-1.221-.508-1.221-1.22 0-.61.509-1.22 1.221-1.22h23.283c.61 0 1.22.509 1.22 1.22 0 .712-.508 1.22-1.22 1.22z" fill="#fff"/><path opacity=".3" d="M34.406 127.594v-8.842a.437.437 0 0 0-.407-.407h-3.965v-.407c-.203-1.117-1.22-2.032-2.44-2.032h-2.237.203a.911.911 0 0 0 .916-.915v-1.016a.911.911 0 0 0-.916-.915h-.203v-1.524h.203a.911.911 0 0 0 .916-.915v-.203h-1.424a.695.695 0 0 0-.712.711v16.058c0 .407.305.711.712.711H34c.204.102.407-.101.407-.304z" fill="#231F20"/><path d="M53.725 128h-26.64a.695.695 0 0 1-.711-.712v-16.362c0-.407.305-.712.712-.712h26.639c.406 0 .711.305.711.712v16.261c0 .406-.305.813-.711.813z" fill="#FFDA6A"/><path d="M54.233 127.594l-13.32-9.655c-.304-.204-.813-.204-1.118 0l-13.32 9.655c.204.203.407.406.814.406h26.13c.407 0 .61-.203.814-.406z" fill="#FFCD39"/><path d="M26.577 110.52l13.32 9.655c.305.203.813.203 1.118 0l13.32-9.655c-.204-.204-.407-.407-.814-.407H27.29c-.305 0-.61.203-.712.407z" fill="#FFC107"/><path opacity=".4" d="M148.283 126.882V90.396a1.02 1.02 0 0 0-1.017-1.016h-13.421v30.083h-6.202v3.354c3.355 3.354 7.93 5.183 12.709 5.183h6.914c.508 0 1.017-.508 1.017-1.118z" fill="#231F20"/><path d="M145.131 128h-20.539c-.61 0-1.016-.508-1.016-1.016V90.396c0-.61.508-1.016 1.016-1.016h20.539c.61 0 1.017.508 1.017 1.016v36.486c.101.61-.407 1.118-1.017 1.118z" fill="#404142"/><path d="M144.013 95.376h-18.302v26.526h18.302V95.376z" fill="#fff"/><path d="M138.522 92.632h-7.117c-.102 0-.204-.102-.204-.203v-.712c0-.102.102-.203.204-.203h7.117c.101 0 .203.102.203.203v.712c0 .101-.102.203-.203.203zm-1.932 31.811c0 .915-.712 1.626-1.627 1.626a1.606 1.606 0 0 1-1.627-1.626c0-.914.712-1.626 1.627-1.626s1.627.712 1.627 1.626z" fill="#231F20"/><path d="M150.113 31.247l-6.711-1.22c-2.847 1.321-6.202 1.728-9.659.915-5.897-1.322-10.472-6.098-11.591-12.095-1.932-10.57 7.321-19.716 17.997-17.684 5.897 1.118 10.676 5.692 11.896 11.485.915 4.268.101 8.334-1.932 11.484l1.118 5.996c.102.712-.508 1.322-1.118 1.119z" fill="#14D1BA"/><path d="M137.2 5.229a10.933 10.933 0 0 1 10.981 10.976c0 6.098-4.88 10.976-10.981 10.976-6.1 0-10.981-4.878-10.981-10.976 0-5.996 4.881-10.976 10.981-10.976z" fill="#0F9C88"/><path d="M134.048 21.591c-.101 0-.203 0-.406-.101-.306-.203-.509-.61-.306-1.017L139.437 9.7c.203-.304.61-.508 1.017-.304.305.203.508.61.305 1.016l-6.101 10.773c-.101.305-.406.406-.61.406zm-1.22-4.878c-1.423 0-2.643-1.423-2.643-3.15 0-1.729 1.22-3.151 2.643-3.151 1.424 0 2.644 1.422 2.644 3.15s-1.22 3.15-2.644 3.15zm0-4.98c-.712 0-1.22.813-1.22 1.83 0 1.015.61 1.829 1.22 1.829.712 0 1.22-.813 1.22-1.83 0-1.016-.508-1.83-1.22-1.83zm8.032 9.045c-1.423 0-2.643-1.423-2.643-3.15 0-1.728 1.22-3.151 2.643-3.151 1.424 0 2.644 1.423 2.644 3.15 0 1.728-1.22 3.151-2.644 3.151zm0-4.878c-.711 0-1.22.813-1.22 1.829s.61 1.83 1.22 1.83 1.22-.814 1.22-1.83-.508-1.83-1.22-1.83z" fill="#fff"/><path d="M123.982 125.561V128h-7.117c.203-1.931-1.017-3.862-2.847-4.574-2.643-1.016-5.49.61-6.1 3.354-.102.305-.102.813 0 1.22H100.8v-2.338a.91.91 0 0 1 .915-.914h1.932c.305 0 .61-.204.712-.508.102-.204.203-.407.203-.61.102-.305.102-.61-.203-.813l-1.424-1.423c-.406-.305-.406-.915 0-1.321l2.237-2.236c.305-.407.915-.407 1.322 0l1.424 1.423c.203.203.61.304.915.101.203-.101.406-.203.61-.203a.765.765 0 0 0 .508-.711v-1.931c0-.509.407-.915.915-.915h3.152c.508 0 .915.406.915.915v1.931c0 .304.204.609.509.711.203.102.406.203.61.203.305.102.61.102.813-.203l1.423-1.423c.407-.406.916-.406 1.322 0l2.237 2.236c.407.407.407.915 0 1.321l-1.423 1.423c-.204.203-.305.61-.102.915.102.203.203.406.203.508a.765.765 0 0 0 .712.508h1.932c.407 0 .813.407.813.915zm17.183-16.058a6.378 6.378 0 0 1-6.405 6.403 6.378 6.378 0 0 1-6.406-6.403 6.378 6.378 0 0 1 6.406-6.403 6.378 6.378 0 0 1 6.405 6.403z" fill="#FFC107"/><path d="M140.454 109.503a5.683 5.683 0 0 1-5.694 5.691 5.683 5.683 0 0 1-5.694-5.691 5.683 5.683 0 0 1 5.694-5.691 5.683 5.683 0 0 1 5.694 5.691z" fill="#FFA000"/><path d="M139.742 109.503a4.99 4.99 0 0 1-4.982 4.98 4.989 4.989 0 0 1-4.982-4.98 4.989 4.989 0 0 1 4.982-4.98 4.99 4.99 0 0 1 4.982 4.98z" fill="#FFC107"/><path d="M135.37 112.044h-1.83a.802.802 0 0 1-.814-.814v-.304h1.119v.101h1.525c.305 0 .508-.203.508-.508 0-.203-.203-.305-.305-.305h-1.322c-.813 0-1.423-.61-1.423-1.423v-.203c0-.915.712-1.626 1.627-1.626h1.83c.407 0 .813.305.813.813v.407h-1.118v-.305h-1.525c-.305 0-.509.203-.509.508v.203c0 .203.204.305.305.305h1.322c.814 0 1.424.61 1.424 1.423 0 1.016-.712 1.728-1.627 1.728z" fill="#212121"/><path d="M135.471 106.25h-1.118v6.505h1.118v-6.505z" fill="#212121"/><path opacity=".4" d="M298.661 127.492v-5.082h.61c.305 0 .508-.203.508-.508v-5.183c0-.305-.203-.508-.508-.508h1.626c.305 0 .509-.203.509-.508v-5.184c0-.305-.204-.508-.509-.508h-1.118v-2.134c-3.965 2.846-6.609 7.521-6.609 12.806v6.809h5.389c.102.203.102.102.102 0z" fill="#231F20"/><path d="M327.537 127.797h-31.825v-6.81c0-8.74 7.117-15.854 15.862-15.854 8.744 0 15.861 7.114 15.861 15.854v6.81h.102z" fill="#14D1BA"/><path d="M313.2 111.434l-2.135 8.029 6.202-6.809-4.067-1.22z" fill="#0F9C88"/><path d="M310.963 105.133l2.237 6.403 7.118 2.032-4.983-7.927c-1.626-.61-1.423-.407-3.355-.407h-.915c0-.101-.102-.101-.102-.101z" fill="#fff"/><path d="M308.726 111.434l2.136 8.029-6.203-6.809 4.067-1.22z" fill="#0F9C88"/><path d="M310.963 105.133c-1.626.101-3.253.406-4.677.914l-4.575 7.521 7.117-2.032 2.135-6.403z" fill="#fff"/><path d="M311.065 75.456a11.15 11.15 0 0 0-11.184 11.18v13.618h22.368V86.636c0-6.2-4.982-11.18-11.184-11.18z" fill="#373737"/><path d="M311.065 75.456c-3.253 0-6.1 1.321-8.134 3.557l16.98 19.513 2.44 1.728V86.636c-.102-6.2-5.084-11.18-11.286-11.18z" fill="#212121"/><path d="M322.656 104.319h-23.182a2.95 2.95 0 0 1-2.949-2.947 2.95 2.95 0 0 1 2.949-2.947h23.182a2.95 2.95 0 0 1 2.949 2.947 2.95 2.95 0 0 1-2.949 2.947z" fill="#373737"/><path d="M322.656 104.319h-11.388c-1.626 0-1.626-5.894 0-5.894h11.388a2.95 2.95 0 0 1 2.949 2.947 2.95 2.95 0 0 1-2.949 2.947z" fill="#212121"/><path d="M313.2 111.434l-2.237 8.029-2.236-8.029v-10.671h4.473v10.671z" fill="#FFCEBD"/><path d="M310.963 100.763v18.7l2.237-8.029v-10.671h-2.237z" fill="#FFE2D7"/><path d="M311.065 104.828c-5.592 0-10.168-4.574-10.168-10.163v-9.859h20.336v9.859a10.13 10.13 0 0 1-10.168 10.163z" fill="#FFCEBD"/><path d="M300.897 84.704v.305h17.895v9.859c0 4.776-3.253 8.74-7.727 9.858 5.592 0 10.168-4.574 10.168-10.163v-9.859h-20.336z" fill="#FFE2D7"/><path d="M314.319 99.34c0 1.829-1.424 3.252-3.254 3.252s-3.253-1.423-3.253-3.252h6.507z" fill="#fff"/><path d="M322.554 93.344c0 .813-.711 1.524-1.525 1.524-.813 0-1.525-.712-1.525-1.524 0-.814.712-1.525 1.525-1.525.814-.102 1.525.61 1.525 1.525z" fill="#FFE2D7"/><path d="M302.524 93.344c0 .813-.711 1.524-1.525 1.524-.813 0-1.525-.712-1.525-1.524 0-.814.712-1.525 1.525-1.525.814-.102 1.525.61 1.525 1.525z" fill="#FFCEBD"/><path d="M305.574 88.973h-5.287v-5.488h10.778c0 3.05-2.542 5.488-5.491 5.488z" fill="#373737"/><path d="M306.795 83.485h4.168c0 1.321-.508 2.54-1.22 3.456l-2.948-3.456zm9.761 5.488h5.287v-5.488h-10.778a5.466 5.466 0 0 0 5.491 5.488z" fill="#212121"/><path d="M310.963 96.494c-.508 0-.915-.305-1.016-.813v.203c0 .61.508 1.016 1.016 1.016.61 0 1.017-.508 1.017-1.016v-.203c-.102.406-.508.813-1.017.813z" fill="#FFBBA1"/><path d="M321.233 90.802h-20.336v1.22h20.336v-1.22z" fill="#404142"/><path d="M306.286 95.071c-2.236 0-3.965-1.728-3.965-3.862h1.22c0 1.423 1.22 2.642 2.745 2.642 1.526 0 2.746-1.117 2.746-2.642h1.22c0 2.134-1.729 3.862-3.966 3.862zm9.659 0c-2.237 0-3.965-1.728-3.965-3.862h1.22c0 1.423 1.22 2.642 2.745 2.642 1.525 0 2.746-1.117 2.746-2.642h1.22c0 2.134-1.729 3.862-3.966 3.862z" fill="#404142"/><path d="M306.795 92.835c0 .305-.204.508-.509.508-.305 0-.508-.203-.508-.508s.203-.508.508-.508c.305-.102.509.203.509.508zm9.049.508a.508.508 0 1 0 0-1.016.508.508 0 0 0 0 1.016z" fill="#404142"/><path d="M308.116 90.802h-3.66c-.305 0-.508-.203-.508-.508s.203-.508.508-.508h3.66c.305 0 .509.203.509.508s-.204.508-.509.508zm9.66 0h-3.661c-.305 0-.508-.203-.508-.508s.203-.508.508-.508h3.661c.305 0 .508.203.508.508-.102.305-.305.508-.508.508z" fill="#212121"/><path d="M311.777 120.885c0 .407-.305.61-.61.61-.407 0-.61-.305-.61-.61 0-.406.305-.609.61-.609s.61.305.61.609zm0 4.574c0 .407-.305.61-.61.61-.407 0-.61-.305-.61-.61 0-.406.305-.609.61-.609.305-.102.61.203.61.609z" fill="#F1F2F2"/><path opacity=".3" d="M331.299 100.661h-3.661v12.399c0 3.659 1.424 7.115 3.661 9.656v-22.055z" fill="#212121"/><path d="M344.313 127.797c-8.032 0-14.641-6.505-14.641-14.635v-12.399h7.117v12.399a7.505 7.505 0 0 0 7.524 7.521v7.114z" fill="#fff"/><path d="M344.313 127.797v-7.114a7.505 7.505 0 0 0 7.524-7.521v-12.399h7.117v12.399c-.101 8.029-6.609 14.635-14.641 14.635z" fill="#14D1BA"/><path opacity=".2" d="M334.349 100.661v12.094c0 5.488 4.473 9.858 9.862 9.858 5.491 0 9.863-4.472 9.863-9.858v-12.094h-2.339v12.399a7.505 7.505 0 0 1-7.524 7.521 7.505 7.505 0 0 1-7.524-7.521v-12.399h-2.338z" fill="#231F20"/><path d="M330.892 99.543c-.305 0-.61-.305-.61-.61v-3.964c0-.305.305-.61.61-.61s.61.305.61.61v3.964c0 .406-.305.61-.61.61zm2.542 0c-.305 0-.611-.305-.611-.61v-6.098c0-.305.306-.61.611-.61s.61.305.61.61v6.098c0 .407-.305.61-.61.61zm2.542 0c-.305 0-.611-.305-.611-.61v-3.964c0-.305.306-.61.611-.61s.61.305.61.61v3.964c0 .406-.305.61-.61.61zm17.081 0c-.305 0-.61-.305-.61-.61v-3.964c0-.305.305-.61.61-.61s.61.305.61.61v3.964c0 .406-.305.61-.61.61zm2.542 0c-.305 0-.61-.305-.61-.61v-6.098c0-.305.305-.61.61-.61s.61.305.61.61v6.098c0 .407-.305.61-.61.61zm2.542 0c-.305 0-.61-.305-.61-.61v-3.964c0-.305.305-.61.61-.61s.61.305.61.61v3.964c-.102.406-.305.61-.61.61z" fill="#404142"/><path d="M350.007 114.483a.695.695 0 0 1-.712-.711v-10.773c0-.407.305-.712.712-.712.406 0 .711.305.711.712v10.773a.695.695 0 0 1-.711.711zm-3.864-.712a.695.695 0 0 1-.712-.711v-11.688c0-.406.305-.711.712-.711s.712.305.712.711v11.688a.695.695 0 0 1-.712.711zm0-14.736a.695.695 0 0 1-.712-.712v-4.166c0-.407.305-.712.712-.712s.712.305.712.712v4.166a.695.695 0 0 1-.712.712zm-3.762 14.025a.695.695 0 0 1-.712-.712V96.595c0-.406.305-.711.712-.711s.712.305.712.711v15.753a.695.695 0 0 1-.712.712zm-3.864 1.423a.695.695 0 0 1-.711-.712v-5.386c0-.407.305-.711.711-.711.407 0 .712.304.712.711v5.386a.695.695 0 0 1-.712.712zm0-7.724a.695.695 0 0 1-.711-.712v-5.386c0-.407.305-.712.711-.712.407 0 .712.305.712.712v5.386a.695.695 0 0 1-.712.712z" fill="#FFC107"/><path d="M350.719 113.365a6.378 6.378 0 0 1-6.406 6.403 6.378 6.378 0 0 1-6.406-6.403 6.378 6.378 0 0 1 6.406-6.403 6.378 6.378 0 0 1 6.406 6.403z" fill="#FFC107"/><path d="M350.007 113.365a5.683 5.683 0 0 1-5.694 5.691 5.683 5.683 0 0 1-5.694-5.691 5.684 5.684 0 0 1 5.694-5.692 5.684 5.684 0 0 1 5.694 5.692z" fill="#FFA000"/><path d="M349.295 113.365c0 2.744-2.237 5.081-5.084 5.081-2.745 0-5.084-2.236-5.084-5.081 0-2.745 2.237-5.082 5.084-5.082 2.847 0 5.084 2.337 5.084 5.082z" fill="#FFC107"/><path d="M344.923 115.905h-1.83a.801.801 0 0 1-.813-.813v-.406h1.118v.101h1.525c.305 0 .508-.203.508-.508 0-.203-.203-.305-.305-.305h-1.423c-.813 0-1.423-.61-1.423-1.423v-.203c0-.915.711-1.626 1.626-1.626h1.83c.407 0 .814.305.814.813v.407h-1.119v-.102h-1.525c-.305 0-.508.203-.508.508v.203c0 .204.203.305.305.305h1.423c.814 0 1.424.61 1.424 1.423 0 .915-.712 1.626-1.627 1.626z" fill="#212121"/><path d="M345.025 110.112h-1.119v6.505h1.119v-6.505z" fill="#212121"/><path d="M47.522 54.927c-.711 0-1.22-.508-1.22-1.118V41.105c0-.61.509-1.118 1.119-1.118h.101c.61 0 1.119.508 1.119 1.118v12.704c0 .61-.509 1.118-1.119 1.118zm15.862-.001c-.712 0-1.22-.508-1.22-1.117v-6.911c0-.61.508-1.119 1.118-1.119h.102c.61 0 1.118.509 1.118 1.118v6.912c0 .61-.508 1.117-1.118 1.117zm-11.693.001c-.712 0-1.22-.509-1.22-1.118V39.174c0-.61.508-1.118 1.118-1.118h.102c.61 0 1.118.508 1.118 1.118v14.635c0 .61-.508 1.118-1.118 1.118zm3.661 0c-.712 0-1.22-.508-1.22-1.118V42.934c0-.61.508-1.118 1.118-1.118h.102c.61 0 1.118.508 1.118 1.118V53.81c0 .61-.508 1.118-1.118 1.118zm0-14.94c-.712 0-1.22-.508-1.22-1.118V30.23c0-.61.508-1.118 1.118-1.118h.102c.61 0 1.118.509 1.118 1.118v8.639c0 .61-.508 1.118-1.118 1.118zm-7.83-1.931c-.711 0-1.22-.508-1.22-1.118V30.23c0-.61.509-1.118 1.119-1.118h.101c.61 0 1.119.509 1.119 1.118v6.708c0 .61-.509 1.118-1.119 1.118zm11.591 16.871c-.711 0-1.22-.508-1.22-1.118V35.92c0-.61.509-1.117 1.119-1.117h.101c.61 0 1.119.508 1.119 1.117v17.89c0 .61-.508 1.118-1.119 1.118zm4.271-10.164c-.712 0-1.22-.508-1.22-1.118v-3.862c0-.61.508-1.118 1.118-1.118h.102c.61 0 1.118.508 1.118 1.118v3.964c0 .61-.508 1.016-1.118 1.016z" fill="#FFC107"/><path d="M64.502 53.91c0 4.98-4.067 9.046-9.049 9.046-4.982 0-9.049-4.066-9.049-9.046 0-4.98 4.067-9.045 9.05-9.045 4.981-.102 9.048 3.964 9.048 9.045z" fill="#FFC107"/><path d="M63.485 53.91c0 4.472-3.66 8.13-8.134 8.13-4.473 0-8.134-3.658-8.134-8.13 0-4.472 3.66-8.13 8.134-8.13s8.134 3.658 8.134 8.13z" fill="#FFA000"/><path d="M62.57 53.91a7.072 7.072 0 0 1-7.117 7.114 7.072 7.072 0 0 1-7.117-7.114 7.072 7.072 0 0 1 7.117-7.114 7.072 7.072 0 0 1 7.117 7.114z" fill="#FFC107"/><path d="M56.368 57.57h-2.644c-.61 0-1.118-.509-1.118-1.119v-.61h1.525v.102h2.135a.695.695 0 0 0 .712-.711c0-.305-.203-.509-.508-.509h-1.932a2.04 2.04 0 0 1-2.034-2.032v-.305c0-1.321 1.017-2.338 2.339-2.338h2.643c.61 0 1.119.508 1.119 1.118v.61H57.08v-.203h-2.135a.695.695 0 0 0-.712.711v.305c0 .305.203.508.508.508h1.932a2.04 2.04 0 0 1 2.034 2.033c-.102 1.321-1.119 2.44-2.339 2.44z" fill="#212121"/><path d="M56.368 49.235h-1.525v9.249h1.525v-9.249z" fill="#212121"/><path opacity=".3" d="M48.64 36.938V30.23c0-.61-.508-1.118-1.118-1.118h-.101a1.13 1.13 0 0 0-1.119 1.118v6.708c0 .203.102.406.204.61h1.931c.102-.204.204-.407.204-.61zm6.61-7.826a1.13 1.13 0 0 0-1.119 1.118v7.318h2.339V30.23c0-.61-.508-1.118-1.22-1.118zm3.863 5.691c-.711 0-1.22.509-1.22 1.118v1.627h2.339V35.92c0-.61-.508-1.117-1.119-1.117z" fill="#231F20"/><path d="M37.05 29.112c.407 0 .813.102 1.118.203.305-3.049 2.847-5.386 5.897-5.386 2.644 0 4.88 1.728 5.694 4.065a4.727 4.727 0 0 1 2.135-.508 4.555 4.555 0 0 1 4.576 4.573 4.555 4.555 0 0 1-4.576 4.574H36.948a3.644 3.644 0 0 1-3.66-3.659c0-2.236 1.627-3.862 3.762-3.862z" fill="#14D1BA"/><path d="M56.47 31.958a4.555 4.555 0 0 0-4.576-4.574c-.813 0-1.525.203-2.135.508a6.179 6.179 0 0 0-1.525-2.439c-1.627 1.118-2.643 2.948-2.643 4.98 0 3.252 2.541 5.793 5.693 5.996h1.017c2.237-.101 4.169-2.032 4.169-4.471z" fill="#0F9C88"/><path d="M72.738 26.673c-.508 0-1.017.102-1.525.203-.407-3.963-3.762-7.114-7.83-7.114a7.785 7.785 0 0 0-7.422 5.386c-.813-.406-1.83-.711-2.846-.711-3.254 0-6 2.642-6 5.996 0 3.253 2.644 5.997 6 5.997h19.623c2.745 0 4.88-2.236 4.88-4.879 0-2.642-2.236-4.878-4.88-4.878z" fill="#14D1BA"/><path d="M284.223 24.335v6.301l4.473 4.472c1.119-1.118 1.831-2.744 1.831-4.472 0-3.455-2.847-6.3-6.304-6.3z" fill="#404142"/><path d="M278.834 26.266c-1.118 1.118-1.83 2.744-1.83 4.472h6.405v-6.403a7.22 7.22 0 0 0-4.575 1.931z" fill="#14D1BA"/><path d="M283.409 31.653h-6.405a6.377 6.377 0 0 0 6.405 6.403c1.729 0 3.356-.712 4.474-1.83l-4.474-4.573z" fill="#FFC107"/><path d="M283.816 20.067v2.947m3.254-.914l-.509 1.422m4.372-.813l-1.932 2.236m3.051 1.423l-1.22.711m3.863 2.236l-2.948.406m1.525 3.253l-1.525-.407m1.525 4.167l-2.44-1.524m-.915 3.252l-.916-1.016m-1.525 4.065l-1.016-2.744m-2.746 1.728v-1.22m-3.762 2.236l1.017-2.744m-3.457-.305l1.017-1.118m-4.372-.813l2.542-1.423m-2.339-2.438l1.424-.204m-2.847-3.354l2.847.508m-.204-3.354l1.22.712m.001-4.371l1.83 2.236m2.033-2.743l.407 1.422" stroke="#673AB7" stroke-miterlimit="10" stroke-linecap="round"/></svg>