<svg width="374" height="132" fill="none" xmlns="http://www.w3.org/2000/svg"><path d="M357.55 84.093h-2.947v5.7h2.947v-5.7z" fill="#0F9C88"/><path d="M358.973 88.674h-5.793v42.759h5.793V88.674z" fill="#FFC107"/><path d="M356.026 52.532c-9.757 0-17.685 7.941-17.685 17.715 0 9.773 7.928 17.714 17.685 17.714 9.757 0 17.684-7.94 17.684-17.714 0-9.774-7.927-17.715-17.684-17.715zm0 31.662c-7.623 0-13.924-6.21-13.924-13.947 0-7.636 6.199-13.948 13.924-13.948 7.622 0 13.924 6.21 13.924 13.948 0 7.635-6.2 13.947-13.924 13.947z" fill="#14D1BA"/><path d="M370.051 70.247c0-7.738-6.301-14.05-14.025-14.05-7.725 0-14.026 6.312-14.026 14.05 0 7.737 6.301 14.05 14.026 14.05 7.724 0 14.025-6.313 14.025-14.05zm-14.025 12.726c-7.013 0-12.705-5.702-12.705-12.726 0-7.025 5.692-12.726 12.705-12.726 7.012 0 12.704 5.701 12.704 12.726 0 7.024-5.692 12.726-12.704 12.726z" fill="#43DAC7"/><path d="M356.026 88.674h-2.948v42.759h2.948V88.674z" fill="#FFED5E"/><path d="M347.997 76.864a10.008 10.008 0 0 1-1.22-1.527 5.691 5.691 0 0 1-.915-1.73c-.305-.611-.406-1.222-.609-1.833-.102-.61-.204-1.323-.204-2.036 0-.713.102-1.324.204-2.036.101-.611.304-1.324.609-1.833.204-.61.509-1.12.915-1.73l1.22-1.527.813.814c-.407.407-.813.814-1.118 1.323-.305.51-.61 1.019-.813 1.528a9.877 9.877 0 0 0-.508 1.628c-.102.611-.204 1.222-.204 1.833 0 .61.102 1.222.204 1.832.101.611.304 1.12.508 1.63.203.508.508 1.017.813 1.526.305.51.711.917 1.118 1.324l-.813.814z" fill="#fff"/><path d="M369.238 70.247c0 7.33-5.996 13.336-13.314 13.336s-13.314-6.006-13.314-13.336 5.996-13.337 13.314-13.337c7.419 0 13.314 6.007 13.314 13.337z" fill="#FFC107"/><path d="M366.189 70.247a10.245 10.245 0 0 1-10.265 10.282 10.246 10.246 0 0 1-10.265-10.282 10.246 10.246 0 0 1 10.265-10.283c5.692 0 10.265 4.683 10.265 10.283z" fill="#fff"/><path d="M362.53 70.247a6.598 6.598 0 0 1-6.606 6.617 6.598 6.598 0 0 1-6.606-6.617 6.598 6.598 0 0 1 6.606-6.617c3.659.101 6.606 3.054 6.606 6.617z" fill="#FFC107"/><path d="M359.685 70.247a3.647 3.647 0 0 1-3.659 3.665 3.647 3.647 0 0 1-3.659-3.665 3.647 3.647 0 0 1 3.659-3.665c1.931 0 3.659 1.629 3.659 3.665z" fill="#fff"/><path d="M356.331 60.473h-.712v1.935h.712v-1.935zm1.747.363l-.498 1.87.687.183.498-1.869-.687-.184zm2.316.91l-.966 1.675.617.357.965-1.675-.616-.357zm1.918 1.329l-1.348 1.385.509.497 1.348-1.384-.509-.498zm1.51 1.97l-1.672.968.356.616 1.672-.967-.356-.617zm1.034 2.312l-1.864.503.185.688 1.864-.503-.185-.688zm.317 2.38h-1.931v.713h1.931v-.713zm-2.082 1.884l-.184.689 1.866.499.184-.689-1.866-.499zm-.71 1.869l-.355.618 1.674.965.355-.617-1.674-.966zm-1.104 1.518l-.502.504 1.367 1.366.502-.504-1.367-1.366zm-1.513 1.295l-.616.357.969 1.674.615-.358-.968-1.673zm-1.763.787l-.687.185.503 1.868.687-.186-.503-1.867zm-1.976.385h-.712l.004 1.935.711-.001-.003-1.934zm-2.571-.426l-.498 1.869.688.184.498-1.87-.688-.183zm-1.803-.854l-.962 1.678.617.355.962-1.678-.617-.355zm-1.414-1.255l-1.362 1.372.504.503 1.362-1.371-.504-.503zm-1.114-1.683l-1.67.971.357.617 1.67-.971-.357-.617zm-.629-1.834l-1.864.507.186.687 1.864-.506-.186-.688zm-.192-1.891l-1.931.004.002.713 1.931-.004-.002-.713zm-1.415-2.542l-.183.688 1.867.496.182-.688-1.866-.496zm1.019-2.146l-.354.618 1.675.963.354-.619-1.675-.962zm1.622-1.928l-.501.505 1.369 1.364.501-.505-1.369-1.364zm2.002-1.388l-.615.358.97 1.673.615-.358-.97-1.673zm2.291-.803l-.686.187.505 1.867.687-.187-.506-1.867z" fill="#14D1BA"/><path d="M332.345 131.433h-20.632l3.049-88.165h14.737l2.846 88.165z" fill="#fff"/><path d="M330.719 79.816l-17.583 9.876-.407 12.522 18.295-10.792-.305-11.606zM314.051 64.75l-.509 12.521 16.77-9.875-.406-11.606-15.855 8.96zm18.294 66.683l-.203-6.313-11.18 6.313h11.383zm-.915-30.135l-19.107 10.791-.407 12.523 19.819-11.708-.305-11.606z" fill="#14D1BA"/><path d="M322.08 28.811a.802.802 0 0 1-.813-.814v-4.48c0-.407.304-.814.813-.814.406 0 .813.305.813.814v4.48c-.102.407-.407.814-.813.814z" fill="#212121"/><path d="M327.771 32.374c0-3.156-2.541-5.803-5.793-5.803a5.796 5.796 0 0 0-5.793 5.803h11.586z" fill="#14D1BA"/><path d="M321.978 26.572c-.305 0-.61 0-.915.101 2.745.408 4.879 2.85 4.879 5.701h1.728c.101-3.156-2.44-5.803-5.692-5.803z" fill="#43DAC7"/><path d="M327.568 33.698h-11.281v10.079h11.281V33.698z" fill="#FFC107"/><path d="M327.568 33.698h-3.557v10.079h3.557V33.698z" fill="#FFED5E"/><path d="M329.093 41.028h-13.924a.437.437 0 0 0-.407.407v2.647c0 .204.203.407.407.407h13.924a.437.437 0 0 0 .406-.407v-2.647c0-.203-.203-.407-.406-.407z" fill="#14D1BA"/><path opacity=".1" d="M329.601 41.028h-3.862v3.563h3.862v-3.563z" fill="#231F20"/><path d="M329.499 44.082v-.814h-14.737l-.305 9.468 15.042-8.654z" fill="#14D1BA"/><path opacity=".2" d="M329.499 43.268h-3.76l-.407 88.165h7.013l-2.846-88.165z" fill="#231F20"/><path d="M324.926 53.55c0 1.833-1.525 3.36-3.354 3.36-1.83 0-3.354-1.527-3.354-3.36 0-1.832 1.524-3.36 3.354-3.36 1.829 0 3.354 1.528 3.354 3.36z" fill="#212121"/><path d="M324.112 53.55a2.518 2.518 0 0 1-2.54 2.545 2.518 2.518 0 0 1-2.541-2.545 2.518 2.518 0 0 1 2.541-2.545c1.422.102 2.54 1.222 2.54 2.545z" fill="#FFC107"/><path d="M321.572 51.107c-.813 0-1.525.407-2.033 1.018a2.496 2.496 0 0 1 1.525-.509c1.422 0 2.54 1.12 2.54 2.545 0 .611-.203 1.12-.508 1.527.61-.407 1.017-1.221 1.017-2.036a2.518 2.518 0 0 0-2.541-2.545z" fill="#FFA000"/><path d="M324.926 78.188c0 1.832-1.525 3.36-3.354 3.36-1.83 0-3.354-1.528-3.354-3.36 0-1.833 1.524-3.36 3.354-3.36 1.829 0 3.354 1.527 3.354 3.36z" fill="#212121"/><path d="M324.112 78.188a2.518 2.518 0 0 1-2.54 2.545 2.518 2.518 0 0 1-2.541-2.545 2.518 2.518 0 0 1 2.541-2.546c1.422 0 2.54 1.12 2.54 2.546z" fill="#FFC107"/><path d="M321.572 75.642c-.813 0-1.525.408-2.033 1.019a2.496 2.496 0 0 1 1.525-.51c1.422 0 2.54 1.12 2.54 2.546 0 .61-.203 1.12-.508 1.527.61-.407 1.017-1.222 1.017-2.036a2.518 2.518 0 0 0-2.541-2.546z" fill="#FFA000"/><path d="M324.926 102.723c0 1.832-1.525 3.36-3.354 3.36-1.83 0-3.354-1.528-3.354-3.36 0-1.833 1.524-3.36 3.354-3.36 1.829 0 3.354 1.527 3.354 3.36z" fill="#212121"/><path d="M324.112 102.723a2.518 2.518 0 0 1-2.54 2.545 2.518 2.518 0 0 1-2.541-2.545 2.518 2.518 0 0 1 2.541-2.545c1.422.102 2.54 1.221 2.54 2.545z" fill="#FFC107"/><path d="M321.572 100.28c-.813 0-1.525.407-2.033 1.018a2.492 2.492 0 0 1 1.525-.509c1.422 0 2.54 1.12 2.54 2.545 0 .611-.203 1.12-.508 1.527.61-.407 1.017-1.222 1.017-2.036a2.518 2.518 0 0 0-2.541-2.545z" fill="#FFA000"/><path d="M330.211 46.22h-16.364a.695.695 0 0 1-.711-.712v-1.833c0-.407.305-.712.711-.712h16.364c.406 0 .711.305.711.712v1.833c0 .407-.407.712-.711.712z" fill="#C5C5C5"/><path d="M330.211 42.963h-16.364a.695.695 0 0 0-.711.712v1.018h17.786v-1.018c0-.407-.407-.712-.711-.712z" fill="#ECECEC"/><path opacity=".1" d="M330.211 42.963h-3.761v3.258h3.761a.695.695 0 0 0 .711-.713v-1.833c0-.407-.406-.712-.711-.712z" fill="#231F20"/><path d="M328.28 34.41h-12.603c-.407 0-.813-.406-.813-.814v-.712c0-.408.406-.815.813-.815h12.603c.406 0 .813.407.813.815v.712a.802.802 0 0 1-.813.815z" fill="#C5C5C5"/><path d="M328.28 32.07h-12.603c-.407 0-.813.406-.813.814v.305h14.229v-.305a.802.802 0 0 0-.813-.815z" fill="#ECECEC"/><path d="M308.257 38.28h-2.845a.802.802 0 0 1-.813-.815c0-.407.305-.814.813-.814h2.845c.407 0 .814.305.814.814-.102.407-.407.814-.814.814zm.814-4.785h-.305l-5.285-1.935c-.407-.102-.61-.61-.407-1.018.102-.407.61-.61 1.016-.407l5.285 1.934c.407.102.61.611.407 1.018-.102.306-.407.408-.711.408zm2.337-4.073c-.203 0-.305-.102-.508-.204l-2.134-1.73c-.305-.306-.407-.713-.102-1.12.305-.306.712-.407 1.118-.102l2.134 1.73c.305.306.407.713.102 1.12-.102.204-.305.306-.61.306zm21.14 0c-.203 0-.406-.102-.61-.305-.304-.306-.203-.815.102-1.12l2.134-1.833c.305-.305.813-.203 1.118.102.305.306.204.815-.101 1.12l-2.135 1.833c-.203.101-.304.203-.508.203zm2.338 4.174a.765.765 0 0 1-.712-.509c-.101-.407.102-.814.407-1.018l5.285-1.934c.406-.102.813.101 1.016.407.102.407-.101.814-.406 1.018l-5.285 1.934c-.102.102-.204.102-.305.102zm3.659 4.684h-2.846c-.407 0-.712-.306-.712-.815 0-.407.305-.713.813-.713h2.846c.407 0 .712.306.712.815-.102.407-.407.712-.813.712zm1.626 6.617h-.305l-5.285-1.934c-.407-.102-.61-.611-.407-1.018.102-.408.61-.611 1.017-.408l5.285 1.935c.406.102.609.61.406 1.018-.102.203-.406.407-.711.407zm-5.793 3.869c-.204 0-.305-.102-.509-.204l-1.931-1.629c-.305-.305-.406-.713-.101-1.12.305-.305.711-.407 1.118-.102l1.931 1.63c.305.305.406.712.101 1.12-.101.203-.305.305-.609.305zm-25.307.204c-.204 0-.407-.103-.61-.306-.305-.306-.204-.815.101-1.12l2.338-1.833c.305-.305.813-.203 1.118.102.305.306.203.815-.102 1.12l-2.337 1.833c-.204.101-.305.203-.508.203zm-5.285-4.175a.765.765 0 0 1-.712-.509c-.101-.407.102-.815.508-1.018l5.285-1.934c.407-.102.813.101 1.017.509.101.407-.102.814-.508 1.018l-5.285 1.934h-.305z" fill="#14D1BA"/><path d="M60.777 38.076h-.203c-.61 0-1.321-.51-1.321-1.12l.508-5.192-.305-4.581c0-.611.508-1.12 1.118-1.12h.203c.61 0 1.118.509 1.118 1.12v9.875c0 .509-.508 1.018-1.118 1.018z" fill="#D8D8D8"/><path d="M50.512 37.567l3.05-4.276c.508-.713 1.422-.916 2.134-.407.813.509 1.016 1.527.508 2.24l-2.134 3.359c-.204.306 0 .713.406.713h1.017l4.37-4.683s.406-2.953.508-3.36v-5.09c0-.713.508-1.222 1.22-1.222.711 0 1.22.509 1.22 1.222v4.58c.1.306.1 5.397.1 5.397l-5.284 10.995h-8.03v-7.84c.306-.61.61-1.323.915-1.628z" fill="#fff"/><path opacity=".2" d="M49.801 45.406v1.527h8.13l.712-1.527h-8.842z" fill="#231F20"/><path d="M59.761 46.526H47.057v84.907H59.76V46.526z" fill="#43DAC7"/><path d="M50.513 46.526h-3.456v84.907h3.456V46.526z" fill="#14D1BA"/><path d="M31.1 38.076h.203c.61 0 1.322-.51 1.322-1.12l-.61-5.192.305-4.581c0-.611-.508-1.12-1.118-1.12h-.203c-.61 0-1.118.509-1.118 1.12v9.875c.101.509.61 1.018 1.22 1.018z" fill="#D8D8D8"/><path d="M41.264 37.567l-3.05-4.276c-.508-.713-1.422-.916-2.134-.407-.813.509-1.016 1.527-.508 2.24l2.134 3.359c.204.306 0 .713-.406.713h-1.016l-4.37-4.683s-.407-2.953-.509-3.36v-5.09c0-.713-.508-1.222-1.22-1.222-.71 0-1.22.509-1.22 1.222v4.58c-.1.306-.1 5.397-.1 5.397l5.284 10.995h8.03v-7.84c-.204-.61-.509-1.323-.915-1.628z" fill="#fff"/><path opacity=".2" d="M41.975 45.406v1.527h-8.03l-.71-1.527h8.74z" fill="#231F20"/><path d="M44.821 46.526H32.117v84.907H44.82V46.526z" fill="#43DAC7"/><path d="M44.82 46.526h-3.455v84.907h3.456V46.526z" fill="#14D1BA"/><path d="M50.513 23.517l-4.167-5.599h8.435l-4.268 5.6zm-8.436 0l-4.269-5.599h8.537l-4.268 5.6zm4.268 14.457L33.641 23.518H59.05L46.345 37.974z" fill="#FFC107"/><path d="M46.345 37.974l-4.268-14.456h8.537l-4.269 14.456zm-8.537-20.056l-4.167 5.6h8.436l-4.269-5.6z" fill="#FFCD39"/><path d="M46.345 17.918l-4.268 5.6h8.435l-4.167-5.6zm8.436 0l-4.167 5.6h8.436l-4.269-5.6z" fill="#FFCD39"/><path d="M127.958 131.433H57.22V51.616a2.04 2.04 0 0 1 2.033-2.036h66.672a2.04 2.04 0 0 1 2.033 2.036v79.817z" fill="#F1F2F2"/><path d="M127.958 109.239H57.22v22.194h70.738v-22.194z" fill="#fff"/><path d="M119.116 121.761H66.063v9.57h53.053v-9.57z" fill="#404142"/><path d="M114.136 58.437H71.043v30.135h43.093V58.437z" fill="#14D1BA"/><path d="M114.136 59.353v-.916h-4.98L79.072 88.572h5.895l29.169-29.219zm-27.746-.916L71.042 73.708v14.864h3.963l30.084-30.135h-18.7z" fill="#43DAC7"/><path d="M68.603 58.946h-5.59v5.6h5.59v-5.6zm0 7.636h-5.59v5.6h5.59v-5.6zm0 7.635h-5.59v5.6h5.59v-5.6zm0 7.737h-5.59v5.6h5.59v-5.6zm52.749-23.008h-5.59v5.6h5.59v-5.6zm0 7.636h-5.59v5.6h5.59v-5.6zm0 7.635h-5.59v5.6h5.59v-5.6zm0 7.737h-5.59v5.6h5.59v-5.6z" fill="#9E9E9E"/><path d="M101.838 93.459H82.934c-.712 0-1.22-.611-1.22-1.222 0-.712.61-1.221 1.22-1.221h18.904c.711 0 1.219.61 1.219 1.221 0 .611-.508 1.222-1.219 1.222zm-9.249-39.298c0 .815-.61 1.425-1.423 1.425-.813 0-1.423-.61-1.423-1.425 0-.814.61-1.425 1.423-1.425.813 0 1.423.61 1.423 1.425z" fill="#212121"/><path d="M81.816 100.891h-2.338c-.203 0-.406-.204-.406-.408v-2.341c0-.204.203-.407.406-.407h2.338c.203 0 .406.203.406.407v2.341c0 .204-.203.408-.406.408zm5.183 0h-2.338c-.203 0-.406-.204-.406-.408v-2.341c0-.204.203-.407.406-.407H87c.203 0 .407.203.407.407v2.341c.101.204-.102.408-.407.408zm5.285 0h-2.337c-.204 0-.407-.204-.407-.408v-2.341c0-.204.203-.407.407-.407h2.337c.203 0 .407.203.407.407v2.341c0 .204-.204.408-.407.408zm5.184 0H95.13c-.203 0-.407-.204-.407-.408v-2.341c0-.204.204-.407.407-.407h2.338c.203 0 .406.203.406.407v2.341c.102.204-.102.408-.406.408zm5.284 0h-2.337c-.203 0-.407-.204-.407-.408v-2.341c0-.204.204-.407.407-.407h2.337c.204 0 .407.203.407.407v2.341c0 .204-.203.408-.407.408z" fill="#fff"/><path d="M87 104.861h-7.624c-.203 0-.406-.204-.406-.407v-2.444c0-.203.203-.407.406-.407H87c.203 0 .407.204.407.407v2.342c.101.305-.102.509-.407.509z" fill="#14D1BA"/><path d="M92.284 104.861h-2.337a.438.438 0 0 1-.407-.407v-2.444c0-.203.203-.407.407-.407h2.337c.203 0 .407.204.407.407v2.342c0 .305-.204.509-.407.509z" fill="#fff"/><path d="M102.753 104.861H95.13a.438.438 0 0 1-.407-.407v-2.444c0-.203.204-.407.407-.407h7.623c.203 0 .406.204.406.407v2.342c0 .305-.203.509-.406.509z" fill="#FFC107"/><path d="M265.876 58.437c1.219 1.12 5.082-.305 15.55-.305s14.33 1.425 15.55.305c2.134-1.832-5.183-9.875-15.55-9.875s-17.684 8.043-15.55 9.875z" fill="#fff"/><path d="M265.774 56.401c-.406.814-.406 1.629.102 2.036 1.016.916 4.065 0 11.383-.305-5.387-1.018-9.046-1.426-11.485-1.731zm15.652-7.839c-.915 0-1.931.102-2.744.204.203 0 .508.101.711.101 7.114 1.426 11.891 6.414 13.314 9.774 2.338.203 3.659.305 4.269-.204 2.236-1.832-5.184-9.875-15.55-9.875z" fill="#C5C5C5"/><path d="M301.55 56.401h-40.959v4.174h40.959v-4.174z" fill="#D8D8D8"/><path d="M305.412 59.557h-47.768v71.774h47.768V59.557z" fill="#fff"/><path d="M305.412 59.557h-2.846v71.774h2.846V59.557z" fill="#ECECEC"/><path d="M260.591 59.557h-2.947v71.774h2.947V59.557z" fill="#C5C5C5"/><path d="M269.331 68.618h-5.996v6.006h5.996v-6.006zm10.266 0H273.6v6.006h5.997v-6.006zm10.163 0h-5.996v6.006h5.996v-6.006zm10.163 0h-5.996v6.006h5.996v-6.006zm-30.592 10.486h-5.996v6.007h5.996v-6.007zm10.164 0h-5.996v6.007h5.996v-6.007zm10.163 0h-5.996v6.007h5.996v-6.007zm10.265 0h-5.996v6.007h5.996v-6.007zM269.23 89.692h-5.997v6.007h5.997v-6.007zm10.265 0h-5.996v6.007h5.996v-6.007zm10.163 0h-5.996v6.007h5.996v-6.007zm10.164 0h-5.997v6.007h5.997v-6.007zM269.23 100.28h-5.997v6.006h5.997v-6.006zm10.163 0h-5.996v6.006h5.996v-6.006zm10.164 0h-5.997v6.006h5.997v-6.006zm10.265 0h-5.997v6.006h5.997v-6.006zm-30.694 10.588h-5.996v6.006h5.996v-6.006zm10.265 0h-5.996v6.006h5.996v-6.006zm10.164 0h-5.997v6.006h5.997v-6.006zm10.163 0h-5.996v6.006h5.996v-6.006z" fill="#FFC107"/><path d="M288.236 121.455h-13.315v9.977h13.315v-9.977z" fill="#FFDA6A"/><path d="M288.236 121.455h-6.607v9.977h6.607v-9.977z" fill="#FFC107"/><path opacity=".2" d="M305.412 63.833l-47.768 2.24V60.37h47.768v3.462z" fill="#231F20"/><path d="M307.648 58.437h-51.224v4.174h51.224v-4.174z" fill="#fff"/><path d="M269.84 73.81h-7.521v1.221h7.521V73.81zm10.367 0h-7.521v1.221h7.521V73.81zm10.366 0h-7.521v1.221h7.521V73.81zm10.265 0h-7.521v1.221h7.521V73.81zM269.84 84.602h-7.521v1.221h7.521v-1.221zm10.367 0h-7.521v1.221h7.521v-1.221zm10.366 0h-7.521v1.221h7.521v-1.221zm10.265 0h-7.521v1.221h7.521v-1.221zM269.84 95.291h-7.521v1.222h7.521v-1.222zm10.367 0h-7.521v1.222h7.521v-1.222zm10.366 0h-7.521v1.222h7.521v-1.222zm10.265 0h-7.521v1.222h7.521v-1.222zm-30.998 10.792h-7.521v1.221h7.521v-1.221zm10.367 0h-7.521v1.221h7.521v-1.221zm10.366 0h-7.521v1.221h7.521v-1.221zm10.265 0h-7.521v1.221h7.521v-1.221zm-30.998 10.689h-7.521v1.222h7.521v-1.222zm10.367 0h-7.521v1.222h7.521v-1.222zm10.264 0h-7.521v1.222h7.521v-1.222zm10.367 0h-7.521v1.222h7.521v-1.222z" fill="#404142"/><path opacity=".4" d="M268.315 119.725V53.449c-1.118 1.018-2.033 2.036-2.439 2.952h-5.285v2.138h-4.167v4.174h1.219v68.72h10.57v-11.708h.102z" fill="#231F20"/><path d="M265.164 29.32h-25.916v102.113h25.916V29.321z" fill="#14D1BA"/><path d="M252.46 5.701c-.101-.101-.305-.101-.406 0l-11.892 22.194h23.884L252.46 5.701z" fill="#404142"/><path d="M265.266 119.725l-26.018-25.96v7.838l26.018 25.961v-7.839zm-26.018-52.227l26.018 25.96V85.62l-26.018-25.96v7.838zm9.858-38.178h-9.858V56.3l26.018 25.96V45.508l-16.16-16.187z" fill="#43DAC7"/><path d="M266.282 27.997H238.13v2.952h28.152v-2.952zm-20.326-3.461h-1.322v1.018h1.322v-1.018zm3.354 0h-1.322v1.018h1.322v-1.018zm3.455 0h-1.321v1.018h1.321v-1.018zm3.354 0h-1.321v1.018h1.321v-1.018zm3.354 0h-1.321v1.018h1.321v-1.018zm4.167 9.162h-22.868v1.018h22.868v-1.018zm0 3.665h-22.868v1.018h22.868v-1.018zm0 3.767h-22.868v1.018h22.868V41.13zm0 3.767h-22.868v1.018h22.868v-1.018zm0 3.665h-22.868v1.018h22.868v-1.018zm0 3.767h-22.868v1.018h22.868v-1.018zm0 3.767h-22.868v1.018h22.868v-1.018zm0 3.664h-22.868v1.019h22.868V59.76zm0 3.768h-22.868v1.018h22.868v-1.018zm0 3.767h-22.868v1.018h22.868v-1.018zm0 3.665h-22.868v1.018h22.868V70.96zm0 3.766h-22.868v1.018h22.868v-1.018zm0 3.767h-22.868v1.018h22.868v-1.018zm0 3.665h-22.868v1.018h22.868v-1.018zm0 3.767h-22.868v1.018h22.868v-1.018zm0 3.665h-22.868v1.018h22.868V89.59zm0 3.767h-22.868v1.018h22.868v-1.018zm0 3.767h-22.868v1.018h22.868v-1.018zm0 3.665h-22.868v1.018h22.868v-1.018zm0 3.767h-22.868v1.018h22.868v-1.018zm0 3.767h-22.868v1.018h22.868v-1.018zm0 3.665h-22.868v1.018h22.868v-1.018zm0 3.767h-22.868v1.018h22.868v-1.018zm0 3.766h-22.868v1.019h22.868v-1.019zm0 3.665h-22.868v1.018h22.868v-1.018zm0 3.767h-22.868v1.018h22.868v-1.018z" fill="#fff"/><path opacity=".4" d="M258.05 121.455h-7.114v-75.54c0-.713-.61-1.324-1.322-1.324h-10.366v86.638h4.065a20.748 20.748 0 0 0 14.737-6.109v-3.665zM138.121 51.616a2.04 2.04 0 0 0-2.032-2.036H123.08v71.876h-7.115v3.868a20.821 20.821 0 0 0 14.737 6.109h7.419V51.616z" fill="#231F20"/><path d="M248.395 121.863H125.62V45.915c0-.713.61-1.324 1.321-1.324h120.132c.712 0 1.322.611 1.322 1.324v75.948z" fill="#373737"/><path d="M242.093 51.514H131.922v64.037h110.171V51.514z" fill="#FFC107"/><path d="M255.509 125.324H118.506a20.82 20.82 0 0 0 14.737 6.108h107.631c5.488 0 10.773-2.239 14.635-6.108z" fill="#D8D8D8"/><path d="M255.509 121.456H118.506v3.868h137.003v-3.868z" fill="#fff"/><path d="M195.545 124.408h-16.973a1.019 1.019 0 0 1 0-2.036h16.973a1.019 1.019 0 0 1 0 2.036z" fill="#D8D8D8"/><path opacity=".3" d="M231.93 115.144h-89.235l-11.688-70.96h111.086l-10.163 70.96z" fill="#231F20"/><path d="M231.625 116.06h-89.337V9.468c0-.61.508-1.221 1.22-1.221h86.999c.61 0 1.22.509 1.22 1.221V116.06h-.102z" fill="#fff"/><path d="M231.625 21.786V11.402c0-1.73-1.423-3.054-3.049-3.054h-83.137c-1.728 0-3.049 1.425-3.049 3.054v10.384h89.235z" fill="#14D1BA"/><path d="M218.514 24.23h-63.318v76.661h63.318v-76.66z" fill="#D8D8D8"/><path d="M152.757 14.966a1.823 1.823 0 0 1-1.83 1.832 1.823 1.823 0 0 1-1.829-1.832c0-1.018.813-1.833 1.829-1.833 1.017.102 1.83.917 1.83 1.833zm5.996 0a1.823 1.823 0 0 1-1.829 1.832 1.823 1.823 0 0 1-1.83-1.832c0-1.018.813-1.833 1.83-1.833 1.016.102 1.829.917 1.829 1.833zm5.997 0a1.823 1.823 0 0 1-1.83 1.832 1.823 1.823 0 0 1-1.829-1.832c0-1.018.813-1.833 1.829-1.833 1.017.102 1.83.917 1.83 1.833z" fill="#fff"/><path opacity=".2" d="M228.576 8.247h-3.964c1.728 0 3.049 1.425 3.049 3.054V116.06h3.964V11.403c0-1.731-1.321-3.156-3.049-3.156z" fill="#404142"/><path d="M209.265 63.63c0 12.725-10.265 23.008-22.969 23.008s-22.969-10.283-22.969-23.009c0-12.725 10.265-23.008 22.969-23.008s22.969 10.283 22.969 23.008z" fill="#fff"/><path opacity=".4" d="M36.792 130.211v-10.995c0-.713-.508-1.222-1.22-1.222h-3.354v13.337h3.354c.61.102 1.22-.509 1.22-1.12zm-1.118-32.884a.218.218 0 0 0 .203-.203v-.916c0-.102 0-.204-.102-.204l-3.658-2.24v23.314h3.353v-2.036h-.203v-.815h-.61v-.61h-1.016v-1.12h-.508V98.549h.508v-1.222h-1.016 3.049z" fill="#231F20"/><path d="M30.592 95.393H5.285v20.362h25.307V95.393z" fill="#14D1BA"/><path d="M30.592 104.963l-25.307 8.654V95.699h25.307v9.264z" fill="#0F9C88"/><path d="M32.624 113.617H3.66v1.018h28.965v-1.018zM2.236 96.208v.916c0 .102.101.204.203.204h31.202a.219.219 0 0 0 .203-.204v-.916c0-.102 0-.204-.102-.204l-15.245-9.468c-.305-.204-.61-.204-.813 0L2.44 96.004c-.203 0-.203.102-.203.204z" fill="#FFC107"/><path d="M7.013 94.884v.916h22.054v-.916l-10.57-6.72c-.305-.203-.61-.203-.813 0l-10.671 6.72z" fill="#FFDA6A"/><path d="M8.03 98.346H4.877v14.456H8.03V98.346z" fill="#FFC107"/><path d="M5.996 98.346H4.878v14.456h1.118V98.346z" fill="#FFDA6A"/><path d="M8.03 98.346H6.91v14.456h1.12V98.346z" fill="#FFA000"/><path d="M8.436 97.328H4.37v1.221h4.066v-1.222zm0 15.169H4.37v1.222h4.066v-1.222z" fill="#FFA000"/><path d="M19.616 98.346h-3.151v14.456h3.15V98.346z" fill="#FFC107"/><path d="M17.583 98.346h-1.118v14.456h1.118V98.346z" fill="#FFDA6A"/><path d="M19.616 98.346h-1.118v14.456h1.118V98.346z" fill="#FFA000"/><path d="M20.022 97.328h-4.065v1.221h4.065v-1.222zm0 15.169h-4.065v1.222h4.065v-1.222z" fill="#FFA000"/><path d="M31.202 98.346h-3.15v14.456h3.15V98.346z" fill="#FFC107"/><path d="M29.17 98.346h-1.12v14.456h1.118V98.346z" fill="#FFDA6A"/><path d="M31.202 98.346h-1.118v14.456h1.118V98.346z" fill="#FFA000"/><path d="M31.608 97.328h-4.065v1.221h4.065v-1.222zm0 15.169h-4.065v1.222h4.065v-1.222z" fill="#FFA000"/><path d="M20.022 92.339a2.04 2.04 0 0 1-2.033 2.036 2.04 2.04 0 0 1-2.033-2.036 2.04 2.04 0 0 1 2.033-2.036 2.04 2.04 0 0 1 2.033 2.036z" fill="#14D1BA"/><path d="M16.363 92.644a2.04 2.04 0 0 1 2.033-2.036c.508 0 .915.204 1.22.408-.407-.51-.915-.815-1.627-.815a2.04 2.04 0 0 0-2.033 2.036c0 .611.305 1.222.814 1.63-.305-.306-.407-.713-.407-1.223z" fill="#0F9C88"/><path d="M33.234 114.227H3.151v1.527h30.083v-1.527z" fill="#FFA000"/><path d="M33.438 115.042H2.54v2.036h30.897v-2.036z" fill="#FFC107"/><path d="M17.685 118.605h-1.017a2.04 2.04 0 0 0-2.032-2.036H4.777a2.952 2.952 0 0 1-2.947-2.952v-8.552a2.952 2.952 0 0 1 2.947-2.952h.102v1.018h-.102a2.04 2.04 0 0 0-2.033 2.036v8.552a2.04 2.04 0 0 0 2.033 2.036h9.96c1.626-.204 2.948 1.12 2.948 2.85z" fill="#231F20"/><path d="M33.54 131.433H1.22c-.712 0-1.22-.509-1.22-1.222v-10.995c0-.713.508-1.222 1.22-1.222h32.218c.711 0 1.22.509 1.22 1.222v10.995c.101.611-.509 1.222-1.119 1.222z" fill="#404142"/><path d="M3.049 120.438H1.728c-.204 0-.305-.102-.305-.306v-.509c0-.204.101-.305.305-.305h1.321c.203 0 .305.101.305.305v.509c0 .102-.203.306-.305.306zm0 3.156H1.728c-.204 0-.305-.102-.305-.306v-.509c0-.203.101-.305.305-.305h1.321c.203 0 .305.102.305.305v.509c0 .102-.203.306-.305.306zm2.947 0H4.675c-.203 0-.305-.102-.305-.306v-.509c0-.203.102-.305.305-.305h1.321c.204 0 .305.102.305.305v.509c0 .102-.101.306-.305.306zm3.049 0H7.623c-.204 0-.305-.102-.305-.306v-.509c0-.203.101-.305.305-.305h1.32c.204 0 .306.102.306.305v.509c.101.102-.102.306-.204.306zm2.948 0h-1.321c-.204 0-.305-.102-.305-.306v-.509c0-.203.101-.305.305-.305h1.32c.204 0 .306.102.306.305v.509c0 .102-.102.306-.305.306zm3.049 0H13.72c-.204 0-.305-.102-.305-.306v-.509c0-.203.101-.305.305-.305h1.32c.204 0 .306.102.306.305v.509c0 .102-.203.306-.305.306zm2.948 0h-1.322c-.203 0-.305-.102-.305-.306v-.509c0-.203.102-.305.305-.305h1.321c.204 0 .305.102.305.305v.509c0 .102-.101.306-.305.306zm3.048 0h-1.321c-.203 0-.305-.102-.305-.306v-.509c0-.203.102-.305.305-.305h1.321c.203 0 .305.102.305.305v.509c0 .102-.203.306-.305.306zm2.948 0h-1.322c-.203 0-.304-.102-.304-.306v-.509c0-.203.101-.305.305-.305h1.32c.204 0 .306.102.306.305v.509c0 .102-.102.306-.305.306zm3.049 0h-1.321c-.204 0-.305-.102-.305-.306v-.509c0-.203.101-.305.305-.305h1.32c.204 0 .306.102.306.305v.509c0 .102-.203.306-.305.306zm2.947 0h-1.321c-.203 0-.305-.102-.305-.306v-.509c0-.203.102-.305.305-.305h1.321c.203 0 .305.102.305.305v.509c0 .102-.102.306-.305.306zm3.049 0H31.71c-.203 0-.305-.102-.305-.306v-.509c0-.203.102-.305.305-.305h1.321c.203 0 .305.102.305.305v.509c0 .102-.203.306-.305.306zm-29.982 1.934H1.728c-.204 0-.305-.102-.305-.305v-.509c0-.204.101-.306.305-.306h1.321c.203 0 .305.102.305.306v.509c0 .101-.203.305-.305.305zm2.947 0H4.675c-.203 0-.305-.102-.305-.305v-.509c0-.204.102-.306.305-.306h1.321c.204 0 .305.102.305.306v.509c0 .101-.101.305-.305.305zm3.049 0H7.623c-.204 0-.305-.102-.305-.305v-.509c0-.204.101-.306.305-.306h1.32c.204 0 .306.102.306.306v.509c.101.101-.102.305-.204.305zm2.948 0h-1.321c-.204 0-.305-.102-.305-.305v-.509c0-.204.101-.306.305-.306h1.32c.204 0 .306.102.306.306v.509c0 .101-.102.305-.305.305zm3.049 0H13.72c-.204 0-.305-.102-.305-.305v-.509c0-.204.101-.306.305-.306h1.32c.204 0 .306.102.306.306v.509c0 .101-.203.305-.305.305zm2.948 0h-1.322c-.203 0-.305-.102-.305-.305v-.509c0-.204.102-.306.305-.306h1.321c.204 0 .305.102.305.306v.509c0 .101-.101.305-.305.305zm3.048 0h-1.321c-.203 0-.305-.102-.305-.305v-.509c0-.204.102-.306.305-.306h1.321c.203 0 .305.102.305.306v.509c0 .101-.203.305-.305.305zm2.948 0h-1.322c-.203 0-.304-.102-.304-.305v-.509c0-.204.101-.306.305-.306h1.32c.204 0 .306.102.306.306v.509c0 .101-.102.305-.305.305zm3.049 0h-1.321c-.204 0-.305-.102-.305-.305v-.509c0-.204.101-.306.305-.306h1.32c.204 0 .306.102.306.306v.509c0 .101-.203.305-.305.305zm2.947 0h-1.321c-.203 0-.305-.102-.305-.305v-.509c0-.204.102-.306.305-.306h1.321c.203 0 .305.102.305.306v.509c0 .101-.102.305-.305.305zm3.049 0H31.71c-.203 0-.305-.102-.305-.305v-.509c0-.204.102-.306.305-.306h1.321c.203 0 .305.102.305.306v.509c0 .101-.203.305-.305.305zm-29.982 1.934H1.728c-.204 0-.305-.102-.305-.305v-.509c0-.204.101-.306.305-.306h1.321c.203 0 .305.102.305.306v.509c0 .102-.203.305-.305.305zm2.947 0H4.675c-.203 0-.305-.102-.305-.305v-.509c0-.204.102-.306.305-.306h1.321c.204 0 .305.102.305.306v.509c0 .102-.101.305-.305.305zm3.049 0H7.623c-.204 0-.305-.102-.305-.305v-.509c0-.204.101-.306.305-.306h1.32c.204 0 .306.102.306.306v.509c.101.102-.102.305-.204.305zm2.948 0h-1.321c-.204 0-.305-.102-.305-.305v-.509c0-.204.101-.306.305-.306h1.32c.204 0 .306.102.306.306v.509c0 .102-.102.305-.305.305zm3.049 0H13.72c-.204 0-.305-.102-.305-.305v-.509c0-.204.101-.306.305-.306h1.32c.204 0 .306.102.306.306v.509c0 .102-.203.305-.305.305zm2.948 0h-1.322c-.203 0-.305-.102-.305-.305v-.509c0-.204.102-.306.305-.306h1.321c.204 0 .305.102.305.306v.509c0 .102-.101.305-.305.305zm3.048 0h-1.321c-.203 0-.305-.102-.305-.305v-.509c0-.204.102-.306.305-.306h1.321c.203 0 .305.102.305.306v.509c0 .102-.203.305-.305.305zm2.948 0h-1.322c-.203 0-.304-.102-.304-.305v-.509c0-.204.101-.306.305-.306h1.32c.204 0 .306.102.306.306v.509c0 .102-.102.305-.305.305zm3.049 0h-1.321c-.204 0-.305-.102-.305-.305v-.509c0-.204.101-.306.305-.306h1.32c.204 0 .306.102.306.306v.509c0 .102-.203.305-.305.305zm2.947 0h-1.321c-.203 0-.305-.102-.305-.305v-.509c0-.204.102-.306.305-.306h1.321c.203 0 .305.102.305.306v.509c0 .102-.102.305-.305.305zm3.049 0H31.71c-.203 0-.305-.102-.305-.305v-.509c0-.204.102-.306.305-.306h1.321c.203 0 .305.102.305.306v.509c0 .102-.203.305-.305.305zm-29.982 1.935H1.728c-.204 0-.305-.102-.305-.306v-.509c0-.203.101-.305.305-.305h1.321c.203 0 .305.102.305.305v.509c0 .204-.203.306-.305.306zm2.947 0H4.675c-.203 0-.305-.102-.305-.306v-.509c0-.203.102-.305.305-.305h1.321c.204 0 .305.102.305.305v.509c0 .204-.101.306-.305.306zm3.049 0H7.623c-.204 0-.305-.102-.305-.306v-.509c0-.203.101-.305.305-.305h1.32c.204 0 .306.102.306.305v.509c.101.204-.102.306-.204.306zm14.941 0H10.672c-.204 0-.305-.102-.305-.306v-.509c0-.203.101-.305.305-.305h13.314c.203 0 .305.102.305.305v.509c0 .204-.102.306-.305.306zm3.049 0h-1.321c-.204 0-.305-.102-.305-.306v-.509c0-.203.101-.305.305-.305h1.32c.204 0 .306.102.306.305v.509c0 .204-.203.306-.305.306zm2.947 0h-1.321c-.203 0-.305-.102-.305-.306v-.509c0-.203.102-.305.305-.305h1.321c.203 0 .305.102.305.305v.509c0 .204-.102.306-.305.306zm3.049 0H31.71c-.203 0-.305-.102-.305-.306v-.509c0-.203.102-.305.305-.305h1.321c.203 0 .305.102.305.305v.509c0 .204-.203.306-.305.306zm-27.035-8.959H4.675c-.203 0-.305-.102-.305-.306v-.509c0-.204.102-.305.305-.305h1.321c.204 0 .305.101.305.305v.509c0 .102-.101.306-.305.306zm3.049 0H7.623c-.204 0-.305-.102-.305-.306v-.509c0-.204.101-.305.305-.305h1.32c.204 0 .306.101.306.305v.509c.101.102-.102.306-.204.306zm2.948 0h-1.321c-.204 0-.305-.102-.305-.306v-.509c0-.204.101-.305.305-.305h1.32c.204 0 .306.101.306.305v.509c0 .102-.102.306-.305.306zm3.049 0H13.72c-.204 0-.305-.102-.305-.306v-.509c0-.204.101-.305.305-.305h1.32c.204 0 .306.101.306.305v.509c0 .102-.203.306-.305.306zm2.948 0h-1.322c-.203 0-.305-.102-.305-.306v-.509c0-.204.102-.305.305-.305h1.321c.204 0 .305.101.305.305v.509c0 .102-.101.306-.305.306zm3.048 0h-1.321c-.203 0-.305-.102-.305-.306v-.509c0-.204.102-.305.305-.305h1.321c.203 0 .305.101.305.305v.509c0 .102-.203.306-.305.306zm2.948 0h-1.322c-.203 0-.304-.102-.304-.306v-.509c0-.204.101-.305.305-.305h1.32c.204 0 .306.101.306.305v.509c0 .102-.102.306-.305.306zm3.049 0h-1.321c-.204 0-.305-.102-.305-.306v-.509c0-.204.101-.305.305-.305h1.32c.204 0 .306.101.306.305v.509c0 .102-.203.306-.305.306zm2.947 0h-1.321c-.203 0-.305-.102-.305-.306v-.509c0-.204.102-.305.305-.305h1.321c.203 0 .305.101.305.305v.509c0 .102-.102.306-.305.306zm3.049 0H31.71c-.203 0-.305-.102-.305-.306v-.509c0-.204.102-.305.305-.305h1.321c.203 0 .305.101.305.305v.509c0 .102-.203.306-.305.306z" fill="#fff"/><path d="M337.223 95.8a4.45 4.45 0 0 0 4.472 4.48c2.44 0 4.472-2.036 4.472-4.48a4.45 4.45 0 0 0-4.472-4.48c-2.439 0-4.472 2.037-4.472 4.48z" fill="#FFC107"/><path d="M340.679 120.641h1.524v-7.534c0-1.018.814-1.832 1.83-1.832h13.721a2.736 2.736 0 0 0 2.744-2.749v-.203a2.735 2.735 0 0 0-2.744-2.749h-13.619c-.915 0-1.728-.815-1.728-1.731v-7.94h-1.423v7.838c0 1.833 1.423 3.258 3.252 3.258h13.619c.712 0 1.22.509 1.22 1.222v.203c0 .713-.508 1.222-1.22 1.222h-13.822c-1.83 0-3.354 1.527-3.354 3.36v7.635z" fill="#404142"/><path d="M341.492 86.332v2.647m-4.065-.203l.711 1.12m-4.675 1.221l2.236 1.222m-2.135 3.461l1.22-.102m-1.22 4.684l2.236-1.324m1.83 3.563l.711-1.119m7.318.61l-.711-.814m4.675-1.426l-2.236-1.221m2.032-3.461l-1.321.101m1.118-4.683l-2.134 1.425m-2.134-3.563l-.509 1.222" stroke="#673AB7" stroke-width="1.5" stroke-miterlimit="10" stroke-linecap="round"/><path d="M341.492 131.433c3.557 0 6.403-3.055 6.2-6.618l-.508-7.432c-.102-1.425-1.322-2.545-2.643-2.545h-5.996c-1.423 0-2.541 1.12-2.643 2.545l-.508 7.432c-.407 3.563 2.439 6.618 6.098 6.618z" fill="#ECECEC"/><path d="M335.292 124.713l.509-7.432c0-.509.203-1.018.508-1.425l-.508 7.228c-.204 3.564 2.642 6.618 6.199 6.618a6.271 6.271 0 0 0 5.59-3.462c-.508 2.851-3.049 4.989-6.098 4.989-3.659.204-6.504-2.851-6.2-6.516z" fill="#D8D8D8"/><path d="M344.44 114.838c1.422 0 2.54 1.12 2.642 2.545l.305 4.582h-11.993l.305-4.582c.102-1.425 1.321-2.545 2.642-2.545h6.099z" fill="#D8D8D8"/><path d="M344.439 114.838c1.423 0 2.541 1.12 2.643 2.545l.305 4.582h-5.997v-7.025h3.049v-.102z" fill="#ECECEC"/><path d="M292.708 6.72c-.204-.204-.407-.408-.712-.51-.305-.102-.508-.203-.915-.203-.406 0-.609.101-.914.203-.305.102-.509.306-.712.51a7.54 7.54 0 0 0-.508.61V1.018A1.02 1.02 0 0 1 289.963 0h18.701c.712 0 1.321.61 1.321 1.323s-.609 1.324-1.321 1.324h-2.134a.912.912 0 0 0-.915.916c0 .51.407.916.915.916h1.219c.712 0 1.322.611 1.322 1.324 0 .713-.61 1.323-1.322 1.323h-7.622a.912.912 0 0 0-.915.917c0 .509.407.916.915.916h4.472c.711 0 1.321.61 1.321 1.324 0 .712-.61 1.323-1.321 1.323h-1.017a.911.911 0 0 0-.914.916c0 .51.406.916.914.916h5.082c.712 0 1.321.611 1.321 1.324 0 .713-.609 1.323-1.321 1.323h-18.701a1.02 1.02 0 0 1-1.016-1.018v-5.7l.508.508c.203.204.407.408.712.51.305.101.508.203.914.203.305 0 .61-.102.915-.204.305-.101.508-.305.712-.509.203-.203.406-.407.508-.712.101-.306.203-.51.203-.917 0-.305-.102-.61-.203-.916-.102-.102-.305-.407-.508-.61z" fill="#14D1BA"/><path d="M307.953 11.911h1.423a1.13 1.13 0 0 0 1.118-1.12v-.508a1.13 1.13 0 0 0-1.118-1.12h-1.423c-.61 0-1.118.509-1.118 1.12v.508c0 .713.508 1.12 1.118 1.12z" fill="#14D1BA"/><path d="M267.197 2.749h2.643a1.13 1.13 0 0 0 1.118-1.12v-.51A1.13 1.13 0 0 0 269.84 0h-2.643c-.61 0-1.118.509-1.118 1.12v.509c0 .61.508 1.12 1.118 1.12z" fill="#FFC107"/><path d="M271.568 1.425c0-.814.609-1.425 1.422-1.425h9.859a1.02 1.02 0 0 1 1.016 1.018v6.414c.102-.306.305-.51.508-.713.204-.203.407-.407.712-.509.305-.102.508-.203.915-.203.305 0 .609.101.914.203.305.102.508.306.712.51.203.203.406.406.508.712.102.305.203.509.203.916 0 .306-.101.611-.203.916-.102.306-.305.51-.508.713-.204.204-.407.407-.712.51-.305.1-.508.203-.914.203-.305 0-.61-.102-.915-.204-.305-.102-.508-.305-.712-.509-.203-.204-.406-.407-.508-.713v6.312c0 .51-.406 1.018-1.016 1.018h-13.314c-.813 0-1.423-.61-1.423-1.425 0-.814.61-1.425 1.423-1.425h1.219a.911.911 0 0 0 .915-.916.911.911 0 0 0-.915-.917h-4.167c-.813 0-1.422-.61-1.422-1.425 0-.814.609-1.425 1.422-1.425h4.676a.911.911 0 0 0 .914-.916.911.911 0 0 0-.914-.917h-3.659c-.813 0-1.423-.61-1.423-1.425 0-.814.61-1.425 1.423-1.425h6.606a.912.912 0 0 0 .915-.917.912.912 0 0 0-.915-.916h-1.22c-.813.204-1.422-.407-1.422-1.12z" fill="#FFC107"/><path d="M117.49 15.576v3.055h-9.046c.203-2.546-1.219-4.989-3.557-5.905-3.354-1.324-7.013.712-7.724 4.276-.102.407-.102 1.018-.102 1.527h-9.045v-2.953c0-.61.508-1.12 1.118-1.12h2.54c.407 0 .712-.203.915-.61.102-.204.203-.51.305-.713.203-.407.102-.814-.203-1.018l-1.728-1.73c-.406-.408-.406-1.222 0-1.63l2.846-2.85c.406-.407 1.22-.407 1.626 0l1.728 1.73c.305.306.711.306 1.118.204.203-.102.508-.203.711-.305.407-.102.61-.51.61-.917V4.174c0-.61.508-1.12 1.118-1.12h4.065c.61 0 1.118.51 1.118 1.12V6.72c0 .407.204.713.61.917.203.101.508.203.712.305.406.204.813.102 1.016-.204l1.728-1.73c.406-.408 1.219-.408 1.626 0l2.846 2.85c.406.407.406 1.222 0 1.63l-1.728 1.73c-.305.305-.305.713-.203 1.12.101.203.203.407.304.712.102.408.509.611.915.611h2.439c.813-.203 1.322.306 1.322.916zm-1.118 8.552h-2.44c-.406 0-.711.306-.914.611-.102.204-.204.51-.305.713-.204.407-.102.814.203 1.12l1.728 1.73c.406.407.406 1.222 0 1.63l-2.846 2.85c-.407.407-1.22.407-1.626 0l-1.728-1.731c-.305-.305-.711-.407-1.016-.204-.204.102-.508.204-.712.306-.406.102-.61.509-.61.916v2.545c0 .611-.508 1.12-1.118 1.12h-4.065c-.61 0-1.118-.509-1.118-1.12v-2.443c0-.407-.305-.713-.61-.916-.203-.102-.508-.204-.711-.306-.407-.203-.813-.102-1.118.204l-1.728 1.73c-.407.408-1.22.408-1.626 0l-2.846-2.85c-.406-.407-.406-1.222 0-1.629l1.728-1.73c.305-.306.406-.713.203-1.019-.101-.203-.203-.509-.305-.712-.101-.408-.508-.611-.914-.611h-2.541a1.13 1.13 0 0 1-1.118-1.12v-2.953h9.045c0 .51 0 1.12.102 1.528.711 3.563 4.37 5.599 7.724 4.276 2.338-.917 3.862-3.36 3.557-5.905h9.046v3.054c-.203.407-.712.916-1.321.916z" fill="#14D1BA"/><path opacity=".4" d="M255.001 121.456h-7.114V74.319h-17.685a1.02 1.02 0 0 0-1.016 1.018v54.976c0 .611.508 1.018 1.016 1.018h10.062a20.748 20.748 0 0 0 14.737-6.109v-3.766z" fill="#231F20"/><path d="M263.945 131.433h-31.202c-.61 0-1.016-.509-1.016-1.018V75.439c0-.61.508-1.018 1.016-1.018h31.202c.61 0 1.016.51 1.016 1.018v54.976c.102.509-.406 1.018-1.016 1.018z" fill="#ECECEC"/><path d="M261.912 83.278h-27.035v39.298h27.035V83.278z" fill="#14D1BA"/><path d="M253.68 79.206h-10.672c-.101 0-.203-.102-.203-.204v-1.12c0-.101.102-.203.203-.203h10.672c.102 0 .203.102.203.204v1.12c0 .101 0 .203-.203.203z" fill="#9E9E9E"/><path d="M250.834 126.241c0 1.323-1.118 2.443-2.439 2.443s-2.439-1.12-2.439-2.443c0-1.324 1.118-2.444 2.439-2.444s2.439 1.12 2.439 2.444z" fill="#D8D8D8"/><path d="M225.019 111.072c-.203 0-.305-.102-.508-.204-2.033-2.036-3.151-4.785-3.151-7.737 0-2.953 1.118-5.6 3.151-7.738.305-.305.711-.305.914 0 .305.306.305.713 0 .917-1.829 1.832-2.845 4.174-2.845 6.719s1.016 4.988 2.845 6.719c.305.305.305.713 0 .916-.101.306-.304.408-.406.408z" fill="#404142"/><path d="M227.458 109.341c-.203 0-.305-.102-.508-.204-1.626-1.629-2.541-3.767-2.541-6.006 0-2.24.915-4.378 2.541-6.007.305-.305.711-.305.915 0 .305.306.305.713 0 .916-1.321 1.324-2.135 3.156-2.135 5.091 0 1.934.712 3.767 2.135 5.09.305.305.305.713 0 .916-.102.204-.204.204-.407.204z" fill="#404142"/><path d="M229.898 107.712c-.204 0-.305-.102-.509-.204-1.219-1.221-1.829-2.749-1.829-4.377 0-1.629.61-3.258 1.829-4.378.305-.306.712-.306.915 0 .305.305.305.713 0 .916a4.85 4.85 0 0 0-1.423 3.462 4.85 4.85 0 0 0 1.423 3.461c.305.305.305.713 0 .916-.101.204-.203.204-.406.204zm41.975 3.359c.203 0 .304-.101.508-.203 2.032-2.036 3.15-4.785 3.15-7.737 0-2.953-1.118-5.6-3.15-7.738-.305-.305-.712-.305-.915 0-.305.306-.305.713 0 .916 1.829 1.833 2.846 4.175 2.846 6.72s-1.017 4.988-2.846 6.719c-.305.305-.305.713 0 .916 0 .306.203.407.407.407z" fill="#404142"/><path d="M269.332 109.341c.203 0 .305-.102.508-.204 1.626-1.629 2.541-3.767 2.541-6.006 0-2.24-.915-4.378-2.541-6.007-.305-.305-.711-.305-.915 0-.304.306-.304.713 0 .916 1.322 1.324 2.135 3.156 2.135 5.091 0 1.934-.712 3.767-2.135 5.09-.304.305-.304.713 0 .916.102.204.305.204.407.204z" fill="#404142"/><path d="M266.893 107.712c.203 0 .304-.102.508-.204 1.219-1.221 1.829-2.749 1.829-4.377 0-1.629-.61-3.258-1.829-4.378-.305-.306-.712-.306-.915 0-.203.305-.305.713 0 .916a4.85 4.85 0 0 1 1.423 3.462 4.85 4.85 0 0 1-1.423 3.461c-.305.305-.305.713 0 .916.102.204.305.204.407.204z" fill="#404142"/><path opacity=".4" d="M144.728 131.025v-.916h2.744c.61 0 1.016-.509 1.016-1.018V92.135a1.02 1.02 0 0 0-1.016-1.018H125.62v30.338h-7.114v3.869c2.134 2.138 4.777 3.767 7.622 4.785h12.095v.916c0 .204.203.408.406.408h5.794c.203 0 .305-.204.305-.408z" fill="#231F20"/><path d="M192.902 50.19h-12.907v16.9h12.907v-16.9z" fill="#14D1BA"/><path d="M186.398 80.326l16.668-13.337h-33.235l16.567 13.337z" fill="#14D1BA"/><path d="M252.053 114.736h-7.216v-11.911h7.216v11.911zm-3.557-21.278l9.147 9.367h-18.395l9.248-9.367z" fill="#fff"/></svg>