<svg width="396" height="149" fill="none" xmlns="http://www.w3.org/2000/svg"><path d="M124.502 54.072l14.941 14.566v73.547c0 3.463-2.744 6.213-6.2 6.213H74.905c-3.456 0-6.2-2.75-6.2-6.213V60.387c0-3.463 2.744-6.213 6.2-6.213h49.597v-.102z" fill="#fff"/><path opacity=".35" d="M125.417 67.11l14.026 16.095V68.638l-14.026-1.528z" fill="#231F20"/><path d="M124.502 54.072l14.941 14.566h-11.892c-1.727 0-3.049-1.324-3.049-3.056v-11.51z" fill="#14D1BA"/><path d="M85.881 79.334H74.193V91.05h11.688V79.334zm48.582 2.954H91.675a.802.802 0 0 1-.813-.815V80.15c0-.407.305-.815.813-.815h42.788c.406 0 .813.306.813.815v1.324c0 .408-.407.815-.813.815zm-26.527 7.232H91.675a.803.803 0 0 1-.813-.814v-1.324c0-.408.305-.815.813-.815h16.261c.407 0 .813.305.813.815v1.324c-.101.51-.406.815-.813.815zm26.527 15.79H91.675a.803.803 0 0 1-.813-.815v-1.324c0-.408.305-.815.813-.815h42.788c.406 0 .813.305.813.815v1.324a.803.803 0 0 1-.813.815zm-26.527 7.334H91.675a.803.803 0 0 1-.813-.815v-1.324c0-.408.305-.815.813-.815h16.261c.407 0 .813.305.813.815v1.324c-.101.407-.406.815-.813.815zm26.527 15.789H91.675a.803.803 0 0 1-.813-.815v-1.324c0-.408.305-.815.813-.815h42.788c.406 0 .813.305.813.815v1.324c0 .407-.407.815-.813.815zm-26.527 7.232H91.675a.802.802 0 0 1-.813-.814v-1.325c0-.407.305-.815.813-.815h16.261c.407 0 .813.306.813.815v1.325c-.101.509-.406.814-.813.814zm-22.055-34.022H74.193v11.714h11.688v-11.714zm0 22.308H74.193v11.714h11.688v-11.714z" fill="#E6E8E7"/><path d="M80.291 89.724l-5.996-6.01 2.033-2.037 3.963 3.973L90.76 75.158l2.032 2.139-12.5 12.427zm0 21.698l-5.996-6.01 2.033-2.038 3.963 3.871 10.469-10.39 2.032 2.037-12.5 12.53zm0 21.697l-5.996-6.01 2.033-2.14 3.963 3.973 10.469-10.39 2.032 2.037-12.5 12.53z" fill="#FFC107"/><path d="M331.227 148.5h-69.925V65.175c0-.612.508-1.223 1.22-1.223h67.587c.61 0 1.219.51 1.219 1.223V148.5h-.101z" fill="#fff"/><path d="M331.227 74.546v-8.149c0-1.324-1.118-2.445-2.439-2.445H263.64c-1.321 0-2.439 1.12-2.439 2.445v8.15h70.026z" fill="#14D1BA"/><path d="M321.571 76.481h-50.207v21.29h50.207v-21.29zm-2.134 25.569h-46.04c-1.118 0-2.135.916-2.135 2.139 0 1.12.915 2.139 2.135 2.139h46.04c1.118 0 2.135-.917 2.135-2.139 0-1.223-.915-2.139-2.135-2.139zm.203 8.964H273.6c-1.118 0-2.134.917-2.134 2.139 0 1.12.914 2.139 2.134 2.139h46.04c1.118 0 2.135-.917 2.135-2.139-.102-1.222-1.017-2.139-2.135-2.139zm.102 8.964h-45.938c-1.118 0-2.135.917-2.135 2.139 0 1.12.915 2.139 2.135 2.139h46.04c1.118 0 2.134-.917 2.134-2.139-.101-1.121-1.016-2.139-2.236-2.139zm.203 9.066h-46.04c-1.118 0-2.134.917-2.134 2.139 0 1.12.914 2.139 2.134 2.139h46.04c1.118 0 2.135-.917 2.135-2.139 0-1.222-1.017-2.139-2.135-2.139z" fill="#D8D8D8"/><path d="M269.535 69.25c0 .814-.61 1.425-1.423 1.425-.813 0-1.423-.611-1.423-1.426s.61-1.426 1.423-1.426c.711.102 1.423.713 1.423 1.426zm4.675 0c0 .814-.61 1.425-1.423 1.425-.813 0-1.423-.611-1.423-1.426s.61-1.426 1.423-1.426c.711.102 1.423.713 1.423 1.426zm4.675 0c0 .814-.61 1.425-1.423 1.425-.813 0-1.423-.611-1.423-1.426s.61-1.426 1.423-1.426c.712.102 1.423.713 1.423 1.426z" fill="#fff"/><path opacity=".2" d="M328.788 64.054h-3.049c1.321 0 2.439 1.12 2.439 2.445V148.5h3.049V66.397c0-1.325-1.118-2.343-2.439-2.343z" fill="#404142"/><path opacity=".3" d="M133.141 124.664h2.236v2.241h-2.236v-2.241zm2.236-10.798h-2.236v2.241h2.236v-2.241zm0-5.297h-2.236v2.241h2.236v-2.241zm4.066 23.735h-10.57v-65.5h8.74l-7.318-7.13h-5.285a2.519 2.519 0 0 0-2.54 2.547v75.991h16.973v-5.908zm-4.066-13.039h-2.236v2.241h2.236v-2.241zm-20.225 19.049v3.972c3.964 3.973 9.35 6.214 15.042 6.214h3.049c3.455 0 6.2-2.75 6.2-6.214v-3.463H122.47v-.407h-7.318v-.102zm20.225-40.542h-2.236v2.241h2.236v-2.242zm0-21.392h-2.236v2.241h2.236V76.38zm0-5.399h-2.236v2.343h2.236v-2.343zm0 10.798h-2.236v2.24h2.236v-2.24zm0 21.391h-2.236v2.241h2.236v-2.241zm0-10.695h-2.236v2.24h2.236v-2.24zm0-5.4h-2.236v2.242h2.236v-2.241z" fill="#231F20"/><path d="M250.936 138.721H125.519V62.323a2.52 2.52 0 0 1 2.541-2.547h120.335a2.52 2.52 0 0 1 2.541 2.547v76.398z" fill="#575C57"/><path d="M244.533 66.805H131.922v65.499h112.611v-65.5z" fill="#404142"/><path d="M258.253 142.286H118.201c3.964 3.973 9.35 6.214 15.042 6.214h109.968c5.692 0 11.079-2.241 15.042-6.214z" fill="#D8D8D8"/><path d="M258.253 138.313H118.201v3.973h140.052v-3.973z" fill="#fff"/><path d="M196.866 141.37h-17.379a1.13 1.13 0 0 1-1.118-1.121c0-.611.508-1.12 1.118-1.12h17.379c.61 0 1.118.509 1.118 1.12a1.13 1.13 0 0 1-1.118 1.121z" fill="#D8D8D8"/><path d="M138.426 70.981h-2.236v2.241h2.236v-2.24zm0 5.399h-2.236v2.241h2.236V76.38zm0 5.399h-2.236v2.24h2.236v-2.24zm0 5.297h-2.236v2.24h2.236v-2.24zm0 5.398h-2.236v2.241h2.236v-2.24zm0 5.297h-2.236v2.241h2.236v-2.24zm0 5.399h-2.236v2.241h2.236v-2.241zm0 5.399h-2.236v2.241h2.236v-2.241zm0 5.297h-2.236v2.241h2.236v-2.241zm0 5.399h-2.236v2.241h2.236v-2.241zm0 5.399h-2.236v2.241h2.236v-2.241z" fill="#14D1BA"/><path d="M161.396 72.713h-17.888c-.203 0-.305-.102-.305-.306V72c0-.204.102-.306.305-.306h17.888c.203 0 .305.102.305.306v.407c.101.102-.102.306-.305.306zm0 22.614h-17.888c-.203 0-.305-.102-.305-.306v-.407c0-.204.102-.306.305-.306h17.888c.203 0 .305.102.305.306v.407c.101.102-.102.306-.305.306z" fill="#fff"/><path d="M163.937 95.327h3.15c.204 0 .305-.102.305-.306v-.407c0-.204-.101-.306-.305-.306h-3.15c-.204 0-.305.102-.305.306v.407c-.102.102.101.306.305.306zm-7.013-19.558h-9.554c-.203 0-.305-.102-.305-.306v-.407c0-.204.102-.306.305-.306h9.554c.203 0 .305.102.305.306v.407c0 .204-.102.306-.305.306z" fill="#14D1BA"/><path d="M159.668 75.769h11.891c.204 0 .305-.102.305-.306v-.407c0-.204-.101-.306-.305-.306h-11.891c-.203 0-.305.102-.305.306v.407c0 .204.204.306.305.306z" fill="#fff"/><path d="M147.37 98.383h11.892c.203 0 .304-.102.304-.306v-.407c0-.204-.101-.306-.304-.306H147.37c-.203 0-.305.102-.305.306v.407c-.101.102.102.306.305.306z" fill="#FFC107"/><path d="M161.396 119.367h-17.888c-.203 0-.305-.102-.305-.306v-.407c0-.204.102-.306.305-.306h17.888c.203 0 .305.102.305.306v.407c.101.204-.102.306-.305.306z" fill="#fff"/><path d="M165.868 119.367h8.13c.204 0 .305-.102.305-.306v-.407c0-.204-.101-.306-.305-.306h-8.13c-.204 0-.305.102-.305.306v.407c0 .204.101.306.305.306z" fill="#FFC107"/><path d="M147.37 122.525h6.302c.203 0 .305-.102.305-.306v-.407c0-.204-.102-.306-.305-.306h-6.302c-.203 0-.305.102-.305.306v.407c-.101.102.102.306.305.306z" fill="#14D1BA"/><path d="M179.589 122.525h-21.954c-.203 0-.304-.102-.304-.306v-.407c0-.204.101-.306.304-.306h21.954c.203 0 .304.102.304.306v.407c0 .102-.101.306-.304.306zm23.68 5.5h-52.646c-.204 0-.305-.101-.305-.305v-.408c0-.203.101-.305.305-.305h52.646c.203 0 .305.102.305.305v.408c0 .102-.102.305-.305.305z" fill="#fff"/><path d="M205.099 128.025h4.675c.203 0 .305-.101.305-.305v-.408c0-.203-.102-.305-.305-.305h-4.675c-.204 0-.305.102-.305.305v.408c0 .102.203.305.305.305z" fill="#FFC107"/><path d="M211.807 128.025h26.424c.204 0 .305-.101.305-.305v-.408c0-.203-.101-.305-.305-.305h-26.424c-.204 0-.305.102-.305.305v.408c-.102.102.101.305.305.305zm-61.388-47.061h17.786c.204 0 .305-.102.305-.306v-.407c0-.204-.101-.306-.305-.306h-17.786c-.203 0-.304.102-.304.306v.407c0 .204.101.306.304.306zm0 23.938h17.786c.204 0 .305-.102.305-.306v-.407c0-.204-.101-.306-.305-.306h-17.786c-.203 0-.304.102-.304.306v.407c0 .102.101.306.304.306zm.204 3.565h34.454c.203 0 .305-.102.305-.305v-.408c0-.203-.102-.305-.305-.305h-34.454c-.204 0-.305.102-.305.305v.408c0 .203.101.305.305.305zm44.82 0h-8.435c-.204 0-.305-.102-.305-.305v-.408c0-.203.101-.305.305-.305h8.435c.203 0 .305.102.305.305v.408c0 .203-.102.305-.305.305zm2.44 0h25.307c.203 0 .305-.102.305-.305v-.408c0-.203-.102-.305-.305-.305h-25.307c-.203 0-.305.102-.305.305v.408c0 .203.102.305.305.305z" fill="#fff"/><path d="M150.623 112.135h8.537c.203 0 .305-.102.305-.306v-.407c0-.204-.102-.306-.305-.306h-8.537c-.204 0-.305.102-.305.306v.407c0 .102.101.306.305.306z" fill="#14D1BA"/><path d="M162.107 112.135h11.282c.203 0 .305-.102.305-.306v-.407c0-.204-.102-.306-.305-.306h-11.282c-.203 0-.305.102-.305.306v.407c0 .102.102.306.305.306zm18.904-7.233h-10.265c-.203 0-.305-.102-.305-.306v-.407c0-.204.102-.306.305-.306h10.265c.204 0 .305.102.305.306v.407c0 .102-.203.306-.305.306zm2.44 0h4.573c.203 0 .305-.102.305-.306v-.407c0-.204-.102-.306-.305-.306h-4.573c-.204 0-.305.102-.305.306v.407c0 .102.101.306.305.306z" fill="#fff"/><path d="M200.423 104.902h-9.35c-.203 0-.305-.102-.305-.306v-.407c0-.204.102-.306.305-.306h9.35c.204 0 .305.102.305.306v.407c0 .102-.101.306-.305.306z" fill="#FFC107"/><path d="M205.099 104.902h33.844c.203 0 .305-.102.305-.306v-.407c0-.204-.102-.306-.305-.306h-33.844c-.204 0-.305.102-.305.306v.407c0 .102.203.306.305.306zm-54.68-20.373h32.117c.203 0 .305-.102.305-.306v-.407c0-.204-.102-.306-.305-.306h-32.117c-.203 0-.304.102-.304.306v.407c0 .204.101.306.304.306zm52.85 0h-17.481c-.203 0-.305-.102-.305-.306v-.407c0-.204.102-.306.305-.306h17.481c.203 0 .305.102.305.306v.407c0 .204-.203.306-.305.306z" fill="#fff"/><path d="M173.998 80.964h-2.642c-.203 0-.305-.102-.305-.306v-.407c0-.204.102-.306.305-.306h2.642c.204 0 .305.102.305.306v.407c0 .204-.101.306-.305.306z" fill="#FFC107"/><path d="M177.048 80.964h20.428c.203 0 .305-.102.305-.306v-.407c0-.204-.102-.306-.305-.306h-20.428c-.204 0-.305.102-.305.306v.407c-.102.204.101.306.305.306zm-26.629 6.723h10.977c.203 0 .305-.102.305-.305v-.408c0-.204-.102-.306-.305-.306h-10.977c-.203 0-.304.102-.304.306v.408c0 .101.101.305.304.305z" fill="#fff"/><path d="M178.165 87.687H164.75c-.204 0-.305-.102-.305-.305v-.408c0-.204.101-.306.305-.306h13.415c.204 0 .305.102.305.306v.408c0 .101-.101.305-.305.305z" fill="#FFC107"/><path d="M180.808 87.687h33.641c.203 0 .305-.102.305-.305v-.408c0-.204-.102-.306-.305-.306h-33.641c-.203 0-.305.102-.305.306v.408c0 .101.102.305.305.305zm38.011-6.723h-18.192c-.204 0-.305-.102-.305-.306v-.407c0-.204.101-.306.305-.306h18.192c.203 0 .305.102.305.306v.407c0 .204-.203.306-.305.306z" fill="#fff"/><path d="M221.259 80.964h14.33c.203 0 .305-.102.305-.306v-.407c0-.204-.102-.306-.305-.306h-14.33c-.204 0-.305.102-.305.306v.407c0 .204.101.306.305.306z" fill="#14D1BA"/><path opacity=".4" d="M216.583 30.235c-.61 0-1.118.102-1.728.306-.406-4.482-4.268-8.047-8.842-8.047-3.964 0-7.216 2.546-8.435 6.112a6.591 6.591 0 0 0-3.151-.815c-3.252 0-5.997 2.343-6.606 5.399h-13.01c-1.829 0-3.353 1.527-3.353 3.361v33.921a3.648 3.648 0 0 0 3.658 3.667h33.641c1.83 0 3.354-1.528 3.354-3.361V41.236h4.371a5.471 5.471 0 0 0 5.488-5.5c.101-3.057-2.338-5.502-5.387-5.502z" fill="#231F20"/><path d="M208.452 71.592h-33.336a3.648 3.648 0 0 1-3.658-3.667V34.31a3.647 3.647 0 0 1 3.658-3.667h33.336a3.648 3.648 0 0 1 3.659 3.667v33.615a3.648 3.648 0 0 1-3.659 3.667z" fill="#fff"/><path d="M171.356 37.264h40.755v-3.26c0-1.833-1.524-3.361-3.354-3.361h-33.946c-1.829 0-3.354 1.528-3.354 3.361v3.26h-.101z" fill="#14D1BA"/><path opacity=".2" d="M208.757 30.643h-1.829c1.829 0 3.354 1.528 3.354 3.361v34.227c0 1.833-1.525 3.361-3.354 3.361h1.829c1.83 0 3.354-1.528 3.354-3.361V34.004c0-1.833-1.524-3.361-3.354-3.361z" fill="#404142"/><path d="M176.844 34.921c.393 0 .711-.32.711-.713a.712.712 0 1 0-.711.713zm2.947 0a.713.713 0 1 0-.001-1.425.713.713 0 0 0 .001 1.425zm3.761-.713a.695.695 0 0 1-.711.713.696.696 0 0 1-.712-.713c0-.407.305-.713.712-.713.406 0 .711.306.711.713z" fill="#fff"/><path opacity=".1" d="M171.356 59.98v7.538c0 2.24 1.829 4.176 4.167 4.176h9.248l9.046-8.25-8.842-16.605-13.619 13.14z" fill="#404142"/><path d="M199.508 55.6h2.135a.803.803 0 0 0 .813-.815v-2.75c0-.408-.305-.816-.813-.816h-1.627c-.304 0-.508-.203-.609-.407-.102-.204-.102-.305-.204-.51-.101-.203-.101-.509.102-.712l1.22-1.223a.8.8 0 0 0 0-1.12l-1.931-1.936a.796.796 0 0 0-1.118 0l-1.22 1.223c-.203.203-.508.203-.711.102-.204-.102-.305-.102-.509-.204-.203-.102-.406-.306-.406-.611v-1.732a.803.803 0 0 0-.813-.815h-2.744a.802.802 0 0 0-.813.815v1.63c0 .306-.204.51-.407.611-.203.102-.305.102-.508.204s-.508.102-.712-.102l-1.219-1.223a.796.796 0 0 0-1.118 0l-1.931 1.936a.8.8 0 0 0 0 1.12l1.219 1.223c.204.204.204.51.102.713-.102.204-.102.306-.203.51-.102.203-.305.407-.61.407h-1.728a.803.803 0 0 0-.813.815v2.75c0 .407.305.815.813.815h1.626c.305 0 .508.204.61.407.102.204.102.306.203.51.102.203.102.509-.101.713l-1.22 1.222a.8.8 0 0 0 0 1.12l1.931 1.936a.796.796 0 0 0 1.118 0l1.22-1.222c.203-.204.508-.204.711-.102.203.102.305.102.508.203.204.102.407.306.407.612v1.731c0 .408.305.815.813.815h2.744a.802.802 0 0 0 .813-.815v-1.63c0-.305.203-.509.407-.61.203-.102.305-.102.508-.204s.508-.102.711.102l1.22 1.222a.796.796 0 0 0 1.118 0l1.931-1.936a.8.8 0 0 0 0-1.12l-1.22-1.222c-.203-.204-.203-.51-.101-.713.203-.408.406-.917.406-.917zm-10.875-2.852c.407-2.445 2.948-3.77 5.184-2.955 1.728.612 2.744 2.547 2.439 4.279-.407 2.444-2.947 3.769-5.183 2.954-1.728-.611-2.745-2.445-2.44-4.279z" fill="#14D1BA"/><path opacity=".2" d="M212.111 35.023a4.343 4.343 0 0 0-4.37-4.38h-20.835c-.305.815-.509 1.63-.509 2.546a6.709 6.709 0 0 0 6.708 6.724h18.803v-4.89h.203z" fill="#404142"/><path d="M216.583 27.689c-.61 0-1.118.102-1.728.305-.406-4.482-4.268-8.047-8.842-8.047-3.964 0-7.216 2.547-8.435 6.112a6.591 6.591 0 0 0-3.151-.815c-3.761 0-6.708 3.056-6.708 6.723s3.049 6.723 6.708 6.723h22.055a5.471 5.471 0 0 0 5.488-5.5c.101-3.056-2.338-5.501-5.387-5.501z" fill="#FFC107"/><path opacity=".3" d="M71.347 142.694V66.193l-2.642-6.519c0 .204-.102.51-.102.713v81.899c0 .612.102 1.121.204 1.63h1.22c.812 0 1.32-.611 1.32-1.222z" fill="#212121"/><path d="M69.315 66.193H61.59v71.917h7.724V66.193z" fill="#FFA000"/><path d="M69.315 139.943H61.59v2.751c0 .611.508 1.222 1.22 1.222h5.386c.61 0 1.22-.509 1.22-1.222v-2.751h-.102z" fill="#12D5A9"/><path d="M69.315 138.008H61.59v1.834h7.724v-1.834z" fill="#212121"/><path d="M65.453 66.193H61.59v71.917h3.862V66.193z" fill="#FFCD39"/><path d="M65.148 57.127l-3.557 8.964h7.724l-3.557-8.964c-.102-.203-.509-.203-.61 0z" fill="#F1F2F2"/><path d="M65.351 56.618l-.915 2.445h2.033l-.914-2.445c0-.102-.102-.102-.204 0z" fill="#212121"/><path d="M120.437 131.998v15.382c0 .611-.508 1.018-1.016 1.018H19.412a1.02 1.02 0 0 1-1.016-1.018v-15.382a1.02 1.02 0 0 1 1.016-1.018h100.009c.508 0 1.016.509 1.016 1.018z" fill="#FFC107"/><path d="M120.437 134.239v6.112H18.396v-6.112c0-1.833 1.423-3.259 3.252-3.259h95.537c1.829 0 3.252 1.528 3.252 3.259z" fill="#FFDA6A"/><path d="M25.206 130.98h-1.118v2.139h1.118v-2.139zm4.574 0h-1.12v2.139h1.118v-2.139zm4.471 0h-1.118v2.139h1.118v-2.139zm4.574 0h-1.119v2.139h1.118v-2.139zm4.471 0H42.18v4.38h1.117v-4.38zm4.574 0h-1.118v2.139h1.118v-2.139zm4.573 0h-1.118v2.139h1.118v-2.139zm4.472 0h-1.118v2.139h1.118v-2.139zm4.575 0h-1.12v2.139h1.118v-2.139zm4.573 0h-1.118v4.38h1.118v-4.38zm4.471 0h-1.118v2.139h1.118v-2.139zm4.574 0H73.99v2.139h1.118v-2.139zm4.472 0h-1.118v2.139h1.118v-2.139zm4.573 0h-1.118v2.139h1.118v-2.139zm4.574 0H87.61v4.38h1.118v-4.38zm4.472 0h-1.118v2.139H93.2v-2.139zm4.573 0h-1.118v2.139h1.118v-2.139zm4.472 0h-1.118v2.139h1.118v-2.139zm4.574 0H105.7v2.139h1.118v-2.139zm4.573 0h-1.118v4.38h1.118v-4.38zm4.472 0h-1.118v2.139h1.118v-2.139z" fill="#404142"/><path opacity=".3" d="M36.69 130.98H19.412a1.02 1.02 0 0 0-1.016 1.018v15.382a1.02 1.02 0 0 0 1.016 1.018h11.485v-3.87c3.456-3.668 5.488-8.455 5.793-13.548z" fill="#231F20"/><path d="M16.973 121.811a3.864 3.864 0 0 0-3.862-3.87h-.915a1.932 1.932 0 0 1-1.931-1.936c0-1.019.813-1.935 1.931-1.935h4.574v-2.343c0-1.121.914-1.936 1.93-1.936a2.259 2.259 0 0 0 2.237-2.241c0-1.222-1.017-2.241-2.236-2.241H7.927c-1.32 0-2.337-1.018-2.337-2.343 0-1.324 1.016-2.342 2.337-2.342h37.707c1.321 0 2.44 1.12 2.44 2.444 0 1.325-1.119 2.445-2.44 2.445H39.84a4.56 4.56 0 0 1-4.574 4.584H33.03c-1.321 0-2.44 1.12-2.44 2.445 0 1.324 1.119 2.444 2.44 2.444h1.626c1.22 0 2.236 1.019 2.236 2.241a2.258 2.258 0 0 1-2.236 2.241h-7.419a2.627 2.627 0 0 0-2.642 2.649h-7.623v-.306z" fill="#FFC107"/><path d="M8.74 112.032h-6.3c-1.322 0-2.44-1.12-2.44-2.444 0-1.325 1.118-2.445 2.44-2.445h6.3c1.322 0 2.44 1.12 2.44 2.445 0 1.324-1.118 2.444-2.44 2.444zm35.166 3.362h-2.439c-1.321 0-2.44-1.121-2.44-2.445 0-1.324 1.119-2.445 2.44-2.445h2.44c1.32 0 2.439 1.121 2.439 2.445 0 1.324-1.017 2.445-2.44 2.445z" fill="#FFC107"/><path d="M34.76 121.811H9.146v7.844c0 5.501 2.033 10.899 5.793 14.974v3.871h13.924v-3.871c3.76-4.075 5.793-9.473 5.793-14.974v-7.844h.102z" fill="#14D1BA"/><path d="M29.474 121.811v7.844c0 5.501-2.032 10.899-5.793 14.974v3.871h3.05v-3.871c3.76-4.075 5.792-9.473 5.792-14.974v-7.844h-3.049z" fill="#72E3D5"/><path d="M11.891 138.008H7.724c-3.862 0-6.91-3.158-6.91-6.927 0-3.871 3.15-6.927 6.91-6.927h2.745v2.954H7.724c-2.236 0-3.963 1.834-3.963 3.973a3.973 3.973 0 0 0 3.963 3.973h4.167v2.954z" fill="#14D1BA"/><path d="M366.901 148.5h-32.32a2.041 2.041 0 0 1-2.033-2.037V88.196c0-1.12.915-2.037 2.033-2.037h32.32c1.118 0 2.033.917 2.033 2.037v58.165c0 1.222-.915 2.139-2.033 2.139z" fill="#404142"/><path d="M365.58 95.836h-28.153v42.885h28.153V95.836z" fill="#FFC107"/><path d="M350.131 95.836h-14.127v42.885h14.127V95.836z" fill="#14D1BA"/><path d="M353.485 142.796c0 1.426-1.219 2.648-2.642 2.648-1.423 0-2.643-1.222-2.643-2.648 0-1.426 1.22-2.649 2.643-2.649 1.423 0 2.642 1.223 2.642 2.649zm2.541-51.34h-10.773a.803.803 0 0 1-.813-.815c0-.51.406-.815.813-.815h10.773c.508 0 .813.408.813.815s-.406.815-.813.815z" fill="#231F20"/><path d="M353.282 135.869h-3.761v-11.307c3.049.305 6.098-1.528 7.216-4.482 1.626-4.177-.914-8.761-5.285-9.575-.508-.102-1.321-.102-1.931-.102V99.198h3.659c.813 0 1.423.61 1.423 1.426v3.157c0 .51.305.917.711 1.121.305.102.61.204.915.407.407.204.915.102 1.321-.305l2.135-2.241c.61-.611 1.423-.611 2.032 0l3.558 3.565c.609.611.609 1.426 0 2.037l-2.135 2.14c-.406.407-.406.916-.203 1.324.102.305.305.611.407.917.203.509.609.814 1.118.814h3.049c.813 0 1.422.612 1.422 1.427v4.991c0 .815-.609 1.426-1.422 1.426h-3.151c-.508 0-.915.306-1.118.713-.102.306-.203.611-.407.917-.203.407-.101.917.204 1.324l2.236 2.241c.609.611.609 1.426 0 2.037l-3.558 3.566c-.609.611-1.422.611-2.032 0l-2.135-2.139c-.406-.408-.914-.408-1.321-.204-.305.102-.61.204-.813.305-.508.204-.813.612-.813 1.121v3.056c.102.917-.508 1.528-1.321 1.528z" fill="#14D1BA"/><path d="M391.191 112.033h2.846c.61 0 1.017-.51 1.017-1.019v-3.667a1.02 1.02 0 0 0-1.017-1.019h-2.236c-.406 0-.711-.204-.813-.611l-.305-.611c-.203-.306-.101-.713.204-1.019l1.524-1.63a1.109 1.109 0 0 0 0-1.528l-2.541-2.546a1.103 1.103 0 0 0-1.524 0l-1.626 1.63c-.204.203-.61.305-.915.203-.203-.102-.508-.203-.712-.305-.305-.102-.508-.408-.508-.815v-2.241a1.02 1.02 0 0 0-1.016-1.019h-3.659c-.61 0-1.016.51-1.016 1.019v2.24c0 .408-.204.714-.61.816l-.61.305c-.305.204-.711.102-1.016-.203l-1.626-1.528a1.104 1.104 0 0 0-1.525 0l-2.541 2.546a1.11 1.11 0 0 0 0 1.528l1.626 1.63c.204.204.305.611.204.917-.102.204-.204.509-.305.713-.102.305-.407.509-.813.509h-2.236c-.61 0-1.017.51-1.017 1.019v3.667a1.02 1.02 0 0 0 1.017 1.019h2.236c.406 0 .711.203.813.611l.305.611c.203.306.101.713-.204 1.019l-1.524 1.629a1.109 1.109 0 0 0 0 1.528l2.541 2.547a1.104 1.104 0 0 0 1.524 0l1.626-1.63c.204-.204.61-.305.915-.204.203.102.508.204.711.306.305.102.509.408.509.815v2.241a1.02 1.02 0 0 0 1.016 1.019h3.659c.61 0 1.016-.51 1.016-1.019v-2.241c0-.407.203-.713.61-.815l.61-.306c.305-.203.711-.101 1.016.204l1.626 1.528a1.103 1.103 0 0 0 1.525 0l2.541-2.546a1.11 1.11 0 0 0 0-1.528l-1.626-1.63c-.204-.204-.305-.611-.204-.917.305-.509.508-1.222.508-1.222zm-14.432-3.769c.61-3.26 3.964-4.992 6.911-3.871 2.236.917 3.659 3.361 3.253 5.704-.61 3.26-3.964 4.992-6.911 3.871-2.338-.815-3.659-3.362-3.253-5.704z" fill="#404142"/><path opacity=".4" d="M258.253 138.314h-7.317V92.169h-17.38a.802.802 0 0 0-.813.815v54.701c0 .408.305.815.813.815h9.655c5.59 0 11.079-2.241 15.042-6.214v-3.972z" fill="#231F20"/><path d="M236.097 148.5h53.053a2.258 2.258 0 0 0 2.236-2.241V92.271h-55.289a.802.802 0 0 0-.813.815v54.599c0 .408.406.815.813.815z" fill="#fff"/><path d="M285.39 140.657c1.931-.102 5.996.305 5.996 4.583V90.03a4.56 4.56 0 0 0-4.573-4.584h-1.423v55.211z" fill="#14D1BA"/><path d="M253.578 124.766c.102.305.102.713-.203 1.018l-1.626 1.63a1.109 1.109 0 0 0 0 1.528l2.642 2.649a1.105 1.105 0 0 0 1.525 0l1.626-1.63c.305-.306.711-.306 1.016-.204l.61.306c.406.102.61.509.61.815v2.342c0 .612.508 1.121 1.118 1.121h3.76c.61 0 1.118-.509 1.118-1.121v-2.342c0-.408.203-.713.61-.815.203-.102.508-.204.711-.306.305-.102.712-.102 1.017.204l1.626 1.63a1.104 1.104 0 0 0 1.524 0l2.643-2.649a1.11 1.11 0 0 0 0-1.528l-1.626-1.63c-.305-.305-.305-.713-.204-1.018l.305-.612c.102-.407.509-.611.813-.611h2.338c.61 0 1.118-.509 1.118-1.12v-3.769a1.13 1.13 0 0 0-1.118-1.121h-2.338c-.406 0-.711-.203-.813-.611-.101-.204-.203-.509-.305-.713-.101-.306-.101-.713.204-1.019l1.626-1.629a1.11 1.11 0 0 0 0-1.528l-2.643-2.649a1.104 1.104 0 0 0-1.524 0l-1.626 1.63c-.305.306-.712.306-1.017.204-.203-.102-.406-.204-.711-.306-.407-.102-.61-.509-.61-.815v-2.343c0-.611-.508-1.12-1.118-1.12h-3.76c-.61 0-1.118.509-1.118 1.12v2.343c0 .408-.204.713-.61.815-.203.102-.508.204-.712.306-.304.102-.711.102-1.016-.204l-1.626-1.63a1.105 1.105 0 0 0-1.525 0l-2.642 2.649a1.109 1.109 0 0 0 0 1.528l1.626 1.629c.305.306.305.713.203 1.019l-.305.611c-.101.408-.508.611-.813.611h-2.337c-.61 0-1.118.51-1.118 1.121v3.769c0 .611.508 1.12 1.118 1.12h2.947c.102.102.305.713.61 1.325zm11.18.713c-3.151 1.222-6.606-.713-7.216-4.075-.508-2.546 1.016-5.093 3.354-6.01 3.15-1.222 6.606.713 7.216 4.075a5.32 5.32 0 0 1-3.354 6.01z" fill="#FFC107"/><path d="M263.132 40.523a7.51 7.51 0 0 1-9.147 5.501 7.53 7.53 0 0 1-5.489-9.168 7.51 7.51 0 0 1 9.147-5.5 7.53 7.53 0 0 1 5.489 9.167z" fill="#14D1BA"/><path d="M265.774 41.236a10.382 10.382 0 0 1-12.501 7.539c-5.488-1.427-8.842-6.927-7.521-12.53a10.382 10.382 0 0 1 12.501-7.538c5.59 1.426 8.944 7.029 7.521 12.53z" stroke="#414042" stroke-miterlimit="10" stroke-dasharray="2 2"/><path d="M254.086 34.106l.305.305-1.829 1.529c-.712.61-1.22.407-1.627 0-.101-.102-.203-.306-.203-.408l.305-.204c0 .102.102.204.203.306.305.306.61.407 1.118-.102l1.728-1.426zm-.711 2.954l-1.118.407-.305-.407 3.557-1.324.406.407-1.931 3.26-.305-.408.61-1.018-.914-.917zm1.016.713l.61-.917c.101-.204.305-.407.406-.611l-.61.306-1.016.407.61.815zm.203 2.547l2.033-3.158.305.407-1.016 1.528c-.305.408-.508.815-.813 1.12.406-.203.813-.407 1.321-.509l1.728-.713.305.408-3.558 1.324-.305-.407zm2.44 1.12l-1.118.408-.305-.408 3.557-1.324.407.407-2.033 3.26-.305-.407.61-1.019-.813-.917zm1.016.713l.61-.916c.101-.204.305-.408.406-.612l-.609.306-1.017.407.61.815z" fill="#fff"/><path d="M85.678 8.742a8.451 8.451 0 0 1-4.065 11.205c-4.168 1.935-9.148.204-11.18-4.075a8.452 8.452 0 0 1 4.065-11.205c4.269-1.935 9.249-.204 11.18 4.075z" fill="#FFC107"/><path d="M87.406 7.723c2.54 5.399.203 11.816-5.184 14.261-5.386 2.445-11.79.204-14.228-5.195-2.44-5.399-.204-11.816 5.183-14.261 5.285-2.547 11.688-.204 14.229 5.195z" stroke="#414042" stroke-miterlimit="10" stroke-dasharray="1.95 1.95"/><path d="M72.974 11.594l.406-.204.813 2.241c.305.917 0 1.325-.61 1.528-.203.102-.406.102-.508.102l-.101-.407c.101 0 .203 0 .406-.102.407-.102.508-.408.305-1.019l-.711-2.139zm2.54 1.63l.102 1.222-.406.204-.102-3.769.508-.204 2.44 2.954-.509.204-.711-.917-1.322.306zm1.017-.713l-.712-.815c-.203-.204-.305-.407-.406-.51 0 .204 0 .408.102.714v1.12l1.016-.51zm2.338.611l-2.338-2.954.508-.204 1.118 1.426c.305.408.61.714.813 1.121-.101-.407-.101-.917-.101-1.426l-.102-1.834.508-.203.102 3.769-.508.305zm1.931-1.935l.101 1.222-.406.204-.102-3.77.508-.203 2.44 2.954-.509.204-.711-.917-1.322.306zm.914-.713l-.711-.815c-.204-.204-.305-.408-.407-.51 0 .204 0 .408.102.713v1.12l1.016-.508z" fill="#fff"/><path d="M143.102 34.819c-1.525 4.278-6.2 6.621-10.57 5.093-4.269-1.528-6.607-6.213-5.082-10.594 1.524-4.278 6.2-6.62 10.57-5.093 4.268 1.528 6.606 6.316 5.082 10.594z" fill="#14D1BA"/><path d="M135.276 20.15v2.955m3.557-.815l-.508 1.324m4.573-.611l-1.829 2.139m3.049 1.834l-1.118.61m3.862 2.445l-2.744.408m1.423 3.463l-1.423-.305m1.423 4.38L143 36.55m-1.017 3.464l-.914-1.12m-1.728 4.278l-1.016-2.649m-3.049 1.936v-1.426m-4.066 2.139l1.017-2.649m-3.659-.509l.915-1.019m-4.473-1.018l2.44-1.426m-2.44-2.649l1.423-.305m-2.845-3.566l2.845.51m-.203-3.565l1.22.61m.203-4.583l1.829 2.139m2.135-2.852l.508 1.324" stroke="#414042" stroke-miterlimit="10" stroke-linecap="round"/><path d="M133.548 27.587l.305.305-1.83 1.528c-.711.611-1.219.407-1.626 0-.102-.102-.203-.306-.203-.407l.305-.204c0 .102.101.204.203.305.305.306.61.408 1.118-.101l1.728-1.427zm-.712 2.953l-1.118.408-.305-.407 3.558-1.325.406.408-1.931 3.26-.305-.408.61-1.019-.915-.916zm1.017.713l.609-.916c.102-.204.305-.408.407-.611l-.61.305-1.016.408.61.814zm.203 2.446l2.033-3.158.305.407-1.017 1.528c-.305.408-.508.815-.813 1.12.407-.203.813-.407 1.321-.509l1.728-.713.305.408-3.557 1.324-.305-.407zm2.439 1.221l-1.118.408-.305-.407 3.557-1.324.407.407-1.931 3.26-.305-.408.61-1.018-.915-.917zm1.016.612l.61-.917c.102-.204.305-.407.407-.611l-.61.306-1.016.407.609.815z" fill="#fff"/><path d="M318.218 21.067c-2.948 2.445-7.318 2.038-9.757-.815-2.439-2.954-2.033-7.334.813-9.779 2.947-2.444 7.318-2.037 9.757.815 2.439 2.954 2.033 7.334-.813 9.78z" fill="#FFC107"/><path d="M312.425 11.288l.305.306-1.83 1.528c-.711.61-1.219.407-1.626 0-.102-.102-.203-.306-.203-.408l.305-.204c0 .102.101.204.203.306.305.306.61.408 1.118-.102l1.728-1.426zm-.712 3.056l-1.118.408-.304-.408 3.557-1.324.406.407-1.931 3.26-.305-.407.61-1.019-.915-.917zm1.017.611l.61-.916c.101-.204.304-.408.406-.612l-.61.306-1.016.407.61.815zm.101 2.547l2.033-3.158.305.408-1.017 1.527c-.305.408-.508.815-.813 1.121.407-.204.813-.407 1.322-.51l1.727-.712.305.407-3.557 1.324-.305-.407zm2.439 1.12l-1.118.408-.305-.408 3.558-1.324.406.408-1.931 3.26-.305-.408.61-1.019-.915-.917zm1.118.713l.61-.916c.102-.204.305-.408.407-.611l-.61.305-1.017.408.61.814z" fill="#fff"/><path d="M313.746 4.87v2.751m3.354-.815l-.407 1.325m4.269-.611l-1.728 2.036m2.846 1.732l-1.016.51m3.659 2.342l-2.643.51m1.321 3.158l-1.321-.204m1.321 4.074l-2.337-1.324m-1.017 3.26l-.813-1.019m-1.626 4.075l-.915-2.547m-2.947 1.834v-1.324m-3.862 2.037l1.016-2.547m-3.455-.407l.813-1.12m-4.167-.816l2.337-1.426m-2.439-2.546l1.423-.204m-2.744-3.464l2.744.51m-.204-3.362l1.119.611m.203-4.379l1.728 2.036m2.032-2.75l.508 1.325" stroke="#414042" stroke-miterlimit="10" stroke-linecap="round"/><path d="M54.172 59.674v15.382a3.43 3.43 0 0 1-3.456 3.463H49.09v8.353c0 .407-.508.51-.712.204l-8.842-8.557H21.242a3.43 3.43 0 0 1-3.456-3.463V59.674a3.431 3.431 0 0 1 3.456-3.463h29.474a3.43 3.43 0 0 1 3.456 3.463z" fill="#FFC107"/><path d="M50.41 63.749H33.439a.912.912 0 0 1-.915-.917c0-.51.407-.917.915-.917H50.41c.508 0 .915.407.915.917s-.407.917-.915.917zm0 4.686H33.439a.912.912 0 0 1-.915-.917c0-.51.407-.917.915-.917H50.41c.508 0 .915.407.915.917s-.407.917-.915.917zm0 4.584H39.334a.912.912 0 0 1-.915-.917c0-.51.407-.917.915-.917H50.31c.508 0 .915.407.915.917.102.509-.305.916-.813.916z" fill="#fff"/><path opacity=".3" d="M35.979 60.59H17.685v14.466a3.43 3.43 0 0 0 3.455 3.463h18.294V64.054a3.431 3.431 0 0 0-3.455-3.463z" fill="#231F20"/><path d="M9.757 64.054v15.382a3.431 3.431 0 0 0 3.456 3.463h1.626v8.455c0 .407.508.51.711.204L24.392 83h10.57a3.43 3.43 0 0 0 3.456-3.463V64.054a3.431 3.431 0 0 0-3.456-3.463H13.314c-1.93 0-3.557 1.528-3.557 3.463z" fill="#14D1BA"/><path d="M32.625 67.314H15.652a.912.912 0 0 1-.915-.917c0-.51.407-.917.915-.917h16.973c.508 0 .915.408.915.917 0 .51-.407.917-.915.917zm0 4.686H15.652a.912.912 0 0 1-.915-.917c0-.51.407-.917.915-.917h16.973c.508 0 .915.408.915.917 0 .51-.407.917-.915.917zm0 4.584H21.547a.912.912 0 0 1-.915-.917c0-.51.406-.917.915-.917h10.976c.508 0 .915.408.915.917.101.51-.305.917-.813.917z" fill="#fff"/><path opacity=".3" d="M331.227 110.606c-.813.917-1.321 2.038-1.321 3.362v.611h-6.302v-.815c0-2.75-2.337-4.889-5.081-4.686-2.44.204-4.167 2.445-4.167 4.89v.815c-2.135.611-3.659 2.445-3.659 4.787v23.735c0 2.852 2.337 5.093 5.081 5.093h15.449v-37.792zm-10.265 3.973H317.1v-.815c0-1.12 1.016-2.037 2.134-1.935 1.016.102 1.728 1.018 1.728 2.037v.713z" fill="#231F20"/><path d="M342.407 148.5h-23.58c-2.845 0-5.081-2.343-5.081-5.093v-23.633c0-2.852 2.337-5.093 5.081-5.093h23.58c2.845 0 5.081 2.343 5.081 5.093v23.633c0 2.75-2.236 5.093-5.081 5.093z" fill="#ECECEC"/><path d="M342.61 114.579h-23.884c-2.744 0-4.98 2.241-4.98 4.991v5.196h33.742v-5.196c0-2.75-2.236-4.991-4.878-4.991z" fill="#FFC107"/><path d="M321.47 119.367a2.519 2.519 0 0 1-2.541 2.546 2.519 2.519 0 0 1-2.541-2.546 2.52 2.52 0 0 1 2.541-2.547c1.321 0 2.541 1.121 2.541 2.547z" fill="#FFA000"/><path d="M320.657 119.367a1.715 1.715 0 0 1-1.728 1.731c-1.016 0-1.728-.815-1.728-1.731 0-1.019.813-1.732 1.728-1.732s1.728.815 1.728 1.732z" fill="#BF7800"/><path d="M337.02 119.367a2.519 2.519 0 0 1-2.541 2.546 2.519 2.519 0 0 1-2.541-2.546 2.52 2.52 0 0 1 2.541-2.547 2.52 2.52 0 0 1 2.541 2.547z" fill="#FFA000"/><path d="M336.207 119.367a1.715 1.715 0 0 1-1.728 1.731c-1.016 0-1.728-.815-1.728-1.731 0-1.019.814-1.732 1.728-1.732.915 0 1.728.815 1.728 1.732z" fill="#BF7800"/><path d="M334.377 119.978c-.711 0-1.422-.611-1.422-1.426v-4.686c0-2.445 1.727-4.584 4.167-4.889 2.744-.306 5.081 1.935 5.081 4.685v.815h-2.744v-.713c0-1.018-.711-1.935-1.728-2.037-1.118-.102-2.134.815-2.134 1.935v4.89c.102.815-.508 1.426-1.22 1.426zm-15.55 0c-.711 0-1.422-.611-1.422-1.426v-4.686c0-2.445 1.727-4.584 4.167-4.889 2.744-.306 5.081 1.935 5.081 4.685v.815h-2.744v-.713c0-1.018-.711-1.935-1.728-2.037-1.118-.102-2.134.815-2.134 1.935v4.89c.102.815-.508 1.426-1.22 1.426z" fill="#212121"/><path opacity=".3" d="M342.61 114.579h-2.439c2.744 0 4.98 2.241 4.98 4.991v23.939c0 2.75-2.236 4.991-4.98 4.991h2.439c2.744 0 4.98-2.241 4.98-4.991V119.57c-.102-2.75-2.338-4.991-4.98-4.991z" fill="#212121"/><path d="M326.755 134.443c.305-.408.406-.713.406-1.121 0-.407-.101-.611-.305-.916-.203-.204-.508-.408-.914-.408-.712 0-1.322.509-1.931 1.426l-1.931-1.12c.508-.815 1.016-1.325 1.626-1.732.61-.408 1.321-.611 2.337-.611.915 0 1.728.305 2.44.917.711.611 1.016 1.426 1.016 2.444 0 .51-.102 1.121-.407 1.63-.305.509-.813 1.121-1.524 1.936l-1.931 2.037h4.268v2.139h-7.622v-1.834l3.151-3.259c.609-.611 1.118-1.223 1.321-1.528zm11.688-4.279v2.038h-4.269v1.833c.305-.102.712-.102 1.118-.102 1.016 0 1.931.306 2.643.917.711.611 1.118 1.426 1.118 2.547 0 1.018-.407 1.935-1.118 2.648-.814.713-1.728 1.019-2.846 1.019-1.423 0-2.643-.51-3.659-1.63l1.22-1.732c.101.102.203.204.406.306.203.102.407.305.813.509a2.7 2.7 0 0 0 1.22.306c.406 0 .813-.102 1.118-.408.305-.203.508-.611.508-1.12 0-.51-.203-.815-.508-1.121-.305-.305-.813-.407-1.321-.407-.509 0-1.22.204-1.932.611h-1.016v-6.316h6.505v.102z" fill="#14D1BA"/><path opacity=".3" d="M127.653 146.259v-.306l5.183-4.278v-.509h.204c.305 0 .508-.204.508-.51v-.203c0-.306-.203-.51-.508-.51h-.204v-.917h.204c.305 0 .508-.203.508-.509v-.204c0-.305-.203-.509-.508-.509h-.204v-.917h.204c.305 0 .508-.203.508-.509v-.204c0-.305-.203-.509-.508-.509h-.204v-.611h-1.016V132.1c3.964-2.547 6.505-7.029 6.505-12.02 0-7.946-6.403-14.363-14.331-14.363-7.927 0-14.33 6.417-14.33 14.363 0 5.093 2.642 9.473 6.504 12.02v2.954h-1.016v.611h-.203c-.305 0-.508.204-.508.509v.204c0 .306.203.509.508.509h.203v.917h-.203c-.305 0-.508.204-.508.509v.204c0 .306.203.509.508.509h.203v.917h-.203c-.305 0-.508.204-.508.51v.203c0 .306.203.51.508.51h.203v.509l4.472 4.176v.408c0 1.222 1.016 2.139 2.134 2.139h3.761c1.219.102 2.134-.917 2.134-2.139z" fill="#231F20"/><path d="M126.027 134.137c7.914 0 14.33-6.43 14.33-14.363 0-7.932-6.416-14.363-14.33-14.363-7.915 0-14.331 6.431-14.331 14.363 0 7.933 6.416 14.363 14.331 14.363z" fill="#FFC107"/><path d="M133.852 130.063h-15.753v11.001h15.753v-11.001z" fill="#FFC107"/><path d="M134.869 141.675l-5.183 4.381h-7.826l-4.777-4.381v-6.825h17.786v6.825z" fill="#9E9E9E"/><path d="M135.072 136.786H116.88c-.305 0-.509-.204-.509-.51v-.203c0-.306.204-.51.509-.51h18.192c.305 0 .508.204.508.51v.203c0 .204-.203.51-.508.51zm0 2.139H116.88c-.305 0-.509-.204-.509-.509v-.204c0-.306.204-.509.509-.509h18.192c.305 0 .508.203.508.509v.204c0 .305-.203.509-.508.509zm0 2.241H116.88c-.305 0-.509-.204-.509-.509v-.204c0-.306.204-.509.509-.509h18.192c.305 0 .508.203.508.509v.204c0 .305-.203.509-.508.509z" fill="#C5C5C5"/><path d="M127.551 148.5h-3.76c-1.22 0-2.135-1.019-2.135-2.139v-.408h8.03v.408c0 1.12-.915 2.139-2.135 2.139z" fill="#212121"/><path d="M136.137 122.237c1.351-5.634-2.111-11.299-7.732-12.653-5.621-1.354-11.274 2.115-12.625 7.749-1.351 5.635 2.111 11.3 7.732 12.654 5.622 1.354 11.274-2.115 12.625-7.75z" fill="#FFE836"/><path d="M105.497 119.774h4.98m-1.931-4.686l2.439.713m-2.744-6.315l4.268 2.547m.813-4.992l1.728 1.732m23.681-1.732l-1.728 1.732m6.81.713l-4.371 2.547m3.964 3.055l-2.439.713m5.59 3.973h-4.98m2.236 4.788l-2.846-.713m2.846 6.213l-4.371-2.444m-.711 4.991l-1.728-1.731m-23.681 1.731l1.728-1.731m-6.809-.714l4.268-2.546m-3.76-3.158l2.236-.611" stroke="#FFC107" stroke-miterlimit="10" stroke-linecap="round"/><path d="M126.23 127.923h-.915v6.825h.915v-6.825z" fill="#212121"/><path d="M133.243 121.404c-1.118 4.89-7.419 7.538-7.419 7.538s-4.472-5.195-3.354-10.085c1.118-4.889 7.419-7.538 7.419-7.538s4.472 5.196 3.354 10.085z" fill="#14D1BA"/><path d="M126.738 128.535c1.017-1.325 3.862-5.603 2.846-9.677-.508-2.14-2.033-3.871-3.557-5.094-1.525 1.223-3.049 2.954-3.557 5.195-.915 4.075 2.032 8.353 3.049 9.678l.609.305c.102-.204.305-.305.61-.407z" fill="#0F9C88"/><path d="M129.076 118.857c1.219 4.89-3.253 10.085-3.253 10.085s-6.301-2.648-7.52-7.538c-1.22-4.889 3.252-10.085 3.252-10.085s6.301 2.649 7.521 7.538z" fill="#14D1BA"/><path d="M121.555 111.319s6.301 2.649 7.521 7.538c1.219 4.89-3.253 10.085-3.253 10.085l-4.268-17.623z" fill="#43DAC7"/></svg>