<svg width="365" height="134" fill="none" xmlns="http://www.w3.org/2000/svg"><path d="M363.725 132.731h1.117c0-8.943-7.313-16.261-16.251-16.261-8.939 0-16.252 7.318-16.252 16.261h1.118c0-2.642.711-5.081 1.828-7.216v.407h4.571c-.508 2.236-.711 4.472-.711 6.911h1.117c0-2.338.305-4.675.812-6.911h7.11v6.911h1.118v-7.013h7.414c.508 2.236.813 4.472.813 6.911h1.117c0-2.337-.305-4.675-.711-6.911h4.266c.914 2.033 1.524 4.37 1.524 6.911zm-27.932-8.029c1.523-2.541 3.859-4.573 6.602-5.793-.914 1.728-1.727 3.659-2.235 5.793h-4.367zm5.485 0c.609-2.337 1.523-4.472 2.742-6.403 1.32-.406 2.641-.609 4.063-.711v7.114h-6.805zm7.82 0v-7.114c1.626.102 3.149.407 4.571.915 1.117 1.829 2.032 3.963 2.641 6.199h-7.212zm8.329 0c-.508-1.931-1.219-3.862-2.031-5.488 2.438 1.22 4.571 3.151 5.992 5.488h-3.961z" fill="#14D1BA"/><path d="M361.287 100.717c0-7.012-5.688-12.704-12.696-12.704-7.009 0-12.696 5.692-12.696 12.704 0 2.338.609 4.472 1.726 6.301l11.173 14.737 10.766-14.737c1.016-1.829 1.727-3.963 1.727-6.301zm-12.696 8.639a8.63 8.63 0 0 1-8.634-8.639 8.63 8.63 0 0 1 8.634-8.638 8.628 8.628 0 0 1 8.633 8.638 8.628 8.628 0 0 1-8.633 8.639z" fill="#FFC107"/><path d="M358.646 100.717c0-5.59-4.469-10.061-10.055-10.061a10.017 10.017 0 0 0-10.056 10.061c0 5.59 4.469 10.062 10.056 10.062 5.484 0 10.055-4.472 10.055-10.062zm-10.055 8.639a8.63 8.63 0 0 1-8.634-8.639 8.63 8.63 0 0 1 8.634-8.639 8.629 8.629 0 0 1 8.633 8.639 8.629 8.629 0 0 1-8.633 8.639z" fill="#FFA000"/><path d="M27.22 132.731H1.017A1.018 1.018 0 0 1 0 131.715v-15.346c0-.508.508-1.017 1.016-1.017h26.307c.609 0 1.015.509 1.015 1.017v15.346c-.101.508-.508 1.016-1.117 1.016z" fill="#43DAC7"/><path d="M0 123.991v6.911c0 .915.813 1.728 1.727 1.728H26.61c.915 0 1.727-.813 1.727-1.728v-6.911H0z" fill="#14D1BA"/><path d="M17.775 124.601l-7.415 4.269c-.406.203-.914-.102-.914-.508v-8.639c0-.508.508-.813.914-.508l7.415 4.268c.406.203.406.813 0 1.118l-7.415 4.269c-.406.203-.914-.102-.914-.508v-8.639c0-.508.508-.813.914-.508l7.415 4.268c.406.203.406.813 0 1.118zm73.74-77.647L76.788 61.183v71.549h69.576V52.849a5.897 5.897 0 0 0-5.892-5.895H91.515z" fill="#fff"/><path opacity=".35" d="M90.703 59.658L76.889 75.513v-14.33l13.814-1.525z" fill="#231F20"/><path d="M91.515 46.954L76.788 61.183h10.766c2.133 0 3.961-1.728 3.961-3.964V46.954z" fill="#14D1BA"/><path d="M136.105 75.513h-34.128c-.812 0-1.523-.712-1.523-1.525s.711-1.524 1.523-1.524h34.128c.812 0 1.523.711 1.523 1.524 0 .813-.609 1.525-1.523 1.525zm0 6.707h-34.128c-.812 0-1.523-.71-1.523-1.524 0-.813.711-1.524 1.523-1.524h34.128c.812 0 1.523.711 1.523 1.524 0 .813-.609 1.525-1.523 1.525zm0 6.606H87.859c-.813 0-1.524-.71-1.524-1.524 0-.813.711-1.524 1.524-1.524h48.246c.813 0 1.524.711 1.524 1.524 0 .915-.61 1.524-1.524 1.524zm0 6.708H87.859c-.813 0-1.524-.711-1.524-1.524 0-.813.711-1.525 1.524-1.525h48.246c.813 0 1.524.712 1.524 1.525 0 .914-.61 1.524-1.524 1.524zm0 6.708H87.859c-.813 0-1.524-.711-1.524-1.524 0-.814.711-1.525 1.524-1.525h48.246c.813 0 1.524.712 1.524 1.525s-.61 1.524-1.524 1.524z" fill="#D8D8D8"/><path d="M94.461 82.017l-.914-2.033h-3.961l-.914 2.033h-2.337l4.165-9.553h2.031l4.165 9.553H94.46zm-2.945-6.708l-1.22 2.744h2.438l-1.218-2.744z" fill="#14D1BA"/><path d="M137.121 124.398H86.843c-.304 0-.508-.204-.508-.508v-18.701c0-.305.204-.508.508-.508h50.278c.304 0 .508.203.508.508v18.701c0 .304-.204.508-.508.508z" fill="#FFC107"/><path opacity=".4" d="M144.84 48.783v2.541h-18.588c-.711 0-1.32.61-1.32 1.322v70.837h-6.704v3.659c3.657 3.659 8.634 5.691 13.814 5.691h14.321V52.849c0-1.626-.609-3.05-1.523-4.066z" fill="#231F20"/><path d="M243.77 123.788H128.588V52.645c0-.711.61-1.32 1.321-1.32h112.642c.711 0 1.32.609 1.32 1.32v71.143h-.101z" fill="#373737"/><path d="M237.878 57.829H134.479v60.064h103.399V57.829z" fill="#FFC107"/><path d="M250.473 127.04H121.885c3.656 3.659 8.633 5.692 13.813 5.692H236.66c5.18 0 10.157-2.033 13.813-5.692z" fill="#D8D8D8"/><path d="M250.473 123.381H121.885v3.659h128.588v-3.659z" fill="#ECECEC"/><path d="M194.101 126.125h-15.946a1.018 1.018 0 0 1-1.016-1.016c0-.508.406-1.016 1.016-1.016h15.946c.508 0 1.016.406 1.016 1.016s-.508 1.016-1.016 1.016z" fill="#D8D8D8"/><path opacity=".3" d="M224.268 117.792h-75.67l-7.11-66.366h89.382l-6.602 66.366z" fill="#231F20"/><path d="M223.963 117.792h-75.568V4.37c0-2.236 4.773-3.963 7.008-3.963h64.599c2.234 0 3.961 1.727 3.961 3.963v113.422z" fill="#fff"/><path d="M223.963 5.793h-75.568v-1.83c0-2.235 1.726-3.963 3.961-3.963h67.646c2.234 0 3.961 1.728 3.961 3.964v1.829z" fill="#14D1BA"/><path d="M157.434 3.252a.695.695 0 0 1-.711.712.695.695 0 0 1-.711-.712c0-.406.305-.711.711-.711.406 0 .711.305.711.711zm2.844 0a.694.694 0 0 1-.711.712.695.695 0 0 1-.711-.712c0-.406.305-.711.711-.711.305-.102.711.305.711.711zm2.743 0a.695.695 0 0 1-.711.712.694.694 0 0 1-.711-.712c0-.406.304-.711.711-.711.406-.102.711.305.711.711z" fill="#fff"/><path d="M223.963 5.793h-75.568v4.675h75.568V5.793z" fill="#E6E8E7"/><path d="M213.197 7.42h-48.754v1.727h48.754V7.419z" fill="#FFFFFE"/><path d="M214.212 44.413H183.03v8.233h31.182v-8.233z" fill="#F1F2F2"/><path d="M214.212 93.095H183.03v22.562h31.182V93.095z" fill="#14D1BA"/><path d="M178.967 109.966h-19.196v5.691h19.196v-5.691z" fill="#E6E8E7"/><path d="M214.212 66.264H183.03v4.065h31.182v-4.065z" fill="#F1F2F2"/><path d="M210.759 67.687h-20.924v1.321h20.924v-1.321z" fill="#FFFFFE"/><path d="M214.212 15.753h-55.457v21.241h55.457V15.753z" fill="#FFC107"/><path d="M223.963 10.468h-75.568v5.183h75.568v-5.183z" fill="#14D1BA"/><path d="M168.099 13.619h-7.313c-.305 0-.508-.203-.508-.508s.203-.509.508-.509h7.313c.305 0 .508.204.508.509 0 .305-.203.508-.508.508zm12.189 0h-8.837c-.304 0-.508-.203-.508-.508s.204-.509.508-.509h8.837c.305 0 .508.204.508.509 0 .305-.203.508-.508.508zm12.188 0h-8.836c-.305 0-.508-.203-.508-.508s.203-.509.508-.509h8.836c.305 0 .508.204.508.509 0 .305-.305.508-.508.508zm12.189 0h-8.837c-.305 0-.508-.203-.508-.508s.203-.509.508-.509h8.837c.305 0 .508.204.508.509 0 .305-.305.508-.508.508zm9.04 0h-5.79c-.305 0-.508-.203-.508-.508s.203-.509.508-.509h5.79c.304 0 .507.204.507.509 0 .305-.203.508-.507.508z" fill="#FFFFFE"/><path d="M177.139 29.88h-14.017v14.025h14.017V29.88z" fill="#A6ADA8"/><path d="M175.819 31.201h-11.478v11.485h11.478V31.2z" fill="#F1F2F2"/><path d="M189.835 46.65h-4.672v4.674h4.672V46.65z" fill="#FFC107"/><path d="M166.068 67.992h-6.297v6.301h6.297v-6.301z" fill="#72E3D5"/><path d="M173.178 67.992h-6.298v6.301h6.298v-6.301z" fill="#F1F2F2"/><path d="M180.288 67.992h-6.298v6.301h6.298v-6.301zm-14.22 6.809h-6.297v6.302h6.297V74.8z" fill="#14D1BA"/><path d="M173.178 74.801h-6.298v6.302h6.298V74.8z" fill="#404142"/><path d="M180.288 74.801h-6.298v6.302h6.298V74.8zm-14.22 6.809h-6.297v6.302h6.297v-6.301z" fill="#FFC107"/><path d="M173.178 81.61h-6.298v6.302h6.298v-6.301z" fill="#F1F2F2"/><path d="M180.288 81.61h-6.298v6.302h6.298v-6.301z" fill="#72E3D5"/><path d="M178.561 47.462h-18.384a.437.437 0 0 1-.406-.406c0-.203.203-.407.406-.407h18.384c.203 0 .406.204.406.407a.437.437 0 0 1-.406.406z" fill="#E6E8E7"/><path d="M195.726 47.869h-3.148a.438.438 0 0 1-.407-.407c0-.203.204-.407.407-.407h3.148c.204 0 .407.204.407.407a.437.437 0 0 1-.407.407zm5.587 2.134h-8.735c-.203 0-.407-.203-.407-.406 0-.204.204-.407.407-.407h8.735c.203 0 .406.203.406.407 0 .304-.203.406-.406.406z" fill="#535151"/><path d="M213.806 55.39h-28.338a.437.437 0 0 1-.406-.407c0-.203.203-.406.406-.406h28.338c.203 0 .406.203.406.406s-.101.407-.406.407zm-20.111 2.032h-8.227a.437.437 0 0 1-.406-.406c0-.204.203-.407.406-.407h8.227c.203 0 .406.203.406.407 0 .305-.101.406-.406.406z" fill="#E6E8E7"/><path d="M188.515 59.76h-3.047a.437.437 0 0 1-.406-.407c0-.203.203-.407.406-.407h3.047c.203 0 .406.204.406.407 0 .305-.101.407-.406.407z" fill="#14D1BA"/><path d="M214.212 73.988H183.03v8.232h31.182v-8.232z" fill="#F1F2F2"/><path d="M189.835 76.224h-4.672V80.9h4.672v-4.675z" fill="#FFC107"/><path d="M195.726 77.444h-3.148a.438.438 0 0 1-.407-.407c0-.203.204-.406.407-.406h3.148c.204 0 .407.203.407.406a.437.437 0 0 1-.407.407zm5.587 2.134h-8.735a.438.438 0 0 1-.407-.407c0-.203.204-.406.407-.406h8.735c.203 0 .406.203.406.406 0 .305-.203.407-.406.407z" fill="#535151"/><path d="M213.806 84.964h-28.338a.437.437 0 0 1-.406-.406c0-.203.203-.407.406-.407h28.338c.203 0 .406.204.406.407 0 .203-.101.406-.406.406zm-20.111 2.033h-8.227a.437.437 0 0 1-.406-.407c0-.203.203-.406.406-.406h8.227c.203 0 .406.203.406.406 0 .204-.101.407-.406.407z" fill="#E6E8E7"/><path d="M188.515 89.335h-3.047a.437.437 0 0 1-.406-.407c0-.203.203-.406.406-.406h3.047c.203 0 .406.203.406.406s-.101.407-.406.407z" fill="#14D1BA"/><path d="M178.561 50.511h-18.384a.437.437 0 0 1-.406-.406c0-.203.203-.407.406-.407h18.384c.203 0 .406.203.406.407a.437.437 0 0 1-.406.406zm0 42.991h-18.384a.437.437 0 0 1-.406-.407c0-.203.203-.406.406-.406h18.384c.203 0 .406.203.406.406a.437.437 0 0 1-.406.407zm0 3.963h-18.384a.437.437 0 0 1-.406-.407c0-.203.203-.406.406-.406h18.384c.203 0 .406.203.406.406a.437.437 0 0 1-.406.407zm0 3.964h-18.384a.437.437 0 0 1-.406-.407c0-.203.203-.406.406-.406h18.384c.203 0 .406.203.406.406a.437.437 0 0 1-.406.407zm-6.704 3.964h-11.68c-.203 0-.406-.204-.406-.407 0-.203.203-.406.406-.406h11.68c.204 0 .407.203.407.406a.438.438 0 0 1-.407.407zm0-51.935h-11.68a.437.437 0 0 1-.406-.406c0-.203.203-.407.406-.407h11.68c.204 0 .407.203.407.407a.437.437 0 0 1-.407.406zm-.304 10.977h-11.071a.694.694 0 0 1-.711-.712c0-.406.304-.711.711-.711h11.071c.406 0 .711.305.711.711a.695.695 0 0 1-.711.712z" fill="#E6E8E7"/><path d="M188.007 68.297a.91.91 0 0 1-.914.915.91.91 0 0 1-.914-.915.91.91 0 0 1 .914-.915.91.91 0 0 1 .914.915z" fill="#14D1BA"/><path d="M172.67 39.23h-5.485c0-.711.609-1.321 1.32-1.321h2.743c.812 0 1.422.61 1.422 1.321z" fill="#FFC107"/><path d="M171.248 37.909h-2.743c-.406 0-.711.203-1.015.406.203.305.609.407 1.015.407h2.743c.406 0 .711-.203 1.016-.407-.204-.305-.61-.406-1.016-.406z" fill="#BF9105"/><path d="M173.686 42.685h-7.517v-.914c0-2.033 1.727-3.76 3.759-3.76 2.031 0 3.758 1.727 3.758 3.76v.914z" fill="#14D1BA"/><path d="M170.842 38.112v4.472h2.844v-.915c0-1.626-1.219-3.15-2.844-3.557zm-1.829 0v4.472h-2.844v-.915c0-1.626 1.219-3.15 2.844-3.557z" fill="#FFC107"/><path d="M169.928 40.551a.911.911 0 0 1-.915-.914v-1.931h1.829v1.93a.911.911 0 0 1-.914.915z" fill="#FFE2D7"/><path d="M169.928 37.706h-.915v1.93c0 .509.407.915.915.915v-2.845z" fill="#FFCEBD"/><path d="M169.826 32.116a2.255 2.255 0 0 0-2.235 2.236v2.032c0 .712.305 1.423.914 1.83.204.61.711 1.016 1.321 1.016.609 0 1.117-.406 1.32-.915.61-.406 1.016-1.118 1.016-1.829v-2.033c-.102-1.32-1.117-2.337-2.336-2.337z" fill="#FFCEBD"/><path d="M167.998 35.266c0 .203-.102.305-.305.305s-.305-.102-.305-.305.102-.305.305-.305c.101-.101.305.102.305.305zm4.367 0c0 .204-.101.305-.304.305-.204 0-.305-.101-.305-.305 0-.203.101-.305.305-.305.203 0 .304.102.304.305z" fill="#FFCEBD"/><path d="M170.334 33.742h-2.641a2.255 2.255 0 0 1 2.234-2.236h2.641c.102 1.22-.914 2.236-2.234 2.236z" fill="#212121"/><path d="M170.639 31.404v.204c0 1.117-.915 2.134-2.133 2.134h1.218c1.118 0 2.133-.915 2.133-2.134v-.204h-1.218z" fill="#575C57"/><path d="M168.506 42.076c-.102 0-.102 0-.102-.102v-3.252c0-.102 0-.102.102-.102.101 0 .101 0 .101.102v3.252c.102 0 0 .102-.101.102zm2.742 0c-.102 0-.102 0-.102-.102v-3.252c0-.102 0-.102.102-.102s.102 0 .102.102v3.252s0 .102-.102.102z" fill="#fff"/><path opacity=".4" d="M115.283 132.731c.101-.101.203-.101.305-.203l.203-.203s0-.102.101-.102c.102-.101.102-.101.102-.203 0 0 0-.102.101-.102 0-.101.102-.101.102-.203v-.813l-2.539-19.92c0-.406-.203-.813-.407-1.118l-5.383-9.553a5.909 5.909 0 0 0-2.641-2.338c-.609-.305-1.32-.406-2.133-.406h-5.586v-1.931a.437.437 0 0 0-.406-.407h-5.485V83.033a2.038 2.038 0 0 0-2.032-2.032H76.686v51.73h13.915c.61-.304 1.016-1.016 1.016-1.727V113.32H97c.203 0 .406-.204.406-.407v-4.065h.915l1.523 10.773c.203 1.219 1.219 1.626 2.438 1.626.914 0 1.828-.102 2.234-.915l1.829-5.285c.101-.406.711-.406.812 0l1.016 3.354-.305 3.253c-.101.609-.304 1.118-.711 1.524l-5.18 5.59a2.141 2.141 0 0 0-.203 2.541c.711 1.016 2.235 1.118 3.047.203l5.586-5.692 1.829 6.098c.101.509.508.813.914 1.118l2.133-.305z" fill="#231F20"/><path d="M87.25 132.731H60.942a2.038 2.038 0 0 1-2.032-2.032v-47.97c0-1.119.914-2.033 2.032-2.033h26.306c1.118 0 2.032.914 2.032 2.032V130.7a2.038 2.038 0 0 1-2.032 2.032z" fill="#404142"/><path d="M86.437 88.826H61.755v35.775h24.682V88.826z" fill="#FFC107"/><path d="M76.28 127.954a2.255 2.255 0 0 1-2.235 2.236 2.255 2.255 0 0 1-2.234-2.236 2.255 2.255 0 0 1 2.234-2.235c1.22.101 2.235 1.016 2.235 2.235zm2.133-42.888h-9.04a.694.694 0 0 1-.71-.712c0-.406.304-.71.71-.71h9.04c.406 0 .71.304.71.71a.694.694 0 0 1-.71.712z" fill="#231F20"/><path d="M93.648 97.16h7.11c1.93 0 3.759 1.016 4.673 2.744l5.383 9.553c.203.305.305.712.406 1.118l2.539 19.92c.102 1.118-.711 2.135-1.929 2.135-.813 0-1.626-.509-1.829-1.322l-5.18-16.871c-.101-.406-.711-.406-.812 0l-1.829 5.285c-.406.813-1.218.915-2.234.915-1.219 0-2.235-.407-2.438-1.626l-1.523-10.773h-2.337V97.16z" fill="#FFCEBD"/><path d="M104.516 99.904l5.384 9.553c.203.305.304.712.406 1.118l2.539 19.92c.102.915-.406 1.728-1.219 2.033.102.102.305.102.407.102 1.015-.102 1.828-1.017 1.625-2.135l-2.539-19.92c0-.406-.204-.813-.407-1.118l-5.383-9.553c-.914-1.728-2.742-2.744-4.672-2.744h-.914c2.031 0 3.859 1.016 4.773 2.744z" fill="#FFEBE5"/><path d="M105.837 117.791l-.305 3.252c-.101.61-.305 1.118-.711 1.525l-5.18 5.59a2.14 2.14 0 0 0-.203 2.541c.711 1.016 2.235 1.117 3.047.203l5.586-5.692-2.234-7.419z" fill="#BF9B8E"/><path opacity=".4" d="M61.755 112.913V97.567h27.12c.203 0 .406.203.406.406v17.379a.437.437 0 0 1-.407.407l-27.119-2.846z" fill="#231F20"/><path d="M61.755 112.913v-18.09h33.01c.204 0 .407.203.407.406v17.277a.437.437 0 0 1-.406.407h-33.01z" fill="#14D1BA"/><path d="M61.755 112.913v-5.996h33.417v5.488a.437.437 0 0 1-.406.406h-33.01v.102z" fill="#0F9C88"/><path d="M285.921 40.957v15.855a2.038 2.038 0 0 1-2.031 2.033h-29.963a2.038 2.038 0 0 1-2.032-2.033V40.957c0-1.117.914-2.032 2.032-2.032h29.963c1.117 0 2.031.915 2.031 2.032z" fill="#212121"/><path d="M280.538 40.754h-23.361v16.16h23.361v-16.16z" fill="#14D1BA"/><path d="M282.773 47.462c.812 0 1.422.61 1.422 1.423 0 .813-.61 1.423-1.422 1.423-.813 0-1.422-.61-1.422-1.423 0-.813.609-1.423 1.422-1.423zm-28.034-1.422v5.894c0 .305-.203.508-.508.508-.304 0-.507-.203-.507-.508v-5.895c0-.305.203-.508.507-.508.305 0 .508.203.508.508z" fill="#4D4D4D"/><path d="M284.601 66.467l-4.266-3.659-6.196-.508c-.203 0-.406-.101-.609-.101l-4.774-2.033s-.305-2.033 1.93-2.236h11.985c.813 0 1.422-.508 1.625-1.22.508-1.727 1.321-4.573 1.321-5.081 0-.407-1.828-9.655-1.828-9.655l-3.149-2.643h-4.571c-2.539 0-1.93-3.15-1.93-3.15l7.009-.61 6.602 5.082 3.961 10.671 2.844 15.143h-9.954z" fill="#FFCEBD"/><path d="M291.711 51.425l-3.961-10.67-6.602-5.083h-.915l6.501 5.082 3.961 10.672 2.844 15.041h1.016l-2.844-15.041z" fill="#FFE2D7"/><path d="M282.671 58.032h1.016c.812 0 1.422-.508 1.625-1.22.508-1.728 1.32-4.573 1.32-5.081 0-.407-1.828-9.656-1.828-9.656l-3.149-2.642h-1.015l3.148 2.642s1.829 9.249 1.829 9.655c0 .509-.813 3.354-1.321 5.082a1.646 1.646 0 0 1-1.625 1.22z" fill="#BF9B8E"/><path opacity=".3" d="M284.601 66.467h9.954l-.305-1.93h-11.985l2.336 1.93z" fill="#231F20"/><path d="M278.812 132.731V65.857c0-.203.203-.305.304-.305h16.963c.203 0 .304.204.304.305v66.874" fill="#14D1BA"/><path d="M279.116 65.552c-.203 0-.304.204-.304.305v66.874h6.906V65.552h-6.602z" fill="#0F9C88"/><path d="M277.085 55.39h1.828v-1.627m-18.181-11.484h-1.828v1.626" stroke="#fff" stroke-miterlimit="10"/><path opacity=".3" d="M274.546 56.914v-4.269c0-.203 0-.305-.102-.508 0-.102 0-.203-.101-.305 0-.101-.102-.305-.102-.406 0-.102-.102-.204-.102-.305 0-.102-.101-.305-.203-.407 0-.101-.101-.203-.101-.203-.102-.203-.203-.305-.203-.508 0 0 0-.102-.102-.102-.102-.203-.203-.406-.406-.61 0-.101-.102-.101-.102-.101-.101-.102-.203-.305-.305-.407l-.203-.203-.304-.305c0-.711-.305-1.321-.813-1.83-.102-.1-.203-.203-.305-.304l-.101-.102c-.102-.102-.203-.102-.407-.203 0 0-.101 0-.101-.102-.102-.101-.305-.101-.406-.101h-.204c.813-.813 1.219-1.931 1.219-3.151v-1.829a.694.694 0 0 0 .711-.712.694.694 0 0 0-.711-.711v-.305h-9.344v.305a.695.695 0 0 0-.711.711c0 .407.305.712.711.712v1.829c0 1.22.508 2.338 1.32 3.15h-.101c-.102 0-.305.102-.407.102 0 0-.101 0-.101.102-.102.102-.305.102-.406.203l-.102.102-.305.305a2.776 2.776 0 0 0-.812 1.93l-.203.204-.204.203c-.101.102-.203.305-.304.407 0 .101-.102.101-.102.203-.101.203-.203.407-.406.61 0 0 0 .101-.102.203-.101.203-.203.305-.203.508 0 .102-.101.203-.101.203-.102.102-.102.305-.204.407 0 .102-.101.203-.101.305 0 .102-.102.305-.102.407 0 .101 0 .203-.101.304 0 .204-.102.305-.102.508v4.269h15.947v-.203z" fill="#231F20"/><path d="M273.428 48.275h-11.376a2.84 2.84 0 0 1 2.844-2.846h5.79c1.422.102 2.742 1.321 2.742 2.846z" fill="#FFC107"/><path d="M270.584 45.531h-5.789c-.813 0-1.524.305-2.032.915.508.508 1.219.914 2.032.914h5.789c.813 0 1.524-.304 2.032-.914-.508-.61-1.219-.915-2.032-.915z" fill="#BF9105"/><path d="M275.561 56.914h-15.642V53.56c0-4.37 3.454-7.826 7.821-7.826 4.368 0 7.821 3.456 7.821 7.826v3.354z" fill="#ECECEC"/><path d="M269.67 46.04v10.874h5.891V53.56a7.747 7.747 0 0 0-5.891-7.52zm-3.859 0v10.874h-5.892V53.56a7.748 7.748 0 0 1 5.892-7.52z" fill="#FFC107"/><path d="M267.74 51.019a1.929 1.929 0 0 1-1.929-1.931v-4.065h3.859v4.065a1.929 1.929 0 0 1-1.93 1.931z" fill="#FFBBA1"/><path d="M267.639 45.023h-1.828v4.065c0 1.016.812 1.83 1.828 1.931v-5.996z" fill="#FFC9B4"/><path d="M267.639 33.437a4.661 4.661 0 0 0-4.672 4.675v4.268c0 1.525.711 2.846 1.828 3.76.305 1.22 1.422 2.033 2.742 2.033 1.219 0 2.235-.813 2.641-1.93 1.219-.814 2.133-2.236 2.133-3.863v-4.268c-.102-2.541-2.133-4.675-4.672-4.675z" fill="#FFBBA1"/><path opacity=".65" d="M269.772 42.177c-.305-.508-.914-.813-1.524-.813h-1.219c-.609 0-1.218.305-1.523.813h-2.539v.203c0 1.525.711 2.846 1.828 3.76.305 1.22 1.422 2.033 2.742 2.033 1.219 0 2.235-.813 2.641-1.93 1.219-.814 2.133-2.237 2.133-3.863v-.203h-2.539z" fill="#BF8C79"/><path d="M269.061 43.905c0 .305-.305.61-.61.61-.304 0-.609-.305-.609-.61s.305-.61.609-.61c.305 0 .61.305.61.61z" fill="#fff"/><path d="M263.576 39.941a.695.695 0 0 1-.711.712.695.695 0 0 1-.711-.712c0-.406.305-.711.711-.711.406 0 .711.305.711.711zm8.634.712a.712.712 0 1 0-.001-1.424.712.712 0 0 0 .001 1.424z" fill="#FFBBA1"/><path d="M267.943 40.043c.102.101.204.203.204.406 0 .305-.204.508-.508.508h-.102c.102.102.203.102.305.102.305 0 .508-.203.508-.508 0-.203-.203-.407-.407-.508z" fill="#CF9C89"/><path d="M266.826 38.315h-2.437v.406h2.437v-.406zm3.962 0h-2.438v.406h2.438v-.406z" fill="#212121"/><path d="M265.607 39.636a.305.305 0 1 0 0-.609.305.305 0 0 0 0 .61zm4.266-.305c0 .203-.101.305-.304.305-.204 0-.305-.102-.305-.305s.101-.305.305-.305c.203 0 .304.102.304.305z" fill="#404142"/><path d="M268.858 36.79h-5.688v-.203c0-2.439 2.031-4.472 4.469-4.472h5.688v.204c0 2.439-2.032 4.472-4.469 4.472z" fill="#212121"/><path d="M269.264 32.115v.305c0 2.44-1.93 4.37-4.368 4.37h2.54a4.337 4.337 0 0 0 4.367-4.37v-.305h-2.539z" fill="#575C57"/><path d="M264.896 54.17c-.101 0-.203-.102-.203-.204v-6.81c0-.1.102-.202.203-.202.102 0 .204.101.204.203v6.81c0 .1-.102.203-.204.203zm5.587 0a.218.218 0 0 1-.203-.204v-6.81c0-.1.101-.202.203-.202.101 0 .203.101.203.203v6.81c0 .1-.102.203-.203.203z" fill="#fff"/><path opacity=".4" d="M250.473 127.04v-3.659h-6.703V78.358l-5.181 5.082v12.907l-5.586 4.573h-.101a1.93 1.93 0 0 0-1.93 1.931v29.271c0 .304.101.508.203.711h5.586c5.079-.102 10.056-2.134 13.712-5.793zm38.394 4.167v-25.815c0-1.423-.203-2.236-.406-2.845v-.61a1.929 1.929 0 0 0-1.93-1.931h-.102l-2.133-1.728-2.234-1.83-2.032-1.727V78.256c0-1.016-.507-1.93-1.218-2.439v56.914h8.735l-.102-.101c.61-.102 1.422-.305 1.422-1.423z" fill="#231F20"/><path d="M236.355 132.528h46.519c1.727 0 3.047-1.321 3.047-3.049v-27.542a1.929 1.929 0 0 0-1.929-1.931h-48.653a1.93 1.93 0 0 0-1.93 1.931v27.746c.102 1.626 1.321 2.845 2.946 2.845z" fill="#FFA000"/><path d="M234.019 101.225l21.939-17.887c2.235-1.626 5.384-1.626 7.618 0l20.721 17.176-50.278.711z" fill="#FFA000"/><path opacity=".2" d="M271.803 123.686h-30.877l-4.266-24.595 4.57-3.76 30.573 3.963v24.392z" fill="#231F20"/><path opacity=".2" d="M246.512 122.772h30.979l4.266-24.494-4.672-3.76-30.573 3.862v24.392z" fill="#231F20"/><path d="M248.747 75.208l-7.72 7.419v40.958h36.363V78.257c0-1.728-1.422-3.05-3.047-3.05h-25.596z" fill="#F1F2F2"/><path opacity=".35" d="M248.34 81.915l-7.211 8.233v-7.521l7.211-.712z" fill="#231F20"/><path d="M248.747 75.208l-7.72 7.419h5.587a2.038 2.038 0 0 0 2.031-2.033v-5.386h.102z" fill="#14D1BA"/><path d="M235.035 132.63s20.212-14.127 20.212-15.448l-21.228-16.058s-.61 1.423-.61 4.167v25.814c.102 1.322.915 1.423 1.626 1.525zm49.769 0s-19.806-14.432-19.806-15.753l20.517-15.143s.813.813.813 3.557v25.814c0 1.322-.914 1.423-1.524 1.525z" fill="#FFC107"/><path d="M234.832 132.731l21.329-17.582a6.402 6.402 0 0 1 7.517 0l21.33 17.582h-50.176z" fill="#FFA000"/><path d="M264.185 101.632c-1.523.813-3.047 1.118-4.875 1.118-4.469 0-8.329-3.252-8.329-8.537 0-5.692 3.961-10.57 9.954-10.57 4.774 0 7.923 3.354 7.923 7.927 0 4.066-2.336 6.505-4.876 6.505-1.117 0-2.133-.712-2.031-2.44h-.102c-.914 1.627-2.234 2.44-3.859 2.44-1.626 0-2.946-1.321-2.946-3.456 0-3.353 2.641-6.504 6.501-6.504 1.218 0 2.234.203 2.945.61l-.914 4.98c-.406 2.134-.102 3.049.813 3.049 1.422 0 2.945-1.83 2.945-4.98 0-3.964-2.336-6.81-6.602-6.81-4.469 0-8.227 3.557-8.227 9.147 0 4.574 2.945 7.419 7.008 7.419 1.524 0 3.047-.305 4.165-.914l.507 1.016zm-1.523-11.79a3.98 3.98 0 0 0-1.321-.203c-2.437 0-4.367 2.236-4.367 4.98 0 1.22.609 2.135 1.828 2.135 1.625 0 3.047-2.033 3.352-3.76l.508-3.151z" fill="#14D1BA"/><path opacity=".4" d="M194.101 42.279v4.573c0 .305.305.61.61.61h29.252v-15.55h-29.252c-.305 0-.61.305-.61.61v4.574l-3.961 2.236c-.305.203-.305.61 0 .71l3.961 2.237z" fill="#231F20"/><path d="M191.765 37.807l3.962-2.236v-4.573c0-.305.304-.61.609-.61h45.707c.305 0 .609.305.609.61v14.33c0 .305-.304.61-.609.61h-45.707c-.305 0-.609-.305-.609-.61v-4.574l-3.962-2.236c-.304-.203-.304-.61 0-.711z" fill="#14D1BA"/><path d="M207.407 43.092h-7.313c-.711 0-1.219-.508-1.219-1.22v-7.317c0-.712.508-1.22 1.219-1.22h7.313c.711 0 1.219.508 1.219 1.22v7.317c0 .61-.508 1.22-1.219 1.22zm29.862-7.216h-24.174a.91.91 0 0 1-.914-.915.91.91 0 0 1 .914-.915h24.174a.91.91 0 0 1 .914.915.91.91 0 0 1-.914.915zm0 3.659h-24.174a.91.91 0 0 1-.914-.915.91.91 0 0 1 .914-.915h24.174a.91.91 0 0 1 .914.915.91.91 0 0 1-.914.915zm-8.126 3.658h-16.048a.91.91 0 0 1-.914-.914.91.91 0 0 1 .914-.915h16.048c.508 0 .915.407.915.915a.911.911 0 0 1-.915.914z" fill="#fff"/><path opacity=".4" d="M148.395 35.47h11.985c.305 0 .61-.306.61-.61v-4.574l3.961-2.236c.304-.203.304-.61 0-.711l-3.961-2.236v-4.574c0-.304-.305-.61-.61-.61h-11.985v15.55z" fill="#231F20"/><path d="M162.818 25.815l-3.961-2.236v-4.472c0-.305-.305-.61-.61-.61H112.54c-.304 0-.609.305-.609.61v14.228c0 .305.305.61.609.61h45.707c.305 0 .61-.305.61-.61v-4.573l3.961-2.236c.305-.102.305-.508 0-.711z" fill="#FFC107"/><path d="M147.074 31.1h7.313c.711 0 1.219-.509 1.219-1.22v-7.318c0-.711-.508-1.22-1.219-1.22h-7.313c-.711 0-1.219.509-1.219 1.22v7.318c0 .711.61 1.22 1.219 1.22zm-29.76-7.115h24.174a.91.91 0 0 0 .914-.915.91.91 0 0 0-.914-.915h-24.174a.91.91 0 0 0-.914.915.91.91 0 0 0 .914.915zm0 3.557h24.174a.91.91 0 0 0 .914-.914.91.91 0 0 0-.914-.915h-24.174a.91.91 0 0 0-.914.915.91.91 0 0 0 .914.914zm8.024 3.659h16.048a.911.911 0 0 0 .915-.915.911.911 0 0 0-.915-.914h-16.048a.91.91 0 0 0-.914.914.91.91 0 0 0 .914.915z" fill="#fff"/><path opacity=".4" d="M69.475 130.191v-24.799c0-1.321-1.118-2.439-2.438-2.439H60.13v-.508h1.32c.61 0 1.22-.508 1.22-1.219V89.335c0-.61-.509-1.22-1.22-1.22h-2.539v42.482c0 1.118.914 2.033 2.032 2.033h6.094c1.32.101 2.438-1.017 2.438-2.439z" fill="#231F20"/><path d="M64.294 132.731H26.916a2.623 2.623 0 0 1-2.64-2.642v-24.595c0-1.423 1.117-2.642 2.64-2.642h37.378a2.623 2.623 0 0 1 2.641 2.642v24.595c0 1.423-1.117 2.642-2.64 2.642z" fill="#fff"/><path d="M64.497 102.852h-1.93c1.32 0 2.438 1.118 2.438 2.439v24.9c0 1.321-1.117 2.439-2.438 2.439h1.93c1.32 0 2.438-1.118 2.438-2.439v-24.9c0-1.321-1.117-2.439-2.438-2.439z" fill="#D8D8D8"/><path d="M45.3 125.109H33.823V112.1c0-2.439 2.031-4.472 4.469-4.472h2.234c.813 0 1.422.61 1.422 1.423 1.829 0 3.352 1.525 3.352 3.354v12.704z" fill="#FFC107"/><path d="M41.949 109.051h-1.016c1.828 0 3.352 1.525 3.352 3.354v12.704H45.3v-12.704c0-1.829-1.523-3.354-3.351-3.354z" fill="#FF9800"/><path d="M46.824 130.089H32.299v-3.151a7.285 7.285 0 0 1 7.313-7.317 7.285 7.285 0 0 1 7.313 7.317v3.151h-.101z" fill="#14D1BA"/><path d="M32.3 126.634h14.524c-.203-3.862-3.352-6.81-7.313-6.81-3.86-.101-7.009 2.948-7.212 6.81z" fill="#FFBBA1"/><path d="M32.3 126.634h14.524c-.203-3.862-3.352-6.81-7.313-6.81-3.86-.101-7.009 2.948-7.212 6.81z" fill="#FFBBA1"/><path d="M46.824 126.634c-.203-3.862-3.352-6.81-7.313-6.81v2.033c0 1.524 1.015 2.947 2.437 3.354l4.876 1.423z" fill="#FFC9B4"/><path d="M40.425 118.706h-1.93v3.456h1.93v-3.456z" fill="#FFBBA1"/><path d="M40.323 118.706h-.812v3.456h.812v-3.456z" fill="#FFC9B4"/><path d="M40.831 119.621h-2.539a2.732 2.732 0 0 1-2.742-2.744V112.1a2.732 2.732 0 0 1 2.742-2.744h2.54a2.732 2.732 0 0 1 2.742 2.744v4.777a2.732 2.732 0 0 1-2.743 2.744z" fill="#FFBBA1"/><path d="M39.51 109.356c-.405 0-.71.102-1.015.102h.102c2.234 0 3.961 1.829 3.961 3.963v2.236c0 1.83-1.219 3.354-2.946 3.862 2.235 0 3.962-1.829 3.962-3.963v-2.236c0-2.134-1.829-3.964-4.063-3.964z" fill="#FFC9B4"/><path d="M38.901 112.202h-3.758v-2.846h6.602c0 1.626-1.218 2.846-2.844 2.846z" fill="#FFC107"/><path d="M39.003 111.694h-3.149c-.304 0-.609.305-.507.609l.203 1.525.101-1.525h3.25c1.423 0 2.641-1.118 2.844-2.439a2.926 2.926 0 0 1-2.742 1.83z" fill="#FF9800"/><path d="M36.159 115.048c0 .304-.305.609-.61.609-.304 0-.609-.305-.609-.609 0-.305.305-.61.61-.61.304 0 .609.305.609.61z" fill="#FFBBA1"/><path d="M44.183 115.048c0 .304-.304.609-.61.609-.304 0-.609-.305-.609-.609 0-.305.305-.61.61-.61s.61.305.61.61z" fill="#FFCEBD"/><path d="M40.831 117.588a.695.695 0 0 1-.71.712.695.695 0 0 1-.712-.712c0-.406.305-.711.711-.711.407 0 .711.305.711.711z" fill="#fff"/><path d="M39.612 115.759c-.203 0-.406-.203-.508-.407v.102c0 .305.204.508.508.508.305 0 .508-.203.508-.508v-.102c-.101.305-.304.407-.508.407z" fill="#CF9C89"/><path d="M37.987 115.962h-.914c-.61 0-1.015-.406-1.015-1.016v-.915c0-.61.406-1.016 1.015-1.016h.914c.61 0 1.016.406 1.016 1.016v.915c0 .508-.508 1.016-1.016 1.016z" fill="#14D1BA"/><path d="M36.26 115.657v-2.439h2.438v2.439h-2.437z" fill="#212121"/><path d="M36.26 114.844l1.626-1.626h-.914l-.711.711v.915zm0 .61l2.235-2.236h-.406l-1.828 1.829v.407z" fill="#fff"/><path d="M42.151 115.962h-.914c-.609 0-1.015-.406-1.015-1.016v-.915c0-.61.406-1.016 1.015-1.016h.914c.61 0 1.016.406 1.016 1.016v.915c0 .508-.508 1.016-1.016 1.016z" fill="#14D1BA"/><path d="M40.425 115.657v-2.439h2.438v2.439h-2.438z" fill="#212121"/><path d="M40.425 114.844l1.523-1.626h-.812l-.711.711v.915zm0 .61l2.234-2.236h-.406l-1.828 1.829v.407z" fill="#fff"/><path d="M40.323 113.625h-1.422v.406h1.422v-.406zm-4.164.203h-.61v.609h.61v-.609zm7.516 0h-.61v.609h.61v-.609z" fill="#14D1BA"/><path d="M59.013 130.089H43.776v-3.252c0-4.167 3.453-7.623 7.618-7.623 4.164 0 7.617 3.456 7.617 7.623v3.252z" fill="#FFC107"/><path d="M55.559 111.998h-8.227c-.711 0-1.22-.508-1.22-1.219v-1.118c0-.712.509-1.22 1.22-1.22h8.227c.71 0 1.219.508 1.219 1.22v1.118c0 .711-.508 1.219-1.22 1.219z" fill="#212121"/><path d="M51.395 123.584a1.821 1.821 0 0 1-1.829-1.829v-3.964h3.758v3.964c0 1.016-.812 1.829-1.93 1.829z" fill="#FFCEBD"/><path d="M53.324 121.755v-3.964h-1.32v5.692c.71-.204 1.32-.915 1.32-1.728z" fill="#FFD8CA"/><path d="M51.598 119.926h-.407a3.86 3.86 0 0 1-3.86-3.862v-5.489a4.076 4.076 0 0 1 4.064-4.065 4.076 4.076 0 0 1 4.062 4.065v5.59c0 2.033-1.726 3.761-3.86 3.761z" fill="#FFCEBD"/><path d="M51.395 106.51c-.61 0-1.22.102-1.727.407.305-.102.508-.102.813-.102a4.076 4.076 0 0 1 4.062 4.065v5.59a3.905 3.905 0 0 1-2.133 3.456c1.727-.305 3.048-1.931 3.048-3.761v-5.59a4.076 4.076 0 0 0-4.063-4.065z" fill="#FFD8CA"/><path d="M49.871 112.71c0 .203-.101.305-.305.305-.203 0-.304-.102-.304-.305 0-.204.101-.305.304-.305.102 0 .305.101.305.305zm3.657 0c0 .203-.102.305-.305.305s-.305-.102-.305-.305c0-.204.102-.305.305-.305s.305.101.305.305z" fill="#404142"/><path d="M51.395 114.844a.764.764 0 0 1-.711-.508v.102c0 .406.304.711.71.711a.694.694 0 0 0 .712-.711v-.102c-.102.203-.407.508-.711.508z" fill="#CF9C89"/><path d="M57.184 112.913a.911.911 0 0 1-.914.915.91.91 0 0 1-.914-.915.91.91 0 0 1 .914-.915.91.91 0 0 1 .914.915z" fill="#FFCEBD"/><path d="M55.458 115.657v-4.269h.812v3.354c0 .508-.406.915-.813.915z" fill="#212121"/><path d="M45.808 112.913a.91.91 0 0 0 .914.915.911.911 0 0 0 .914-.915.911.911 0 0 0-.914-.915c-.61 0-.914.407-.914.915z" fill="#FFCEBD"/><path d="M47.433 115.657v-4.269h-.812v3.354c-.102.508.304.915.812.915zm3.149-3.354H48.45c-.203 0-.304-.102-.304-.305s.101-.305.304-.305h2.133c.203 0 .305.102.305.305s-.203.305-.305.305zm3.657 0h-2.133c-.204 0-.305-.102-.305-.305s.101-.305.304-.305h2.134c.203 0 .304.102.304.305s-.101.305-.304.305z" fill="#212121"/><path d="M52.512 117.08c0 .61-.508 1.016-1.016 1.016-.61 0-1.016-.508-1.016-1.016h2.032z" fill="#fff"/><path d="M52.207 115.25h-1.523c-1.117 0-2.133.915-2.133 2.135v2.337c0 .915.71 1.626 1.625 1.626h2.438c.914 0 1.625-.711 1.625-1.626v-2.337c.101-1.22-.813-2.135-2.032-2.135zm.61 3.964h-2.743v-2.541h.305c.305 0 .61-.101.813-.305l.203-.203.203.203c.203.204.508.305.813.305h.406v2.541z" fill="#212121"/><path d="M52.106 119.722h-1.422v-.711c0-.407.304-.712.71-.712.407 0 .712.305.712.712v.711z" fill="#212121"/><path opacity=".3" d="M33.315 102.852c.102.508.61.813 1.117.813h16.76l5.992 4.878c.203.203.508.102.508-.203v-4.777h1.32c.508 0 .915-.305 1.118-.813H33.315v.102z" fill="#231F20"/><path d="M58.911 88.217c.61 0 1.219.508 1.219 1.22v11.89c0 .61-.508 1.22-1.219 1.22h-1.32v4.776c0 .204-.305.407-.508.204l-5.993-4.879H34.432c-.609 0-1.218-.508-1.218-1.219V89.335c0-.61.508-1.22 1.218-1.22h24.479v.102z" fill="#14D1BA"/><path d="M38.394 98.278v-5.996h1.32v4.879h2.54v1.219h-3.86v-.102zm9.852-.813c-.61.61-1.32.915-2.235.915-.914 0-1.625-.305-2.234-.915-.61-.61-.914-1.321-.914-2.236 0-.914.304-1.626.914-2.236.61-.61 1.32-.914 2.234-.914.915 0 1.626.305 2.235.914.61.61.914 1.322.914 2.236 0 .915-.304 1.626-.914 2.236zm-.508-2.236c0-.508-.203-1.016-.508-1.422-.304-.407-.812-.61-1.32-.61s-.914.203-1.32.61c-.305.406-.508.813-.508 1.422 0 .508.203 1.017.508 1.423.304.407.812.61 1.32.61s.914-.203 1.32-.61c.407-.406.508-.915.508-1.423zm2.539 3.049v-5.996h1.32v4.879h2.54v1.219h-3.86v-.102z" fill="#fff"/><path d="M249.864 5.488c0 3.049-2.438 5.386-5.384 5.386-3.047 0-5.383-2.439-5.383-5.386S241.535.101 244.48.101c2.946-.101 5.384 2.338 5.384 5.387z" fill="#FFC107"/><path d="M246.816 7.012c0 1.322-1.117 2.44-2.437 2.44-1.321 0-2.438-1.118-2.438-2.44h4.875z" fill="#14D1BA"/><path d="M242.042 4.98c-.101 0-.101 0-.203-.102-.101-.101-.101-.203 0-.305l.813-.61-.813-.61c-.101-.1-.101-.202 0-.304.102-.102.203-.102.305 0l1.219.915-1.219.914c0 .102-.102.102-.102.102zm4.774 0h-.101l-1.219-.915 1.219-.915c.101-.101.203-.101.305 0 .101.102.101.204 0 .305l-.813.61.813.61c.101.101.101.203 0 .305h-.204z" fill="#212121"/><path d="M244.277 7.012h-1.117V8.13h1.117V7.012zm1.524 0h-1.117V8.13h1.117V7.012z" fill="#fff"/><path d="M265.041 12.159a8.024 8.024 0 0 0-15.696-3.34 8.023 8.023 0 1 0 15.696 3.34z" fill="#FFC107"/><path opacity=".4" d="M251.794 7.419l-1.727 1.728v1.016c0 .406.101.711.305.915l3.656-3.659h-2.234zm-.204 4.167h.508l3.962-3.964V7.42h-1.118l-4.063 4.065c.305 0 .508.102.711.102zm8.532-4.167l-1.726 1.728v1.016c0 .406.101.711.304.915l3.657-3.659h-2.235zm-.203 4.167h.508l3.962-3.964V7.42h-1.118l-4.063 4.065c.204 0 .508.102.711.102z" fill="#fff"/><path d="M254.638 11.89h-3.149c-.914 0-1.727-.812-1.727-1.727V7.114h6.602v3.05c0 .914-.711 1.727-1.726 1.727zm-4.165-4.166v2.44c0 .609.508 1.117 1.118 1.117h3.148c.61 0 1.117-.508 1.117-1.118v-2.44h-5.383zm12.392 4.166h-3.149c-.914 0-1.726-.812-1.726-1.727V7.114h6.602v3.05c0 .914-.711 1.727-1.727 1.727zm-4.266-4.166v2.44c0 .609.508 1.117 1.117 1.117h3.149c.609 0 1.117-.508 1.117-1.118v-2.44h-5.383z" fill="#14D1BA"/><path d="M265.404 7.013h-16.15v.61h16.15v-.61z" fill="#14D1BA"/><path d="M260.326 13.924c0 1.117-1.422 2.032-3.149 2.032s-3.149-.915-3.149-2.032h6.298z" fill="#fff"/><path d="M261.037 8.74l-1.321.712c.102.406.407.711.813.711.406 0 .812-.406.812-.813 0-.305-.101-.508-.304-.61zm-7.313 0l1.32.712c-.101.406-.406.711-.812.711-.407 0-.813-.406-.813-.813 0-.305.102-.508.305-.61z" fill="#212121"/><path opacity=".3" d="M257.888 17.989v.406c4.063-.406 7.211-3.76 7.211-7.927v-.305c-3.961.305-7.211 3.659-7.211 7.826z" fill="#231F20"/><path d="M266.115 26.627a7.823 7.823 0 0 0 7.821-7.825 7.823 7.823 0 0 0-7.821-7.826 7.824 7.824 0 0 0-7.821 7.826 7.824 7.824 0 0 0 7.821 7.825z" fill="#FFC107"/><path d="M263.373 18.293a.813.813 0 1 0-.002-1.625.813.813 0 0 0 .002 1.625zm5.586 0a.813.813 0 1 0 0-1.626.813.813 0 0 0 0 1.626z" fill="#212121"/><path d="M264.795 21.343v2.439c0 .711.609 1.423 1.422 1.423.711 0 1.422-.61 1.422-1.423v-2.44h-2.844z" fill="#14D1BA"/><path d="M266.217 23.274c-.203 0-.305-.102-.305-.305v-1.525c0-.203.102-.305.305-.305s.304.102.304.305v1.525c0 .101-.101.305-.304.305z" fill="#212121"/><path d="M269.467 21.648h-6.602c-.203 0-.305-.102-.305-.305s.102-.305.305-.305h6.602c.203 0 .305.102.305.305s-.102.305-.305.305z" fill="#212121"/><path opacity=".3" d="M249.254 10.163v.305c0 4.268 3.352 7.724 7.517 7.927-.102-4.268-3.352-7.724-7.517-8.232z" fill="#231F20"/><path d="M250.685 27.197a8.334 8.334 0 0 0 5.077-10.634 8.326 8.326 0 0 0-10.627-5.08c-4.337 1.533-6.61 6.294-5.077 10.633a8.326 8.326 0 0 0 10.627 5.08z" fill="#FFC107"/><path d="M251.895 21.038c0 2.032-1.625 4.472-3.758 4.472a3.75 3.75 0 0 1-3.758-3.76l7.516-.712z" fill="#fff"/><path d="M244.887 23.477a3.717 3.717 0 0 0 3.25 1.93c1.524 0 2.742-1.219 3.352-2.642l-6.602.712zm2.336-6.301c0-.712-.609-1.321-1.32-1.321-.407 0-.711.101-.915.406-.203-.203-.609-.406-.914-.406-.711 0-1.32.61-1.32 1.32 0 .306.101.712.406.915l1.828 1.83 1.93-1.931.102-.102c.101-.203.203-.406.203-.711zm6.399 0c0-.712-.609-1.321-1.32-1.321-.407 0-.711.101-.915.406-.203-.203-.609-.406-.914-.406-.711 0-1.32.61-1.32 1.32 0 .306.101.712.406.915l1.828 1.83 1.93-1.931.102-.102c.101-.102.203-.406.203-.711z" fill="#14D1BA"/><path opacity=".3" d="M258.193 16.972a7.502 7.502 0 0 0-7.517 7.52c0 .916.203 1.729.407 2.542 3.047-1.22 5.281-4.269 5.281-7.724 0-.305 0-.61-.101-1.017.304 0 .609.102.914.102.406 0 .812 0 1.117-.102v.509c0 4.065 3.149 7.419 7.11 7.825a7.231 7.231 0 0 0 .305-2.134 7.502 7.502 0 0 0-7.516-7.52z" fill="#231F20"/><path d="M260.155 32.357a7.523 7.523 0 0 0 4.086-9.82 7.515 7.515 0 0 0-9.813-4.087 7.521 7.521 0 0 0-4.086 9.819 7.514 7.514 0 0 0 9.813 4.088z" fill="#FFC107"/><path d="M255.856 25.001c-.203 0-.304-.101-.304-.305a.911.911 0 0 0-.914-.914.911.911 0 0 0-.915.915c0 .203-.101.304-.304.304-.203 0-.305-.101-.305-.305 0-.813.711-1.524 1.524-1.524.812 0 1.523.711 1.523 1.524 0 .204-.203.305-.305.305zm5.282 0c-.203 0-.305-.101-.305-.305a.91.91 0 0 0-.914-.914.91.91 0 0 0-.914.915c0 .203-.102.304-.305.304s-.304-.101-.304-.305c0-.813.711-1.524 1.523-1.524.813 0 1.524.711 1.524 1.524 0 .204-.102.305-.305.305z" fill="#14D1BA"/><path d="M260.732 27.339c0 1.83-1.524 3.354-3.352 3.354-1.828 0-3.352-1.525-3.352-3.354h6.704z" fill="#fff"/><path d="M254.231 28.762c.508 1.118 1.727 1.93 3.047 1.93 1.321 0 2.54-.812 3.047-1.93h-6.094z" fill="#14D1BA"/><path d="M274.546 5.285c0 2.439-2.032 4.471-4.469 4.471-2.438 0-4.47-2.032-4.47-4.471 0-2.44 2.032-4.472 4.47-4.472 2.539 0 4.469 1.93 4.469 4.472z" fill="#FFC107"/><path d="M268.959 4.37s-.101 0-.101-.102a.49.49 0 0 0-.711 0c-.102.102-.203.102-.203 0-.102-.101-.102-.203 0-.203.203-.203.406-.305.609-.305.203 0 .508.102.609.305.102.102.102.203 0 .203-.101.102-.101.102-.203.102zm3.251 0s-.102 0-.102-.102a.49.49 0 0 0-.711 0c-.102.102-.203.102-.203 0-.102-.101-.102-.203 0-.203.203-.203.406-.305.609-.305.203 0 .508.102.61.305.101.102.101.203 0 .203-.102.102-.203.102-.203.102zm-1.524 2.744h-.508c-.101 0-.203-.102-.203-.203 0-.102.102-.203.203-.203h.508c.102 0 .203.101.203.203l-.203.203zm.102-.61l-.508-.305c-.102 0-.102-.203-.102-.203 0-.102.203-.102.203-.102l.508.305c.102 0 .102.204.102.204-.102.101-.102.101-.203.101zm-.508 1.423c-.102 0-.102 0-.203-.101 0-.102 0-.204.101-.204l.508-.305c.102 0 .203 0 .203.102s0 .203-.101.203l-.508.305c.101 0 .101 0 0 0zm1.32 0c-.305 0-.508-.508-.508-.914 0-.509.203-.915.508-.915s.508.508.508.915c0 .406-.203.914-.508.914zm0-1.524s-.101.203-.101.61c0 .406.101.61.203.61 0 0 .101-.204.101-.61 0-.407-.203-.61-.203-.61z" fill="#212121"/><path d="M273.937 6.708c-.102 0-.102 0 0 0l-.102-1.931c0-.102.102-.204.102-.204h.203l.609.509v.101h-.101l-.61-.508-.101 2.033c.101 0 0 0 0 0z" fill="#14D1BA"/><path d="M273.936 6.504c.102.305-.101.61-.406.712-.305.101-.711 0-.812-.305-.102-.305.101-.61.406-.712.406-.203.711 0 .812.305z" fill="#14D1BA"/><path d="M93.546 26.83h-.609c1.016 0 1.828-.914 1.727-2.032-.102-.813-.914-1.423-1.829-1.423h-7.821s.915-3.15.915-4.777c0-.406-.102-1.524-.102-2.134a1.539 1.539 0 0 0-1.523-1.321c-.712 0-1.422.508-1.524 1.321-.203 1.321-.508 3.15-1.117 3.964-.508.711-2.337 3.049-2.337 3.049h-2.945l-1.524 11.077h3.758c.407 0 .712.102 1.016.407l1.727 1.728c.305.305.711.508 1.219.508h7.313c.813 0 1.625-.61 1.828-1.423.203-1.118-.61-2.032-1.727-2.032h1.727c.813 0 1.625-.61 1.828-1.423.204-1.118-.609-2.033-1.726-2.033h1.828c1.016 0 1.828-.915 1.727-2.033a1.86 1.86 0 0 0-1.829-1.422z" fill="#fff"/><path d="M85.015 16.464c.101.61.101 1.83.101 2.134 0 1.728-.914 4.777-.914 4.777h.914s.914-3.15.914-4.777c0-.406-.101-1.524-.101-2.134a1.539 1.539 0 0 0-1.524-1.321c-.203 0-.304 0-.406.101.508.102.914.61 1.016 1.22z" fill="#D8D8D8"/><path opacity=".1" d="M76.483 24.391v10.062h2.336c.203 0 .406 0 .61.101v-11.18h-2.743l-.203 1.017z" fill="#404142"/><path d="M77.905 21.546H66.529v14.533h11.376V21.545z" fill="#FFC107"/><path d="M77.905 31.302H66.529v4.777h11.376v-4.777z" fill="#FFA000"/><path d="M91.719.406H72.217c-.914 0-1.625.712-1.625 1.626v10.57c0 .915.71 1.626 1.625 1.626h13.509l4.063 3.76c.203.204.61 0 .61-.203v-3.557h1.421c.914 0 1.625-.711 1.625-1.626V1.931c-.101-.813-.812-1.525-1.726-1.525z" fill="#14D1BA"/><path d="M89.585 3.76h-15.54c-.406 0-.813-.407-.813-.813v-.102c0-.406.407-.813.813-.813h15.54c.407 0 .813.407.813.813v.102a.801.801 0 0 1-.813.813zm0 3.15h-15.54c-.406 0-.813-.406-.813-.812v-.102c0-.406.407-.813.813-.813h15.54c.407 0 .813.407.813.813v.102a.801.801 0 0 1-.813.813zm0 3.151h-9.141c-.406 0-.813-.406-.813-.813v-.101c0-.407.407-.813.813-.813h9.141c.407 0 .813.406.813.813v.101a.801.801 0 0 1-.813.813z" fill="#fff"/><path opacity=".4" d="M29.05 132.63c1.624-.305 2.843-1.423 2.843-2.541v-11.485h-7.516v2.643h6.297v7.317c-.61-.304-1.523-.406-2.336-.203-1.727.305-3.047 1.525-2.844 2.744.203 1.118 1.829 1.83 3.555 1.525z" fill="#231F20"/><path d="M22.142 129.885c.204 1.22-1.015 2.44-2.843 2.744-1.727.305-3.352-.406-3.556-1.626-.203-1.219 1.016-2.439 2.844-2.744 1.727-.406 3.352.407 3.555 1.626z" fill="#212121"/><path d="M20.213 129.479c.101.712-.61 1.322-1.524 1.525-1.016.203-1.93-.203-2.031-.915-.102-.711.609-1.321 1.523-1.524 1.016-.102 1.93.305 2.032.914z" fill="#7A7A7A"/><path d="M30.37 129.885c.203 1.22-1.016 2.44-2.844 2.744-1.727.305-3.352-.406-3.555-1.626-.203-1.219 1.015-2.439 2.844-2.744 1.726-.406 3.352.407 3.555 1.626zm-8.837.712c-.305 0-.61-.305-.61-.61v-10.366c0-.305.305-.61.61-.61s.61.305.61.61v10.366c0 .407-.204.61-.61.61z" fill="#212121"/><path d="M29.76 130.597c-.304 0-.61-.305-.61-.61v-10.366c0-.305.306-.61.61-.61.305 0 .61.305.61.61v10.366c0 .407-.305.61-.61.61z" fill="#212121"/><path d="M30.37 118.604h-9.446v2.643h9.446v-2.643z" fill="#212121"/><path d="M28.338 129.784c.102.712-.61 1.321-1.523 1.525-1.016.203-1.93-.204-2.032-.915-.101-.711.61-1.321 1.524-1.525 1.016-.203 1.93.204 2.031.915z" fill="#7A7A7A"/><path opacity=".4" d="M290.187 103.97h5.688l.407.406V91.672h-6.196a1.93 1.93 0 0 0-1.93 1.931v8.436c.102 1.016 1.016 1.931 2.031 1.931zm6.196 7.622h-1.828a2.038 2.038 0 0 0-2.032 2.032v17.38c0 .711.407 1.321.915 1.727h2.945v-21.139z" fill="#231F20"/><path d="M306.033 93.298v8.436a1.93 1.93 0 0 1-1.93 1.931h-.914v4.573c0 .204-.204.305-.407.102l-4.875-4.675h-5.688a1.929 1.929 0 0 1-1.93-1.931v-8.436a1.93 1.93 0 0 1 1.93-1.93h11.884c1.015 0 1.93.914 1.93 1.93z" fill="#FFC107"/><path d="M293.54 95.331h9.242c.407 0 .61-.305.61-.61 0-.406-.305-.61-.61-.61h-9.242c-.407 0-.61.306-.61.61-.101.305.203.61.61.61zm0 2.541h9.242c.407 0 .61-.305.61-.61 0-.406-.305-.61-.61-.61h-9.242c-.407 0-.61.305-.61.61-.101.305.203.61.61.61zm3.758 2.541h5.484c.407 0 .61-.305.61-.61 0-.406-.305-.61-.61-.61h-5.484c-.407 0-.61.305-.61.61s.305.61.61.61z" fill="#fff"/><path d="M331.121 113.32v17.379a2.037 2.037 0 0 1-2.032 2.032h-32.502a2.037 2.037 0 0 1-2.032-2.032V113.32c0-1.118.914-2.033 2.032-2.033h32.502c1.118 0 2.032.915 2.032 2.033z" fill="#404142"/><path d="M325.433 113.32h-25.19v17.379h25.19V113.32z" fill="#FFC107"/><path d="M327.769 120.434c.812 0 1.523.711 1.523 1.524 0 .813-.711 1.525-1.523 1.525-.813 0-1.524-.712-1.524-1.525s.711-1.524 1.524-1.524zm-30.167-1.524v6.402c0 .305-.203.509-.508.509-.304 0-.508-.204-.508-.509v-6.402c0-.305.204-.509.508-.509.305 0 .508.204.508.509z" fill="#231F20"/><path opacity=".3" d="M315.073 114.844c.203 0 .406 0 .507-.101 1.829-.407 3.251-1.728 3.759-3.456h-13.916v7.724c-.203.203-.406.407-.508.61a15.59 15.59 0 0 0-1.117 1.626c-.812 1.525-1.219 3.151-1.219 4.98v4.472h20.822v-4.472c0-2.947-1.218-5.691-3.25-7.622l-.203-.204-.406-.406c-.102-.102-.203-.203-.305-.203-.203-.102-.305-.204-.508-.305-.101-.102-.203-.102-.305-.204-.203-.101-.304-.203-.507-.304-.102-.102-.305-.102-.407-.204-.203-.101-.304-.203-.508-.203-.101-.102-.304-.102-.406-.203-.203-.102-.305-.102-.508-.204-.203-.101-.304-.101-.508-.101-.101 0-.304-.102-.406-.102-.203 0-.406-.101-.609-.101-.102 0-.203 0-.407-.102v-.712c.204 0 .508-.101.915-.203z" fill="#231F20"/><path d="M322.792 130.699h-19.806v-4.269c0-5.488 4.469-9.858 9.852-9.858 5.485 0 9.852 4.472 9.852 9.858v4.269h.102z" fill="#14D1BA"/><path d="M319.643 119.215c-1.726-1.627-4.164-2.643-6.805-2.643-5.485 0-9.852 4.472-9.852 9.858v2.541l16.657-9.756z" fill="#FFCEBD"/><path d="M313.955 113.93h-2.844v6.606h2.844v-6.606z" fill="#FFCEBD"/><path d="M313.346 120.536h-.813v-6.606h1.422v6.098c-.101.305-.304.508-.609.508z" fill="#FFE2D7"/><path d="M319.237 110.982v-5.793c0-3.658-3.047-6.707-6.704-6.707-3.656 0-6.703 3.049-6.703 6.707v10.468h8.735a4.66 4.66 0 0 0 4.672-4.675z" fill="#F9C000"/><path d="M312.533 98.482h-.508c3.454.203 6.196 3.15 6.196 6.707v5.793a4.66 4.66 0 0 1-4.672 4.675h.914a4.66 4.66 0 0 0 4.672-4.675v-5.793c.102-3.658-2.945-6.707-6.602-6.707z" fill="#FFB333"/><path d="M318.424 110.678a1.016 1.016 0 1 0 0-2.033 1.016 1.016 0 0 0 0 2.033z" fill="#FFE2D7"/><path d="M305.728 130.699v-23.274h5.282v17.989c.101 2.947-2.336 5.285-5.282 5.285z" fill="#FFC107"/><path d="M309.689 107.425v17.989c0 2.439-1.726 4.574-3.961 5.082v.203a5.247 5.247 0 0 0 5.282-5.285v-17.989h-1.321z" fill="#FFCD39"/><path d="M312.533 116.166c-3.25 0-5.992-2.643-5.992-5.997v-5.488c0-1.829 1.523-3.354 3.351-3.354h5.181c1.828 0 3.351 1.525 3.351 3.354v5.488c0 3.354-2.64 5.997-5.891 5.997z" fill="#FFCEBD"/><path d="M315.073 101.327h-1.118c1.829 0 3.352 1.525 3.352 3.354v5.488c0 3.049-2.336 5.59-5.383 5.895h.609c3.251 0 5.993-2.642 5.993-5.996v-5.488c-.102-1.728-1.625-3.253-3.453-3.253z" fill="#FFE2D7"/><path d="M307.556 109.661c0 .508-.406 1.017-1.015 1.017a1.019 1.019 0 0 1-1.016-1.017c0-.508.406-1.016 1.016-1.016.507 0 1.015.508 1.015 1.016z" fill="#FFCEBD"/><path d="M319.237 105.189h-13.306a6.591 6.591 0 0 1 6.602-6.606c3.657 0 6.704 2.846 6.704 6.606z" fill="#FFC107"/><path d="M311.213 107.629h-2.336c-.102 0-.102-.102-.102-.102 0-.102.102-.102.102-.102h2.336c.101 0 .101.102.101.102.102 0 0 .102-.101.102zm4.774.101h-2.336c-.102 0-.102-.101-.102-.101 0-.102.102-.102.102-.102h2.336c.101 0 .101.102.101.102.102 0 0 .101-.101.101z" fill="#212121"/><path d="M310.502 108.34a.437.437 0 0 1-.406.406c-.203 0-.407-.203-.407-.406s.204-.407.407-.407c.203.102.406.204.406.407zm4.774 0a.437.437 0 0 1-.407.406.437.437 0 0 1-.406-.406c0-.203.203-.407.406-.407.204.102.407.204.407.407z" fill="#404142"/><path d="M312.533 111.084c-.304 0-.609-.203-.711-.61v.203c0 .407.305.712.711.712a.694.694 0 0 0 .711-.712v-.203c-.101.407-.406.61-.711.61z" fill="#CF9C89"/><path d="M315.276 112.303a2.733 2.733 0 0 1-2.743 2.745 2.732 2.732 0 0 1-2.742-2.745h5.485z" fill="#fff"/><path d="M317.916 88.928a.801.801 0 0 0-.812.813v7.927a.8.8 0 0 0 .812.813h.914v3.151c0 .203.204.203.305.102l3.961-3.252h11.173a.802.802 0 0 0 .813-.814v-7.927a.802.802 0 0 0-.813-.813h-16.353z" fill="#14D1BA"/><path d="M331.628 91.672h-11.274a.695.695 0 0 1-.711-.711c0-.407.305-.712.711-.712h11.274c.407 0 .711.305.711.712a.694.694 0 0 1-.711.711zm0 2.541h-11.274a.695.695 0 0 1-.711-.712c0-.406.305-.711.711-.711h11.274c.407 0 .711.305.711.711a.694.694 0 0 1-.711.712zm0 2.541h-11.274a.695.695 0 0 1-.711-.712c0-.406.305-.711.711-.711h11.274c.407 0 .711.305.711.711a.694.694 0 0 1-.711.712z" fill="#fff"/></svg>